<svg width="24" height="24" viewBox="0 0 24 24" xmlns="http://www.w3.org/2000/svg">
<path d="M12.7201 2.02958C6.63007 1.59958 1.60007 6.62958 2.03007 12.7196C2.39007 18.0096 7.01007 21.9996 12.3101 21.9996H16.0001C16.5501 21.9996 17.0001 21.5496 17.0001 20.9996C17.0001 20.4496 16.5501 19.9996 16.0001 19.9996H12.3301C8.60007 19.9996 5.18007 17.5796 4.25007 13.9696C2.76007 8.16958 8.16007 2.75958 13.9601 4.25958C17.5801 5.17958 20.0001 8.59958 20.0001 12.3296V13.4296C20.0001 14.2196 19.2901 14.9996 18.5001 14.9996C17.7101 14.9996 17.0001 14.2196 17.0001 13.4296V12.1796C17.0001 9.66958 15.2201 7.40958 12.7401 7.05958C9.34007 6.56958 6.47007 9.50958 7.08007 12.9296C7.42007 14.8396 8.91007 16.4196 10.8001 16.8696C12.6401 17.2996 14.3901 16.7096 15.5401 15.5396C16.4301 16.7596 18.2101 17.3996 19.8401 16.7496C21.1801 16.2196 22.0001 14.8496 22.0001 13.4096V12.3196C22.0001 7.00958 18.0101 2.38958 12.7201 2.02958ZM12.0001 14.9996C10.3401 14.9996 9.00007 13.6596 9.00007 11.9996C9.00007 10.3396 10.3401 8.99958 12.0001 8.99958C13.6601 8.99958 15.0001 10.3396 15.0001 11.9996C15.0001 13.6596 13.6601 14.9996 12.0001 14.9996Z" fill="currentColor"/>
</svg>
