<svg width="14" height="14" viewBox="0 0 14 14" xmlns="http://www.w3.org/2000/svg">
<path fill-rule="evenodd" clip-rule="evenodd" d="M7.00058 0.961426C5.26242 0.961426 5.04429 0.969026 4.36161 1.00009C3.68027 1.03129 3.2152 1.13916 2.80827 1.29743C2.38733 1.4609 2.03026 1.67957 1.67452 2.03544C1.31852 2.39117 1.09985 2.74824 0.935846 3.16905C0.777177 3.57612 0.669176 4.04132 0.638509 4.7224C0.607976 5.40507 0.599976 5.62334 0.599976 7.36149C0.599976 9.09964 0.607709 9.31711 0.638643 9.99979C0.669976 10.6811 0.777844 11.1462 0.935979 11.5531C1.09958 11.9741 1.31825 12.3311 1.67412 12.6869C2.02972 13.0429 2.38679 13.2621 2.80747 13.4256C3.21467 13.5838 3.67987 13.6917 4.36108 13.7229C5.04376 13.754 5.26176 13.7616 6.99978 13.7616C8.73806 13.7616 8.95553 13.754 9.6382 13.7229C10.3195 13.6917 10.7851 13.5838 11.1924 13.4256C11.6132 13.2621 11.9697 13.0429 12.3253 12.6869C12.6813 12.3311 12.9 11.9741 13.064 11.5533C13.2213 11.1462 13.3293 10.681 13.3613 9.99992C13.392 9.31725 13.4 9.09964 13.4 7.36149C13.4 5.62334 13.392 5.4052 13.3613 4.72253C13.3293 4.04119 13.2213 3.57612 13.064 3.16918C12.9 2.74824 12.6813 2.39117 12.3253 2.03544C11.9693 1.67943 11.6133 1.46076 11.192 1.29743C10.7839 1.13916 10.3186 1.03129 9.63727 1.00009C8.9546 0.969026 8.73726 0.961426 6.99858 0.961426H7.00058ZM6.42641 2.11475C6.59681 2.11449 6.78695 2.11475 7.00055 2.11475C8.70937 2.11475 8.9119 2.12089 9.58671 2.15155C10.2107 2.18009 10.5494 2.28435 10.775 2.37196C11.0737 2.48796 11.2866 2.62663 11.5105 2.85063C11.7345 3.07463 11.8731 3.28797 11.9894 3.58664C12.077 3.81197 12.1814 4.15064 12.2098 4.77465C12.2405 5.44932 12.2471 5.65199 12.2471 7.36001C12.2471 9.06803 12.2405 9.27069 12.2098 9.94537C12.1813 10.5694 12.077 10.908 11.9894 11.1334C11.8734 11.4321 11.7345 11.6447 11.5105 11.8686C11.2865 12.0926 11.0738 12.2313 10.775 12.3473C10.5497 12.4353 10.2107 12.5393 9.58671 12.5678C8.91203 12.5985 8.70937 12.6051 7.00055 12.6051C5.2916 12.6051 5.08906 12.5985 4.41439 12.5678C3.79038 12.539 3.45171 12.4347 3.22598 12.3471C2.92731 12.2311 2.71397 12.0925 2.48997 11.8685C2.26597 11.6445 2.1273 11.4317 2.01103 11.1328C1.92343 10.9075 1.81903 10.5688 1.79063 9.94484C1.75996 9.27016 1.75383 9.06749 1.75383 7.35841C1.75383 5.64932 1.75996 5.44772 1.79063 4.77305C1.81916 4.14904 1.92343 3.81037 2.01103 3.58477C2.12703 3.2861 2.26597 3.07276 2.48997 2.84876C2.71397 2.62476 2.92731 2.48609 3.22598 2.36982C3.45158 2.28182 3.79038 2.17782 4.41439 2.14915C5.00479 2.12249 5.2336 2.11449 6.42641 2.11315V2.11475ZM10.4169 3.17743C9.99285 3.17743 9.64885 3.52104 9.64885 3.94517C9.64885 4.36918 9.99285 4.71318 10.4169 4.71318C10.8409 4.71318 11.1849 4.36918 11.1849 3.94517C11.1849 3.52117 10.8409 3.17743 10.4169 3.17743ZM7.00059 4.07477C5.1855 4.07477 3.71389 5.54639 3.71389 7.36147C3.71389 9.17656 5.1855 10.6475 7.00059 10.6475C8.81567 10.6475 10.2868 9.17656 10.2868 7.36147C10.2868 5.54639 8.81567 4.07477 7.00059 4.07477ZM7.00056 5.22812C8.17871 5.22812 9.13392 6.1832 9.13392 7.36147C9.13392 8.53962 8.17871 9.49483 7.00056 9.49483C5.82228 9.49483 4.86721 8.53962 4.86721 7.36147C4.86721 6.1832 5.82228 5.22812 7.00056 5.22812Z" fill="currentColor"/>
</svg>
