<svg width="20" height="20" viewBox="0 0 20 20" xmlns="http://www.w3.org/2000/svg">
<path d="M8.358 15V13.096H7.14V12.186H8.358V10.94H7.14V9.876H8.358V5.004H10.99C12.2127 5.004 13.118 5.25133 13.706 5.746C14.3033 6.24067 14.602 6.95933 14.602 7.902C14.602 8.854 14.28 9.60067 13.636 10.142C12.992 10.674 12.0447 10.94 10.794 10.94H9.618V12.186H11.928V13.096H9.618V15H8.358ZM10.612 9.876C11.4613 9.876 12.1193 9.736 12.586 9.456C13.062 9.176 13.3 8.672 13.3 7.944C13.3 7.30933 13.104 6.838 12.712 6.53C12.32 6.222 11.7087 6.068 10.878 6.068H9.618V9.876H10.612Z" fill="currentColor"/>
<circle cx="10" cy="10" r="9" stroke="currentColor" stroke-width="2" fill="none" />
</svg>
