<svg width="24" height="24" viewBox="0 0 24 24" xmlns="http://www.w3.org/2000/svg">
<path fill-rule="evenodd" clip-rule="evenodd" d="M2.99978 6.5C2.99972 5.80893 3.20425 5.13331 3.58758 4.5583C3.97091 3.98328 4.51589 3.53462 5.15382 3.26886C5.79175 3.0031 6.49407 2.93214 7.17227 3.06493C7.85047 3.19771 8.47418 3.52829 8.96478 4.015L9.37178 4.419L9.92678 4.271C11.2839 3.90633 12.7131 3.90556 14.0706 4.26878C15.4282 4.63201 16.666 5.3464 17.6597 6.34007C18.6534 7.33375 19.3678 8.57163 19.731 9.92914C20.0942 11.2866 20.0935 12.7159 19.7288 14.073L19.5808 14.628L19.9848 15.035C20.6412 15.6914 21.01 16.5817 21.01 17.51C21.01 18.4383 20.6412 19.3286 19.9848 19.985C19.3284 20.6414 18.4381 21.0102 17.5098 21.0102C16.5815 21.0102 15.6912 20.6414 15.0348 19.985L14.6278 19.581L14.0728 19.729C12.7156 20.0939 11.2862 20.0948 9.92857 19.7317C8.57091 19.3686 7.33287 18.6542 6.33906 17.6605C5.34525 16.6668 4.63076 15.4288 4.26749 14.0712C3.90423 12.7136 3.90502 11.2842 4.26978 9.927L4.41778 9.372L4.01378 8.965C3.3626 8.3101 2.99791 7.42355 2.99978 6.5ZM6.49978 1C5.46289 1.00005 4.44714 1.29319 3.56967 1.84563C2.69221 2.39808 1.98878 3.1873 1.54052 4.12229C1.09226 5.05728 0.917434 6.09993 1.0362 7.13C1.15497 8.16006 1.5625 9.13557 2.21178 9.944C2.07056 10.6202 1.99952 11.3092 1.99978 12C1.99978 17.523 6.47678 22 11.9998 22C12.7038 22 13.3918 21.927 14.0558 21.788C15.1125 22.6362 16.4452 23.0645 17.7983 22.9907C19.1514 22.9169 20.4295 22.3461 21.3877 21.388C22.3459 20.4298 22.9166 19.1516 22.9905 17.7985C23.0643 16.4454 22.636 15.1128 21.7878 14.056C21.9278 13.392 21.9998 12.704 21.9998 12C21.9998 6.477 17.5228 2 11.9998 2C11.2958 2 10.6078 2.073 9.94378 2.212C8.96807 1.42621 7.75257 0.998459 6.49978 1ZM10.6418 9.33C10.7748 9.077 11.2288 8.75 11.9318 8.75C13.1388 8.75 13.8038 9.222 14.1098 9.456C14.3206 9.61699 14.5868 9.68762 14.8497 9.65237C15.1126 9.61711 15.3508 9.47885 15.5118 9.268C15.6728 9.05716 15.7434 8.79099 15.7081 8.52807C15.6729 8.26514 15.5346 8.02699 15.3238 7.866C14.8338 7.492 13.7468 6.75 11.9318 6.75C10.6638 6.75 9.42478 7.344 8.82378 8.49C8.61982 8.87187 8.51959 9.30057 8.5331 9.73328C8.54661 10.166 8.67339 10.5876 8.90078 10.956C9.32978 11.669 10.0728 12.178 10.9488 12.414L12.5028 12.832C13.1008 12.993 14.0098 13.549 13.6828 14.298C13.4848 14.75 12.7858 15.25 11.7558 15.25C10.8658 15.25 10.0798 15.096 9.35578 14.544C9.14468 14.3868 8.8801 14.3191 8.61943 14.3557C8.35877 14.3923 8.12304 14.5302 7.96339 14.7395C7.80373 14.9487 7.73303 15.2125 7.76661 15.4736C7.8002 15.7346 7.93536 15.9719 8.14278 16.134C9.11278 16.874 10.1198 17.25 11.5348 17.25C13.1138 17.25 14.8368 16.652 15.5148 15.1C15.9148 14.185 15.7828 13.226 15.2848 12.457C14.5158 11.273 13.1938 10.93 11.9128 10.599C11.7646 10.5608 11.6166 10.5218 11.4688 10.482C10.9428 10.341 10.3288 9.929 10.6418 9.33Z" fill="currentColor"/>
</svg>
