<svg width="25" height="22" viewBox="0 0 25 22" xmlns="http://www.w3.org/2000/svg">
<path d="M25 1.17956C24.8845 1.71632 24.769 2.25307 24.6535 2.78982C23.9769 6.30312 23.3003 9.81642 22.6238 13.3134C22.1287 15.8834 21.6337 18.437 21.1387 21.0069C21.0561 21.4298 20.9076 21.7714 20.4786 21.934C20.0991 22.0804 19.769 21.9666 19.439 21.7551C17.4918 20.4539 15.5281 19.1527 13.581 17.8352C13.3334 17.6725 13.1849 17.6725 12.9539 17.8515C11.9803 18.5671 11.0067 19.2503 10.0331 19.9334C9.27407 20.4702 8.56451 20.2099 8.31699 19.3153C7.78894 17.331 7.24439 15.3466 6.73284 13.3622C6.68334 13.1996 6.61733 13.1183 6.46882 13.0695C4.57115 12.3538 2.67348 11.6381 0.775803 10.9225C0.165248 10.6947 -0.0987761 10.2718 0.0332358 9.71883C0.132245 9.34472 0.396269 9.13328 0.7428 8.98689C2.60747 8.25495 4.48864 7.52302 6.35331 6.79108C12.0298 4.59527 17.7228 2.36693 23.4159 0.138584C23.6634 0.0409927 23.9439 -0.0240684 24.1914 0.00846215C24.6205 0.0409927 24.8515 0.366298 25 0.740399C25 0.886786 25 1.03317 25 1.17956ZM11.5348 14.1267C14.175 15.8834 16.7823 17.64 19.4225 19.3967C20.4291 14.1918 21.4357 9.01942 22.4258 3.84706C22.4093 3.84706 22.3928 3.8308 22.3763 3.8308C18.7789 7.26277 15.1651 10.6785 11.5348 14.1267ZM8.94404 14.0129C9.10906 13.8014 9.25757 13.59 9.43909 13.411C12.7559 10.2556 16.0727 7.11638 19.3895 3.96092C19.4555 3.89586 19.538 3.8308 19.6205 3.76574C19.604 3.74947 19.5875 3.73321 19.5875 3.71694C14.307 5.78263 9.04305 7.84832 3.71307 9.94654C3.81208 9.99533 3.87808 10.0116 3.92759 10.0279C5.1982 10.4996 6.45232 10.9875 7.72293 11.4592C8.13547 11.6056 8.3995 11.8821 8.4985 12.305C8.63052 12.9068 8.79553 13.4761 8.94404 14.0129ZM9.91763 17.64C10.4787 17.2496 10.9902 16.8755 11.5348 16.5014C10.7427 15.9647 9.98364 15.4605 9.19157 14.9237C9.42259 15.8183 9.67011 16.7129 9.91763 17.64Z" fill="currentColor"/>
</svg>
