<svg width="24" height="24" viewBox="0 0 24 24" xmlns="http://www.w3.org/2000/svg">
<path fill-rule="evenodd" clip-rule="evenodd" d="M14.8499 5.65787C14.3931 5.65768 13.9419 5.75892 13.5289 5.95429C13.116 6.14965 12.7515 6.43427 12.4619 6.78759C12.1723 7.14091 11.9648 7.55412 11.8543 7.99739C11.7438 8.44067 11.7331 8.90295 11.8229 9.35087C11.8539 9.50607 11.8475 9.66639 11.8044 9.81866C11.7613 9.97094 11.6827 10.1108 11.575 10.2268C11.4674 10.3428 11.3337 10.4315 11.1851 10.4858C11.0364 10.54 10.877 10.5582 10.7199 10.5389C8.56965 10.2747 6.54264 9.39082 4.88592 7.99487C4.91692 8.59687 5.12591 9.23687 5.57891 9.90687L6.25791 10.9109L5.14292 11.3859L4.92791 11.4779C5.08791 11.6609 5.27991 11.8479 5.49491 12.0329C5.78233 12.2789 6.08639 12.5047 6.40491 12.7089L6.41591 12.7159H6.41691L7.96491 13.6549L6.34491 14.4649C6.26491 14.5049 6.18491 14.5409 6.10491 14.5729C6.45325 14.8623 6.837 15.1063 7.24691 15.2989L8.63691 15.9559L7.47291 16.9599C6.83791 17.5079 6.19891 17.9169 5.36991 18.1329C6.64135 18.8101 8.06036 19.1629 9.50091 19.1599C14.3069 19.1599 18.1769 15.3249 18.1769 10.6259V10.1059L18.6019 9.80687C19.2659 9.34087 19.7349 8.71087 20.0709 7.98987H17.9109L17.6389 7.41987C17.3884 6.89254 16.9935 6.44707 16.5 6.13518C16.0065 5.82329 15.4347 5.65778 14.8509 5.65787H14.8499ZM3.56991 12.9579C3.47555 13.0659 3.40554 13.193 3.36465 13.3306C3.32376 13.4681 3.31293 13.6128 3.33291 13.7549C3.44591 14.5559 3.92491 15.2459 4.45491 15.7729C4.59891 15.9159 4.75291 16.0529 4.91491 16.1839L4.83992 16.2039C4.35892 16.3239 3.70991 16.3489 2.62891 16.2439C2.42477 16.2238 2.21941 16.2671 2.04067 16.3677C1.86193 16.4683 1.71845 16.6215 1.6297 16.8064C1.54095 16.9913 1.51121 17.1991 1.54452 17.4015C1.57783 17.6039 1.67258 17.7911 1.81591 17.9379C2.81669 18.9608 4.01221 19.7729 5.33194 20.3263C6.65167 20.8797 8.06886 21.1631 9.49991 21.1599C15.2129 21.1599 19.8989 16.7239 20.1639 11.1259C21.4539 10.0429 22.0989 8.57587 22.4469 7.24287C22.4856 7.09492 22.4898 6.94007 22.4593 6.79022C22.4288 6.64038 22.3643 6.49953 22.2708 6.37851C22.1773 6.25749 22.0573 6.15953 21.92 6.09216C21.7827 6.02478 21.6318 5.98979 21.4789 5.98987H19.1259C18.5504 5.09619 17.7093 4.40531 16.7208 4.0143C15.7324 3.6233 14.6462 3.55182 13.6151 3.80991C12.5839 4.06801 11.6595 4.64271 10.9718 5.45325C10.2841 6.26379 9.86762 7.26943 9.78091 8.32887C7.93757 7.84902 6.28825 6.80967 5.05991 5.35387C4.95113 5.22525 4.81162 5.1262 4.65433 5.0659C4.49704 5.0056 4.32707 4.98602 4.16019 5.00896C3.99331 5.0319 3.83492 5.09663 3.69974 5.19713C3.56456 5.29764 3.45695 5.43067 3.38691 5.58387C2.78091 6.90587 2.66491 8.42987 3.34091 9.97987L3.10691 10.0799C2.88299 10.1753 2.70155 10.3491 2.59662 10.5687C2.49168 10.7884 2.47046 11.0387 2.53691 11.2729C2.72291 11.9249 3.14091 12.5009 3.56891 12.9579H3.56991Z" fill="currentColor"/>
</svg>
