<svg width="19" height="19" viewBox="0 0 19 19" xmlns="http://www.w3.org/2000/svg">
<path fill-rule="evenodd" clip-rule="evenodd" d="M1.72719 4.75025C1.72714 4.15338 1.90379 3.56986 2.23487 3.07323C2.56594 2.57661 3.03664 2.1891 3.58761 1.95957C4.13858 1.73004 4.74517 1.66875 5.33092 1.78344C5.91667 1.89812 6.45537 2.18364 6.8791 2.604L7.23062 2.95293L7.70996 2.8251C8.88209 2.51014 10.1165 2.50947 11.289 2.82318C12.4614 3.13689 13.5306 3.7539 14.3888 4.61212C15.247 5.47033 15.8641 6.53947 16.1778 7.71192C16.4915 8.88438 16.4908 10.1188 16.1758 11.2909L16.048 11.7702L16.397 12.1218C16.9639 12.6887 17.2824 13.4576 17.2824 14.2594C17.2824 15.0611 16.9639 15.83 16.397 16.397C15.83 16.9639 15.0611 17.2824 14.2593 17.2824C13.4576 17.2824 12.6886 16.9639 12.1217 16.397L11.7702 16.0481L11.2908 16.1759C10.1186 16.491 8.88411 16.4918 7.71151 16.1782C6.53892 15.8646 5.46963 15.2476 4.61129 14.3894C3.75295 13.5311 3.13585 12.4619 2.8221 11.2894C2.50835 10.1168 2.50903 8.88229 2.82407 7.71008L2.9519 7.23074L2.60297 6.87922C2.04055 6.31359 1.72557 5.5479 1.72719 4.75025ZM4.7501 3.60514e-06C3.85455 4.0057e-05 2.97726 0.253226 2.2194 0.730358C1.46154 1.20749 0.853997 1.88913 0.466841 2.69666C0.0796848 3.50419 -0.0713114 4.40471 0.0312682 5.29436C0.133848 6.184 0.485825 7.02653 1.0466 7.72476C0.924633 8.30879 0.863274 8.90386 0.863499 9.50049C0.863499 14.2706 4.73024 18.1373 9.50039 18.1373C10.1084 18.1373 10.7026 18.0742 11.2761 17.9542C12.1888 18.6868 13.3399 19.0567 14.5085 18.9929C15.6771 18.9292 16.7811 18.4362 17.6087 17.6087C18.4362 16.7811 18.9292 15.6772 18.9929 14.5086C19.0567 13.3399 18.6868 12.1889 17.9542 11.2762C18.0751 10.7027 18.1373 10.1085 18.1373 9.50049C18.1373 4.73038 14.2705 0.863684 9.50039 0.863684C8.89235 0.863684 8.29814 0.926733 7.72465 1.04678C6.88194 0.368111 5.83212 -0.00133135 4.7501 3.60514e-06ZM8.3275 7.19446C8.44237 6.97595 8.83449 6.69353 9.44166 6.69353C10.4841 6.69353 11.0585 7.10118 11.3228 7.30329C11.5049 7.44233 11.7348 7.50333 11.9619 7.47288C12.1889 7.44243 12.3946 7.32302 12.5337 7.14091C12.6727 6.95881 12.7337 6.72893 12.7033 6.50185C12.6728 6.27476 12.5534 6.06908 12.3713 5.93003C11.9481 5.60702 11.0093 4.96617 9.44166 4.96617C8.3465 4.96617 7.27639 5.47919 6.75732 6.46897C6.58115 6.79879 6.49459 7.16904 6.50626 7.54277C6.51793 7.91649 6.62742 8.28063 6.82382 8.59881C7.19434 9.21461 7.83606 9.65422 8.59266 9.85805L9.93483 10.2191C10.4513 10.3581 11.2364 10.8383 10.954 11.4852C10.783 11.8756 10.1793 12.3075 9.28965 12.3075C8.52097 12.3075 7.84211 12.1744 7.2168 11.6977C7.03447 11.5619 6.80596 11.5035 6.58082 11.5351C6.35569 11.5667 6.15209 11.6858 6.0142 11.8665C5.87631 12.0472 5.81525 12.2751 5.84425 12.5005C5.87326 12.726 5.99 12.931 6.16914 13.0709C7.00692 13.7101 7.87666 14.0348 9.09878 14.0348C10.4625 14.0348 11.9507 13.5183 12.5363 12.1779C12.8817 11.3876 12.7677 10.5594 12.3376 9.89519C11.6734 8.87259 10.5316 8.57635 9.42525 8.29047C9.29725 8.25745 9.16943 8.22376 9.04177 8.18942C8.58747 8.06764 8.05717 7.71181 8.3275 7.19446Z" fill="currentColor"/>
</svg>
