<svg width="13" height="11" viewBox="0 0 13 11" xmlns="http://www.w3.org/2000/svg">
<path d="M0.879933 4.56664C4.3159 3.06964 6.60708 2.08273 7.75348 1.6059C11.0267 0.244464 11.7068 0.00796821 12.1501 7.57087e-05C12.2476 -0.00155858 12.4656 0.022605 12.6069 0.137191C12.7261 0.233946 12.7589 0.364647 12.7746 0.456381C12.7903 0.548115 12.8099 0.757086 12.7943 0.920371C12.6169 2.78408 11.8494 7.30679 11.459 9.39417C11.2938 10.2774 10.9684 10.5736 10.6535 10.6026C9.96902 10.6655 9.44928 10.1502 8.78635 9.71566C7.74899 9.03566 7.16296 8.61236 6.15602 7.9488C4.99234 7.18195 5.74671 6.76048 6.40989 6.07167C6.58345 5.89141 9.59918 3.14837 9.65755 2.89953C9.66485 2.86841 9.67162 2.7524 9.6027 2.69115C9.53379 2.62989 9.43207 2.65084 9.35867 2.6675C9.25463 2.69112 7.59744 3.78645 4.38711 5.95352C3.91673 6.27652 3.49066 6.4339 3.10893 6.42565C2.68809 6.41656 1.87858 6.18771 1.27678 5.99209C0.538662 5.75215 -0.0479827 5.6253 0.00310092 5.21782C0.0297084 5.00557 0.321986 4.78851 0.879933 4.56664Z" fill="currentColor"/>
</svg>
