<svg width="13" height="13" viewBox="0 0 13 13" xmlns="http://www.w3.org/2000/svg">
<path fill-rule="evenodd" clip-rule="evenodd" d="M10.88 1.84C9.68001 0.64 8.08 0 6.4 0C2.88 0 0 2.88 0 6.4C0 7.52 0.320005 8.64 0.880005 9.6L0 12.8L3.36001 11.92C4.32001 12.4 5.36 12.72 6.4 12.72C9.92 12.72 12.8 9.84 12.8 6.32C12.8 4.64 12.08 3.04 10.88 1.84ZM6.4 11.68C5.44 11.68 4.48 11.44 3.68 10.96L3.52 10.88L1.52 11.44L2.08 9.52L1.92 9.28C1.36 8.4 1.12 7.44 1.12 6.48C1.12 3.6 3.52 1.2 6.4 1.2C7.84 1.2 9.12001 1.76 10.16 2.72C11.2 3.76 11.68 5.04 11.68 6.48C11.68 9.28 9.36 11.68 6.4 11.68ZM9.28001 7.68C9.12 7.6 8.32001 7.2 8.16001 7.2C8.00001 7.12 7.91999 7.12 7.83999 7.28C7.75999 7.44 7.44001 7.76 7.36001 7.92C7.28001 8 7.19999 8 7.03999 8C6.87999 7.92 6.40001 7.76 5.76001 7.2C5.28001 6.8 4.96 6.24 4.88 6.08C4.8 5.92 4.88001 5.84 4.96001 5.76C5.04001 5.68 5.12 5.6 5.2 5.52C5.28 5.44 5.28001 5.36 5.36001 5.28C5.44001 5.2 5.36001 5.12 5.36001 5.04C5.36001 4.96 5.04 4.16 4.88 3.84C4.8 3.6 4.64001 3.6 4.56001 3.6C4.48001 3.6 4.39999 3.6 4.23999 3.6C4.15999 3.6 3.99999 3.6 3.83999 3.76C3.67999 3.92 3.28 4.32 3.28 5.12C3.28 5.92 3.84 6.64 3.92 6.8C4 6.88 5.03999 8.56 6.63999 9.2C7.99999 9.76 8.24001 9.6 8.56001 9.6C8.88001 9.6 9.52 9.2 9.6 8.88C9.76 8.48 9.76 8.16 9.68001 8.16C9.60001 7.76 9.44001 7.76 9.28001 7.68Z" fill="currentColor"/>
</svg>
