<svg width="14" height="11" viewBox="0 0 14 11" xmlns="http://www.w3.org/2000/svg">
<path fill-rule="evenodd" clip-rule="evenodd" d="M12.0008 1.23609C12.5515 1.38722 12.9853 1.83253 13.1325 2.39804C13.4 3.42295 13.4 5.56143 13.4 5.56143C13.4 5.56143 13.4 7.69983 13.1325 8.72482C12.9853 9.29032 12.5515 9.73563 12.0008 9.88684C11.0027 10.1614 6.99998 10.1614 6.99998 10.1614C6.99998 10.1614 2.99728 10.1614 1.9991 9.88684C1.44834 9.73563 1.01459 9.29032 0.867394 8.72482C0.599976 7.69983 0.599976 5.56143 0.599976 5.56143C0.599976 5.56143 0.599976 3.42295 0.867394 2.39804C1.01459 1.83253 1.44834 1.38722 1.9991 1.23609C2.99728 0.961426 6.99998 0.961426 6.99998 0.961426C6.99998 0.961426 11.0027 0.961426 12.0008 1.23609ZM5.79999 3.76138V7.76138L8.99999 5.76146L5.79999 3.76138Z" fill="currentColor"/>
</svg>
