<svg width="198" height="48" viewBox="0 0 198 48" fill="none" xmlns="http://www.w3.org/2000/svg">
<path d="M62.7066 39.2913L61.8209 42.2271H55.6802L62.746 21.4258H68.5915L75.6573 42.2271H69.5165L68.6309 39.2913H62.7066ZM63.8285 35.0229H67.4893L65.6392 28.6299L63.8285 35.0229Z" fill="#64BC62"/>
<path d="M80.8724 27.143H75.5386V21.4453H92.2682V27.143H86.9344V42.2466H80.8724V27.143Z" fill="#64BC62"/>
<path d="M99.1969 39.2913L98.3112 42.2271H92.1704L99.2362 21.4258H105.082L112.148 42.2271H106.007L105.121 39.2913H99.1969ZM100.319 35.0229H103.98L102.129 28.6299L100.319 35.0229Z" fill="#64BC62"/>
<path d="M115.001 21.4453H124.685C127.106 21.4453 128.975 22.102 130.314 23.4154C131.554 24.6708 132.164 26.4477 132.164 28.804C132.164 31.2762 131.554 33.1497 130.353 34.3858C129.9 34.8493 129.448 35.2163 128.936 35.4867C128.444 35.7571 127.913 35.9502 127.322 36.0468C126.751 36.1434 126.299 36.2013 125.984 36.2206C125.669 36.2399 125.236 36.2592 124.665 36.2592H121.083V42.2659H114.962V21.4453H115.001ZM121.083 27.0657V31.2569H123.602C124.468 31.2569 125.098 31.0637 125.472 30.6581C125.826 30.2525 126.023 29.7118 126.023 28.9971C126.023 28.3791 125.866 27.9155 125.531 27.6065C125.118 27.2589 124.488 27.0657 123.602 27.0657H121.083Z" fill="#64BC62"/>
<path d="M147.929 34.5213H153.873C153.794 35.5449 153.538 36.6072 153.125 37.6695C152.712 38.7317 152.18 39.6395 151.511 40.3734C149.976 41.9765 147.634 42.7877 144.445 42.7877C141.414 42.7877 139.131 41.9958 137.576 40.4121C135.746 38.5193 134.821 35.6994 134.821 32.0104C134.821 28.3987 135.766 25.5982 137.675 23.6088C139.407 21.7933 141.788 20.8662 144.819 20.8662C147.772 20.8662 149.996 21.716 151.511 23.3964C152.121 24.0917 152.613 24.9415 153.007 25.9651C153.401 26.9888 153.637 27.9738 153.716 28.9202H147.831C147.732 28.109 147.417 27.4909 146.925 27.0467C146.433 26.6025 145.803 26.39 145.016 26.39C143.953 26.39 143.107 26.7377 142.477 27.433C141.67 28.2635 141.257 29.7314 141.257 31.8366C141.257 33.7101 141.611 35.12 142.32 36.0471C142.93 36.839 143.757 37.2446 144.839 37.2446C145.744 37.2446 146.473 36.9742 147.024 36.4334C147.516 35.9312 147.831 35.2938 147.929 34.5213Z" fill="#64BC62"/>
<path d="M164.009 32.5895L169.481 21.4453H175.385V42.2466H169.481V30.9865L164.009 42.2466H158.104V21.4453H164.009V32.5895Z" fill="#64BC62"/>
<path d="M192.056 34.5213H198C197.921 35.5449 197.665 36.6072 197.252 37.6695C196.839 38.7317 196.307 39.6395 195.638 40.3734C194.103 41.9765 191.761 42.7877 188.572 42.7877C185.541 42.7877 183.258 41.9958 181.703 40.4121C179.873 38.5193 178.948 35.6994 178.948 32.0104C178.948 28.3987 179.893 25.5982 181.802 23.6088C183.534 21.7933 185.915 20.8662 188.946 20.8662C191.899 20.8662 194.123 21.716 195.638 23.3964C196.248 24.0917 196.74 24.9415 197.134 25.9651C197.528 26.9888 197.764 27.9738 197.843 28.9202H191.958C191.859 28.109 191.544 27.4909 191.052 27.0467C190.56 26.6025 189.93 26.39 189.143 26.39C188.08 26.39 187.234 26.7377 186.604 27.433C185.797 28.2635 185.384 29.7314 185.384 31.8366C185.384 33.7101 185.738 35.12 186.447 36.0471C187.057 36.839 187.884 37.2446 188.966 37.2446C189.871 37.2446 190.6 36.9742 191.151 36.4334C191.662 35.9312 191.958 35.2938 192.056 34.5213Z" fill="#64BC62"/>
<path fill-rule="evenodd" clip-rule="evenodd" d="M2.89324 3.03948C1.61391 3.07811 0 3.36782 0 3.36782C25.3109 10.6879 24.4449 33.691 4.46779 47.8868C25.3896 38.1718 32.1208 28.1864 33.6954 5.1254C33.6954 5.1254 32.8491 6.3615 31.9437 7.75212C30.192 10.4175 28.0467 13.1408 24.3268 12.3682C19.0127 11.2287 14.2103 2.74977 2.89324 3.03948Z" fill="#64BC62"/>
<path fill-rule="evenodd" clip-rule="evenodd" d="M25.311 10.6874C28.0468 10.6681 30.2314 8.33113 30.2118 5.47264C30.1724 2.61415 27.9483 0.315768 25.2126 0.335082C22.4768 0.354396 20.2921 2.6914 20.3118 5.54989C20.3315 8.40838 22.5752 10.7068 25.311 10.6874Z" fill="#64BC62"/>
<path d="M33.5182 17.7587L43.2804 0.549805H57.0577L43.7725 19.9605L55.6603 38.5793L54.4597 42.2103L43.8315 42.2297L33.5182 22.1043H33.223V42.2297H21.0596V39.3518V39.1201C27.3971 33.7314 31.058 27.493 33.0655 18.5119C33.3411 18.0484 33.4985 17.7587 33.5182 17.7587Z" fill="#64BC62"/>
<path d="M63.9859 9.33539V15.7863H63.0411V8.50488H67.6073V15.7863H66.6626V9.33539H63.9859Z" fill="#64BC62"/>
<path d="M72.7642 13.3724H73.7089C73.6105 14.2608 73.3546 14.9175 72.9216 15.3424C72.4886 15.7866 71.9178 15.9991 71.229 15.9991C70.363 15.9991 69.6938 15.6707 69.2017 15.0141C68.7097 14.3574 68.4735 13.4303 68.4735 12.2521C68.4735 11.0354 68.69 10.0696 69.1427 9.35503C69.5757 8.62109 70.2842 8.27344 71.229 8.27344C71.9375 8.27344 72.4886 8.48589 72.9216 8.89149C73.3546 9.29708 73.5908 9.91513 73.6499 10.7456H72.7051C72.6461 10.2048 72.4886 9.77994 72.2328 9.50954C71.9769 9.23914 71.6226 9.10394 71.2093 9.10394C70.6582 9.10394 70.2252 9.35503 69.9103 9.87651C69.5954 10.398 69.4379 11.1705 69.4379 12.2328C69.4379 13.1213 69.5954 13.8359 69.9103 14.3767C70.2252 14.9175 70.6779 15.1879 71.2487 15.1879C71.6817 15.1879 72.0359 15.0141 72.3115 14.6664C72.587 14.2994 72.7445 13.8745 72.7642 13.3724Z" fill="#64BC62"/>
<path d="M75.4407 14.0287L78.2749 8.50488H79.1999V15.7863H78.2552V10.2432L75.421 15.7863H74.496V8.50488H75.4407V14.0287Z" fill="#64BC62"/>
<path d="M82.1127 11.2089L83.4708 8.50488H84.5139L82.6441 12.0394L84.632 15.7863H83.5101L82.1127 12.9278L80.7153 15.7863H79.5737L81.5419 12.0587L79.6721 8.50488H80.7743L82.1127 11.2089Z" fill="#64BC62"/>
<path d="M84.5927 12.1548C84.5927 10.9187 84.8485 9.953 85.3602 9.29633C85.872 8.62033 86.5412 8.29199 87.3875 8.29199C88.2141 8.29199 88.903 8.62033 89.395 9.29633C89.9068 9.97232 90.1626 10.9187 90.1626 12.1548C90.1626 13.333 89.9264 14.2794 89.4541 14.9747C88.9817 15.67 88.2928 16.0176 87.3875 16.0176C86.4821 16.0176 85.7932 15.67 85.3209 14.9747C84.8288 14.2794 84.5927 13.333 84.5927 12.1548ZM85.5767 12.1548C85.5767 13.1398 85.7342 13.9124 86.0688 14.4146C86.3837 14.936 86.8364 15.1871 87.3875 15.1871C87.9386 15.1871 88.3716 14.936 88.6865 14.4146C89.0211 13.8931 89.1785 13.1398 89.1785 12.1548C89.1785 11.247 89.0211 10.5131 88.7258 9.95301C88.4306 9.3929 87.9779 9.10318 87.3875 9.10318C86.797 9.10318 86.3443 9.3929 86.0491 9.95301C85.7342 10.5131 85.5767 11.247 85.5767 12.1548Z" fill="#64BC62"/>
<path d="M90.2415 15.7863V14.9172C90.6745 15.091 91.0091 14.8979 91.2256 14.3184C91.4617 13.739 91.5601 12.8506 91.5601 11.6531V8.50488H95.2997V15.8056H94.355V9.33539H92.5049V11.8462C92.5049 13.3334 92.3081 14.3957 91.9341 15.0524C91.5601 15.709 90.9894 15.9601 90.2415 15.7863Z" fill="#64BC62"/>
<path d="M96.1659 12.1548C96.1659 10.9187 96.4218 9.953 96.9335 9.29633C97.4452 8.62033 98.1144 8.29199 98.9608 8.29199C99.7874 8.29199 100.476 8.62033 100.968 9.29633C101.48 9.97232 101.736 10.9187 101.736 12.1548C101.736 13.333 101.5 14.2794 101.027 14.9747C100.555 15.67 99.8661 16.0176 98.9608 16.0176C98.0554 16.0176 97.3665 15.67 96.8942 14.9747C96.3824 14.2794 96.1462 13.333 96.1659 12.1548ZM97.15 12.1548C97.15 13.1398 97.3075 13.9124 97.6421 14.4146C97.957 14.936 98.4097 15.1871 98.9608 15.1871C99.5118 15.1871 99.9449 14.936 100.26 14.4146C100.594 13.8931 100.752 13.1398 100.752 12.1548C100.752 11.247 100.594 10.5131 100.299 9.95301C100.004 9.3929 99.5512 9.10318 98.9608 9.10318C98.3703 9.10318 97.9176 9.3929 97.6224 9.95301C97.2878 10.5131 97.15 11.247 97.15 12.1548Z" fill="#64BC62"/>
<path d="M103.507 9.33539V15.7863H102.562V8.50488H106.341V9.33539H103.507Z" fill="#64BC62"/>
<path d="M107.798 14.0287L110.632 8.50488H111.557V15.7863H110.613V10.2432L107.778 15.7863H106.853V8.50488H107.798V14.0287Z" fill="#64BC62"/>
<path d="M112.541 8.50488H113.486V10.6487C113.486 11.1316 113.564 11.4599 113.722 11.6338C113.879 11.8076 114.234 11.8848 114.765 11.8848C114.883 11.8848 115.041 11.8848 115.178 11.8655C115.336 11.8655 115.533 11.8462 115.769 11.8076V8.50488H116.714V15.8056H115.769V12.6188C115.572 12.6574 115.375 12.6767 115.218 12.696C115.041 12.7154 114.844 12.7154 114.627 12.7154C113.781 12.7154 113.23 12.5608 112.954 12.2518C112.698 11.9428 112.561 11.4599 112.561 10.8033V8.50488H112.541Z" fill="#64BC62"/>
<path d="M118.938 11.6145H121.89V12.445H118.938V14.9751H122.284V15.7863H117.993V8.50488H122.185V9.33539H118.938V11.6145Z" fill="#64BC62"/>
<path d="M126.712 13.3724H127.657C127.558 14.2608 127.302 14.9175 126.869 15.3424C126.436 15.7866 125.865 15.9991 125.177 15.9991C124.311 15.9991 123.641 15.6707 123.149 15.0141C122.657 14.3574 122.421 13.4303 122.421 12.2521C122.421 11.0354 122.638 10.0696 123.09 9.35503C123.523 8.62109 124.232 8.27344 125.177 8.27344C125.885 8.27344 126.436 8.48589 126.869 8.89149C127.302 9.29708 127.538 9.91513 127.597 10.7456H126.653C126.594 10.2048 126.436 9.77994 126.18 9.50954C125.925 9.23914 125.57 9.10394 125.157 9.10394C124.606 9.10394 124.173 9.35503 123.858 9.87651C123.543 10.398 123.386 11.1705 123.386 12.2328C123.386 13.1213 123.543 13.8359 123.858 14.3767C124.173 14.9175 124.626 15.1879 125.196 15.1879C125.629 15.1879 125.984 15.0141 126.259 14.6664C126.535 14.2994 126.692 13.8745 126.712 13.3724Z" fill="#64BC62"/>
<path d="M129.389 11.6145L131.77 8.50488H132.833L130.137 11.8848L133.01 15.7863H131.869L129.389 12.2325V15.7863H128.444V8.50488H129.389V11.6145Z" fill="#64BC62"/>
<path d="M133.896 13.9128L133.365 15.8056H132.38L134.506 8.50488H135.51L137.636 15.8056H136.651L136.12 13.9128H133.896ZM134.113 13.0823H135.923L135.018 9.81824L134.113 13.0823Z" fill="#64BC62"/>
<path d="M141.591 12.9087H140.469L139.111 15.8058H138.009L139.544 12.8121C139.033 12.7349 138.659 12.5224 138.383 12.1362C138.127 11.7499 137.989 11.267 137.989 10.7069C137.989 10.0116 138.167 9.49012 138.501 9.10384C138.855 8.71756 139.387 8.52441 140.135 8.52441H142.536V15.8251H141.591V12.9087ZM141.591 9.33561H140.194C139.82 9.33561 139.505 9.47081 139.269 9.70257C139.033 9.93434 138.934 10.2627 138.934 10.7069C138.934 11.1511 139.052 11.4988 139.269 11.7499C139.485 11.9816 139.839 12.0975 140.292 12.0975H141.571V9.33561H141.591Z" fill="#64BC62"/>
<path d="M148.598 15.7863L146.945 10.108H146.906L146.945 10.4942V15.7863H146V8.50488H147.299L148.992 14.2991L150.665 8.50488H151.984V15.7863H151.039V10.4942L151.059 10.108H151.039L149.386 15.7863H148.598Z" fill="#64BC62"/>
<path d="M153.814 13.9128L153.283 15.8056H152.299L154.424 8.50488H155.428L157.554 15.8056H156.57L156.038 13.9128H153.814ZM154.031 13.0823H155.841L154.936 9.81824L154.031 13.0823Z" fill="#64BC62"/>
<path d="M161.785 13.3724H162.73C162.632 14.2608 162.376 14.9175 161.943 15.3424C161.51 15.7866 160.939 15.9991 160.25 15.9991C159.384 15.9991 158.715 15.6707 158.223 15.0141C157.731 14.3574 157.495 13.4303 157.495 12.2521C157.495 11.0354 157.711 10.0696 158.164 9.35503C158.597 8.62109 159.305 8.27344 160.25 8.27344C160.959 8.27344 161.51 8.48589 161.943 8.89149C162.376 9.29708 162.612 9.91513 162.671 10.7456H161.726C161.667 10.2048 161.51 9.77994 161.254 9.50954C160.998 9.23914 160.644 9.10394 160.23 9.10394C159.679 9.10394 159.246 9.35503 158.931 9.87651C158.616 10.398 158.459 11.1705 158.459 12.2328C158.459 13.1213 158.616 13.8359 158.931 14.3767C159.246 14.9175 159.699 15.1879 160.27 15.1879C160.703 15.1879 161.057 15.0141 161.333 14.6664C161.608 14.2994 161.766 13.8745 161.785 13.3724Z" fill="#64BC62"/>
<path d="M164.56 9.33539H162.75V8.50488H167.335V9.33539H165.505V15.7863H164.56V9.33539Z" fill="#64BC62"/>
<path d="M168.792 11.6145H171.764V12.445H168.792V14.9751H172.158V15.7863H167.847V8.50488H172.059V9.33539H168.792V11.6145Z" fill="#64BC62"/>
<path d="M172.709 8.50488H174.992C175.7 8.50488 176.232 8.67871 176.566 9.02636C176.921 9.37402 177.098 9.8955 177.098 10.5908C177.098 11.3441 176.921 11.9042 176.566 12.2904C176.212 12.6767 175.661 12.8699 174.933 12.8699H173.653V15.767H172.709V8.50488ZM173.653 9.33539V12.078H174.854C175.287 12.078 175.602 11.9621 175.838 11.7496C176.055 11.5372 176.173 11.1509 176.173 10.6294C176.173 10.1852 176.074 9.87618 175.838 9.66373C175.622 9.45127 175.287 9.3547 174.854 9.33539H173.653Z" fill="#64BC62"/>
<path d="M181.703 13.3724H182.648C182.55 14.2608 182.294 14.9175 181.861 15.3424C181.428 15.7866 180.857 15.9991 180.168 15.9991C179.302 15.9991 178.633 15.6707 178.141 15.0141C177.649 14.3574 177.413 13.4303 177.413 12.2521C177.413 11.0354 177.629 10.0696 178.082 9.35503C178.534 8.6404 179.223 8.27344 180.168 8.27344C180.877 8.27344 181.428 8.48589 181.861 8.89149C182.294 9.29708 182.53 9.91513 182.589 10.7456H181.644C181.585 10.2048 181.428 9.77994 181.172 9.50954C180.916 9.23914 180.562 9.10394 180.148 9.10394C179.597 9.10394 179.164 9.35503 178.849 9.87651C178.534 10.398 178.377 11.1705 178.377 12.2328C178.377 13.1213 178.534 13.8359 178.849 14.3767C179.164 14.9175 179.617 15.1879 180.188 15.1879C180.621 15.1879 180.975 15.0141 181.251 14.6664C181.506 14.2994 181.664 13.8745 181.703 13.3724Z" fill="#64BC62"/>
<path d="M184.36 11.6145L186.742 8.50488H187.805L185.108 11.8848L187.982 15.7863H186.84L184.36 12.2325V15.7863H183.416V8.50488H184.36V11.6145Z" fill="#64BC62"/>
<path d="M188.887 13.9128L188.356 15.8056H187.372L189.497 8.50488H190.501L192.627 15.8056H191.643L191.111 13.9128H188.887ZM189.084 13.0823H190.895L189.989 9.81824L189.084 13.0823Z" fill="#64BC62"/>
<path d="M196.563 12.9087H195.441L194.083 15.8058H192.981L194.516 12.8121C194.005 12.7349 193.631 12.5224 193.355 12.1362C193.099 11.7499 192.962 11.267 192.962 10.7069C192.962 10.0116 193.139 9.49012 193.473 9.10384C193.828 8.71756 194.359 8.52441 195.107 8.52441H197.508V15.8251H196.563V12.9087ZM196.563 9.33561H195.166C194.792 9.33561 194.477 9.47081 194.241 9.70257C194.005 9.93434 193.906 10.2627 193.906 10.7069C193.906 11.1511 194.024 11.4988 194.241 11.7499C194.457 11.9816 194.812 12.0975 195.264 12.0975H196.544V9.33561H196.563Z" fill="#64BC62"/>
</svg>
