<svg width="198" height="49" viewBox="0 0 198 49" fill="none" xmlns="http://www.w3.org/2000/svg">
<path d="M62.7066 40.0722L61.8209 43.0647H55.6802L62.746 21.8608H68.5915L75.6573 43.0647H69.5165L68.6309 40.0722H62.7066ZM63.8285 35.7211H67.4893L65.6392 29.2044L63.8285 35.7211Z" fill="white"/>
<path d="M80.8724 27.6883H75.5386V21.8804H92.2682V27.6883H86.9344V43.0843H80.8724V27.6883Z" fill="white"/>
<path d="M99.1968 40.0722L98.3112 43.0647H92.1704L99.2362 21.8608H105.082L112.148 43.0647H106.007L105.121 40.0722H99.1968ZM100.319 35.7211H103.98L102.129 29.2044L100.319 35.7211Z" fill="white"/>
<path d="M115.001 21.8804H124.685C127.106 21.8804 128.975 22.5498 130.314 23.8885C131.554 25.1683 132.164 26.9795 132.164 29.3815C132.164 31.9015 131.554 33.8113 130.353 35.0713C129.9 35.5438 129.448 35.9179 128.936 36.1935C128.444 36.4691 127.913 36.666 127.322 36.7644C126.751 36.8629 126.299 36.9219 125.984 36.9416C125.669 36.9613 125.236 36.981 124.665 36.981H121.083V43.104H114.962V21.8804H115.001ZM121.083 27.6096V31.8818H123.602C124.468 31.8818 125.098 31.685 125.472 31.2715C125.826 30.8581 126.023 30.3068 126.023 29.5784C126.023 28.9483 125.866 28.4758 125.531 28.1608C125.118 27.8064 124.488 27.6096 123.602 27.6096H121.083Z" fill="white"/>
<path d="M147.929 35.2089H153.873C153.794 36.2524 153.538 37.3352 153.125 38.418C152.712 39.5009 152.18 40.4262 151.511 41.1744C149.976 42.8085 147.634 43.6353 144.445 43.6353C141.414 43.6353 139.131 42.8281 137.576 41.2137C135.746 39.2843 134.821 36.4099 134.821 32.6495C134.821 28.9678 135.766 26.1131 137.675 24.0852C139.407 22.2346 141.788 21.2896 144.819 21.2896C147.772 21.2896 149.996 22.1558 151.511 23.8687C152.121 24.5774 152.613 25.4437 153.007 26.4872C153.401 27.5306 153.637 28.5347 153.716 29.4994H147.831C147.732 28.6725 147.417 28.0425 146.925 27.5897C146.433 27.1369 145.803 26.9203 145.016 26.9203C143.953 26.9203 143.107 27.2747 142.477 27.9834C141.67 28.83 141.257 30.3263 141.257 32.4723C141.257 34.382 141.611 35.8192 142.32 36.7643C142.93 37.5715 143.757 37.9849 144.839 37.9849C145.744 37.9849 146.473 37.7093 147.024 37.158C147.516 36.6461 147.831 35.9964 147.929 35.2089Z" fill="white"/>
<path d="M164.009 33.2403L169.481 21.8804H175.385V43.0843H169.481V31.6062L164.009 43.0843H158.104V21.8804H164.009V33.2403Z" fill="white"/>
<path d="M192.056 35.2089H198C197.921 36.2524 197.665 37.3352 197.252 38.418C196.839 39.5009 196.307 40.4262 195.638 41.1744C194.103 42.8085 191.761 43.6353 188.572 43.6353C185.541 43.6353 183.258 42.8281 181.703 41.2137C179.873 39.2843 178.948 36.4099 178.948 32.6495C178.948 28.9678 179.893 26.1131 181.802 24.0852C183.534 22.2346 185.915 21.2896 188.946 21.2896C191.899 21.2896 194.123 22.1558 195.638 23.8687C196.248 24.5774 196.74 25.4437 197.134 26.4872C197.528 27.5306 197.764 28.5347 197.843 29.4994H191.958C191.859 28.6725 191.544 28.0425 191.052 27.5897C190.56 27.1369 189.93 26.9203 189.143 26.9203C188.08 26.9203 187.234 27.2747 186.604 27.9834C185.797 28.83 185.384 30.3263 185.384 32.4723C185.384 34.382 185.738 35.8192 186.447 36.7643C187.057 37.5715 187.884 37.9849 188.966 37.9849C189.871 37.9849 190.6 37.7093 191.151 37.158C191.662 36.6461 191.958 35.9964 192.056 35.2089Z" fill="white"/>
<path fill-rule="evenodd" clip-rule="evenodd" d="M2.89324 3.11775C1.61391 3.15712 0 3.45244 0 3.45244C25.3109 10.9142 24.4449 34.3625 4.46779 48.8331C25.3896 38.9301 32.1208 28.7514 33.6954 5.24404C33.6954 5.24404 32.8491 6.50407 31.9437 7.9216C30.192 10.6385 28.0467 13.4145 24.3268 12.627C19.0127 11.4654 14.2103 2.82243 2.89324 3.11775Z" fill="white"/>
<path fill-rule="evenodd" clip-rule="evenodd" d="M25.311 10.9142C28.0468 10.8945 30.2314 8.51225 30.2118 5.59844C30.1724 2.68463 27.9483 0.341763 25.2126 0.361451C22.4768 0.381139 20.2921 2.76338 20.3118 5.67719C20.3315 8.591 22.5752 10.9339 25.311 10.9142Z" fill="white"/>
<path d="M33.5182 18.1201L43.2804 0.578125H57.0577L43.7725 20.3645L55.6603 39.3436L54.4597 43.045L43.8315 43.0647L33.5182 22.5498H33.223V43.0647H21.0596V40.1312V39.8949C27.3971 34.402 31.058 28.0428 33.0655 18.8879C33.3411 18.4154 33.4985 18.1201 33.5182 18.1201Z" fill="white"/>
<path d="M63.9859 9.53603V16.1118H63.0411V8.68945H67.6073V16.1118H66.6626V9.53603H63.9859Z" fill="white"/>
<path d="M72.7643 13.6507H73.709C73.6106 14.5564 73.3547 15.2258 72.9217 15.6589C72.4887 16.1117 71.918 16.3283 71.2291 16.3283C70.3631 16.3283 69.6939 15.9936 69.2019 15.3242C68.7098 14.6548 68.4736 13.7098 68.4736 12.5088C68.4736 11.2685 68.6901 10.2841 69.1428 9.55565C69.5758 8.80751 70.2844 8.45312 71.2291 8.45312C71.9376 8.45312 72.4887 8.66969 72.9217 9.08314C73.3547 9.49658 73.5909 10.1266 73.65 10.9732H72.7052C72.6462 10.4219 72.4887 9.98878 72.2329 9.71315C71.977 9.43752 71.6227 9.29971 71.2094 9.29971C70.6583 9.29971 70.2253 9.55565 69.9104 10.0872C69.5955 10.6188 69.438 11.4063 69.438 12.4891C69.438 13.3948 69.5955 14.1232 69.9104 14.6745C70.2253 15.2258 70.678 15.5014 71.2488 15.5014C71.6818 15.5014 72.0361 15.3242 72.3116 14.9698C72.5871 14.5958 72.7446 14.1626 72.7643 13.6507Z" fill="white"/>
<path d="M75.4407 14.3202L78.2749 8.68945H79.1999V16.1118H78.2552V10.4614L75.421 16.1118H74.496V8.68945H75.4407V14.3202Z" fill="white"/>
<path d="M82.1127 11.4458L83.4708 8.68945H84.5139L82.6441 12.2923L84.632 16.1118H83.5101L82.1127 13.198L80.7153 16.1118H79.5737L81.5419 12.312L79.6721 8.68945H80.7743L82.1127 11.4458Z" fill="white"/>
<path d="M84.5927 12.4102C84.5927 11.1502 84.8485 10.1658 85.3603 9.49643C85.872 8.80735 86.5412 8.47266 87.3875 8.47266C88.2141 8.47266 88.903 8.80735 89.395 9.49643C89.9068 10.1855 90.1626 11.1502 90.1626 12.4102C90.1626 13.6112 89.9264 14.5759 89.4541 15.2847C88.9817 15.9934 88.2929 16.3478 87.3875 16.3478C86.4821 16.3478 85.7932 15.9934 85.3209 15.2847C84.8288 14.5759 84.5927 13.6112 84.5927 12.4102ZM85.5767 12.4102C85.5767 13.4143 85.7342 14.2018 86.0688 14.7137C86.3837 15.2453 86.8364 15.5012 87.3875 15.5012C87.9386 15.5012 88.3716 15.2453 88.6865 14.7137C89.0211 14.1822 89.1785 13.4143 89.1785 12.4102C89.1785 11.4849 89.0211 10.7368 88.7258 10.1658C88.4306 9.59487 87.9779 9.29955 87.3875 9.29955C86.797 9.29955 86.3443 9.59487 86.0491 10.1658C85.7342 10.7368 85.5767 11.4849 85.5767 12.4102Z" fill="white"/>
<path d="M90.2415 16.1118V15.2258C90.6745 15.403 91.009 15.2062 91.2255 14.6155C91.4617 14.0249 91.5601 13.1192 91.5601 11.8986V8.68945H95.2997V16.1315H94.355V9.53603H92.5049V12.0955C92.5049 13.6114 92.3081 14.6943 91.9341 15.3637C91.5601 16.033 90.9894 16.289 90.2415 16.1118Z" fill="white"/>
<path d="M96.1659 12.4102C96.1659 11.1502 96.4218 10.1658 96.9335 9.49643C97.4453 8.80735 98.1144 8.47266 98.9608 8.47266C99.7874 8.47266 100.476 8.80735 100.968 9.49643C101.48 10.1855 101.736 11.1502 101.736 12.4102C101.736 13.6112 101.5 14.5759 101.027 15.2847C100.555 15.9934 99.8661 16.3478 98.9608 16.3478C98.0554 16.3478 97.3665 15.9934 96.8942 15.2847C96.3824 14.5759 96.1462 13.6112 96.1659 12.4102ZM97.15 12.4102C97.15 13.4143 97.3075 14.2018 97.6421 14.7137C97.957 15.2453 98.4097 15.5012 98.9608 15.5012C99.5118 15.5012 99.9449 15.2453 100.26 14.7137C100.594 14.1822 100.752 13.4143 100.752 12.4102C100.752 11.4849 100.594 10.7368 100.299 10.1658C100.004 9.59487 99.5512 9.29955 98.9608 9.29955C98.3703 9.29955 97.9176 9.59487 97.6224 10.1658C97.2878 10.7368 97.15 11.4849 97.15 12.4102Z" fill="white"/>
<path d="M103.507 9.53603V16.1118H102.562V8.68945H106.341V9.53603H103.507Z" fill="white"/>
<path d="M107.798 14.3202L110.632 8.68945H111.557V16.1118H110.613V10.4614L107.778 16.1118H106.853V8.68945H107.798V14.3202Z" fill="white"/>
<path d="M112.541 8.68945H113.486V10.8748C113.486 11.367 113.564 11.7017 113.722 11.8789C113.879 12.0561 114.234 12.1348 114.765 12.1348C114.883 12.1348 115.041 12.1348 115.178 12.1151C115.336 12.1151 115.533 12.0955 115.769 12.0561V8.68945H116.714V16.1315H115.769V12.883C115.572 12.9224 115.375 12.942 115.218 12.9617C115.041 12.9814 114.844 12.9814 114.627 12.9814C113.781 12.9814 113.23 12.8239 112.954 12.5089C112.698 12.1939 112.561 11.7017 112.561 11.0323V8.68945H112.541Z" fill="white"/>
<path d="M118.938 11.8592H121.89V12.7058H118.938V15.2849H122.284V16.1118H117.993V8.68945H122.185V9.53603H118.938V11.8592Z" fill="white"/>
<path d="M126.712 13.6507H127.657C127.558 14.5564 127.302 15.2258 126.869 15.6589C126.436 16.1117 125.865 16.3283 125.177 16.3283C124.311 16.3283 123.641 15.9936 123.149 15.3242C122.657 14.6548 122.421 13.7098 122.421 12.5088C122.421 11.2685 122.638 10.2841 123.09 9.55565C123.523 8.80751 124.232 8.45312 125.177 8.45312C125.885 8.45312 126.436 8.66969 126.869 9.08314C127.302 9.49658 127.538 10.1266 127.597 10.9732H126.653C126.594 10.4219 126.436 9.98878 126.18 9.71315C125.925 9.43752 125.57 9.29971 125.157 9.29971C124.606 9.29971 124.173 9.55565 123.858 10.0872C123.543 10.6188 123.386 11.4063 123.386 12.4891C123.386 13.3948 123.543 14.1232 123.858 14.6745C124.173 15.2258 124.626 15.5014 125.196 15.5014C125.629 15.5014 125.984 15.3242 126.259 14.9698C126.535 14.5958 126.692 14.1626 126.712 13.6507Z" fill="white"/>
<path d="M129.389 11.8592L131.77 8.68945H132.833L130.137 12.1348L133.01 16.1118H131.869L129.389 12.4892V16.1118H128.444V8.68945H129.389V11.8592Z" fill="white"/>
<path d="M133.896 14.2021L133.365 16.1315H132.381L134.506 8.68945H135.51L137.636 16.1315H136.652L136.12 14.2021H133.896ZM134.113 13.3555H135.923L135.018 10.0282L134.113 13.3555Z" fill="white"/>
<path d="M141.591 13.1781H140.469L139.111 16.1313H138.009L139.544 13.0797C139.033 13.0009 138.659 12.7844 138.383 12.3906C138.127 11.9969 137.989 11.5047 137.989 10.9337C137.989 10.225 138.167 9.69338 138.501 9.29962C138.855 8.90586 139.387 8.70898 140.135 8.70898H142.536V16.151H141.591V13.1781ZM141.591 9.53588H140.194C139.82 9.53588 139.505 9.67369 139.269 9.90995C139.033 10.1462 138.934 10.4809 138.934 10.9337C138.934 11.3865 139.052 11.7409 139.269 11.9969C139.485 12.2331 139.839 12.3512 140.292 12.3512H141.571V9.53588H141.591Z" fill="white"/>
<path d="M148.598 16.1118L146.945 10.3235H146.906L146.945 10.7173V16.1118H146V8.68945H147.299L148.992 14.5958L150.665 8.68945H151.984V16.1118H151.039V10.7173L151.059 10.3235H151.039L149.386 16.1118H148.598Z" fill="white"/>
<path d="M153.814 14.2021L153.283 16.1315H152.299L154.424 8.68945H155.428L157.554 16.1315H156.57L156.038 14.2021H153.814ZM154.031 13.3555H155.841L154.936 10.0282L154.031 13.3555Z" fill="white"/>
<path d="M161.785 13.6507H162.73C162.632 14.5564 162.376 15.2258 161.943 15.6589C161.51 16.1117 160.939 16.3283 160.25 16.3283C159.384 16.3283 158.715 15.9936 158.223 15.3242C157.731 14.6548 157.495 13.7098 157.495 12.5088C157.495 11.2685 157.711 10.2841 158.164 9.55565C158.597 8.80751 159.305 8.45312 160.25 8.45312C160.959 8.45312 161.51 8.66969 161.943 9.08314C162.376 9.49658 162.612 10.1266 162.671 10.9732H161.726C161.667 10.4219 161.51 9.98878 161.254 9.71315C160.998 9.43752 160.644 9.29971 160.23 9.29971C159.679 9.29971 159.246 9.55565 158.931 10.0872C158.616 10.6188 158.459 11.4063 158.459 12.4891C158.459 13.3948 158.616 14.1232 158.931 14.6745C159.246 15.2258 159.699 15.5014 160.27 15.5014C160.703 15.5014 161.057 15.3242 161.333 14.9698C161.608 14.5958 161.766 14.1626 161.785 13.6507Z" fill="white"/>
<path d="M164.56 9.53603H162.75V8.68945H167.335V9.53603H165.505V16.1118H164.56V9.53603Z" fill="white"/>
<path d="M168.792 11.8592H171.764V12.7058H168.792V15.2849H172.158V16.1118H167.847V8.68945H172.059V9.53603H168.792V11.8592Z" fill="white"/>
<path d="M172.709 8.68945H174.992C175.7 8.68945 176.232 8.86664 176.566 9.22103C176.921 9.57541 177.098 10.107 177.098 10.8157C177.098 11.5836 176.921 12.1545 176.566 12.5483C176.212 12.942 175.661 13.1389 174.933 13.1389H173.653V16.0921H172.709V8.68945ZM173.653 9.53603V12.3317H174.854C175.287 12.3317 175.602 12.2136 175.838 11.997C176.055 11.7805 176.173 11.3867 176.173 10.8551C176.173 10.4023 176.074 10.0873 175.838 9.87073C175.622 9.65416 175.287 9.55572 174.854 9.53603H173.653Z" fill="white"/>
<path d="M181.703 13.6507H182.648C182.55 14.5564 182.294 15.2258 181.861 15.6589C181.428 16.1117 180.857 16.3283 180.168 16.3283C179.302 16.3283 178.633 15.9936 178.141 15.3242C177.649 14.6548 177.413 13.7098 177.413 12.5088C177.413 11.2685 177.629 10.2841 178.082 9.55565C178.534 8.8272 179.223 8.45312 180.168 8.45312C180.877 8.45312 181.428 8.66969 181.861 9.08314C182.294 9.49658 182.53 10.1266 182.589 10.9732H181.644C181.585 10.4219 181.428 9.98878 181.172 9.71315C180.916 9.43752 180.562 9.29971 180.148 9.29971C179.597 9.29971 179.164 9.55565 178.849 10.0872C178.534 10.6188 178.377 11.4063 178.377 12.4891C178.377 13.3948 178.534 14.1232 178.849 14.6745C179.164 15.2258 179.617 15.5014 180.188 15.5014C180.621 15.5014 180.975 15.3242 181.251 14.9698C181.506 14.5958 181.664 14.1626 181.703 13.6507Z" fill="white"/>
<path d="M184.361 11.8592L186.742 8.68945H187.805L185.108 12.1348L187.982 16.1118H186.84L184.361 12.4892V16.1118H183.416V8.68945H184.361V11.8592Z" fill="white"/>
<path d="M188.887 14.2021L188.356 16.1315H187.372L189.497 8.68945H190.501L192.627 16.1315H191.643L191.111 14.2021H188.887ZM189.084 13.3555H190.895L189.989 10.0282L189.084 13.3555Z" fill="white"/>
<path d="M196.563 13.1781H195.441L194.083 16.1313H192.981L194.516 13.0797C194.005 13.0009 193.631 12.7844 193.355 12.3906C193.099 11.9969 192.962 11.5047 192.962 10.9337C192.962 10.225 193.139 9.69338 193.473 9.29962C193.828 8.90586 194.359 8.70898 195.107 8.70898H197.508V16.151H196.563V13.1781ZM196.563 9.53588H195.166C194.792 9.53588 194.477 9.67369 194.241 9.90995C194.005 10.1462 193.906 10.4809 193.906 10.9337C193.906 11.3865 194.024 11.7409 194.241 11.9969C194.457 12.2331 194.812 12.3512 195.264 12.3512H196.544V9.53588H196.563Z" fill="white"/>
</svg>
