<svg width="362" height="330" viewBox="0 0 362 330" fill="none" xmlns="http://www.w3.org/2000/svg">
<path d="M240.52 27.5153C234.178 23.921 229.101 18.3645 223.309 13.8532C200.763 -3.75158 166.726 -3.23811 145.72 15.0269C136.445 23.0774 129.572 34.0621 119.032 40.3155C100.593 51.2635 76.581 49.8881 59.2962 63.1468C48.995 71.0506 46.9971 79.743 46.5389 92.0664C45.9157 108.186 40.7468 123.993 31.8569 137.087C22.3989 151.006 8.70675 162.229 3.07958 178.238C-0.384695 188.086 -0.439684 198.924 0.56844 209.469C3.61114 241.597 22.069 272.406 53.5041 282.914C67.6362 287.645 82.923 287.902 96.7068 293.678C105.065 297.181 112.562 302.573 120.535 306.974C152.777 324.78 193.34 324.909 224.684 307.322C233.922 302.132 242.481 295.494 252.544 292.193C261.709 289.167 271.625 289.094 281.01 286.838C296.187 283.189 307.955 274.038 317.614 261.99C327.567 249.575 328.887 232.648 335.522 218.088C339.848 208.607 346.648 200.556 351.469 191.332C363.2 168.886 365.528 136.115 350.461 113.651C339.445 97.2378 319.062 89.0406 308.853 72.0959C306.268 67.8047 304.435 63.1101 301.942 58.7639C296.334 49.0446 287.279 41.3791 276.923 37.6014C265.082 33.2736 251.756 33.8421 240.704 27.6437C240.63 27.5887 240.575 27.552 240.52 27.5153Z" fill="#B2DEB1"/>
<path d="M91.0428 209.58C87.5236 218.456 85.3423 231.843 84.0409 240.976C82.7579 250.09 80.595 267.181 77.149 275.709C76.4892 277.359 75.9576 283.777 75.5544 291.388C74.8212 305.49 74.5096 323.737 74.5096 323.737C49.8197 332.686 28.9607 322.875 28.9607 322.875C28.9607 322.875 32.535 307.892 35.6143 292.507C38.4004 278.588 40.7833 264.357 39.8301 260.579C37.8322 252.602 26.0463 215.815 24.9466 211.653C23.8468 207.49 31.8751 175.324 34.9728 169.199C38.0705 163.074 43.2761 146.57 46.2271 145.616C49.1965 144.663 51.1211 148.587 49.6364 151.815C48.1701 155.06 37.044 184.42 36.4208 194.91L49.6364 169.713C49.6364 169.713 61.569 151.851 65.5831 150.421C69.5973 148.972 72.8233 151.521 68.7175 156.399C66.8845 158.6 61.5323 166.357 57.0965 174.591C51.8176 184.347 47.4186 194.616 47.107 195.387C47.9501 194.176 61.404 174.848 65.1066 173.949C68.9374 173.032 95.3319 178.057 94.4338 180.606C93.5356 183.155 91.5927 184.897 85.379 184.384C79.1653 183.87 67.746 183.247 67.746 183.247C67.746 183.247 59.4977 202.85 62.1555 214.422C63.1086 218.621 68.2592 220.253 71.5952 217.558C74.6929 215.064 78.3038 211.506 79.7518 207.453C82.5379 199.769 88.9899 185.264 95.3503 186.126C101.729 186.988 94.5621 200.705 91.0428 209.58Z" fill="#FFBE9D"/>
<path d="M323.846 260.579C322.911 264.265 325.184 277.946 327.897 291.553C331.013 307.269 334.715 322.875 334.715 322.875C334.715 322.875 313.856 332.686 289.167 323.737C289.167 323.737 288.965 312.147 288.525 300.282C288.085 289.242 287.444 277.964 286.545 275.709C283.1 267.181 280.918 250.09 279.635 240.976C278.371 231.843 276.171 218.475 272.652 209.58C269.114 200.705 261.966 186.988 268.326 186.126C274.686 185.245 281.12 199.769 283.906 207.453C285.372 211.506 288.983 215.064 292.063 217.558C295.417 220.253 300.549 218.621 301.502 214.422C304.16 202.85 295.912 183.247 295.912 183.247C295.912 183.247 284.474 183.87 278.279 184.384C272.065 184.897 270.122 183.173 269.224 180.606C268.326 178.075 294.72 173.032 298.533 173.949C302.236 174.866 315.708 194.176 316.551 195.387C316.239 194.635 311.822 184.365 306.561 174.591C302.107 166.357 296.773 158.581 294.922 156.399C290.816 151.503 294.061 148.972 298.075 150.421C302.071 151.87 314.021 169.713 314.021 169.713L327.219 194.91C326.614 184.42 315.469 155.042 314.021 151.815C312.555 148.587 314.461 144.663 317.412 145.616C320.382 146.57 325.569 163.074 328.685 169.199C331.764 175.324 339.793 207.49 338.711 211.653C337.648 215.815 325.881 252.602 323.846 260.579Z" fill="#FFBE9D"/>
<path d="M77.2775 290.068C76.4893 305.197 76.1594 324.782 76.1594 324.782C49.6549 334.392 27.2745 323.865 27.2745 323.865C27.2745 323.865 31.1054 307.783 34.4231 291.26C35.1196 291.59 35.8344 291.92 36.5676 292.122C40.2152 293.167 44.0277 293.369 47.8036 293.405C57.7199 293.497 67.6545 292.379 77.2775 290.068Z" fill="#F9FAFC"/>
<path d="M336.64 323.994C336.64 323.994 314.04 334.63 287.297 324.929C287.297 324.929 287.077 312.367 286.619 299.53C287.865 299.714 289.203 300.136 290.505 300.227C294.317 300.484 298.13 299.897 301.869 299.127C311.309 297.202 320.529 294.139 329.253 290.068C332.626 307.086 336.64 323.994 336.64 323.994Z" fill="#F9FAFC"/>
<path d="M181.994 204.299C183.02 202.374 183.46 200.302 183.002 197.716C181.976 191.958 178.126 186.86 178.017 181.138C178.896 179.488 180.198 178.075 182.141 177.104C184.377 176.003 186.155 175.16 187.786 173.179C196.456 162.69 188.428 147.891 189.454 136.062C190.041 129.295 191.965 121.85 187.859 115.743C186.741 114.075 185.367 113.011 183.827 112.277C184.029 110.48 184.23 108.683 184.432 106.886C184.542 105.877 184.725 104.777 184.78 103.677C185.312 104.08 186.118 104.062 186.466 103.402C188.721 99.2205 187.914 94.2875 184.01 91.39C181.884 89.8129 179.08 88.9694 176.642 88.0158C172.958 86.567 169.2 84.7332 165.259 84.183C162.546 83.7979 159.962 84.1464 157.579 85.5401C153.932 87.649 151.457 89.6295 147.021 90.1797C142.256 90.7665 137.178 90.9866 134.374 95.2594C129.975 96.8732 126.254 99.734 123.944 104.172C123.798 104.447 123.688 104.704 123.559 104.979C123.303 105.107 123.046 105.235 122.808 105.401C120.462 107.124 120.315 109.325 120.847 111.581C120.792 111.709 120.755 111.837 120.7 111.947C119.105 115.633 116.723 118.512 113.698 121.447C109.556 125.463 106.366 129.46 105.285 134.834C103.177 145.268 107.796 155.629 107.045 166.082C106.531 173.179 102.865 178.516 96.0835 182.623C90.9329 185.741 85.0308 188.07 80.6134 191.994C69.8906 201.53 73.7582 215.266 75.4628 226.947C76.5443 234.411 76.196 241.875 73.8132 249.137C71.7236 255.5 67.9844 262.67 59.6994 264.266C58.288 264.541 58.8929 266.375 60.3043 266.118C78.1756 262.725 79.587 238.885 77.8457 226.819C76.4709 217.246 73.1533 206.39 79.0187 197.386C83.8211 190.014 93.9206 187.428 101.033 182.128C114.431 172.116 108.401 156.62 107.558 143.581C107.32 139.987 107.411 136.301 108.584 132.816C110.124 128.268 113.662 125.133 117.162 121.63C119.179 119.613 120.773 117.504 122.056 115.175C122.221 115.633 122.405 116.073 122.551 116.495C123.321 118.733 122.881 120.768 122.13 122.785C120.828 123.225 119.6 123.867 118.592 124.711C115.33 127.443 114.376 131.221 114.908 134.907C112.03 137.034 110.491 140.06 111.59 144.186C112.892 149.101 118.042 152.328 119.894 157.005C122.111 162.598 114.853 167.311 117.602 172.702C118.079 173.619 118.666 174.371 119.27 175.086C117.694 178.461 116.668 181.982 117.492 185.594C118.061 188.107 119.619 190.711 121.891 192.544C122.111 198.266 122.57 204.409 124.934 209.783C126.034 212.277 127.665 214.679 129.975 216.403C130.305 218.475 131.24 220.364 133.219 221.702C136.903 224.16 141.999 222.913 145.408 220.62C145.793 220.767 146.16 220.932 146.545 221.116C149.844 222.803 152.557 225.297 155.709 227.186C159.082 229.203 167.11 233.219 173.049 233.641C174.717 235.328 176.972 236.391 179.501 236.08C184.432 235.493 186.228 230.046 187.401 225.994C189.271 219.539 189.179 214.33 185.202 208.792C184.12 207.215 183.02 205.748 181.994 204.299ZM180.748 202.484C178.163 198.596 176.257 194.562 176.312 189.207C176.33 187.813 176.44 186.438 176.678 185.099C178.383 190.949 182.581 196.982 180.748 202.484ZM176.074 180.019C176.037 180.349 176.055 180.698 176.055 181.028C174.992 183.65 174.607 186.713 174.552 189.189C174.424 194.873 176.349 200.137 179.703 204.648C179.666 204.703 179.648 204.776 179.593 204.831C177.925 207.197 175.194 208.994 173.837 211.543C172.444 209.709 170.721 207.912 168.943 206.262C169.237 205.51 169.493 204.758 169.713 204.024C172.023 195.882 172.224 185.759 169.933 177.58C169.585 176.333 169.127 175.105 168.558 173.913C171.033 171.95 173.178 169.732 174.094 166.944C176.275 160.269 170.281 155.263 166.872 149.889C165.846 147.469 165.094 145.048 164.764 142.536C164.966 141.124 165.534 139.657 166.634 138.098C167.239 137.254 167.917 136.447 168.632 135.64C169.292 135.622 169.823 136.136 171.07 136.906C173.782 138.593 173.746 139.583 173.159 142.481C172.811 144.205 172.114 145.855 171.949 147.615C171.748 149.614 172.023 151.943 173.507 153.465C175.872 155.886 180.198 154.657 180.179 151.081C180.179 150.733 179.941 150.55 179.684 150.513C179.959 150.036 180.216 149.541 180.436 149.009C180.949 150.219 181.371 151.467 181.664 152.75C182.782 157.812 182.526 163.111 180.619 168.008C179.061 172.042 176.477 175.728 176.074 180.019ZM166.542 210.864C167.184 209.893 167.77 208.902 168.265 207.875C169.97 209.434 171.546 211.066 172.774 212.808C172.921 213.01 173.031 213.212 173.159 213.432C172.719 215.651 173.507 217.723 174.589 219.759C174.406 220.455 174.112 221.134 173.617 221.757C173.068 222.454 172.463 222.949 171.821 223.316C171.968 221.702 172.243 220.052 172.316 218.365C172.499 214.037 169.787 212.313 166.542 210.864ZM180.069 139.913C180.069 140.684 180.069 141.472 180.051 142.242C177.962 138.74 175.487 135.164 175.175 131.148C174.864 127.187 176.55 123.317 177.192 119.429C177.412 118.017 177.632 116.404 177.742 114.735C178.035 114.221 178.31 113.689 178.566 113.139C178.695 112.864 178.823 112.571 178.951 112.277C179.978 112.442 180.986 112.644 181.957 112.974L179.061 139.198C179.006 139.785 179.575 140.005 180.069 139.913ZM178.768 151.136C177.228 151.338 175.689 151.558 174.167 151.76C173.929 150.825 173.691 149.908 173.452 148.972C173.397 147.854 173.764 146.57 174.002 145.488C174.314 144.168 174.791 142.884 174.955 141.527C175.065 140.647 175.102 139.712 174.992 138.813C176.367 141.527 178.053 144.168 179.428 146.9C179.116 148.257 178.786 149.614 178.731 151.008C178.731 151.063 178.75 151.1 178.768 151.136ZM169.108 155.923C171.125 158.49 172.994 161.241 172.884 164.413C172.774 167.678 170.575 170.3 167.844 172.537C166.212 169.658 163.903 167.072 160.952 165.184C161.062 165.092 161.153 164.982 161.282 164.89C163.701 163.02 167.22 161.736 168.613 159.022C169.108 157.958 169.218 156.931 169.108 155.923ZM161.63 199.898C163.06 199.018 164.251 197.826 164.911 196.249C165.662 194.452 165.442 192.673 164.673 190.912C163.151 187.391 160.53 184.402 158.752 181.01C159.962 179.983 161.245 179.047 162.473 178.204C163.719 177.342 165.058 176.48 166.359 175.563C167.734 178.919 168.284 182.605 168.43 186.108C168.668 191.958 168.76 198.413 166.854 204.208C166.744 204.171 166.652 204.153 166.542 204.116C164.618 202.41 162.858 200.962 161.63 199.898ZM166.194 206.041C165.736 207.105 165.241 208.169 164.618 209.177C164.471 209.416 164.288 209.617 164.141 209.838C163.903 209.727 163.664 209.636 163.426 209.526C161.428 208.627 159.449 207.692 157.469 206.72C159.614 205.088 162.07 204.281 165.076 205.088C165.442 205.4 165.809 205.711 166.194 206.041ZM139.231 170.392C139.213 170.337 139.195 170.3 139.176 170.245C138.736 168.98 138.37 167.696 138.058 166.394C139.818 166.669 141.614 166.449 143.41 166.009C145.243 165.569 146.93 165.129 148.543 164.872C148.561 165.404 148.524 165.935 148.469 166.467C146.673 167.348 144.95 168.118 143.484 168.778C142.219 169.365 140.734 169.878 139.231 170.392ZM139.689 173.894C139.121 173.711 138.535 173.509 137.985 173.326C137.655 173.216 137.288 173.087 136.903 172.941C137.563 172.666 138.241 172.427 138.883 172.171C139.14 172.757 139.415 173.326 139.689 173.894ZM135.73 160.654C135.84 161.516 135.969 162.378 136.115 163.221C135.217 162.671 134.484 161.938 133.934 161.076C134.539 160.947 135.144 160.801 135.73 160.654ZM133.091 159.462C132.688 158.435 132.468 157.371 132.468 156.381C132.431 153.869 133.439 151.778 135.034 149.944C135.089 152.952 135.235 155.978 135.547 158.985C134.777 159.132 133.952 159.297 133.091 159.462ZM136.115 131.368C136.06 130.983 135.969 130.616 135.895 130.249C137.49 131.166 139.121 132.046 140.588 132.945C144.565 135.365 149.294 137.016 154.133 135.402C158.349 133.99 159.687 130.744 158.551 127.15C158.129 125.793 157.542 124.509 157.121 123.262C157.451 123.427 157.836 123.592 158.312 123.812C161.538 125.224 161.868 125.573 161.098 128.58C160.75 129.937 159.339 131.698 158.367 132.688C157.121 133.972 155.636 135.035 154.096 136.044C151.75 137.548 148.763 138.96 145.702 140.445C144.235 140.188 142.769 139.968 141.302 139.785C141.321 139.62 141.357 139.473 141.376 139.308C141.944 135.439 140.386 132.376 136.115 131.368ZM147.351 142.132C150.137 142.646 152.813 143.343 155.215 144.333C159.155 145.965 159.779 149.596 156.846 152.383C155.178 153.979 152.502 154.749 150.192 155.409C149.294 155.666 148.378 155.904 147.461 156.143C145.793 154.254 143.795 152.567 142.256 150.605C140.844 148.807 140.404 147.249 140.368 145.708C142.586 144.388 145.005 143.233 147.351 142.132ZM140.661 143.031C140.771 142.462 140.881 141.894 141.009 141.289C141.834 141.362 142.659 141.454 143.484 141.545C142.531 142.022 141.596 142.517 140.661 143.031ZM136.39 133.917C139.011 135.182 138.993 137.273 138.498 139.455C137.802 139.382 137.087 139.345 136.39 139.29C136.445 137.566 136.5 135.732 136.39 133.917ZM136.317 141.014C136.903 141.032 137.49 141.032 138.076 141.069C137.912 141.674 137.747 142.261 137.637 142.829C137.49 143.581 137.453 144.278 137.453 144.956C137.05 145.231 136.665 145.507 136.28 145.782C136.28 145.03 136.28 144.26 136.262 143.508C136.262 142.719 136.28 141.894 136.317 141.014ZM137.82 147.414C138.92 151.063 142.219 153.667 144.895 156.803C142.384 157.408 139.873 157.977 137.38 158.618C137.197 158.655 136.995 158.71 136.793 158.747C136.463 155.409 136.354 152.035 136.317 148.679C136.775 148.239 137.27 147.817 137.82 147.414ZM145.903 158.05C146.71 159.114 147.406 160.269 147.883 161.553C147.993 161.864 148.066 162.176 148.139 162.488C146.875 162.69 145.61 163.001 144.235 163.35C141.907 163.955 139.708 164.578 137.472 163.863C137.252 162.69 137.068 161.516 136.922 160.342C139.928 159.59 142.915 158.839 145.903 158.05ZM155.288 172.299C154.921 175.251 155.581 178.039 156.736 180.698C154.958 182.348 153.418 184.182 152.557 186.163C153.18 182.403 149.716 178.479 145.793 176.297C147.608 174.793 149.074 173.124 150.027 171.089C150.706 169.658 151.072 168.191 151.2 166.724C152.245 166.156 153.272 165.569 154.298 164.945C155.233 165.147 156.186 165.44 157.194 165.899C157.451 166.009 157.689 166.156 157.946 166.266C156.516 167.953 155.581 169.897 155.288 172.299ZM159.192 166.962C162.216 168.796 164.306 171.29 165.717 174.114C164.251 175.141 162.766 176.095 161.428 177.012C160.329 177.764 159.174 178.607 158.074 179.524C157.854 179.011 157.652 178.479 157.487 177.947C156.351 174.151 156.718 170.135 159.192 166.962ZM142.769 178.699C143.3 178.241 143.85 177.819 144.455 177.36C144.583 177.415 144.73 177.47 144.858 177.525C147.113 178.662 148.873 180.093 149.917 182.202C150.614 183.595 151.86 188.327 148.946 187.85C147.443 187.611 145.757 186.016 144.052 185.539C144.235 183.229 143.649 180.955 142.769 178.699ZM143.539 170.392C144.987 169.75 146.526 169.053 148.103 168.301C147.37 170.777 145.775 173.069 143.539 174.921C143.447 174.995 143.355 175.068 143.264 175.141C142.476 174.83 141.669 174.573 140.863 174.298C140.496 173.473 140.129 172.666 139.799 171.84C141.156 171.345 142.457 170.868 143.539 170.392ZM143.117 185.356C141.907 185.136 140.679 185.007 139.433 185.044C139.579 183.504 139.964 182.037 141.009 180.588C141.339 180.129 141.706 179.726 142.072 179.359C142.787 181.358 143.227 183.375 143.117 185.356ZM143.759 187.08C145.592 187.593 147.37 188.547 148.909 190.014C149.221 190.326 149.826 190.289 150.156 190.014C151.017 189.299 151.585 188.528 151.989 187.74C151.64 189.225 151.714 190.802 152.355 192.416C153.455 195.167 156.113 197.441 158.606 199.55C157.267 199.935 155.838 200.082 154.628 199.953C149.697 199.44 147.553 196.451 144.437 193.663C143.355 192.691 142.311 192.141 141.284 191.829C141.724 191.206 142.146 190.582 142.549 189.922C143.154 188.987 143.52 188.033 143.759 187.08ZM153.822 188.4C154.151 186.071 155.618 184.017 157.469 182.202C158.624 184.494 160.072 186.695 161.52 188.858C163.115 191.261 164.233 193.718 162.913 196.506C162.436 197.496 161.557 198.266 160.475 198.835C157.103 195.919 153.18 192.82 153.822 188.4ZM162.345 162.506C161.373 163.13 160.475 163.79 159.687 164.468C158.789 163.992 157.836 163.588 156.846 163.24C158.862 161.791 160.695 160.214 162.161 158.417C164.104 156.051 164.654 153.264 164.618 150.256C164.618 150.073 164.599 149.889 164.599 149.706C165.296 150.916 166.139 152.108 167.037 153.282C167.294 153.832 167.477 154.382 167.477 154.932C167.514 158.82 165.516 160.452 162.345 162.506ZM163.151 139.382C162.748 140.739 162.656 142.169 162.693 143.618C162.693 143.874 162.693 144.149 162.73 144.406C162.876 147.065 163.335 149.779 163.078 152.237C162.638 156.491 159.247 159.939 155.16 162.69C155.105 162.671 155.05 162.653 154.976 162.635C153.51 162.286 152.172 162.158 150.852 162.194C150.412 160.489 149.606 158.857 148.469 157.335C154.426 155.611 163.866 151.907 159.705 145.452C157.836 142.554 152.923 141.857 149.422 141.142C151.457 140.188 153.382 139.271 154.958 138.318C160.127 135.2 166.909 128.984 163.371 123.079C162.088 120.97 159.467 119.393 156.626 119.594C156.754 118.751 157.084 117.907 157.707 117.009C158.954 115.23 160.823 113.855 162.381 112.296C165.039 113.488 168.155 114.038 170.336 116.11C171.583 117.284 172.408 118.421 172.939 119.539C171.253 121.667 169.493 123.739 167.99 125.884C165.113 130.047 163.39 134.595 163.151 139.382ZM149.844 107.161C149.936 105.932 150.284 104.557 150.87 103.273C153.51 103.512 155.581 104.869 157.176 107.051C157.909 108.06 158.349 109.215 159.229 110.169C159.742 110.737 160.329 111.159 160.952 111.544C159.1 113.561 156.718 115.358 155.545 117.797C155.196 118.549 155.031 119.264 154.995 119.943C153.638 120.383 152.538 121.172 151.53 122.052C151.567 121.703 151.622 121.355 151.64 121.025C151.897 116.349 149.459 111.837 149.844 107.161ZM146.93 106.996C146.801 107.84 146.783 108.683 146.801 109.527C145.867 108.665 144.84 107.821 143.869 106.923C143.484 106.574 143.154 106.207 142.824 105.841C144.254 104.704 145.903 103.86 147.773 103.475C147.846 103.457 147.901 103.457 147.974 103.457C147.461 104.63 147.113 105.841 146.93 106.996ZM147.828 121.043C147.589 123.757 147.681 123.427 144.052 123.886C140.129 124.362 140.221 124.069 139.213 121.135C138.773 119.851 138.516 118.476 138.278 117.064C138.828 116.477 139.378 115.927 139.983 115.377C142.054 113.176 144.547 113.213 147.443 115.432C147.461 115.597 147.498 115.762 147.516 115.908C147.736 117.614 147.974 119.356 147.828 121.043ZM145.555 101.825C144.217 102.246 142.952 102.925 141.761 103.75C142.127 100.523 145.757 98.9454 149.532 99.3672C149.917 99.4039 150.284 99.4956 150.632 99.6056C150.119 100.082 149.642 100.614 149.239 101.183C147.974 101.238 146.728 101.439 145.555 101.825ZM163.5 106.226C163.5 106.556 163.463 106.868 163.408 107.161C163.243 107.088 163.096 107.033 162.931 106.941C162.106 106.006 161.52 104.942 160.97 103.842C161.795 104.722 162.656 105.511 163.5 106.226ZM160.145 100.926C159.779 100.468 159.394 99.9907 159.045 99.4589C159.999 99.8257 160.823 100.394 161.483 101.128C161.043 101.073 160.603 100.999 160.145 100.926ZM173.507 102.1C173.434 102.283 173.342 102.466 173.269 102.668C172.848 102.356 172.389 102.063 171.931 101.751C172.609 101.549 173.287 101.311 173.966 101.036C173.801 101.384 173.654 101.733 173.507 102.1ZM174.699 110.003C173.727 109.783 172.774 109.545 171.839 109.197C171.51 109.068 171.18 108.94 170.868 108.811C171.858 108.115 172.646 107.179 173.306 106.152C173.342 106.207 173.397 106.262 173.434 106.317C174.167 107.381 174.534 108.683 174.699 110.003ZM172.151 104.997C172.041 105.199 171.949 105.401 171.839 105.584C171.161 106.849 170.245 107.656 169.108 108.023C167.734 107.344 166.414 106.538 165.168 105.621C165.131 104.685 164.966 103.768 164.654 102.87C165.754 102.851 166.854 102.778 167.954 102.613C169.438 103.292 170.978 104.043 172.151 104.997ZM167.294 110.132C167.954 110.058 168.558 109.912 169.108 109.728C170.868 110.517 172.683 111.159 174.552 111.599C174.644 111.617 174.736 111.636 174.827 111.654C174.864 112.479 174.864 113.268 174.864 114.02C174.864 115.193 174.736 116.349 174.552 117.486C174.442 117.632 174.332 117.779 174.222 117.926C173.507 116.642 172.573 115.45 171.436 114.441C169.658 112.864 167.715 112.186 165.442 111.305C164.874 111.085 164.361 110.847 163.866 110.609C164.068 110.297 164.196 110.04 164.324 109.802C165.149 110.095 166.102 110.26 167.294 110.132ZM174.791 103.933C174.736 103.878 174.644 103.823 174.589 103.768C175.23 102.393 175.78 100.999 176.404 99.8257C176.752 99.1655 176.019 98.3953 175.194 98.7987C173.507 99.6239 171.766 100.211 169.988 100.633C167.422 99.2572 164.489 98.1385 161.648 97.1666C164.233 96.8732 166.817 96.6898 169.457 96.6898C170.63 96.6898 172.224 96.6531 173.874 96.7265C174.259 96.9282 174.644 97.1116 175.029 97.3683C178.511 99.7707 179.391 104.025 179.006 107.638C178.896 108.701 178.64 109.728 178.31 110.719C178.09 110.682 177.888 110.645 177.668 110.609C177.357 108.078 176.568 105.694 174.791 103.933ZM173.507 121.006C173.581 121.3 173.672 121.575 173.709 121.868C173.324 123.519 172.958 125.188 172.683 126.875C171.363 129.534 169.035 132.083 166.964 134.65C166.249 135.017 165.589 135.512 165.039 136.081C166.249 130.322 169.952 125.756 173.507 121.006ZM172.499 131.349C172.646 132.725 172.994 134.063 173.471 135.365C172.554 134.412 171.436 133.953 170.245 133.898C171.015 133.055 171.784 132.211 172.499 131.349ZM179.465 110.92C180.986 106.299 180.711 100.761 176.807 97.1666C176.697 97.0749 176.605 97.0016 176.495 96.9099C177.998 97.1116 179.355 97.4784 180.234 98.1202C181.866 99.3122 182.782 102.173 182.947 103.933C183.057 105.18 182.672 106.519 182.544 107.766L182.122 111.636C181.261 111.342 180.381 111.122 179.465 110.92ZM174.204 95.3328C170.556 93.4806 166.671 94.2325 162.803 95.4795C161.282 95.6262 159.76 95.8096 158.257 96.048C158.019 95.9746 157.799 95.9013 157.561 95.8279C157.414 94.7826 157.542 93.7557 158.166 92.7654C159.43 90.7482 162.253 90.2164 164.434 90.1797C169.383 90.088 174.112 92.4903 177.998 95.8462C176.733 95.5712 175.45 95.4245 174.204 95.3328ZM158.532 102.246C160.054 104.319 160.933 107.216 162.858 108.885C162.711 109.178 162.565 109.453 162.381 109.728C161.355 109.032 160.493 108.188 159.779 107.051C159.119 105.987 158.569 104.887 157.634 103.97C156.168 102.521 154.206 101.678 152.117 101.329C152.41 100.999 152.74 100.669 153.107 100.394C154.83 101.219 156.663 101.843 158.532 102.246ZM150.76 97.6067C150.412 97.6984 150.247 97.9185 150.174 98.1385C147.974 97.8818 145.83 97.5334 143.685 98.7254C142.366 99.4589 141.467 100.412 140.954 101.531C140.918 99.4772 142.292 97.6067 145.775 96.5981C147.04 96.2314 148.268 96.158 149.441 96.2864C149.881 96.3597 150.321 96.4331 150.76 96.5248C151.365 96.6898 151.97 96.8915 152.538 97.1483C151.952 97.3133 151.347 97.4417 150.76 97.6067ZM141.614 106.923C143.465 108.628 145.775 110.169 146.985 112.002C147.003 112.186 147.04 112.351 147.058 112.534C145.372 111.746 143.19 111.764 141.229 112.644C139.983 113.213 138.92 114.056 137.948 114.991C137.838 114.368 137.728 113.744 137.6 113.139C138.461 110.939 139.818 108.701 141.614 106.923ZM137.637 126.728C138.021 127.003 138.425 127.26 138.828 127.498C140.771 129.405 143.539 130.542 146.545 129.369C147.681 128.929 148.579 128.232 149.294 127.425C150.321 126.783 151.164 125.958 152.025 125.169C152.465 124.766 152.85 124.344 153.308 123.977C154.463 123.024 154.866 122.62 155.398 122.62C156.149 124.931 157.652 127.131 157.506 129.699C157.231 134.338 151.054 135.365 146.893 134.32C143.227 133.403 140.331 130.983 137.362 129.057C136.738 128.654 135.712 128.14 135.034 127.645C134.484 126.453 133.751 125.371 132.743 124.454C132.706 124.436 132.669 124.417 132.651 124.381C132.798 123.611 133.219 122.712 133.952 121.685C133.989 121.648 134.007 121.63 134.044 121.593C134.612 123.556 135.749 125.334 137.637 126.728ZM134.814 136.667C134.85 137.511 134.85 138.336 134.869 139.18C133.128 139.07 131.386 138.996 129.645 138.978C125.191 138.96 123.34 137.841 122.221 133.917C123.358 133.495 124.531 133.275 125.704 133.146C128.215 132.89 132.028 132.67 134.649 133.312C134.74 134.504 134.777 135.641 134.814 136.667ZM127.83 140.995C130.066 140.922 132.486 140.922 134.924 140.977C134.942 142.902 134.96 144.846 134.979 146.772C131.423 149.669 129.15 153.172 129.92 157.903C130.048 158.637 130.25 159.37 130.543 160.086C129.627 160.342 128.747 160.654 127.94 161.021C128.38 159.535 128.655 158.013 128.673 156.418C128.765 149.908 123.413 146.754 119.655 141.692C118.446 140.06 117.474 138.263 116.906 136.411C117.767 135.732 118.757 135.164 119.839 134.687C120.333 136.191 121.122 137.639 122.203 138.905C124.109 141.124 124.714 141.087 127.83 140.995ZM130.726 161.919C130.928 161.864 131.148 161.809 131.35 161.754C132.449 163.57 134.099 165.129 136.317 165.954C136.445 166.009 136.573 166.027 136.702 166.082C136.775 166.357 136.83 166.651 136.885 166.926C137.197 168.191 137.692 169.456 138.223 170.74C137.032 171.162 135.84 171.602 134.686 172.097C131.624 170.832 128.105 168.98 127.574 166.687C127.042 164.432 128.49 162.561 130.726 161.919ZM134.832 173.839C136.72 174.591 138.663 175.196 140.606 175.857C140.771 176.205 140.936 176.572 141.083 176.92C139.048 178.607 137.435 180.276 136.885 183.1C136.738 183.852 136.665 184.604 136.592 185.374C134.85 185.723 133.274 186.364 131.881 187.245C131.24 186.346 130.635 185.447 130.103 184.494C126.95 178.992 130.341 175.967 134.832 173.839ZM136.518 191.903C136.335 191.939 136.134 192.013 135.95 192.049C134.924 190.986 133.934 189.904 133.036 188.748C134.062 188.07 135.217 187.52 136.463 187.153C136.372 188.73 136.39 190.307 136.518 191.903ZM131.918 189.592C132.706 190.582 133.512 191.573 134.356 192.489C132.999 192.875 131.569 193.26 129.993 193.443C129.718 193.48 129.443 193.498 129.168 193.498C129.682 191.994 130.653 190.674 131.918 189.592ZM135.29 193.406C135.822 193.938 136.354 194.488 136.903 195.002C136.958 195.314 136.977 195.644 137.032 195.955C136.079 197.092 135.162 198.248 134.411 199.531C133.696 200.742 133.073 202.007 132.523 203.272C131.569 202.557 130.726 201.677 130.066 200.522C128.948 198.559 128.6 196.689 128.82 194.965C131.185 194.928 133.256 194.03 135.29 193.406ZM134.741 201.255C135.455 199.843 136.317 198.523 137.252 197.239C137.838 200.228 138.663 203.181 139.653 205.986C137.417 205.583 135.309 204.996 133.512 203.951C133.897 203.016 134.319 202.117 134.741 201.255ZM139.506 191.554C139.415 190.197 139.323 188.84 139.341 187.483C139.341 187.208 139.341 186.933 139.36 186.658C140.533 186.566 141.742 186.658 142.934 186.896C142.696 188.015 142.292 189.134 141.596 190.234C141.284 190.729 140.918 191.206 140.551 191.683C140.184 191.591 139.836 191.554 139.506 191.554ZM140.386 193.113C141.156 193.333 141.962 193.718 142.787 194.323C145.83 196.542 147.278 199.476 151.219 200.833C154.06 201.805 157.286 201.732 159.962 200.723C160.182 200.925 160.42 201.108 160.622 201.31C161.483 202.08 162.381 202.851 163.298 203.621C160.713 203.639 158.221 204.611 156.094 206.06C152.483 204.244 148.946 202.264 145.592 200.008C143.704 198.743 141.816 197.331 140.019 195.827C139.928 195.204 139.818 194.58 139.744 193.957C139.964 193.663 140.184 193.388 140.386 193.113ZM154.72 207.087C154.115 207.6 153.528 208.132 153.015 208.719C152.85 208.902 152.685 209.104 152.538 209.306C149.734 207.545 146.196 207.013 142.696 206.482C141.687 203.713 140.954 200.888 140.404 198.028C144.803 201.53 149.679 204.483 154.72 207.087ZM152.777 211.818C154.151 213.102 155.251 214.605 156.333 216.164C156.094 216.256 155.856 216.366 155.618 216.458C152.96 217.393 150.944 217.32 149.331 216.623C150.449 215.137 151.567 213.45 152.777 211.818ZM153.913 210.333C154.628 209.434 155.38 208.572 156.168 207.82C158.111 208.792 160.054 209.727 161.996 210.608C162.381 210.791 162.785 210.956 163.188 211.121C161.777 212.808 160.017 214.294 157.982 215.394C156.828 213.597 155.618 211.818 153.913 210.333ZM165.589 212.166C168.21 213.395 170.52 215.009 170.63 218.365C170.703 220.272 170.318 222.088 170.098 223.921C166.451 224.527 162.326 221.372 160.42 218.988C160.035 218.493 159.669 217.998 159.339 217.485C161.85 216.146 163.921 214.294 165.589 212.166ZM185.33 114.955C191.397 120.878 188.208 130.432 187.804 137.694C187.383 145.433 190.371 152.787 190.371 160.471C190.371 163.918 189.637 167.513 187.859 170.502C185.697 174.133 183.167 174.426 179.776 176.333C179.318 176.59 178.933 176.902 178.548 177.25C180.308 171.254 184.175 166.027 184.78 159.737C185.312 154.419 183.9 149.504 181.426 144.755C181.737 142.096 181.554 139.345 181.023 137.218C181.774 130.506 182.507 123.812 183.259 117.1C183.387 115.982 183.515 114.863 183.625 113.744C184.249 114.075 184.817 114.46 185.33 114.955ZM148.433 91.4634C152.575 90.8949 154.83 88.8593 158.367 86.9155C164.104 83.7796 170.593 87.4289 175.927 89.7579C180.693 91.8485 186.778 94.6543 185.165 100.468C179.721 93.4439 169.732 86.1269 160.75 88.951C156.626 90.253 155.435 92.6187 155.838 95.3144C149.312 93.3889 142.164 92.9671 136.079 94.7093C139.36 91.8118 144.217 92.0502 148.433 91.4634ZM131.13 99.4956C134.942 96.7265 139.323 95.6995 143.85 95.7545C140.661 97.1116 138.241 99.8623 138.975 103.053C139.14 103.805 139.524 104.484 140.001 105.144C138.608 106.391 137.362 107.858 136.353 109.453C135.749 108.28 134.924 107.198 133.732 106.262C132.028 104.905 129.48 104.062 127.042 104.117C128.05 102.393 129.315 100.816 131.13 99.4956ZM124.879 108.701C125.026 108.555 125.172 108.426 125.337 108.261C127.262 106.519 128.362 106.207 130.873 107.674C132.944 108.866 133.806 110.939 134.374 112.883C134.411 113.029 134.429 113.176 134.466 113.304C133.732 115.395 133.439 117.541 133.641 119.558C132.559 120.585 131.276 121.813 130.543 123.042C129.022 122.327 127.299 122.015 125.557 122.088C126.346 120.236 126.437 118.494 125.484 115.762C125.099 114.68 124.549 113.634 124.201 112.534C124.036 112.021 123.908 111.636 123.816 111.305C124.183 110.444 124.531 109.582 124.879 108.701ZM123.468 125.884C124.018 124.986 124.513 124.197 124.916 123.445C126.602 123.189 128.362 123.409 130.048 124.252C130.03 124.362 129.993 124.454 129.975 124.564C129.828 125.829 130.433 126.545 131.441 127.352C132.193 127.938 133.036 128.507 133.916 129.057C134.117 129.717 134.282 130.377 134.411 131.074C130.708 130.616 126.071 130.799 121.91 131.826C121.763 129.772 122.313 127.755 123.468 125.884ZM116.796 130.157C117.437 128.012 119.142 126.031 121.287 124.766C120.187 127.242 119.032 129.736 119.38 132.596C118.336 132.963 117.346 133.403 116.429 133.917C116.319 132.651 116.411 131.404 116.796 130.157ZM120.425 166.871C121.268 164.817 122.588 162.983 122.845 160.764C123.651 154.052 115.879 150.091 114.083 144.094C113.313 141.527 114.046 139.363 115.586 137.639C115.861 138.428 116.209 139.216 116.613 139.968C118.647 143.691 122.166 146.13 124.714 149.523C127.775 153.612 127.28 158.288 125.631 162.671C125.246 163.13 124.989 163.625 124.898 164.212C124.879 164.303 124.879 164.413 124.879 164.505C124.568 165.202 124.219 165.88 123.871 166.559C122.918 168.393 121.782 170.282 120.718 172.226C119.71 170.538 119.49 169.108 120.425 166.871ZM121.873 190.362C120.755 189.189 119.912 187.776 119.454 186.328C118.372 183.027 119.142 179.671 120.48 176.517C121.305 177.58 121.946 178.736 122.02 180.404C122.148 183.724 121.855 187.043 121.873 190.362ZM122.093 174.114C121.983 173.968 121.873 173.839 121.782 173.693C121.873 173.509 121.965 173.326 122.056 173.142C123.138 171.07 124.348 169.016 125.447 166.926C126.785 169.438 130.176 171.639 132.871 172.959C131.166 173.858 129.608 174.94 128.508 176.388C125.484 180.349 128.179 184.641 130.726 188.088C129.37 189.207 128.307 190.582 127.702 192.214C127.555 192.599 127.464 192.985 127.372 193.37C126.309 193.186 125.337 192.82 124.439 192.324C124.403 188.858 124.549 185.429 124.623 182.238C124.678 178.992 124.219 176.81 122.093 174.114ZM129.902 212.992C129.223 212.221 128.618 211.396 128.124 210.498C125.447 205.601 124.623 199.825 124.439 194.067C125.264 194.433 126.162 194.69 127.097 194.837C126.84 197.771 127.849 200.797 129.956 203.144C130.543 203.804 131.203 204.336 131.881 204.794C131.441 205.95 131.038 207.123 130.745 208.315C130.396 209.727 130.048 211.341 129.902 212.992ZM137.875 221.354C134.557 221.226 132.779 219.667 131.918 217.54C132.798 217.98 133.714 218.347 134.741 218.603C137.655 219.282 140.496 219.282 143.264 219.924C141.687 220.841 139.891 221.427 137.875 221.354ZM145.628 218.218C144.73 217.851 143.795 217.558 142.824 217.338C140.038 216.769 137.105 217.1 134.429 216.146C133.201 215.706 132.211 215.064 131.295 214.33C131.295 214.294 131.295 214.257 131.295 214.22C131.221 211.305 131.899 208.297 132.963 205.418C135.125 206.573 137.637 207.105 140.239 207.49C140.533 208.279 140.844 209.086 141.156 209.838C142.494 213.01 143.85 215.981 146.068 217.796C145.903 217.943 145.775 218.071 145.628 218.218ZM143.759 209.214C143.575 208.792 143.41 208.352 143.245 207.912C144.052 208.04 144.877 208.15 145.665 208.315C148.121 208.792 149.936 209.636 151.42 210.718C150.211 212.387 149.147 214.129 147.883 215.742C146.013 214.239 144.822 211.726 143.759 209.214ZM168.247 230.56C162.271 228.598 157.158 225.627 152.264 222.143C150.687 221.024 149.074 219.905 147.333 219.007C147.406 218.933 147.48 218.86 147.553 218.787C149.459 219.74 151.897 219.96 155.215 219.098C156.113 218.86 156.956 218.567 157.781 218.218C158.697 219.465 159.687 220.694 160.933 221.849C163.243 223.976 166.671 225.719 169.988 225.37C169.952 226.342 169.988 227.351 170.226 228.378C170.465 229.441 170.886 230.487 171.455 231.458C170.318 231.238 169.218 230.89 168.247 230.56ZM173.452 231.257C172.004 229.221 171.674 227.131 171.729 224.985C172.224 224.802 172.719 224.582 173.196 224.288C174.369 223.573 175.212 222.784 175.817 221.941C176.972 223.94 178.438 226.195 177.778 228.506C177.137 230.798 175.597 231.587 173.801 231.679C173.672 231.532 173.544 231.403 173.452 231.257ZM185.073 227.332C184.414 229.276 183.295 232.669 181.188 233.549C179.373 234.319 177.54 234.228 175.982 233.457C178.621 232.907 180.344 231.092 180.124 227.149C180.033 225.278 179.263 223.646 178.328 221.996C177.87 221.171 177.32 220.345 176.825 219.52C177.1 217.741 176.513 215.853 175.432 213.945C175.78 212.148 176.935 210.681 178.401 209.104C179.318 208.095 180.143 207.142 180.858 206.17C182.819 208.627 184.963 211.011 186.081 213.982C187.731 218.347 186.521 223.004 185.073 227.332Z" fill="#64BC62"/>
<path d="M261.636 175.783C261.581 175.526 261.397 175.288 261.012 175.214C257.273 174.499 254.506 175.141 252.471 176.645C254.102 173.105 253.552 168.741 252.544 165.055C251.903 162.744 251.225 160.562 250.748 158.361C250.876 156.197 251.041 154.107 251.628 152.31C254.157 144.644 263.175 138.996 260.188 130.23C259.07 126.948 256.595 124.215 254.267 121.575C251.28 118.2 248.952 114.826 246.899 111.122C246.276 108.463 245.102 105.877 243.123 103.933C240.117 98.6883 236.011 93.7186 229.467 92.3799C225.325 87.7036 217.791 86.8233 211.724 87.6119C211.578 87.6302 211.413 87.6486 211.266 87.6669C210.313 86.3282 209.323 84.9895 208.15 83.8525C205.382 81.1568 201.167 78.8828 197.226 80.1482C195.228 80.79 193.871 82.2571 192.533 83.7975C190.224 86.4382 187.768 87.6119 184.615 89.0056C180.931 90.6194 179.409 93.2784 179.904 97.2762C180.253 100.082 181.041 102.558 181.059 105.253C179.171 108.518 178.548 112.295 178.841 116.018C178.823 116.128 178.786 116.256 178.786 116.366C178.163 122.051 180.399 127.424 182.727 132.486C182.819 132.688 182.91 132.889 183.002 133.091C181.884 134.54 180.839 136.025 179.978 137.419C174.149 146.808 167.037 154.84 157.029 160.892C150.687 164.725 146.728 169.713 149.991 176.773C153.107 183.503 161.373 186.144 168.98 185.722C169.383 185.704 169.786 185.649 170.171 185.612C169.731 188.198 170.391 190.545 173.141 192.012C175.029 193.021 177.283 192.599 178.97 193.498C178.53 195.02 178.383 196.615 178.585 198.211C179.061 202.007 181.682 205.161 185.293 206.61C185.916 207.123 186.576 207.6 187.254 208.077C184.303 213.376 183.075 218.64 187.364 223.793C187.914 224.471 188.538 225.058 189.197 225.608C189.069 225.993 188.941 226.378 188.849 226.782C188.024 230.651 190.169 233.512 194.036 233.989C200.213 234.722 207.509 232.503 213.191 230.358C219.441 227.992 225.142 224.6 230.311 220.382C231.135 219.703 229.962 218.548 229.137 219.208C220.284 226.378 207.93 232.412 196.254 232.21C190.682 232.1 190.077 229.753 190.994 226.873C195.301 229.386 200.91 229.716 205.859 228.01C210.02 226.58 212.439 223.848 215.684 221.28C220.944 217.099 226.37 218.915 232.583 218.181C240.263 217.283 245.139 211.286 247.027 204.922C249.227 197.514 245.762 174.536 260.206 176.81C266.548 181.119 271.607 185.869 273.678 193.149C276.061 201.493 272.798 208.847 268.179 216.017C260.041 228.597 253.424 243.085 258.611 257.81C258.85 258.507 260.188 258.434 260.096 257.627C259.161 248.183 258.96 239.142 262.735 230.101C266.163 221.922 272.853 215.137 275.676 206.756C279.397 195.827 273.935 180.496 261.636 175.783ZM251.298 148.88C251.023 149.376 250.821 149.871 250.62 150.366C250.62 150.329 250.62 150.292 250.638 150.274C251.005 148.642 251.426 147.083 251.683 145.543C252.929 144.553 254.231 143.471 255.44 142.352C254.084 144.461 252.544 146.588 251.298 148.88ZM256.375 139.656C255.22 141.362 253.571 142.7 251.866 143.984C251.976 142.389 251.829 140.775 251.096 139.088C250.198 137.034 249.19 135.218 248.383 133.366C249.208 132.614 250.235 132.027 251.499 131.734C257.09 130.487 258.758 136.117 256.375 139.656ZM247.467 115.725C248.182 116.862 248.952 117.999 249.831 119.062C252.031 121.758 254.616 124.234 256.558 127.094C257.97 129.185 258.63 131.092 258.74 132.908C258.318 132.358 257.732 131.807 256.962 131.294C254.597 129.698 251.188 130.102 248.787 131.422C248.438 131.606 248.145 131.844 247.834 132.064C247.247 130.505 246.844 128.855 246.789 126.948C246.715 123.207 247.522 119.466 247.467 115.725ZM249.63 145.653C248.658 146.405 247.742 147.193 246.917 148.073C246.239 145.066 245.451 142.059 245.744 138.941C245.854 137.786 246.166 136.594 246.715 135.53C248.64 139.253 250.033 141.71 249.63 145.653ZM248.42 156.344C248.548 157.298 248.787 158.288 249.043 159.297C248.915 162.964 248.658 167.127 245.707 169.493C245.616 167.09 245.359 164.688 244.974 162.304C245.616 161.369 246.221 160.415 246.697 159.388C248.273 155.977 247.889 152.658 247.192 149.32C247.247 149.284 247.32 149.247 247.375 149.192C247.834 148.679 248.512 148.073 249.337 147.395C249.318 147.468 249.318 147.523 249.3 147.597C248.677 150.586 247.999 153.282 248.42 156.344ZM246.019 134.008C244.571 136.19 244.204 138.959 244.388 141.527C244.791 146.955 247.797 152.31 245.909 157.774C245.579 158.71 245.139 159.572 244.644 160.434C244.296 158.581 243.874 156.748 243.379 154.95C242.738 152.163 241.785 149.412 240.758 146.68C239.659 143.14 238.87 139.528 239.475 135.842C240.19 131.551 243.031 128.066 244.754 124.142C244.571 127.461 244.663 130.78 246.019 134.008ZM239.292 184.548C237.477 186.566 237.734 188.986 237.716 191.407C237.386 191.682 237.037 191.939 236.671 192.196C236.488 192.306 236.304 192.397 236.139 192.507C236.176 192.416 236.231 192.342 236.268 192.269C237.404 189.903 237.422 187.648 236.891 185.429C237.532 184.108 237.972 182.641 238.119 180.899C238.321 178.625 238.357 176.48 238.669 174.389C239.622 173.527 240.447 172.574 241.162 171.528C241.528 171.565 241.895 171.602 242.261 171.602C242.225 172.078 242.646 172.592 243.306 172.409C243.599 172.335 243.838 172.207 244.113 172.115C244.168 175.526 243.911 178.974 243.086 182.183C241.657 182.77 240.3 183.43 239.292 184.548ZM242.573 183.778C242.133 185.099 241.638 186.382 240.96 187.574C240.428 188.51 239.824 189.353 239.109 190.123C239.109 189.848 239.109 189.592 239.109 189.316C239.2 186.309 240.648 184.842 242.573 183.778ZM230.274 203.29C227.891 204.537 225.123 205.216 222.227 205.142C222.356 203.767 222.246 202.355 221.952 200.961C224.372 200.741 226.828 200.099 229.082 199.036C229.192 200.503 229.687 201.915 230.274 203.29ZM218.983 202.117C219.02 202.795 219.075 203.565 219.148 204.372C219.111 204.519 219.093 204.647 219.056 204.794C218.543 204.684 218.011 204.574 217.498 204.409C213.814 203.29 210.936 201.328 208.773 198.889C210.056 197.569 211.614 199.219 213.264 199.843C215.079 200.521 217.003 200.906 218.946 201.016C218.965 201.383 218.965 201.75 218.983 202.117ZM204.558 217.044C203.274 215.742 202.376 213.945 201.955 212.221C201.863 211.854 201.845 211.488 201.79 211.121C203.403 211.598 205.034 211.231 206.391 209.269C208.022 206.903 207.215 204.116 207.619 201.567C210.405 204.464 214.071 206.573 218.543 207.251C218.286 208.553 217.993 209.837 217.572 211.102C217.425 211.579 217.223 212.056 217.022 212.533C213.906 215.522 209.085 217.393 204.558 217.044ZM213.887 217.117C213.319 217.613 212.678 218.034 211.944 218.346C210.57 218.951 209.323 219.116 208.187 218.951C210.075 218.658 211.889 218.108 213.429 217.356C213.612 217.301 213.741 217.209 213.887 217.117ZM185.916 205.032C182.214 201.64 184.065 197.367 181.719 193.608C181.462 193.204 181.169 192.892 180.839 192.617C180.949 192.361 181.041 192.104 181.169 191.847C181.646 193.204 182.617 194.341 183.955 195.368C185.477 196.542 187.474 197.239 188.666 198.724C190.7 201.255 189.747 203.675 188.428 206.059C187.804 205.968 187.218 205.821 186.631 205.638C186.375 205.418 186.136 205.234 185.916 205.032ZM177.338 176.663C179.556 177.378 181.792 178.313 183.039 179.836C181.297 180.386 179.556 180.973 177.851 181.541C176.257 182.054 174.46 182.476 172.573 182.77C173.434 180.551 175.01 178.387 176.623 176.461C176.862 176.516 177.1 176.59 177.338 176.663ZM182.58 177.507C181.206 176.59 179.464 175.911 177.65 175.269C178.603 174.206 179.519 173.215 180.271 172.39C180.711 171.913 181.151 171.418 181.572 170.941C181.627 170.941 181.682 170.96 181.737 170.96C184.285 170.996 187.016 170.776 189.711 170.85C189.087 173.564 188.153 176.223 186.815 178.717C186.081 178.919 185.348 179.12 184.633 179.34C184.065 178.662 183.405 178.038 182.58 177.507ZM182.69 105.95C184.028 103.603 186.045 101.586 188.849 100.229C191.25 99.0734 194.036 98.4682 196.731 98.6516C186.906 106.042 185.641 117.852 186.613 129.057C186.265 129.368 185.916 129.698 185.586 130.047C184.193 126.893 182.379 123.904 181.407 120.603C180.931 118.971 180.638 117.228 180.564 115.486C181.169 112.295 182.415 109.196 182.69 105.95ZM228.716 93.6452C229.907 95.1306 230.64 97.0378 230.695 99.5135C230.695 99.8986 230.677 100.284 230.622 100.669C229.779 100.632 228.936 100.577 228.093 100.449C225.673 100.064 223.437 99.2017 221.201 98.2848C220.798 97.643 220.266 97.0195 219.551 96.451C219.514 96.4326 219.496 96.396 219.459 96.3776C220.761 95.259 222.154 94.3054 223.84 93.902C225.582 93.4618 227.213 93.4068 228.716 93.6452ZM229.009 118.365C229.046 118.457 229.064 118.53 229.101 118.622C227.176 117.082 225.325 115.523 224.72 113.029C223.987 109.985 224.225 106.61 221.567 104.263C221.494 104.19 221.402 104.135 221.311 104.08C221.824 103.126 222.099 102.063 222.062 100.981C224.61 101.934 227.231 102.723 230.127 102.888C229.412 105.107 228.239 107.234 227.909 109.545C227.469 112.552 228.074 115.523 229.009 118.365ZM233.72 193.516C233.335 193.626 232.95 193.736 232.547 193.846C233.353 193.608 230.732 194.121 230.695 194.158C229.614 194.836 229.192 196.175 229.082 197.44C227.048 198.559 224.83 199.238 222.557 199.476C224.024 197.275 226.003 195.533 228.441 193.828C231.337 191.774 233.848 189.885 235.626 187.519C235.773 189.537 235.26 191.535 233.72 193.516ZM207.637 197.459C207.179 196.817 206.739 196.138 206.372 195.441C208.81 194.543 211.449 194.36 214.162 194.855C214.51 194.91 214.914 194.763 214.987 194.433C216.398 188.565 215.079 183.485 211.834 178.313C210.276 175.838 208.608 172.867 208.682 170.171C210.863 172.078 213.026 173.931 215.335 175.453C217.132 179.927 217.92 184.659 218.323 189.463C217.846 190.839 217.773 192.416 218.451 194.396C218.525 194.616 218.598 194.836 218.671 195.038C218.745 196.523 218.8 197.991 218.873 199.476C215.647 199.164 212.476 198.046 209.781 196.138C209.562 195.992 209.195 195.992 208.975 196.138C208.407 196.542 207.985 196.982 207.637 197.459ZM199.132 207.435C198.271 206.646 197.611 205.528 197.097 204.354C197.391 204.061 197.666 203.749 197.941 203.4C199.389 201.512 200.415 199.549 202.138 197.954C201.826 201.401 200.672 204.776 200.397 208.187C199.939 208.022 199.517 207.783 199.132 207.435ZM186.21 131.514C186.411 131.312 186.613 131.11 186.815 130.909C186.961 132.192 187.108 133.458 187.291 134.705C186.998 133.751 186.705 132.798 186.356 131.844C186.301 131.734 186.246 131.624 186.21 131.514ZM224.445 116.678C225.27 117.944 226.498 118.659 227.763 119.539C228.698 120.181 229.486 120.859 230.164 121.575C230.182 121.611 230.201 121.666 230.219 121.703C230.182 121.758 230.146 121.813 230.109 121.868C229.082 123.243 227.286 123.738 225.618 124.435C224.445 119.667 219.349 116.201 214.51 114.276C213.576 113.909 212.696 113.652 211.853 113.506C211.394 110.315 210.258 107.234 208.15 105.198C208.278 105.125 208.425 105.07 208.572 104.997C209.763 106.152 211.193 107.069 213.044 107.564C215.995 108.334 218.708 107.271 220.376 105.418C223.437 108.169 222.172 113.212 224.445 116.678ZM233.152 147.78C233.408 147.028 233.647 146.295 233.866 145.543C234.013 145.066 234.105 144.589 234.233 144.131C236.396 148.11 236.616 152.786 233.738 156.821C233.683 156.913 233.61 156.986 233.537 157.059C233.537 153.96 233.811 150.824 233.152 147.78ZM232.198 151.209C232.345 153.557 232.107 156.051 232.07 158.526C231.227 159.187 230.274 159.663 229.229 160.067C229.889 156.913 231.025 153.777 232.143 150.678C232.162 150.861 232.18 151.026 232.198 151.209ZM230.879 173.802C230.75 173.545 230.604 173.307 230.494 173.05C229.596 171.253 229.082 169.456 228.844 167.659C230.329 169.438 230.989 171.602 230.879 173.802ZM216.307 173.527C215.757 172.298 215.134 171.088 214.419 169.914C213.502 168.411 212.439 166.999 211.321 165.642C211.596 165.458 211.871 165.275 212.183 165.11C213.282 164.541 214.437 164.156 215.629 163.9C216.343 164.285 217.205 164.523 218.231 164.615C221.659 164.926 224.335 163.918 227.433 166.339C227.543 168.759 228.074 171.235 229.302 173.747C229.669 174.481 230.054 175.214 230.476 175.948C230.439 176.076 230.421 176.223 230.366 176.351C225.49 177.543 220.431 176.425 216.307 173.527ZM229.119 178.827C226.681 182.22 222.282 184.182 219.789 187.043C219.386 183.577 218.745 180.129 217.627 176.81C220.962 178.57 224.665 179.487 229.119 178.827ZM203.953 179.799C203.843 179.726 203.714 179.689 203.604 179.615C203.348 176.681 202.101 174.224 199.975 172.427C200.598 170.08 201.112 167.714 200.873 165.275C200.782 164.266 200.507 163.349 200.158 162.469C201.735 164.926 204.796 167.035 207.124 168.869C206.006 172.995 209.36 176.755 211.394 180.184C213.044 182.953 214.126 185.74 214.272 188.895C214.346 190.343 214.877 192.654 213.191 193.479C212.549 193.791 209.91 193.443 209.048 193.571C207.93 193.736 206.867 194.029 205.859 194.396C204.026 190.362 203.604 185.704 204.594 181.229C204.723 180.661 204.503 180.111 203.953 179.799ZM191.929 151.87C192.295 151.778 192.643 151.649 193.01 151.539C193.303 153.117 193.963 154.767 195.118 156.509C197.391 159.938 199.81 162.928 199.572 167.145C199.48 168.649 199.205 170.116 198.839 171.583C197.042 170.428 194.788 169.639 192.075 169.364C193.01 163.533 192.698 157.701 191.929 151.87ZM212.054 115.284C214.034 115.743 215.977 116.733 217.81 117.889C221.329 120.071 223.199 122.436 223.694 125.481C221.036 127.278 219.093 129.863 218.085 132.706C214.73 131.917 211.284 131.257 207.985 130.359C209.763 127.773 211.046 124.967 211.688 121.886C212.036 120.034 212.219 117.705 212.054 115.284ZM223.785 126.838C223.804 127.81 223.73 128.837 223.51 129.974C223.254 131.276 222.85 132.633 222.685 133.99C221.549 133.623 220.394 133.293 219.221 132.999C219.276 132.853 219.313 132.724 219.368 132.578C220.266 130.377 221.824 128.378 223.785 126.838ZM199.205 160.305C199.242 160.489 199.334 160.654 199.389 160.819C197.867 158.105 195.613 155.721 194.513 152.695C194.33 152.181 194.201 151.686 194.11 151.209C194.293 151.154 194.495 151.099 194.678 151.044C196.328 152.823 198.087 154.529 199.865 156.216C199.205 157.518 198.912 158.893 199.205 160.305ZM204.814 134.191C205.492 134.668 206.189 135.163 206.904 135.64C207.362 140.958 203.183 145.745 198.161 148.294C197.244 148.752 196.309 149.137 195.356 149.486C194.916 148.99 194.513 148.459 194.091 147.945C195.1 142.535 200.965 138.189 204.814 134.191ZM203.384 130.34C204.008 130.579 204.649 130.799 205.291 131.019C205.327 131.074 205.346 131.129 205.382 131.184C205.236 131.367 205.089 131.532 204.942 131.697C204.393 131.276 203.879 130.817 203.384 130.34ZM196.273 150.476C201.991 148.312 206.959 144.846 208.278 138.849C208.425 138.134 208.517 137.419 208.517 136.685C213.227 139.693 218.946 143.434 218.231 148.789C216.765 148.624 214.95 148.349 214.364 148.385C210.35 148.624 206.171 149.981 203.11 152.365C202.193 153.08 201.35 153.923 200.653 154.859C199.15 153.428 197.684 151.98 196.273 150.476ZM208.242 134.063C208.058 133.238 207.765 132.431 207.417 131.661C208.957 132.082 210.515 132.431 212.018 132.706C213.924 133.054 215.83 133.403 217.718 133.825C217.095 136.172 217.113 138.666 217.901 140.995C218.011 141.307 218.213 141.765 218.47 142.297C216.069 138.794 212.036 136.539 208.242 134.063ZM209.415 124.765C208.755 126.544 207.692 128.231 206.445 129.863C204.942 127.626 202.67 125.847 199.774 125.132C199.517 124.472 199.315 123.812 199.132 123.133C200.672 120.951 202.303 118.75 204.301 117.063C206.336 115.358 208.462 114.844 210.606 115.046C210.973 118.329 210.588 121.666 209.415 124.765ZM198.784 120.988C198.454 117.76 199.15 114.478 200.965 111.598C202.248 109.581 204.246 107.582 206.61 106.079C208.297 107.546 209.507 109.746 210.093 112.057C210.203 112.479 210.276 112.901 210.368 113.322C205.272 113.102 201.863 116.825 198.784 120.988ZM196.896 116.605C196.438 118.971 196.548 121.189 197.061 123.28C196.786 123.665 196.511 124.032 196.218 124.417C190.755 119.007 189.619 109.471 197.629 105.308C200.507 103.805 203.036 103.951 205.071 105.033C200.873 107.766 197.776 112.075 196.896 116.605ZM189.417 136.264C191.8 133.073 194.165 129.882 196.566 126.709C197.464 127.369 198.417 127.975 199.444 128.543C200.562 130.23 201.991 131.771 203.623 133.183C199.48 137.694 194.66 141.967 193.248 146.937C192.258 145.671 191.342 144.369 190.517 142.994C190.132 140.738 189.766 138.501 189.417 136.264ZM189.106 134.063C188.941 132.853 188.794 131.642 188.666 130.432C188.629 130.084 188.611 129.735 188.593 129.387C189.692 128.561 190.902 127.828 192.277 127.259C193.065 126.948 193.835 126.746 194.605 126.599C192.79 129.093 190.939 131.569 189.106 134.063ZM192.827 149.009C192.845 149.467 192.845 149.889 192.863 150.311C192.497 150.421 192.13 150.531 191.745 150.641C191.562 149.412 191.379 148.184 191.177 146.937C191.709 147.633 192.24 148.33 192.827 149.009ZM199.499 174.224C200.672 175.489 201.277 177.03 201.497 178.662C200.543 178.313 199.609 178.057 198.655 177.855C198.857 176.645 199.169 175.434 199.499 174.224ZM201.643 159.205C201.552 158.783 201.588 158.38 201.661 157.958C204.228 160.379 206.757 162.836 209.03 165.477C208.7 165.807 208.407 166.173 208.15 166.559C205.749 164.56 202.23 162.102 201.643 159.205ZM202.34 156.454C204.026 153.905 208.223 151.796 210.496 151.063C212.916 150.292 215.409 150.036 217.901 150.201C217.81 150.476 217.736 150.733 217.608 151.026C216.105 154.4 212.678 156.784 213.484 160.745C213.649 161.552 213.942 162.212 214.327 162.744C212.842 163.129 211.468 163.661 210.313 164.45C207.857 161.626 205.089 159.04 202.34 156.454ZM210.093 166.687C210.863 167.641 211.596 168.612 212.274 169.621C212.568 170.061 212.824 170.501 213.099 170.96C211.834 169.859 210.625 168.741 209.378 167.641C209.58 167.31 209.8 166.999 210.093 166.687ZM227.433 164.706C226.645 164.211 225.82 163.753 224.848 163.441C224.133 163.203 223.455 163.111 222.795 163.074C223.272 163.038 223.749 162.983 224.207 162.928C225.453 162.781 226.608 162.487 227.689 162.121C227.561 162.964 227.469 163.826 227.433 164.706ZM217.113 162.176C214.199 160.745 215.72 157.738 217.352 155.244C218.47 153.557 219.459 152.016 220.028 150.421C220.413 150.476 220.798 150.549 221.182 150.623C221.586 150.714 222.154 150.512 222.227 150.091C222.594 147.872 222.026 146.203 220.944 144.186C219.093 140.738 217.901 137.676 218.855 134.063C220.138 134.375 221.402 134.742 222.63 135.163C222.63 135.64 222.685 136.117 222.795 136.594C223.29 138.556 224.555 139.675 226.241 140.922C229.431 143.269 231.117 145.451 231.832 148.642C230.421 152.603 228.808 156.527 227.983 160.489C224.647 161.46 220.706 161.626 217.113 162.176ZM232.675 146.166C231.85 143.782 230.494 141.985 228.331 140.353C226.516 138.959 225.49 137.657 225.032 136.135C226.718 136.887 228.331 137.786 229.816 138.959C231.3 140.133 232.583 141.527 233.573 143.049C233.317 144.076 233.005 145.121 232.675 146.166ZM234.325 139.234C234.251 139.876 234.123 140.518 234.013 141.142C231.502 137.987 228.313 136.062 224.775 134.686C224.702 133.788 224.775 132.816 224.995 131.679C225.307 130.102 225.801 128.543 225.893 126.929C225.911 126.434 225.893 125.939 225.838 125.462C226.168 125.279 226.498 125.096 226.846 124.949C229.706 123.665 230.017 124.325 230.732 122.932C232.84 128.213 235.076 133.256 234.325 139.234ZM215.592 106.17C213.246 106.409 211.504 105.639 210.056 104.355C212.458 103.475 215.042 103.2 217.535 103.915C218.121 104.08 218.598 104.3 219.056 104.52C218.085 105.437 216.82 106.042 215.592 106.17ZM207.435 103.75C207.197 103.86 206.959 103.97 206.72 104.08C205.236 103.181 203.403 102.686 201.13 102.869C193.542 103.493 189.124 111.287 190.389 117.54C190.994 120.493 192.46 122.932 194.495 124.949C192.277 125.334 190.261 126.288 188.446 127.59C188.006 120.438 188.666 112.956 192.643 106.647C194.531 103.658 197.042 101.072 200.03 99.3484C200.232 99.4218 200.452 99.4768 200.653 99.5685C202.871 100.522 204.558 102.466 206.922 103.089C207.105 103.31 207.252 103.53 207.435 103.75ZM188.629 142.939C188.648 143.049 188.666 143.14 188.684 143.25C188.611 143.03 188.538 142.81 188.464 142.609C188.519 142.719 188.556 142.829 188.629 142.939ZM190.151 152.951C190.7 157.518 190.939 162.102 190.407 166.705C190.297 167.586 190.169 168.447 190.004 169.309C187.878 169.346 185.257 169.529 182.892 169.383C186.943 164.468 189.876 159.37 190.151 152.951ZM181.004 169.144C178.548 168.704 176.715 167.604 176.623 165.091C176.367 158.306 182.159 154.437 188.574 152.713C188.574 153.062 188.593 153.41 188.574 153.777C188.171 160.03 184.872 164.706 181.004 169.144ZM191.434 172.39C191.544 171.913 191.635 171.455 191.727 170.978C193.413 171.143 195.045 171.492 196.566 172.17C197.281 172.5 197.886 172.867 198.417 173.27C198.032 174.737 197.629 176.205 197.372 177.672C194.733 177.342 192.093 177.562 189.436 178.093C190.279 176.241 190.957 174.334 191.434 172.39ZM198.326 180.367C199.407 180.624 200.47 180.991 201.533 181.486C201.368 183.448 200.855 185.429 200.287 187.244C199.169 185.135 198.216 182.971 198.307 180.441C198.326 180.422 198.326 180.404 198.326 180.367ZM201.093 191.719C201.68 192.947 202.12 194.25 202.193 195.735C202.193 195.918 202.193 196.12 202.193 196.303C201.24 197 200.36 197.789 199.609 198.687C199.059 199.348 198.564 200.044 198.087 200.741C198.527 199.403 198.967 198.156 199.279 197.11C199.829 195.313 200.47 193.534 201.093 191.719ZM203.494 196.872C203.659 196.762 203.843 196.67 204.008 196.56C204.686 197.88 205.492 199.109 206.409 200.264C206.116 201.732 206.134 203.345 205.951 204.977C205.694 207.288 203.659 208.627 201.625 208.498C201.826 204.611 203.348 200.778 203.494 196.872ZM234.636 187.098C231.484 191.407 225.618 193.351 222.209 197.477C221.879 197.881 221.604 198.284 221.347 198.706C220.999 197.77 220.578 196.835 220.174 195.9C220.193 193.333 220.193 190.82 219.973 188.51C219.973 188.436 219.954 188.363 219.954 188.29C220.779 187.043 222.136 186.034 223.822 184.952C226.718 183.081 229.247 181.394 230.842 178.497C231.19 178.423 231.502 178.313 231.832 178.203C233.317 180.771 234.783 183.356 235.369 185.924C235.131 186.327 234.911 186.712 234.636 187.098ZM233.207 177.745C234.545 177.213 235.791 176.571 236.909 175.801C236.763 178.387 236.909 181.009 236.268 183.503C235.498 181.523 234.361 179.615 233.207 177.745ZM233.555 175.288C233.06 175.526 232.547 175.691 232.052 175.856C232.015 175.783 231.96 175.709 231.924 175.636C232.748 171.968 231.612 168.117 228.679 165.587C228.643 164.266 228.753 162.964 228.954 161.662C230.109 161.167 231.154 160.58 232.089 159.883C232.162 162.634 232.657 165.293 234.453 167.622C235.424 168.888 236.653 169.878 238.027 170.593C237.862 171.015 237.661 171.418 237.532 171.858C237.441 172.152 237.367 172.445 237.312 172.757C236.249 173.729 235.021 174.591 233.555 175.288ZM233.573 158.581C237.826 154.345 238.669 147.78 234.71 142.077C235.15 139.785 235.259 137.602 235.15 135.438C235.608 137.731 236.139 140.023 236.927 142.297C238.999 148.184 241.73 154.033 241.913 160.305C241.95 161.864 241.821 163.423 241.51 164.945C240.428 166.375 239.402 167.824 238.595 169.364C235.168 167.329 233.793 162.341 233.573 158.581ZM236.469 133.751C235.736 130.175 235.369 126.379 233.5 123.078C233.005 122.216 232.345 121.483 231.649 120.786C232.308 119.136 232.968 117.467 233.683 115.816C234.013 115.028 234.361 114.258 234.71 113.469C236.139 110.205 235.131 110.131 239.402 110.535C242.793 110.847 242.83 110.572 243.746 113.139C244.168 114.331 244.461 115.67 244.516 116.898C244.608 119.062 244.094 121.171 243.251 123.188C240.997 128.58 237.972 132.596 237.587 137.932C237.147 136.557 236.763 135.163 236.469 133.751ZM220.486 100.394C220.541 100.65 220.578 100.907 220.578 101.201C220.596 101.934 220.376 102.631 220.028 103.255C217.901 102.136 215.28 101.897 212.843 102.173C214.272 101.347 215.537 100.174 216.765 98.945C218.03 99.4035 219.258 99.8986 220.486 100.394ZM214.126 99.2201C211.816 101.164 210.038 101.897 207.472 101.219C206.647 99.972 205.859 98.6516 205.016 97.4413C207.234 96.9828 209.617 96.9645 212.128 97.5146C213.136 97.7347 214.107 98.0281 215.06 98.3582C214.767 98.6333 214.455 98.945 214.126 99.2201ZM203.604 98.2115C204.081 98.8716 204.521 99.5502 204.961 100.229C204.924 100.21 204.887 100.21 204.851 100.192C204.044 99.7886 203.348 99.055 202.541 98.6149C202.358 98.5232 202.175 98.4315 201.973 98.3398C202.413 98.1565 202.853 97.9914 203.311 97.8447C203.403 97.9914 203.513 98.1014 203.604 98.2115ZM198.765 97.2945C194.99 96.561 190.902 97.3679 187.511 99.1467C189.546 96.9828 191.892 95.314 194.44 94.0303C196.859 93.7369 199.389 94.4154 201.46 95.9925C200.543 96.3593 199.645 96.7627 198.765 97.2945ZM185.44 135.42C185.147 134.778 184.835 134.118 184.542 133.476C184.578 133.421 184.615 133.366 184.652 133.329C184.927 134.026 185.183 134.723 185.44 135.42ZM188.574 151.466C183.552 152.805 178.896 154.364 176.293 159.59C174.002 164.175 174.369 169.511 179.629 170.685C179.318 171.033 179.025 171.363 178.713 171.712C178.035 172.445 177.118 173.49 176.11 174.737C170.208 172.757 164.489 170.831 169.292 163.258C173.177 157.133 178.108 151.393 182.47 145.543C183.717 143.874 184.963 142.205 186.228 140.536C187.511 144.057 188.446 147.67 188.574 151.466ZM185.55 185.025C185.641 184.805 185.678 184.567 185.733 184.347C186.503 183.191 187.328 182.036 187.988 180.936C188.024 180.881 188.061 180.807 188.098 180.752C191.122 180.037 194.11 179.707 197.061 180.147C196.951 181.541 196.987 182.953 197.372 184.31C197.849 186.071 198.765 187.611 199.682 189.133C198.399 192.856 197.116 196.56 196.016 200.32C195.796 197.587 196.694 195.405 197.391 192.617C199.242 185.245 191.287 183.797 185.385 185.392C185.44 185.245 185.513 185.135 185.55 185.025ZM185.55 193.718C183.424 191.774 183.259 189.793 183.918 187.831C185.715 186.767 187.676 186.162 189.857 186.272C193.157 186.437 196.126 187.776 195.741 192.141C195.668 192.892 195.063 193.956 194.861 194.635C193.963 197.66 194 200.815 195.045 203.785C194.971 204.061 194.898 204.336 194.825 204.629C193.89 205.344 192.753 205.839 191.305 206.059C191.709 205.234 192.038 204.391 192.258 203.51C193.487 198.101 188.977 196.89 185.55 193.718ZM190.554 207.416C190.609 207.416 190.682 207.416 190.737 207.416C192.075 207.306 193.267 206.958 194.33 206.426C193.926 208.113 193.67 209.819 193.871 211.469C193.816 211.378 193.761 211.304 193.688 211.212C192.68 209.965 191.434 209.012 190.132 208.113C190.279 207.893 190.425 207.655 190.554 207.416ZM196.511 206.683C197.519 208.15 198.894 209.617 200.378 210.497C200.433 211.506 200.58 212.533 200.928 213.578C201.295 214.678 201.845 215.779 202.541 216.751C201.497 216.512 200.488 216.146 199.554 215.632C196.273 213.817 195.906 210.332 196.511 206.683ZM230.787 198.101C232.18 197.239 233.445 196.193 234.49 194.965C235.516 194.506 236.579 194.158 237.569 193.553C236.982 197.257 234.783 200.338 231.722 202.392C231.245 201.108 230.622 199.549 230.787 198.101ZM241.95 170.3C242.72 168.906 243.306 167.42 243.673 165.843C243.819 167.219 243.929 168.631 244.003 170.08C243.27 170.226 242.591 170.3 241.95 170.3ZM242.39 106.61C243.489 108.096 244.186 109.783 244.608 111.525C243.398 108.224 241.235 105.749 237.734 107.032C235.076 108.004 234.215 112.002 233.39 114.019C232.638 115.89 232.034 118.219 231.08 120.181C229.724 116.421 228.716 112.497 229.742 108.536C230.256 106.592 231.08 104.795 231.667 102.961C235.809 103.053 239.769 103.071 242.39 106.61ZM239.549 101.604C237.202 100.65 234.691 100.705 232.198 100.687C232.363 99.5135 232.363 98.2848 231.979 96.9645C231.685 95.9375 231.282 95.0023 230.787 94.177C234.38 95.4607 237.257 98.3765 239.549 101.604ZM227.121 92.1048C224.28 91.9397 221.659 92.6549 219.368 94.2687C218.928 94.5805 218.506 94.9289 218.121 95.2773C216.197 93.7002 214.529 92.2148 212.916 90.0142C212.751 89.7758 212.568 89.5374 212.403 89.299C217.48 88.8772 223.419 89.299 227.121 92.1048ZM212.366 92.0314C213.631 93.6636 214.987 95.0939 216.582 96.3776C216.453 96.3226 216.307 96.2676 216.178 96.2309C211.816 94.6538 207.49 94.2687 203.403 95.369C203 94.9289 202.578 94.5255 202.12 94.177C200.91 93.2784 199.572 92.7283 198.179 92.4532C201.167 91.3529 204.319 90.601 207.49 89.9775C208.407 89.7942 209.433 89.6291 210.515 89.5007C211.138 90.381 211.761 91.2429 212.366 92.0314ZM181.664 98.1748C181.334 96.2493 181.444 93.6085 182.782 91.9397C184.01 90.4177 186.576 90.0692 188.299 89.299C192.258 87.5385 194.128 82.7706 198.289 81.7986C203.183 80.6617 206.574 84.201 209.397 87.9603C204.136 88.7672 198.71 90.0326 193.926 92.4349C190.535 93.0951 187.401 95.2773 185.898 98.5049C185.66 99.0184 186.008 99.6052 186.466 99.7336C185.312 100.449 184.267 101.274 183.369 102.191C183.112 102.448 182.892 102.723 182.654 102.998C182.415 101.384 181.957 99.8069 181.664 98.1748ZM181.224 124.949C182.159 127.241 183.112 129.497 184.028 131.752C183.973 131.826 183.918 131.899 183.864 131.972C182.837 129.662 181.884 127.333 181.224 124.949ZM150.779 171.161C150.962 165.257 157.102 162.928 161.611 159.773C165.314 157.188 168.723 154.309 171.766 151.118C174.845 147.908 177.485 144.406 179.813 140.72C181.077 138.703 182.306 136.612 183.717 134.631C184.358 136.044 184.963 137.456 185.55 138.868C183.735 141.325 181.921 143.782 180.106 146.24C177.375 149.926 174.644 153.593 171.894 157.279C169.603 160.36 165.846 164.01 165.754 167.952C165.662 172.867 170.685 174.627 175.139 175.984C173.544 178.075 171.931 180.551 170.96 182.971C161.465 184.053 150.467 181.688 150.779 171.161ZM172.133 187.978C171.876 187.116 171.839 186.236 171.931 185.355C175.909 184.659 179.959 183.173 183.992 181.908C184.047 182.256 184.047 182.623 184.028 182.99C183.039 184.328 182.067 185.685 181.462 187.153C181.187 187.409 181.114 187.721 181.151 188.033C181.004 188.51 180.912 188.968 180.876 189.463C180.363 190.233 179.923 191.04 179.574 191.884C176.843 190.802 173.159 191.499 172.133 187.978ZM180.656 200.32C179.923 198.467 179.831 196.505 180.234 194.616C180.363 194.8 180.473 195.001 180.583 195.221C181.591 197.349 181.077 200.008 181.921 202.227C181.994 202.41 182.086 202.575 182.177 202.74C181.536 202.025 181.022 201.218 180.656 200.32ZM190.022 223.408C186.705 220.125 186.155 215.65 188.116 211.689C188.483 210.956 188.904 210.222 189.344 209.489C192.992 212.111 195.118 215.064 192.625 219.611C191.874 220.987 190.957 222.234 190.187 223.554C190.132 223.499 190.077 223.463 190.022 223.408ZM213.374 220.95C207.582 225.92 198.729 229.789 191.8 224.875C192.772 222.839 194.091 220.748 194.733 219.116C195.283 217.741 195.503 216.421 195.374 215.137C197.556 218.071 201.368 219.245 205.254 219.208C206.244 219.777 207.38 220.162 208.663 220.217C212.678 220.4 215.72 217.668 217.48 214.605C218.653 213.523 219.624 212.276 220.394 210.956C221.311 213.541 222.85 215.742 225.453 216.586C220.889 216.806 217.37 217.521 213.374 220.95ZM222.081 210.919C221.787 210.277 221.567 209.58 221.366 208.902C221.531 208.443 221.677 207.985 221.806 207.526C222.539 207.526 223.272 207.508 224.024 207.435C226.535 207.196 228.954 206.408 231.099 205.234C231.3 205.711 231.502 206.188 231.685 206.683C232.308 208.407 233.005 210.571 232.162 212.294C229.871 216.916 223.895 214.972 222.081 210.919ZM245.946 199.238C244.937 207.49 240.887 215.54 231.062 216.421C235.663 214.568 233.921 208.517 232.455 204.446C234.985 202.777 237.019 200.503 238.192 197.844C239.017 195.973 239.127 194.25 239.109 192.452C242.041 189.94 243.636 186.474 244.498 182.935C246.147 182.165 247.889 181.504 249.392 180.404C246.477 185.961 246.532 194.47 245.946 199.238ZM246.202 180.844C245.762 181.064 245.286 181.266 244.809 181.468C245.487 178.167 245.817 174.774 245.781 171.345C248.768 169.621 249.868 166.797 250.345 163.643C252.324 170.153 254.029 176.883 246.202 180.844Z" fill="#0A5735"/>
<path d="M68.7725 307.012C68.131 305.288 66.298 304.133 64.4651 304.628C63.3286 304.94 62.6321 305.765 62.2105 306.755C61.9356 307.049 61.7156 307.415 61.569 307.874C61.1108 309.378 61.734 311.065 62.9804 312C64.3551 313.027 66.2247 312.789 67.4894 311.707C68.8642 310.57 69.3957 308.681 68.7725 307.012Z" fill="#E5E5E5"/>
<path d="M302.291 311.762C301.686 308.956 298.002 307.911 296.26 310.313C295.472 311.395 295.325 312.936 295.857 314.165C295.949 314.385 296.077 314.605 296.242 314.806C296.407 315.026 296.572 315.21 296.755 315.338C297.067 315.613 297.415 315.87 297.818 316.017C300.439 317.044 302.841 314.33 302.291 311.762Z" fill="#E5E5E5"/>
<path d="M31.0869 324.654C31.0319 324.635 30.9036 324.874 30.757 325.222C30.8853 325.259 30.9952 325.314 31.1419 325.351C31.2335 324.929 31.2152 324.69 31.0869 324.654Z" fill="#F9FAFC"/>
<path d="M30.1705 324.47C30.0422 324.177 30.0789 324.012 30.2988 323.59C30.4821 323.26 30.5371 323.003 30.4821 322.875C30.4088 322.728 30.4271 322.673 30.5554 322.636C30.6471 322.6 30.7571 322.453 30.7754 322.306C30.8121 321.995 31.2153 321.591 31.4169 321.665C31.4902 321.683 31.5086 321.811 31.4353 321.921C31.2886 322.16 31.3986 322.948 31.5819 323.003C31.7285 323.058 31.9485 322.801 32.1134 322.398C33.1032 319.977 33.2682 319.574 32.9749 319.446C32.6817 319.299 32.755 318.84 33.1032 318.602C33.2499 318.51 33.3782 318.254 33.4698 317.923C33.6531 317.153 34.1664 315.998 34.2397 316.145C34.258 316.181 34.313 316.328 34.3497 316.475C34.3863 316.64 34.4963 316.75 34.6613 316.786C34.8079 316.823 35.1012 316.915 35.3211 317.007C35.7427 317.172 35.9077 317.062 35.7244 316.768C35.6694 316.676 35.706 316.438 35.7794 316.236C35.9993 315.723 35.816 315.503 35.2295 315.521C34.8262 315.539 34.423 315.466 34.4596 315.374C34.4596 315.374 34.478 315.264 34.4596 315.154C34.4413 315.026 34.5329 315.008 34.8262 315.118C35.3578 315.319 36.4575 315.044 36.3659 314.751C36.2926 314.494 36.6042 313.284 36.7875 313.192C36.8791 313.137 36.9891 313.192 37.1541 313.376C37.4473 313.706 37.704 313.797 37.9239 313.669C38.0705 313.577 38.1072 313.596 38.2722 313.779C38.4921 314.036 38.2538 314.274 37.9056 314.146C37.7773 314.091 37.5573 314.109 37.4473 314.182C37.1724 314.347 37.2274 314.586 37.5023 314.531C37.8506 314.476 38.1072 314.751 37.9056 314.989C37.8139 315.118 37.7773 315.301 37.8323 315.448C37.9422 315.741 37.8139 316.09 37.4657 316.42C37.2274 316.64 37.2274 316.695 37.484 317.08C37.7223 317.428 37.7406 317.538 37.5756 317.722C37.3007 318.015 37.2274 318.272 37.319 318.675C37.374 318.877 37.3007 319.262 37.1174 319.666C36.9708 320.032 36.8791 320.362 36.9341 320.417C37.0074 320.509 36.8425 321.059 36.4942 321.848C36.4209 321.995 36.4026 322.178 36.4392 322.251C36.4759 322.325 36.3292 323.022 36.1276 323.773C35.6144 325.699 35.7244 325.919 36.3109 324.159C36.5859 323.352 36.9158 322.416 37.0258 322.05C37.3557 321.133 38.5471 316.97 38.7121 316.145C38.8037 315.778 39.0054 315.008 39.1703 314.476C39.7569 312.587 39.8852 311.908 39.8118 310.717C39.7935 310.386 39.5919 310.331 39.2986 310.533C39.0237 310.735 38.8404 310.698 38.8404 310.441C38.8404 310.331 38.8221 310.111 38.7854 309.946C38.7487 309.763 38.8037 309.543 38.9504 309.378C39.207 309.066 39.5002 309.066 39.4269 309.378C39.3719 309.598 39.6286 309.965 39.8118 309.928C40.0868 309.855 40.5817 308.443 40.4351 308.131C40.3984 308.039 40.4167 307.727 40.49 307.434C40.6 307.012 40.5817 306.884 40.3801 306.792C39.7385 306.499 39.6286 306.425 39.4819 306.205C39.3903 306.059 39.1703 305.894 39.0054 305.82C38.8404 305.747 38.7121 305.655 38.7304 305.6C38.7487 305.545 38.7487 305.435 38.7304 305.343C38.7121 305.252 38.7487 304.922 38.8404 304.591C38.9137 304.261 38.932 303.895 38.877 303.766C38.7121 303.436 38.8037 303.289 39.097 303.418C39.3903 303.546 39.4453 303.436 39.4453 302.813C39.4453 302.483 39.5002 302.336 39.5919 302.354C39.7569 302.373 39.9585 302.061 39.8118 301.987C39.4819 301.841 39.4086 301.529 39.6652 301.346C39.8852 301.199 39.9218 301.126 39.8118 300.924C39.7202 300.74 39.7569 300.594 39.9585 300.337C40.3984 299.713 40.3801 298.577 39.9035 298.301C40.5084 298.246 40.6733 297.99 40.5267 297.403C40.4351 296.999 40.4351 296.981 40.7833 296.779C41.0766 296.614 41.1316 296.541 41.0583 296.376C41.0033 296.266 41.0583 296.101 41.1682 295.991C41.2782 295.881 41.3149 295.752 41.2599 295.679C41.2049 295.606 41.2049 295.477 41.2416 295.386C41.3332 295.202 41.2232 294.634 41.0766 294.432C41.0399 294.377 41.1499 294.249 41.3515 294.157C41.6998 293.992 41.6998 293.974 41.6081 293.625C41.5715 293.478 41.5898 293.277 41.6265 293.093C39.9035 292.91 38.1989 292.617 36.5309 292.14C35.7977 291.938 35.0828 291.608 34.3863 291.278C31.0687 307.782 27.2378 323.883 27.2378 323.883C27.2378 323.883 28.2093 324.342 29.9689 324.965C30.3172 324.819 30.3172 324.819 30.1705 324.47ZM38.5105 306.92C38.5654 306.829 38.6754 306.774 38.7854 306.81C38.987 306.902 38.987 306.92 38.7854 307.067C38.7121 307.122 38.6021 307.159 38.5288 307.141C38.4738 307.122 38.4738 307.031 38.5105 306.92ZM38.1989 307.672C38.4921 307.599 38.6571 307.691 38.8221 308.002C39.0054 308.351 39.1153 308.388 39.2803 308.167C39.4636 307.911 39.7019 307.984 39.8118 308.351C39.9035 308.626 39.8852 308.681 39.6469 308.773C39.4819 308.846 39.3719 308.846 39.3536 308.754C39.2986 308.571 39.097 308.516 39.0237 308.663C38.877 308.974 38.4188 308.919 38.1622 308.553C37.8872 308.149 37.9056 307.746 38.1989 307.672ZM37.9789 308.919C38.3088 308.956 38.3455 309.103 38.1622 309.598C37.9789 310.13 37.8323 310.185 37.6123 309.836C37.3924 309.506 37.6306 308.883 37.9789 308.919ZM37.7406 310.698C38.0522 310.643 38.1072 310.753 37.8873 311.01C37.6856 311.248 37.5207 311.23 37.5023 310.973C37.484 310.735 37.4657 310.735 37.7406 310.698ZM36.9708 311.945C37.264 311.285 37.539 311.102 37.6673 311.505C37.6856 311.56 37.7956 311.633 37.9056 311.633C38.0156 311.652 38.1622 311.743 38.2355 311.835C38.3088 311.945 38.5105 312.037 38.6938 312.074C39.0054 312.129 39.0054 312.147 38.8037 312.44C38.4005 313.009 37.8689 313.119 37.9789 312.624C38.1255 311.908 38.0156 311.725 37.6673 312.147C37.5207 312.33 37.5023 312.477 37.5756 312.624C37.7773 312.99 37.3007 313.137 36.9341 312.825C36.6775 312.642 36.6775 312.605 36.9708 311.945ZM28.6308 323.352C28.2459 323.187 28.2276 322.893 28.5942 322.82C29.0524 323.535 29.0524 323.535 28.6308 323.352Z" fill="#F9FAFC"/>
<path d="M32.3884 325.736C32.4256 325.754 32.4627 325.754 32.4999 325.773C32.4627 325.754 32.4256 325.717 32.3884 325.736Z" fill="#F9FAFC"/>
<path d="M41.0216 300.355C41.1132 300.355 41.2049 300.282 41.2415 300.19C40.7833 300.245 40.765 300.355 41.0216 300.355Z" fill="#F9FAFC"/>
<path d="M41.7547 298.65C41.7364 298.393 41.663 298.283 41.663 298.283C41.6264 298.522 41.6814 298.632 41.7547 298.65Z" fill="#F9FAFC"/>
<path d="M42.158 300.447C42.103 300.539 42.1213 300.667 42.1763 300.722C42.2313 300.777 42.3229 300.722 42.3779 300.594C42.4329 300.465 42.4329 300.337 42.3596 300.318C42.3046 300.3 42.2129 300.355 42.158 300.447Z" fill="#F9FAFC"/>
<path d="M42.6528 293.827C42.5245 294.083 42.6345 294.249 42.8728 294.139C43.0377 294.065 43.0561 293.68 42.9094 293.607C42.8361 293.57 42.7261 293.68 42.6528 293.827Z" fill="#F9FAFC"/>
<path d="M33.7449 318.785C33.9832 318.987 34.1115 318.987 34.1848 318.951C33.8915 318.73 33.7632 318.73 33.7449 318.785Z" fill="#F9FAFC"/>
<path d="M35.6145 326.469C35.6695 326.341 35.6512 326.212 35.5779 326.194C35.5046 326.176 35.4129 326.231 35.3762 326.322C35.3396 326.414 35.3579 326.542 35.4129 326.597C35.4862 326.634 35.5779 326.597 35.6145 326.469Z" fill="#F9FAFC"/>
<path d="M34.5512 320.289C34.6246 320.105 34.4046 320.05 34.258 320.216C34.093 320.399 34.3496 320.747 34.6062 320.674C34.5512 320.472 34.5146 320.362 34.5512 320.289Z" fill="#F9FAFC"/>
<path d="M40.6917 304.188C40.3067 304.078 40.2701 304.041 40.3251 303.766C40.3801 303.418 40.1601 303.179 39.9035 303.289C39.6469 303.418 39.6469 303.491 39.9218 303.748C40.0685 303.876 40.1601 304.041 40.1234 304.096C40.0868 304.17 40.1784 304.316 40.3067 304.426C40.4351 304.536 40.6 304.775 40.655 304.94C40.2518 304.756 39.9768 304.701 39.262 304.72C39.3536 304.976 39.3536 305.141 39.2986 305.252C39.2436 305.362 39.2803 305.508 39.3719 305.582C39.6286 305.783 39.7569 305.82 39.8302 305.692C39.8668 305.618 40.0318 305.545 40.1968 305.508C40.5084 305.453 40.5084 305.453 40.5084 305.655C40.49 306.444 40.765 306.48 41.0583 305.747C41.3882 304.866 41.2782 304.353 40.6917 304.188Z" fill="#F9FAFC"/>
<path d="M40.5818 302.574C40.5452 302.501 40.4352 302.427 40.3252 302.446C40.0869 302.446 39.9586 302.941 40.1786 303.033C40.3985 303.124 40.6918 302.776 40.5818 302.574Z" fill="#F9FAFC"/>
<path d="M319.557 308.626C319.374 307.764 319.08 307.305 319.044 307.819C319.025 307.984 319.062 308.241 319.117 308.424C319.172 308.607 319.319 309.176 319.465 309.708C319.594 310.24 319.759 310.771 319.832 310.9C320.052 310.716 319.997 310.331 319.905 310.001C319.795 309.689 319.649 309.048 319.557 308.626Z" fill="#F9FAFC"/>
<path d="M318.934 307.049C319.025 306.994 318.97 306.646 318.604 305.875C318.512 306.132 318.806 307.141 318.934 307.049Z" fill="#F9FAFC"/>
<path d="M333.891 311.982C333.909 312.22 333.964 312.459 334.056 312.715C334.001 312.459 333.946 312.22 333.891 311.982Z" fill="#F9FAFC"/>
<path d="M332.223 305.747C332.278 305.82 332.241 305.985 332.131 306.095C332.003 306.242 331.984 306.334 332.094 306.352C332.186 306.37 332.223 306.48 332.204 306.59C332.186 306.7 332.278 306.902 332.424 307.049C332.626 307.25 332.663 307.361 332.571 307.526C332.754 307.892 332.644 307.984 332.516 308.021C332.369 308.057 332.241 308.131 332.204 308.186C332.498 308.222 332.864 308.461 332.809 308.626C332.773 308.718 332.846 308.938 332.956 309.121C333.158 309.469 333.084 309.8 332.699 310.221C332.424 310.515 332.498 310.826 332.809 310.753C332.956 310.716 333.084 310.643 333.121 310.588C333.249 310.368 333.414 310.386 333.561 310.533C333.194 308.883 332.809 307.14 332.406 305.307C332.186 305.343 332.076 305.563 332.223 305.747Z" fill="#F9FAFC"/>
<path d="M320.419 312.77C320.345 312.752 320.29 312.844 320.327 312.99C320.345 313.119 320.419 313.211 320.492 313.211C320.565 313.192 320.602 313.101 320.583 312.99C320.565 312.88 320.492 312.789 320.419 312.77Z" fill="#F9FAFC"/>
<path d="M321.335 305.894C321.426 305.784 321.426 305.765 321.225 305.582C321.005 305.38 320.675 305.472 320.712 305.71C320.748 305.894 321.207 306.041 321.335 305.894Z" fill="#F9FAFC"/>
<path d="M317.724 303.088C318.072 304.317 318.201 304.628 318.366 304.592C318.457 304.573 318.347 303.601 318.127 302.501C318.072 302.171 317.962 301.584 317.907 301.236C317.834 300.814 317.706 300.466 317.541 300.264C317.321 300.025 317.284 299.897 317.376 299.677C317.486 299.402 317.302 298.76 317.046 298.54C316.973 298.485 316.954 298.32 316.991 298.192C317.028 298.063 316.954 297.678 316.826 297.348C316.698 297 316.551 296.358 316.514 295.899C316.478 295.514 316.459 295.312 316.496 295.184C316.294 295.257 316.093 295.331 315.873 295.404C316.239 297.476 316.679 299.567 317.009 300.667C317.193 301.291 317.522 302.391 317.724 303.088Z" fill="#F9FAFC"/>
<path d="M325.386 318.4C325.734 318.419 325.844 318.364 325.844 318.309C325.532 318.272 325.422 318.345 325.386 318.4Z" fill="#F9FAFC"/>
<path d="M325.129 312.184C325.294 312.147 324.744 309.139 324.543 309.048C324.231 308.901 324.194 309.103 324.359 310.02C324.598 311.505 324.872 312.239 325.129 312.184Z" fill="#F9FAFC"/>
<path d="M317.596 295.129C317.687 295.459 317.669 295.551 317.449 295.642C317.193 295.771 317.156 295.991 317.394 296.156C317.467 296.211 317.504 296.431 317.486 296.651C317.449 296.963 317.504 297.091 317.706 297.238C317.926 297.403 317.944 297.476 317.834 297.66C317.687 297.916 317.834 298.026 318.201 297.99C318.476 297.953 318.842 298.173 318.897 298.393C318.934 298.577 318.732 298.65 318.421 298.595C318.146 298.54 317.889 298.705 317.926 298.907C317.944 299.017 318.072 299.053 318.311 299.017C318.641 298.962 318.677 298.998 318.787 299.402C318.934 299.97 319.63 300.227 319.539 299.659C319.502 299.475 319.557 299.255 319.667 299.163C319.795 299.053 319.795 298.925 319.722 298.742C319.612 298.522 319.63 298.485 319.869 298.43C320.217 298.357 320.18 298.21 319.814 298.136C319.557 298.081 319.52 298.026 319.63 297.825C319.777 297.513 320.015 297.513 320.199 297.825C320.272 297.953 320.474 298.1 320.62 298.136C320.767 298.173 320.95 298.32 321.005 298.448C321.372 299.237 321.445 299.31 321.812 299.255C322.197 299.2 322.215 299.383 321.83 299.457C321.702 299.494 321.537 299.659 321.445 299.86C321.298 300.135 321.207 300.209 320.95 300.227C320.712 300.245 320.584 300.3 320.474 300.484C320.254 300.814 319.869 300.832 319.722 300.502C319.594 300.209 319.117 300.154 319.172 300.429C318.989 300.539 318.952 300.465 318.989 300.374C318.806 300.264 318.824 300.447 318.916 300.759C319.099 301.291 319.63 301.602 320.034 301.401C320.254 301.291 320.547 301.474 320.602 301.767C320.73 302.428 320.785 302.556 320.987 302.611C321.17 302.666 321.243 302.629 321.408 302.373C321.702 301.933 321.867 301.933 322.233 302.336C322.563 302.703 322.875 303.711 322.728 303.913C322.526 304.188 322.581 304.463 322.875 304.573C323.131 304.665 323.168 304.757 323.186 305.343C323.223 306.297 323.425 306.48 323.919 305.985C324.121 305.784 324.139 305.765 324.286 305.894C324.378 305.967 324.524 306.004 324.634 305.985C324.781 305.949 324.818 306.022 324.799 306.334C324.781 306.572 324.854 306.774 324.946 306.829C325.074 306.902 325.074 306.957 324.946 307.086C324.818 307.214 324.818 307.287 324.946 307.416C325.074 307.526 325.093 307.654 325.019 307.838C324.891 308.149 324.414 308.296 324.359 308.021C324.341 307.911 324.268 307.819 324.194 307.801C324.103 307.782 324.103 307.984 324.176 308.369C324.249 308.754 324.304 308.883 324.341 308.718C324.378 308.516 324.469 308.443 324.873 308.351C325.404 308.223 325.404 308.223 325.276 308.699C325.221 308.919 325.239 309.066 325.331 309.121C325.404 309.176 325.551 309.635 325.642 310.148C325.752 310.808 325.844 311.102 325.972 311.12C326.119 311.157 326.119 311.212 325.954 311.395C325.752 311.634 325.752 311.652 326.064 311.854C326.321 312.037 326.376 312.165 326.394 312.624C326.412 312.991 326.486 313.229 326.596 313.284C326.724 313.357 326.742 313.431 326.651 313.522C326.577 313.596 326.577 313.761 326.632 313.889C326.761 314.164 326.614 314.696 326.412 314.733C326.339 314.751 326.266 314.659 326.266 314.549C326.266 314.274 325.789 313.687 325.587 313.742C325.441 313.779 325.386 314.091 325.441 314.513C325.807 316.988 325.899 317.392 326.211 317.355C326.541 317.318 326.706 317.74 326.522 318.107C326.449 318.254 326.467 318.529 326.559 318.841C326.797 319.556 326.962 320.766 326.816 320.693C326.779 320.674 326.651 320.583 326.559 320.473C326.449 320.363 326.284 320.326 326.137 320.381C326.009 320.436 325.697 320.509 325.459 320.546C325.019 320.619 324.928 320.803 325.239 320.949C325.331 320.986 325.423 321.206 325.459 321.408C325.532 321.921 325.807 322.031 326.302 321.701C326.632 321.481 327.017 321.335 327.036 321.426C327.036 321.426 327.09 321.518 327.145 321.591C327.219 321.701 327.164 321.738 326.852 321.811C326.302 321.921 325.496 322.71 325.752 322.912C325.954 323.077 326.302 324.214 326.211 324.397C326.156 324.489 326.046 324.507 325.807 324.434C325.386 324.324 325.111 324.379 325.001 324.599C324.928 324.745 324.873 324.745 324.653 324.69C324.323 324.599 324.414 324.287 324.763 324.214C324.909 324.177 325.074 324.067 325.129 323.939C325.276 323.664 325.111 323.498 324.891 323.7C324.634 323.939 324.268 323.829 324.304 323.535C324.323 323.388 324.249 323.205 324.121 323.132C323.864 322.948 323.809 322.6 323.938 322.16C324.029 321.866 323.993 321.811 323.571 321.628C323.186 321.463 323.113 321.39 323.168 321.151C323.241 320.766 323.168 320.528 322.893 320.253C322.746 320.106 322.618 319.757 322.545 319.336C322.49 318.969 322.38 318.639 322.306 318.62C322.197 318.602 322.05 318.052 321.94 317.245C321.922 317.098 321.848 316.933 321.775 316.897C321.702 316.86 321.482 316.218 321.262 315.485C320.73 313.632 320.529 313.504 320.913 315.265C321.078 316.053 321.28 317.007 321.372 317.355C321.555 318.272 322.71 322.288 322.985 323.058C323.113 323.407 323.333 324.122 323.461 324.672C323.864 326.213 324.121 326.891 324.598 327.625C332.076 326.139 336.659 323.994 336.659 323.994C336.659 323.994 336.127 321.72 335.265 318.015C335.21 318.015 335.137 317.997 335.027 317.979C334.661 317.905 334.679 317.759 335.064 317.685C335.119 317.667 335.155 317.685 335.192 317.685C335.027 316.988 334.862 316.255 334.697 315.466C334.661 315.576 334.606 315.668 334.532 315.686C334.789 315.961 334.789 315.961 334.569 316.145C334.441 316.255 334.239 316.347 334.239 316.347C334.056 316.383 333.909 316.016 334.037 315.851C334.129 315.741 334.111 315.668 333.927 315.613C333.762 315.558 333.707 315.43 333.726 315.191C333.744 314.971 333.671 314.769 333.506 314.623C333.378 314.494 333.249 314.256 333.213 314.091C333.194 313.926 333.121 313.797 333.048 313.779C332.938 313.761 332.718 312.899 332.113 310.203C332.039 309.891 331.911 309.543 331.801 309.451C331.581 309.231 331.581 308.406 331.82 308.296C332.113 308.149 331.948 307.617 331.636 307.691C331.38 307.746 331.031 307.452 331.141 307.269C330.848 307.086 330.848 307.049 331.013 306.902C331.27 306.682 331.251 306.535 330.958 306.48C330.793 306.444 330.738 306.352 330.756 306.114C330.775 305.93 330.665 305.564 330.481 305.252C330.207 304.775 330.207 304.702 330.353 304.445C330.555 304.096 330.518 303.895 330.188 303.491C330.023 303.29 329.932 303.051 329.95 302.849C329.968 302.666 329.895 302.428 329.785 302.318C329.638 302.153 329.62 302.061 329.73 301.914C329.84 301.786 329.822 301.712 329.693 301.639C329.418 301.492 329.217 299.897 329.455 299.769C329.565 299.714 329.712 299.732 329.803 299.805C329.895 299.879 330.17 300.044 330.426 300.172C331.068 300.484 331.361 301.217 331.38 302.739C331.398 303.235 331.435 303.345 331.636 303.4C331.838 303.455 331.856 303.528 331.801 303.821C331.655 304.518 331.875 304.995 332.314 304.958C331.306 300.319 330.243 295.202 329.217 290.086C325.386 291.883 321.445 293.46 317.431 294.854C317.504 294.872 317.559 294.964 317.596 295.129ZM321.372 300.557C321.317 300.52 321.353 300.41 321.463 300.319C321.683 300.484 321.5 300.649 321.372 300.557ZM326.009 326.268C325.899 326.323 325.734 326.323 325.624 326.286C325.514 326.249 325.276 326.268 325.111 326.323C324.818 326.433 324.799 326.433 324.818 326.066C324.854 325.406 325.239 325.021 325.422 325.497C325.661 326.158 325.862 326.231 325.936 325.717C325.954 325.497 325.899 325.369 325.752 325.277C325.386 325.076 325.716 324.709 326.192 324.782C326.522 324.819 326.559 324.856 326.651 325.534C326.742 326.213 326.596 326.506 326.284 326.249C326.229 326.194 326.101 326.213 326.009 326.268ZM326.632 326.946C326.394 327.166 326.284 327.093 326.357 326.763C326.412 326.469 326.559 326.396 326.706 326.598C326.834 326.781 326.852 326.763 326.632 326.946ZM331.435 311.927C331.893 311.762 332.021 311.927 332.021 312.642C332.021 313.064 332.076 313.339 332.168 313.376C332.296 313.522 332.278 313.687 332.278 313.834C332.259 314.146 332.039 314.238 331.783 314.036C331.471 313.761 331.178 312.019 331.435 311.927ZM330.848 313.779C330.61 313.779 330.5 313.321 330.72 313.211C330.94 313.101 331.05 313.229 331.031 313.559C331.013 313.687 330.94 313.797 330.848 313.779ZM330.426 312.477C330.5 312.422 330.646 312.44 330.775 312.514C331.068 312.715 331.068 312.807 330.756 312.752C330.39 312.697 330.262 312.587 330.426 312.477ZM329.418 299.072C329.62 299.09 329.785 299.163 329.803 299.255C329.822 299.383 329.785 299.383 329.528 299.328C329.052 299.2 328.978 299.035 329.418 299.072ZM328.08 304.738C328.172 304.903 328.282 305.123 328.337 305.233C328.465 305.472 328.41 305.857 328.264 305.894C328.099 305.93 327.952 305.582 327.915 305.087C327.879 304.427 327.897 304.39 328.08 304.738ZM327.897 312C328.319 311.945 328.465 312.165 328.209 312.404C327.439 312.074 327.439 312.055 327.897 312ZM322.985 302.446C323.168 302.409 323.406 302.758 323.461 303.198C323.498 303.51 323.608 303.73 323.718 303.766C323.901 303.821 323.956 304.06 323.938 304.61C323.919 304.922 323.81 304.977 323.498 304.812C323.333 304.738 323.296 304.647 323.351 304.518C323.48 304.298 323.388 303.73 323.223 303.766C323.15 303.785 323.058 303.491 323.003 303.125C322.948 302.758 322.985 302.446 322.985 302.446ZM320.107 296.743C320.144 296.688 320.272 296.669 320.382 296.669C320.62 296.688 320.748 297.073 320.51 297.073C320.29 297.073 320.015 296.853 320.107 296.743ZM319.41 297.165C319.117 297.073 319.08 296.724 319.337 296.468C319.539 296.266 319.557 296.266 319.685 296.523C319.942 297.036 319.832 297.293 319.41 297.165ZM319.722 295.257C319.832 295.257 319.96 295.367 319.979 295.496C320.015 295.716 319.979 295.734 319.465 295.844C318.897 295.954 318.476 295.716 319.007 295.587C319.135 295.551 319.3 295.459 319.374 295.386C319.447 295.312 319.612 295.239 319.722 295.257ZM318.989 295.019C319.282 294.909 319.3 295.202 319.007 295.404C318.879 295.496 318.714 295.551 318.659 295.532C318.531 295.459 318.769 295.111 318.989 295.019Z" fill="#F9FAFC"/>
<path d="M324.671 317.41C324.708 317.172 324.304 317.025 324.139 317.208C324.286 317.355 324.359 317.429 324.378 317.502C324.414 317.685 324.634 317.63 324.671 317.41Z" fill="#F9FAFC"/>
<path d="M321.078 304.793C321.042 304.72 320.95 304.665 320.877 304.683C320.693 304.738 320.767 304.94 321.078 304.793Z" fill="#F9FAFC"/>
<path d="M323.48 311.854C323.26 311.799 323.223 311.89 323.223 311.964C323.461 312.055 323.498 311.964 323.48 311.854Z" fill="#F9FAFC"/>
<path d="M324.139 307.434C324.268 307.287 324.194 307.196 323.993 307.232C323.883 307.251 323.809 307.342 323.828 307.416C323.846 307.562 324.011 307.562 324.139 307.434Z" fill="#F9FAFC"/>
<path d="M12.0609 135.75C11.4377 135.879 10.7595 135.952 10.173 135.714C9.60478 135.475 9.20153 134.925 8.90826 134.375C7.20362 131.111 8.46835 127.04 10.4663 123.94C12.4642 120.841 15.1586 118.164 16.6433 114.79C17.8897 111.929 18.2013 108.72 19.5577 105.914C20.9141 103.108 23.9751 100.669 26.9445 101.586C33.6348 103.622 31.5269 117.54 29.639 122.382C26.9628 129.185 19.0262 134.43 12.0609 135.75Z" fill="#B2DEB1"/>
<path d="M335.797 80.002C338.803 78.6999 340.618 74.5921 338.693 71.9514C336.659 69.1456 332.223 69.6041 329.455 67.4952C326.577 65.2946 326.156 60.0682 322.783 58.5461C318.696 56.6939 315.47 59.628 315.011 63.4791C313.985 72.2082 327.787 83.4863 335.797 80.002Z" fill="#B2DEB1"/>
</svg>
