<svg width="134" height="151" viewBox="0 0 134 151" fill="none" xmlns="http://www.w3.org/2000/svg">
<g opacity="0.31">
<g opacity="0.31">
<path opacity="0.31" d="M37.266 118.314C44.2964 125.233 51.3901 132.2 59.6806 137.546C67.9711 142.891 77.6579 146.567 87.5248 146.159C95.4698 145.834 103.074 142.911 110.26 139.512C115.685 136.944 121.057 134.016 125.294 129.768C135.974 119.057 136.917 100.16 127.362 88.4391C120.512 80.0346 109.711 75.723 102.374 67.7361C89.8163 54.0684 89.5974 32.3166 77.113 18.5809C68.8079 9.43833 55.4283 5.21421 43.3672 7.92347C38.424 9.03534 33.5246 11.3902 30.6103 15.5269C25.8812 22.2369 27.5695 31.3601 29.574 39.3131C31.5834 47.2661 33.583 56.229 29.2967 63.2255C25.1465 69.9938 16.0679 73.0186 13.066 80.3647C10.4971 86.6524 13.3238 93.7217 16.1652 99.8879C18.4373 104.811 21.23 110.181 26.3531 111.983C31.9677 113.954 38.2391 110.827 44.0678 112.026" fill="#D8D3CF"/>
</g>
<g opacity="0.31">
<path opacity="0.31" d="M114.921 67.7553C112.202 65.4248 109.672 62.6524 108.631 59.2294C107.589 55.8064 108.402 51.6211 111.316 49.543C115.131 46.8192 120.687 48.7613 123.956 52.1164C126.73 54.9567 128.569 59.0449 127.654 62.9049C126.744 66.7648 122.38 69.7994 118.668 68.3768" fill="#D8D3CF"/>
</g>
</g>
<path d="M118.891 151H3.2915L18.9286 127.248H103.249L118.891 151Z" fill="#0A5735"/>
<path d="M16.7392 117.431C10.5505 114.139 7.19348 110.065 4.99922 103.423C4.47863 101.85 4.19644 99.8739 5.41277 98.7426C6.71668 97.5288 8.83309 98.1163 10.3997 98.9563C13.28 100.5 15.8148 102.68 17.7707 105.297C20.2861 108.662 22.3927 113.124 26.5331 113.862C26.9126 113.93 27.3213 113.954 27.657 113.77C28.669 113.211 28.0122 111.687 27.37 110.721C26.1925 108.953 25.4287 106.919 25.1514 104.817C25.1027 104.438 25.0687 104.035 25.2195 103.685C25.4384 103.176 25.9979 102.889 26.5429 102.773C28.5279 102.345 30.4594 103.583 32.0358 104.855C36.0545 108.099 41.6399 113.478 44.4083 117.834" fill="#B2CDC1"/>
<path d="M57.7444 80.7488C52.0374 79.0106 46.9045 75.4565 43.2798 70.7323C41.5526 68.4794 40.1271 65.8624 39.9471 63.0269C39.8449 61.4392 40.4628 59.4874 42.0294 59.1961C43.163 58.9873 44.2237 59.7642 45.0897 60.5264C51.2103 65.9353 55.7983 73.0483 58.192 80.8508" fill="#B2CDC1"/>
<path d="M24.3536 88.2552C21.4198 87.658 18.4471 87.0365 15.7809 85.677C13.1147 84.3176 10.7453 82.1084 9.85983 79.2535C9.50952 78.1222 9.43168 76.8015 10.1177 75.8353C10.9789 74.6167 12.7109 74.403 14.1948 74.6118C17.3281 75.0488 20.1743 76.8938 22.1448 79.3651C24.1152 81.8365 25.2586 84.8953 25.7646 88.0125" fill="#B2CDC1"/>
<path d="M28.9562 90.0223C28.095 88.4249 27.5696 86.6721 27.1998 84.8999C26.6938 82.4966 26.5235 79.7824 27.9685 77.7966C28.4015 77.1994 29.034 76.6702 29.7687 76.6508C30.2114 76.6362 30.6396 76.8061 31.024 77.0198C32.6003 77.8937 33.695 79.5785 33.8458 81.375C33.9821 83.0258 33.369 84.6523 32.5419 86.0895C31.7148 87.5218 30.6688 88.823 29.8271 90.2505" fill="#B2CDC1"/>
<path d="M33.3594 94.4844C31.4911 94.0522 29.6082 93.6153 27.6913 93.5958C25.7744 93.5764 23.799 94.0037 22.2665 95.1495C21.9843 95.3583 21.7021 95.6205 21.6437 95.9701C21.5853 96.3051 21.7507 96.6401 21.9551 96.9169C22.6703 97.8685 23.9012 98.3298 25.0932 98.3589C26.2852 98.388 27.448 98.0287 28.5622 97.6015C30.0656 97.0188 31.5981 96.2226 32.4155 94.8339" fill="#B2CDC1"/>
<path d="M40.1027 99.4274C39.5091 97.7086 38.9107 95.9656 38.7453 94.1545C38.5799 92.3435 38.8815 90.4256 39.9519 88.9496C40.0881 88.7603 40.2535 88.5709 40.4773 88.4981C40.7449 88.4156 41.0368 88.5224 41.285 88.6632C42.2921 89.241 42.9051 90.3431 43.2262 91.455C44.0436 94.2662 43.2262 97.4901 41.1731 99.5779" fill="#B2CDC1"/>
<path d="M14.0489 78.088C14.9441 81.7441 18.5737 84.0018 21.4101 86.109C24.558 88.4541 27.774 90.707 30.9705 92.9841C37.3149 97.4996 43.6544 102.107 49.1911 107.608C52.2903 110.691 55.1122 114.051 57.4719 117.737C57.7054 118.101 58.2941 117.766 58.0557 117.397C53.9299 110.958 48.4418 105.564 42.5208 100.772C36.5024 95.9022 30.0558 91.5907 23.799 87.0364C22.0426 85.7594 20.2717 84.4776 18.5883 83.1084C16.8854 81.7247 15.2409 80.1078 14.7057 77.9084C14.5987 77.486 13.9467 77.6656 14.0489 78.088Z" fill="#B2CDC1"/>
<path d="M26.8203 109.808C27.443 107.453 29.4038 105.418 31.7148 104.593C30.2017 103.418 28.3966 102.374 26.5527 102.772C26.0078 102.889 25.4483 103.175 25.2293 103.685C25.0785 104.035 25.1077 104.438 25.1612 104.816C25.385 106.569 25.9591 108.269 26.8203 109.808Z" fill="#B2CDC1"/>
<path d="M16.4619 115.1C14.1898 112.517 11.9566 109.774 10.2635 106.768C9.14932 104.787 7.91839 102.233 8.67738 99.9223C8.86226 99.3639 9.13472 98.8978 9.46556 98.5191C8.06435 97.9559 6.46853 97.7568 5.40789 98.7376C4.19156 99.8689 4.47375 101.845 4.99434 103.418C7.19346 110.06 10.5505 114.134 16.7343 117.426L18.5588 117.45C17.8339 116.678 17.1382 115.867 16.4619 115.1Z" fill="#B2CDC1"/>
<path d="M54.2705 73.3591C55.0003 74.4272 55.7885 75.4565 56.5864 76.4713C55.1803 73.1794 53.3704 70.0526 51.22 67.1831C50.9183 68.7902 53.6818 72.4948 54.2705 73.3591Z" fill="#B2CDC1"/>
<path d="M43.4645 67.4987C42.9682 64.7845 44.1408 62.6434 46.0042 61.3616C45.7025 61.0799 45.4009 60.7983 45.0944 60.5264C44.2283 59.7642 43.1677 58.9873 42.0341 59.1961C40.4674 59.4874 39.8495 61.4392 39.9517 63.0269C40.1317 65.8624 41.5524 68.4794 43.2845 70.7323C44.1651 71.883 45.143 72.9609 46.189 73.9659C44.8657 71.9898 43.8878 69.8195 43.4645 67.4987Z" fill="#B2CDC1"/>
<path d="M22.4367 87.7015C18.1552 86.4829 13.7959 81.5353 12.8228 77.2384C12.6184 76.345 12.5698 75.4467 12.6428 74.5776C11.6357 74.6747 10.6869 75.034 10.1128 75.84C9.4268 76.8062 9.50464 78.1269 9.85494 79.2582C10.7404 82.1131 13.105 84.3222 15.776 85.6817C18.4422 87.0412 21.4149 87.6627 24.3487 88.2599L25.7548 88.0171C25.7305 87.8715 25.7013 87.7307 25.6721 87.585C24.7234 88.0026 23.5654 88.022 22.4367 87.7015Z" fill="#B2CDC1"/>
<path d="M33.8409 81.3652C33.6901 79.5736 32.6003 77.8839 31.019 77.01C30.8682 76.9275 30.7076 76.8546 30.5471 76.7915C31.7002 80.0494 32.3132 83.6666 30.4255 86.6915C29.8222 87.6528 28.8394 87.9296 27.9587 87.6868C28.2312 88.4879 28.5523 89.2696 28.9561 90.0125L29.8222 90.231C30.6639 88.8035 31.705 87.5023 32.537 86.07C33.3641 84.6474 33.982 83.016 33.8409 81.3652Z" fill="#B2CDC1"/>
<path d="M24.7235 96.3342C24.1056 95.8584 23.5461 95.2661 23.2201 94.5669C22.8892 94.7368 22.573 94.9262 22.2714 95.1495C21.9892 95.3583 21.707 95.6205 21.6486 95.9701C21.5902 96.3051 21.7556 96.6401 21.96 96.9169C22.6752 97.8685 23.9061 98.3298 25.0981 98.3589C26.1101 98.3832 27.1026 98.1258 28.0562 97.786C26.8739 97.5578 25.7501 97.1256 24.7235 96.3342Z" fill="#B2CDC1"/>
<path d="M40.3605 90.9836C41.2703 90.7602 42.2044 90.7942 43.0851 91.0321C42.7396 90.0708 42.1607 89.1725 41.2849 88.6676C41.0416 88.5268 40.7497 88.42 40.4773 88.5025C40.2535 88.5753 40.088 88.7647 39.9518 88.954C39.368 89.7552 39.0177 90.6874 38.8376 91.6633C39.2804 91.3574 39.7864 91.1244 40.3605 90.9836Z" fill="#B2CDC1"/>
<path d="M103.916 117.431C110.105 114.139 113.462 110.065 115.656 103.423C116.177 101.85 116.459 99.8739 115.243 98.7426C113.939 97.5288 111.822 98.1163 110.256 98.9563C107.375 100.5 104.841 102.68 102.885 105.297C100.369 108.662 98.2626 113.124 94.1223 113.862C93.7428 113.93 93.3341 113.954 92.9984 113.77C91.9864 113.211 92.6432 111.687 93.2854 110.721C94.4628 108.953 95.2267 106.919 95.504 104.817C95.5527 104.438 95.5867 104.035 95.4359 103.685C95.217 103.176 94.6574 102.889 94.1125 102.773C92.1275 102.345 90.1959 103.583 88.6196 104.855C84.6008 108.099 79.0154 113.479 76.2471 117.834" fill="#B2CDC1"/>
<path d="M69.6982 67.858C72.593 66.3237 74.9868 63.8669 76.4415 60.9343C77.1372 59.536 77.6286 57.9774 77.4243 56.4286C77.3124 55.5595 76.7723 54.5739 75.8966 54.5836C75.2641 54.5884 74.7727 55.1225 74.3883 55.6226C71.6589 59.1815 69.9366 63.5028 69.4695 67.9599" fill="#B2CDC1"/>
<path d="M96.3067 88.2552C99.2405 87.658 102.213 87.0365 104.879 85.677C107.546 84.3176 109.915 82.1084 110.8 79.2535C111.151 78.1222 111.229 76.8015 110.543 75.8353C109.681 74.6167 107.949 74.403 106.465 74.6118C103.332 75.0488 100.486 76.8938 98.5155 79.3651C96.5451 81.8365 95.4017 84.8953 94.8958 88.0125" fill="#B2CDC1"/>
<path d="M91.704 90.0223C92.5652 88.4249 93.0906 86.6721 93.4604 84.9C93.9664 82.4966 94.1367 79.7825 92.6917 77.7966C92.2587 77.1994 91.6262 76.6702 90.8915 76.6508C90.4488 76.6362 90.0206 76.8061 89.6363 77.0198C88.0599 77.8937 86.9652 79.5785 86.8144 81.375C86.6782 83.0258 87.2912 84.6523 88.1183 86.0895C88.9454 87.5218 89.9915 88.8231 90.8331 90.2505" fill="#B2CDC1"/>
<path d="M87.2961 94.4844C89.1644 94.0522 91.0473 93.6153 92.9643 93.5958C94.8812 93.5764 96.8565 94.0037 98.3891 95.1495C98.6713 95.3583 98.9535 95.6205 99.0118 95.9701C99.0702 96.3051 98.9048 96.6401 98.7005 96.9169C97.9853 97.8685 96.7543 98.3298 95.5623 98.3589C94.3703 98.388 93.2075 98.0287 92.0934 97.6015C90.59 97.0188 89.0574 96.2226 88.24 94.8339" fill="#B2CDC1"/>
<path d="M80.5528 99.4274C81.1464 97.7086 81.7448 95.9656 81.9102 94.1545C82.0756 92.3435 81.774 90.4256 80.7036 88.9496C80.5674 88.7603 80.402 88.5709 80.1782 88.4981C79.9106 88.4156 79.6187 88.5224 79.3705 88.6632C78.3634 89.241 77.7504 90.3431 77.4293 91.455C76.6119 94.2662 77.4293 97.4901 79.4824 99.5779" fill="#B2CDC1"/>
<path d="M105.955 77.9086C105.483 79.8458 104.14 81.3413 102.661 82.6134C101.191 83.8806 99.6005 85.0168 98.0436 86.1675C94.9103 88.4786 91.7187 90.712 88.5465 92.9698C82.2946 97.4269 76.0718 102.01 70.647 107.473C67.6402 110.502 64.9059 113.799 62.5998 117.397C62.3662 117.766 62.9501 118.106 63.1836 117.737C67.3824 111.182 73.0164 105.734 79.0689 100.884C85.1943 95.9752 91.743 91.6248 98.0679 86.9832C99.7805 85.7256 101.527 84.4827 103.138 83.094C104.704 81.7443 106.105 80.1372 106.607 78.0931C106.714 77.6658 106.057 77.4862 105.955 77.9086Z" fill="#B2CDC1"/>
<path d="M70.7928 63.5028C70.5107 64.1582 70.1944 64.7943 69.8733 65.4255C70.2868 63.5028 70.9291 61.6286 71.7854 59.8564C72.1162 60.6916 71.0167 62.9784 70.7928 63.5028Z" fill="#B2CDC1"/>
<path d="M75.9989 59.2107C75.9794 57.6958 75.1231 56.6616 73.9846 56.1664C74.116 55.9819 74.2522 55.8022 74.3884 55.6226C74.7728 55.1225 75.2642 54.5884 75.8967 54.5836C76.7725 54.5739 77.3125 55.5643 77.4244 56.4286C77.6288 57.9774 77.1374 59.536 76.4416 60.9343C76.0864 61.648 75.6778 62.3326 75.2155 62.9832C75.7215 61.7791 76.0183 60.507 75.9989 59.2107Z" fill="#B2CDC1"/>
<path d="M93.8349 109.808C93.2122 107.453 91.2515 105.418 88.9404 104.593C90.4535 103.418 92.2586 102.374 94.1025 102.772C94.6475 102.889 95.207 103.175 95.4259 103.685C95.5767 104.035 95.5475 104.438 95.494 104.816C95.2702 106.569 94.6961 108.269 93.8349 109.808Z" fill="#B2CDC1"/>
<path d="M104.193 115.1C106.465 112.517 108.699 109.774 110.392 106.768C111.506 104.787 112.737 102.233 111.978 99.9223C111.793 99.3639 111.521 98.8978 111.19 98.5191C112.591 97.9559 114.187 97.7568 115.247 98.7376C116.464 99.8689 116.182 101.845 115.661 103.418C113.462 110.06 110.105 114.134 103.921 117.426L102.096 117.45C102.821 116.678 103.517 115.867 104.193 115.1Z" fill="#B2CDC1"/>
<path d="M98.2188 87.7016C102.5 86.4829 106.86 81.5353 107.833 77.2384C108.037 76.345 108.086 75.4467 108.013 74.5776C109.02 74.6747 109.969 75.034 110.543 75.84C111.229 76.8062 111.151 78.1269 110.8 79.2582C109.915 82.1131 107.55 84.3223 104.879 85.6817C102.213 87.0412 99.2405 87.6627 96.3067 88.2599L94.9006 88.0171C94.925 87.8715 94.9542 87.7307 94.9833 87.585C95.9321 88.0026 97.09 88.022 98.2188 87.7016Z" fill="#B2CDC1"/>
<path d="M86.8144 81.3652C86.9652 79.5736 88.0551 77.8839 89.6363 77.01C89.7871 76.9275 89.9477 76.8546 90.1082 76.7915C88.9551 80.0494 88.3421 83.6666 90.2299 86.6915C90.8332 87.6528 91.816 87.9296 92.6966 87.6868C92.4241 88.4879 92.103 89.2697 91.6992 90.0125L90.8332 90.231C89.9915 88.8035 88.9503 87.5023 88.1183 86.07C87.2912 84.6474 86.6782 83.016 86.8144 81.3652Z" fill="#B2CDC1"/>
<path d="M95.937 96.3342C96.5549 95.8584 97.1144 95.2661 97.4404 94.5669C97.7712 94.7368 98.0875 94.9262 98.3891 95.1495C98.6713 95.3583 98.9535 95.6205 99.0119 95.9701C99.0702 96.3051 98.9048 96.6401 98.7005 96.9169C97.9853 97.8685 96.7544 98.3298 95.5624 98.3589C94.5504 98.3832 93.5578 98.1258 92.6042 97.786C93.7817 97.5578 94.9055 97.1256 95.937 96.3342Z" fill="#B2CDC1"/>
<path d="M80.2949 90.9835C79.3851 90.7602 78.4509 90.7942 77.5703 91.0321C77.9158 90.0707 78.4947 89.1725 79.3705 88.6676C79.6138 88.5268 79.9057 88.42 80.1781 88.5025C80.4019 88.5753 80.5674 88.7647 80.7036 88.954C81.2874 89.7552 81.6377 90.6874 81.8177 91.6633C81.3799 91.3574 80.869 91.1243 80.2949 90.9835Z" fill="#B2CDC1"/>
<g opacity="0.51">
<path opacity="0.51" d="M27.1168 70.5477C27.6972 70.5477 28.1677 70.0781 28.1677 69.4989C28.1677 68.9197 27.6972 68.4502 27.1168 68.4502C26.5364 68.4502 26.0659 68.9197 26.0659 69.4989C26.0659 70.0781 26.5364 70.5477 27.1168 70.5477Z" fill="#B2CDC1"/>
<path opacity="0.51" d="M5.60735 93.0667C5.60735 92.2364 4.93594 91.5664 4.10397 91.5664C3.272 91.5664 2.60059 92.2364 2.60059 93.0667C2.60059 93.897 3.272 94.567 4.10397 94.567C4.93594 94.567 5.60735 93.8921 5.60735 93.0667Z" fill="#B2CDC1"/>
<path opacity="0.51" d="M23.356 34.973C23.356 33.4824 22.1446 32.2734 20.6509 32.2734C19.1573 32.2734 17.9458 33.4824 17.9458 34.973C17.9458 36.4636 19.1573 37.6725 20.6509 37.6725C22.1446 37.6774 23.356 36.4636 23.356 34.973Z" fill="#B2CDC1"/>
<path opacity="0.51" d="M77.507 41.7266C77.507 41.0614 76.9669 40.5273 76.3053 40.5273C75.6436 40.5273 75.1035 41.0663 75.1035 41.7266C75.1035 42.3918 75.6436 42.9259 76.3053 42.9259C76.9669 42.9259 77.507 42.3918 77.507 41.7266Z" fill="#B2CDC1"/>
<path opacity="0.51" d="M118.721 90.8136C118.721 89.7358 117.846 88.8618 116.765 88.8618C115.685 88.8618 114.81 89.7358 114.81 90.8136C114.81 91.8915 115.685 92.7655 116.765 92.7655C117.846 92.7655 118.721 91.8915 118.721 90.8136Z" fill="#B2CDC1"/>
<path opacity="0.51" d="M95.2558 67.3968C95.6723 67.3968 96.01 67.0598 96.01 66.6442C96.01 66.2285 95.6723 65.8916 95.2558 65.8916C94.8393 65.8916 94.5017 66.2285 94.5017 66.6442C94.5017 67.0598 94.8393 67.3968 95.2558 67.3968Z" fill="#B2CDC1"/>
<path opacity="0.51" d="M62.7651 15.4593C62.7651 14.2989 61.8213 13.3569 60.6584 13.3569C59.4956 13.3569 58.5518 14.2989 58.5518 15.4593C58.5518 16.6197 59.4956 17.5616 60.6584 17.5616C61.8261 17.5616 62.7651 16.6197 62.7651 15.4593Z" fill="#B2CDC1"/>
</g>
<path d="M94.4287 35.5651C97.6009 35.6282 100.228 33.118 100.296 29.9475C100.359 26.7818 97.8441 24.16 94.6671 24.092C91.4949 24.0289 88.8676 26.5391 88.7995 29.7096C88.7363 32.8801 91.2565 35.4971 94.4287 35.5651Z" stroke="#B2CDC1" stroke-width="0.7895" stroke-miterlimit="10"/>
<path d="M90.1714 25.1506C87.8945 24.0824 88.021 25.3302 88.1134 25.9711C88.1572 26.2527 88.3226 26.5004 88.4929 26.7286C90.8672 29.9525 94.5356 31.9674 98.2236 33.5309C99.1188 33.9096 100.145 34.2737 101.036 33.8853C101.221 33.8076 101.396 33.6911 101.498 33.5163C101.79 33.0113 101.303 32.4238 100.861 32.0451" stroke="#B2CDC1" stroke-width="0.7895" stroke-miterlimit="10"/>
<path d="M20.1935 55.9285C20.2471 53.428 18.2571 51.3645 15.7515 51.3111C13.2459 51.2577 11.1781 53.2435 11.1246 55.744C11.0711 58.2445 13.061 60.308 15.5666 60.3614C18.0723 60.41 20.1449 58.429 20.1935 55.9285Z" stroke="#B2CDC1" stroke-width="0.6229" stroke-miterlimit="10"/>
<path d="M11.9614 59.2785C11.1197 61.0702 12.1025 60.9731 12.6133 60.8954C12.8371 60.8614 13.0317 60.7303 13.2118 60.5992C15.7612 58.7299 17.3521 55.841 18.5879 52.9375C18.8896 52.2335 19.1718 51.4275 18.8701 50.7235C18.8069 50.5778 18.7144 50.437 18.5782 50.3593C18.1793 50.1311 17.717 50.5147 17.4154 50.8643" stroke="#B2CDC1" stroke-width="0.6229" stroke-miterlimit="10"/>
<path d="M71.5811 107.433L71.1238 110.283L50.0035 112.905L48.2471 108.841L71.5811 107.433Z" fill="#FFA288"/>
<path d="M104.563 96.5041C104.437 96.9993 104.986 97.2178 106.028 97.514C106.879 98.7035 104.159 99.2085 104.159 99.2085L101.863 99.291C101.863 99.291 101.011 99.291 101.522 98.1015C102.033 96.9119 102.082 97.1741 102.797 97.0818C103.478 96.9993 105.225 96.8391 104.583 95.9797C104.33 95.6398 102.729 95.0475 101.775 95.0475C101.405 95.0475 100.248 96.3196 99.5664 96.9993C98.9533 97.6111 98.2333 99.6309 98.2333 99.6309C87.8069 101.893 81.8566 98.922 81.8566 98.922C80.3678 94.3823 78.4168 71.3147 70.462 72.4266C68.9733 72.6354 65.8595 77.4955 66.3314 82.0255C66.4822 89.2162 70.5642 96.2856 72.2817 105.991C73.4737 112.721 90.9548 106.982 100.248 105.399C100.248 105.399 114.785 103.195 114.527 101.923C114.274 100.65 107.983 101.753 107.983 101.753C107.983 101.753 114.955 101.835 114.785 100.651C114.615 99.4609 106.709 100.568 106.709 100.568L107.745 99.7717C108.09 99.5046 108.227 99.0434 108.086 98.6307L107.526 97.0139C107.409 96.674 107.122 96.4264 106.772 96.3535C106.373 96.271 105.886 96.1156 105.502 96.0088C105.103 95.902 104.66 96.1108 104.563 96.5041Z" fill="#FFA288"/>
<path d="M67.6791 41.6534C69.7712 35.7493 66.706 30.2531 61.1109 28.8645C52.076 26.6262 52.7328 27.0146 48.9914 17.5807C46.9577 12.4632 42.9876 8.13713 38.059 5.66578C35.5729 4.41796 32.6294 3.64111 30.0215 4.60732C21.2153 7.87494 30.4059 12.638 33.184 14.9686C33.6219 15.3376 34.0744 15.7697 34.1619 16.3378C34.2349 16.8039 34.0452 17.27 33.7824 17.6584C32.3861 19.7413 29.428 19.8676 26.9175 19.8579C24.407 19.8481 21.4051 20.1977 20.2666 22.4312C19.1962 24.5287 20.4807 27.0971 22.1689 28.7431C23.8572 30.389 25.9979 31.632 27.2483 33.6275C28.489 35.6085 28.6787 38.0459 28.956 40.3715C30.3572 52.1214 35.062 61.5067 47.8724 63.7159C56.8635 65.2647 68.2289 61.2785 67.9126 50.5191" fill="black"/>
<path d="M67.5819 39.6385C69.2653 40.6921 70.0729 37.3905 70.3016 36.4291C70.8125 34.2539 70.9341 31.8991 70.1848 29.7676C69.5913 28.0731 68.4723 26.5146 66.9154 25.5726C65.2757 24.5821 63.3685 24.5142 61.5149 24.7569C59.4179 25.0337 57.3355 25.6892 55.1997 25.5823C53.0297 25.4755 51.2588 24.3297 50.1495 22.4846C47.7265 18.445 48.9721 13.5169 47.5271 9.19566C46.1794 5.16575 42.6763 1.99523 38.536 1.00475C38.2976 0.946488 38.1954 1.31549 38.4338 1.37376C42.0876 2.24771 45.2209 4.85016 46.7583 8.27315C48.5391 12.2399 47.5076 16.7651 48.9526 20.8193C49.4927 22.339 50.3538 23.7907 51.6626 24.7666C53.0784 25.8202 54.8299 26.0776 56.5571 25.9368C60.2693 25.6309 64.4584 23.7422 67.6597 26.5971C69.4064 28.1557 70.253 30.4425 70.3259 32.7439C70.3649 34.0646 70.1751 35.3804 69.8491 36.6573C69.6691 37.3613 69.0123 40.09 67.7765 39.3132C67.5624 39.1772 67.3727 39.5074 67.5819 39.6385Z" fill="black"/>
<path d="M56.6154 61.6476C52.3728 66.0417 45.61 67.3623 40.0733 64.721C37.4801 63.4829 35.2518 61.4923 33.7922 59.0063C32.2109 56.3068 31.5784 53.1945 31.4714 50.0968C31.3498 46.5428 31.8655 42.9984 32.4201 39.4977C32.4591 39.2549 32.0893 39.153 32.0504 39.3957C31.0578 45.6494 30.041 52.6265 33.077 58.4965C35.8356 63.8374 41.8637 67.1001 47.8578 66.3816C51.2732 65.9689 54.4941 64.386 56.883 61.9147C57.0581 61.7399 56.7857 61.4728 56.6154 61.6476Z" fill="black"/>
<path d="M52.8302 48.9217C52.7816 49.1353 52.5724 49.2664 52.3583 49.213C51.4728 48.9848 49.478 48.2808 48.6023 50.5191C47.7168 52.7816 49.6142 54.6606 50.9376 55.0733C51.322 55.1947 52.1929 55.5006 52.3826 55.8502C52.9665 56.9329 52.8594 58.943 52.874 61.4872C52.9032 67.1097 50.9425 72.0475 50.9425 72.0475C50.9425 72.0475 61.8992 79.2771 63.4999 72.4359C63.4999 72.4359 63.4512 59.2441 63.5291 59.1955C64.8816 58.3895 69.6934 58.8702 69.3285 49.2761C68.988 40.3909 62.7603 39.4392 61.1451 39.3178C59.7828 39.2207 55.185 38.3565 52.8302 48.9217Z" fill="#FFA288"/>
<path d="M49.4392 51.4421C49.4392 51.4421 51.5751 48.8639 52.3438 53.2386L49.4392 51.4421Z" fill="#D66956"/>
<path opacity="0.63" d="M60.5223 50.8836C61.6754 51.1506 62.3955 52.2965 62.1328 53.452C61.8652 54.6028 60.717 55.3213 59.559 55.0592C58.4059 54.7921 57.6859 53.6463 57.9486 52.4907C58.2162 51.34 59.3693 50.6165 60.5223 50.8836Z" fill="#E7786B"/>
<path opacity="0.63" d="M68.9881 53.8548C68.0783 53.4421 67.5577 52.437 67.7913 51.4271C67.9713 50.6503 68.5503 50.0676 69.2655 49.854C69.2655 49.854 69.572 52.3739 68.9881 53.8548Z" fill="#E7786B"/>
<path d="M63.9426 52.9179C63.9426 52.9179 64.614 53.9958 66.1174 53.7433C67.0954 53.5782 67.5819 52.5586 67.5819 52.5586" stroke="black" stroke-width="0.5254" stroke-miterlimit="10" stroke-linecap="round"/>
<path d="M65.7428 50.7378L65.4412 52.3692L66.3072 52.3546C66.4677 52.3498 66.5651 52.1798 66.4872 52.0439L65.7428 50.7378Z" fill="#D66956"/>
<path d="M62.0891 48.0578C61.7145 48.3734 62.2156 47.0722 62.7459 46.8828C63.2762 46.6886 63.8406 46.9022 64.0109 47.3586C64.0109 47.3586 62.9843 47.3052 62.0891 48.0578Z" fill="black"/>
<path d="M68.2972 47.3732C68.7205 47.6159 67.9956 46.4264 67.4409 46.3293C66.8863 46.2322 66.3657 46.5429 66.283 47.0236C66.283 47.0236 67.2852 46.7905 68.2972 47.3732Z" fill="black"/>
<path d="M63.9816 59.0698C63.9816 59.0698 61.4321 59.2591 59.4666 58.6279C60.5564 61.5702 62.9258 61.3809 63.9816 59.0698Z" fill="#D66956"/>
<path d="M67.1878 37.7546C72.2332 40.3425 69.854 46.6204 69.854 46.6204C67.4165 46.9166 64.9255 43.5324 64.22 41.1873L63.9913 40.425C64.1762 43.2605 62.415 45.863 59.7147 46.7612L54.8883 48.3635L56.3674 42.8041L54.0466 49.3345L50.6458 48.3149C50.6458 48.3149 55.4235 31.7146 67.1878 37.7546Z" fill="black"/>
<path d="M63.2273 50.9659C63.7187 51.1358 64.3025 51.3106 64.7258 50.8008" stroke="black" stroke-width="0.5254" stroke-miterlimit="10" stroke-linecap="round"/>
<path d="M66.5115 50.6841C67.0029 50.8541 67.5867 51.0288 68.01 50.519" stroke="black" stroke-width="0.5254" stroke-miterlimit="10" stroke-linecap="round"/>
<path d="M64.074 66.7216C64.074 66.7216 74.6123 64.7698 77.332 81.7342L65.0908 83.7686L64.074 66.7216Z" fill="#65F0B1"/>
<path opacity="0.58" d="M71.6444 73.8536C69.3723 71.4211 66.7158 69.581 64.1274 67.5806L65.0956 83.773L77.3368 81.7387C77.3027 81.5347 77.2638 81.3502 77.2297 81.1512C75.5415 78.5876 73.7413 76.1016 71.6444 73.8536Z" fill="#65F0B1"/>
<path d="M63.8208 66.6387C69.3478 69.3528 73.8823 82.8554 74.1012 88.9634C74.3201 95.1151 73.7655 104.981 73.7655 104.981C73.7655 104.981 53.1365 105.428 47.0744 105.831C43.7416 95.6977 43.3135 78.5924 45.3764 70.7705C45.3764 70.7705 48.7042 68.3186 51.6088 67.0368C51.6088 67.0319 60.4296 78.5827 63.8208 66.6387Z" fill="#65F0B1"/>
<g opacity="0.58">
<path opacity="0.58" d="M45.0942 71.9751C43.3621 80.2388 43.9071 96.1885 47.0744 105.826C50.1541 105.622 56.985 105.409 62.9694 105.244C54.348 95.7564 47.0647 84.6523 45.0942 71.9751Z" fill="#65F0B1"/>
</g>
<path d="M11.2219 96.5041C11.3484 96.9993 10.7986 97.2178 9.75747 97.514C8.90604 98.7035 11.6257 99.2085 11.6257 99.2085L13.9222 99.291C13.9222 99.291 14.7736 99.291 14.2628 98.1015C13.7519 96.9119 13.7032 97.1741 12.988 97.0818C12.3069 96.9993 10.5602 96.8391 11.2025 95.9797C11.4555 95.6398 13.0562 95.0475 14.0098 95.0475C14.3795 95.0475 15.5375 96.3196 16.2186 96.9993C16.8316 97.6111 17.5517 99.6309 17.5517 99.6309C27.9781 101.893 33.9284 98.922 33.9284 98.922C35.4172 94.3823 37.3681 71.3147 45.3229 72.4266C46.8117 72.6354 49.9255 77.4955 49.4536 82.0255C49.3028 89.2162 45.2208 96.2856 43.5033 105.991C42.3113 112.721 24.8302 106.982 15.5375 105.399C15.5375 105.399 0.999895 103.195 1.25776 101.923C1.51075 100.65 7.80161 101.753 7.80161 101.753C7.80161 101.753 0.829609 101.835 0.999895 100.651C1.17018 99.4609 9.07632 100.568 9.07632 100.568L8.04001 99.7717C7.69457 99.5046 7.55348 99.0434 7.69944 98.6307L8.25895 97.0139C8.37572 96.674 8.66277 96.4264 9.01307 96.3535C9.41203 96.271 9.89856 96.1156 10.2829 96.0088C10.677 95.902 11.1198 96.1108 11.2219 96.5041Z" fill="#FFA288"/>
<path d="M47.7557 68.843C52.0518 69.7413 56.7662 74.4412 50.1348 88.6915L35.3442 83.6032C35.3442 83.6032 40.4431 67.3136 47.7557 68.843Z" fill="#65F0B1"/>
<path d="M48.6606 105.486C42.146 113.289 37.6602 133.933 37.6602 133.933L82.4357 132.856C82.4357 132.856 79.8571 112.58 71.6395 105.059C71.6104 105.122 58.9751 104.641 48.6606 105.486Z" fill="#FFE8D8"/>
<path opacity="0.38" d="M48.6606 105.486C42.146 113.289 37.6602 133.933 37.6602 133.933L82.4357 132.856C82.4357 132.856 79.8571 112.58 71.6395 105.059C71.6104 105.122 58.9751 104.641 48.6606 105.486Z" fill="#D8C7BC"/>
<g opacity="0.31">
<g opacity="0.31">
<path opacity="0.31" d="M39.8108 73.9897C40.3606 75.1259 41.1342 76.1164 41.9515 77.0583C42.7738 78.0051 43.6301 78.9325 44.3891 79.9521C45.1237 80.996 45.6978 82.1758 45.9314 83.4382C46.0433 84.0694 46.0676 84.72 45.9606 85.356C45.8438 85.9872 45.5957 86.5941 45.1967 87.0894C45.8632 86.0018 45.9216 84.686 45.6443 83.5013C45.3621 82.302 44.8123 81.1708 44.0777 80.1803C43.3625 79.1655 42.5062 78.243 41.7229 77.2477C40.9493 76.2572 40.2146 75.189 39.8108 73.9897Z" fill="white"/>
</g>
<g opacity="0.31">
<path opacity="0.31" d="M36.9255 77.8398C37.451 78.272 37.9229 78.7672 38.3511 79.2964C38.7841 79.8257 39.1636 80.3986 39.4993 80.9909C39.8301 81.5881 40.1221 82.2096 40.341 82.8554C40.5648 83.5011 40.7448 84.1566 40.8324 84.8315C40.5891 84.2003 40.3459 83.574 40.0637 82.9622C39.7815 82.3553 39.4896 81.7532 39.1587 81.1754C38.8376 80.5928 38.4776 80.0296 38.1078 79.4712C37.7429 78.9129 37.3391 78.3788 36.9255 77.8398Z" fill="white"/>
</g>
<g opacity="0.31">
<path opacity="0.31" d="M45.5276 69.688C45.7709 70.8096 45.9752 71.9409 46.2525 73.043C46.5298 74.1452 46.8558 75.2376 47.3521 76.2524C47.8192 77.2768 48.4711 78.2188 49.2641 79.015C50.0572 79.8113 51.0254 80.4522 52.125 80.8018C50.9816 80.6076 49.9258 80.0104 49.0598 79.2287C48.1938 78.4421 47.5175 77.4613 47.0066 76.4174C46.525 75.359 46.1844 74.2374 45.9655 73.1061C45.7417 71.9748 45.6103 70.8338 45.5276 69.688Z" fill="white"/>
</g>
<g opacity="0.31">
<path opacity="0.31" d="M51.687 104.316C51.9303 103.025 52.2611 101.743 52.6893 100.495C53.1271 99.2472 53.6575 98.0333 54.2851 96.868C55.5403 94.5375 57.2237 92.4206 59.2672 90.7115C61.3301 89.0267 63.7627 87.7935 66.3511 87.1769C67.6453 86.871 68.9735 86.7156 70.3017 86.735C71.63 86.7642 72.9485 86.9729 74.2086 87.3662C72.9339 87.0361 71.6105 86.8952 70.3017 86.9244C68.9929 86.9438 67.6842 87.1283 66.4241 87.4633C63.899 88.1285 61.515 89.3375 59.5104 91.0077C57.4865 92.6585 55.8371 94.7414 54.543 97.0089C53.891 98.145 53.3364 99.3345 52.8644 100.558C52.3828 101.782 51.9887 103.039 51.687 104.316Z" fill="white"/>
</g>
<g opacity="0.31">
<path opacity="0.31" d="M74.5976 95.159C73.97 94.8483 73.3472 94.5181 72.6709 94.3822C72.0141 94.2268 71.2892 94.3045 70.7491 94.6638C70.4767 94.8435 70.2821 95.0959 70.1556 95.3921C70.0291 95.6931 69.961 96.033 69.8539 96.3777C69.6399 97.0672 69.2993 97.7129 68.8468 98.281C68.3895 98.8394 67.8251 99.3103 67.1975 99.6648C66.5747 100.014 65.9276 100.286 65.3 100.582C64.6724 100.874 64.0837 101.238 63.6263 101.748C63.1592 102.243 62.8333 102.898 62.8771 103.607C62.7457 102.908 63.0425 102.185 63.4804 101.626C63.928 101.063 64.541 100.65 65.1589 100.32C65.7768 99.9804 66.4287 99.7182 67.0174 99.3637C67.6062 99.019 68.1219 98.5723 68.5452 98.0431C68.9733 97.5236 69.3041 96.9215 69.5182 96.2758C69.6253 95.9553 69.6982 95.6057 69.8491 95.2659C69.995 94.9211 70.2626 94.6104 70.5886 94.421C71.2405 94.0326 72.0287 94.0035 72.7147 94.2026C73.4056 94.4065 74.0138 94.7755 74.5976 95.159Z" fill="white"/>
</g>
<g opacity="0.31">
<path opacity="0.31" d="M67.7424 67.4351C68.1268 68.3479 68.5695 69.2267 69.095 70.0569C69.6205 70.8823 70.2043 71.6689 70.8611 72.3923C71.5131 73.1206 72.2331 73.781 73.0019 74.3879C73.7706 74.9948 74.6025 75.524 75.4734 75.9998C74.5393 75.6648 73.6489 75.189 72.8267 74.6209C71.9996 74.0577 71.2503 73.3828 70.5741 72.6448C69.9075 71.8971 69.3139 71.0814 68.8371 70.2026C68.3603 69.3238 67.9808 68.3964 67.7424 67.4351Z" fill="white"/>
</g>
<g opacity="0.31">
<path opacity="0.31" d="M64.7698 67.4351C65.0423 68.78 65.2564 70.1346 65.4072 71.499C65.5483 72.8633 65.6261 74.2373 65.6407 75.6163C65.665 76.9806 65.6213 78.4129 65.052 79.7239C64.7698 80.3745 64.2979 80.9717 63.6703 81.3455C63.0378 81.7242 62.3031 81.8408 61.6122 81.8796C60.9116 81.9087 60.2256 81.8748 59.5591 81.9233C59.2282 81.9524 58.8974 82.001 58.5811 82.0932C58.2698 82.1904 57.973 82.3263 57.6957 82.5059C56.5864 83.244 55.9539 84.5063 55.2144 85.6522C54.4797 86.8223 53.5796 87.8953 52.5482 88.813C51.5118 89.7258 50.3442 90.4881 49.1035 91.0659C50.3198 90.4298 51.4389 89.619 52.4217 88.6722C53.4142 87.7351 54.2705 86.667 54.9662 85.4968C55.3165 84.9093 55.6474 84.3073 56.0463 83.7343C56.4404 83.1614 56.9075 82.6128 57.5059 82.2098C57.8076 82.0107 58.1335 81.8553 58.479 81.7485C58.8244 81.6466 59.1747 81.5931 59.5299 81.5592C60.2305 81.5009 60.9214 81.53 61.5928 81.496C62.2642 81.4669 62.9259 81.3601 63.4854 81.0299C64.0449 80.7046 64.4682 80.1803 64.7358 79.5782C65.2856 78.3595 65.3342 76.9709 65.3488 75.6163C65.3683 74.2519 65.3245 72.8827 65.2223 71.5184C65.1299 70.1492 64.979 68.7897 64.7698 67.4351Z" fill="white"/>
</g>
</g>
<path d="M90.9741 137.924C91.7915 137.784 90.9547 136.269 89.0572 135.701C86.0212 134.793 81.1413 133.079 79.706 131.341C78.0518 129.335 76.5193 128.549 75.4197 128.262C74.5926 128.044 73.7168 128.257 73.0649 128.806C72.6221 129.18 72.0188 129.583 71.435 129.622C70.749 129.67 69.9268 129.495 69.9268 129.495L70.2771 138.725C70.2771 138.725 87.2911 138.565 90.9741 137.924Z" fill="#FFA288"/>
<path d="M71.5714 138.643C71.5714 138.643 14.6861 137.813 14.292 123.13C13.9271 109.565 36.5362 112.788 38.9153 113.123C47.8335 114.396 71.839 125.49 71.839 125.49L71.5714 138.643Z" fill="#FFE8D8"/>
<path opacity="0.28" d="M56.4257 118.892L71.3865 125.17L71.0654 138.687C71.0654 138.687 34.4879 136.715 25.9055 132.433L56.4257 118.892Z" fill="#D8C7BC"/>
<path d="M66.3411 138.512L67.9709 123.432" stroke="white" stroke-width="1.0507" stroke-miterlimit="10"/>
<path d="M53.8713 137.89C53.8713 137.89 108.343 136.036 106.743 121.436C105.551 110.579 87.7048 112.696 79.2002 115.668C70.7005 118.639 53.1902 126.524 53.1902 126.524L53.8713 137.89Z" fill="#FFE8D8"/>
<path d="M33.3689 137.92C32.5418 137.857 33.2278 136.274 35.062 135.521C37.9958 134.322 42.686 132.147 43.9461 130.278C45.396 128.122 46.8458 127.19 47.9113 126.796C48.7141 126.5 49.6045 126.626 50.3099 127.112C50.7867 127.442 51.429 127.782 52.0128 127.767C52.6988 127.748 53.5016 127.495 53.5016 127.495L54.0514 136.716C54.0416 136.711 37.0957 138.197 33.3689 137.92Z" fill="#FFA288"/>
<path d="M56.1384 125.393L57.272 137.211" stroke="white" stroke-width="1.0507" stroke-miterlimit="10"/>
</svg>
