<svg width="228" height="150" viewBox="0 0 228 150" fill="none" xmlns="http://www.w3.org/2000/svg">
<path d="M183.883 34.6735C183.883 34.6735 174.925 33.9683 171.393 28.8721L168.813 31.2907C168.813 31.2907 173.184 38.7545 182.858 38.5355L183.883 34.6735Z" fill="#FCBDB6"/>
<path d="M118.7 150C175.539 150 221.617 143.838 221.617 136.237C221.617 128.636 175.539 122.475 118.7 122.475C61.8604 122.475 15.783 128.636 15.783 136.237C15.783 143.838 61.8604 150 118.7 150Z" fill="#DCF6F9"/>
<path d="M161.609 108.415C161.609 108.415 187.599 47.9881 203.727 55.6572C219.853 63.3262 177.341 92.2891 170.333 110.12L161.609 108.415Z" fill="#DCF6F9"/>
<path d="M160.905 111.219C160.905 111.219 206.429 59.4531 223.136 73.166C239.843 86.8789 183.235 100.64 170.567 116.157L160.905 111.219Z" fill="#49ADB7"/>
<path d="M166.285 114.029C174.84 103.154 187.801 94.3702 197.167 88.9173C207.321 83.0057 215.55 79.6284 215.633 79.5954L215.423 79.083C215.341 79.1161 207.076 82.5085 196.889 88.4393C187.482 93.917 174.46 102.743 165.852 113.687L166.285 114.029Z" fill="white"/>
<path d="M213.8 130.997C207.041 129.749 204.152 139.565 197.814 134.873C192.456 130.9 192.183 130.139 189.396 130.997C188.44 131.29 187.538 131.732 186.703 132.282C185.702 132.94 183.944 133.791 181.996 133.352C170.098 130.666 161.788 107.936 177.126 103.731C178.234 103.428 179.555 103.684 180.989 104.035C188.765 105.946 189.641 110.248 198.985 104.045C208.333 97.8399 210.985 113.443 216.062 115.054C221.14 116.666 226.067 116.999 227.716 123.782C229.364 130.57 220.559 132.249 213.8 130.997Z" fill="#BCECF7"/>
<g opacity="0.5">
<g opacity="0.5">
<g opacity="0.5">
<path opacity="0.5" d="M175.677 117.136L175.589 116.693C175.785 116.654 195.519 112.941 227.979 125.622L227.816 126.044C195.477 113.409 175.872 117.098 175.677 117.136Z" fill="#68A1BF"/>
</g>
</g>
<g opacity="0.5">
<g opacity="0.5">
<path opacity="0.5" d="M200.866 113.078C198.219 107.488 198.739 104.147 198.762 104.006L199.208 104.081C199.203 104.114 198.696 107.437 201.275 112.883L200.866 113.078Z" fill="#68A1BF"/>
</g>
</g>
<g opacity="0.5">
<g opacity="0.5">
<path opacity="0.5" d="M199.719 117.886C199.405 115.288 200.783 112.309 203.7 109.271C205.887 106.995 208.197 105.459 208.219 105.444L208.468 105.822C208.377 105.881 199.445 111.859 200.167 117.832L199.719 117.886Z" fill="#68A1BF"/>
</g>
</g>
<g opacity="0.5">
<g opacity="0.5">
<path opacity="0.5" d="M208.483 120.696C208.155 120.062 207.997 119.674 207.99 119.656L208.41 119.489C208.443 119.572 211.781 127.751 220.375 131.041L220.214 131.463C213.288 128.811 209.706 123.055 208.483 120.696Z" fill="#68A1BF"/>
</g>
</g>
<g opacity="0.5">
<g opacity="0.5">
<path opacity="0.5" d="M208.622 132.086C207.588 129.115 207.938 126.724 208.413 125.242C208.931 123.628 209.689 122.729 209.72 122.691L210.065 122.985C210.036 123.019 207.157 126.498 209.049 131.938L208.622 132.086Z" fill="#68A1BF"/>
</g>
</g>
</g>
<path d="M211.595 64.7919C213.276 63.6914 214.199 64.0081 214.719 64.8043C215.24 65.6004 215.163 66.5728 213.482 67.6746C210.42 69.6801 207.997 69.209 207.997 69.209C207.997 69.209 208.489 66.8276 211.595 64.7919Z" fill="#64BC62"/>
<path d="M215.667 100.728C217.786 100.907 218.359 101.633 218.288 102.463C218.218 103.294 217.532 103.914 215.414 103.735C211.555 103.408 209.817 101.747 209.817 101.747C209.817 101.747 211.751 100.397 215.667 100.728Z" fill="#64BC62"/>
<path d="M212.867 95.3593C214.613 94.3869 215.443 94.6527 215.824 95.3373C216.206 96.0218 215.995 96.8675 214.247 97.8399C211.063 99.6112 208.836 99.2269 208.836 99.2269C208.836 99.2269 209.638 97.1568 212.867 95.3593Z" fill="#64BC62"/>
<path d="M46.035 57.2547C44.7566 58.2409 44.0637 58.128 43.6767 57.6266C43.291 57.1253 43.3571 56.4256 44.6354 55.4408C46.9635 53.6447 48.7887 53.6846 48.7887 53.6846C48.7887 53.6846 48.3975 55.4325 46.035 57.2547Z" fill="#64BC62"/>
<path d="M47.2773 67.6414C46.3861 68.987 45.6946 69.1055 45.167 68.7556C44.6394 68.4072 44.4768 67.7226 45.3681 66.377C46.9908 63.9239 48.7306 63.3716 48.7306 63.3716C48.7306 63.3716 48.9249 65.1525 47.2773 67.6414Z" fill="#64BC62"/>
<path d="M50.0547 94.7297L49.7488 94.7421C49.7475 94.6953 49.5353 89.9586 47.0916 83.2908C44.8366 77.1382 40.1667 68.0353 30.7196 59.6114L30.9235 59.3828C40.4216 67.8535 45.1162 77.0087 47.3836 83.1985C49.8411 89.9076 50.0533 94.6815 50.0547 94.7297Z" fill="#64BC62"/>
<path d="M40.5578 70.3095L40.2823 70.1786C45.0458 60.157 40.0454 49.3559 39.9944 49.2471L40.2699 49.1162C40.3222 49.225 45.3847 60.1543 40.5578 70.3095Z" fill="#64BC62"/>
<path d="M35.3726 65.9693C32.2938 66.3591 29.7729 65.1126 29.744 65.0974L29.8818 64.8247C29.9135 64.8412 33.1438 66.4335 36.7074 65.3784L36.7942 65.6718C36.3121 65.8136 35.8355 65.9101 35.3726 65.9693Z" fill="#64BC62"/>
<path d="M30.3047 57.9464C32.0914 59.1901 32.3297 59.9807 31.9674 60.5C31.6065 61.0192 30.7813 61.0702 28.996 59.8264C25.7423 57.5607 24.8235 55.5264 24.8235 55.5264C24.8235 55.5264 27.0027 55.6476 30.3047 57.9464Z" fill="#64BC62"/>
<path d="M30.4329 64.0148C32.5116 64.6621 32.9772 65.3439 32.7884 65.9472C32.5997 66.5518 31.8297 66.848 29.7524 66.202C25.9669 65.0244 24.4778 63.3605 24.4778 63.3605C24.4778 63.3605 26.5923 62.8192 30.4329 64.0148Z" fill="#64BC62"/>
<path d="M37.8621 60.7481C38.4241 62.2604 38.1114 62.8899 37.5177 63.1103C36.9253 63.3306 36.2765 63.0593 35.7145 61.547C34.6896 58.7909 35.2682 57.0596 35.2682 57.0596C35.2682 57.0596 36.822 57.9521 37.8621 60.7481Z" fill="#64BC62"/>
<path d="M40.7549 47.8075C41.5236 49.8446 41.2729 50.6311 40.6805 50.8542C40.0882 51.0773 39.3802 50.6531 38.6115 48.6174C37.2106 44.9082 37.6059 42.71 37.6059 42.71C37.6059 42.71 39.3333 44.0432 40.7549 47.8075Z" fill="#64BC62"/>
<path d="M59.926 102.747C59.926 102.747 32.1522 59.956 20.8275 67.9267C9.50279 75.8988 45.7898 92.4793 53.4805 105.192L59.926 102.747Z" fill="#DCF6F9"/>
<path d="M58.8212 110.77C58.8212 110.77 15.7361 69.2984 2.28173 82.3556C-11.1726 95.4129 38.7547 103.232 50.8246 115.734L58.8212 110.77Z" fill="#BCECF7"/>
<path d="M54.373 113.587C46.1946 104.801 34.3575 98.1429 25.8678 94.1031C16.6631 89.7245 9.30568 87.3968 9.23267 87.3748L9.37593 86.9175C9.44894 86.9409 16.8394 89.2769 26.073 93.6706C34.5999 97.7283 46.4936 104.419 54.7243 113.261L54.373 113.587Z" fill="white"/>
<path d="M57.9368 135.131C53.672 138.153 44.6092 137.404 39.2037 133.43C34.6469 130.081 35.9473 129.98 27.0994 131.565C20.7531 132.7 20.0009 127.11 17.2996 123.066C17.2514 122.991 17.2004 122.918 17.1508 122.845C16.1094 121.348 14.7718 120.091 12.7427 119.511C10.5896 118.898 8.38833 117.956 6.45979 116.78C6.29999 116.683 6.14158 116.584 5.98454 116.482C2.16189 114.017 -0.416855 110.62 0.96481 107.098C0.996494 107.014 1.03231 106.931 1.0695 106.849C1.32848 106.266 1.69766 105.681 2.18944 105.095C7.30697 99.0048 12.5072 101.16 18.5063 102.087C21.8234 102.6 26.5483 98.3713 31.1934 96.3562C31.2595 96.3273 31.327 96.2984 31.3931 96.2708C35.0808 94.7227 38.7037 94.6359 41.5152 99.4966C41.5152 99.4979 41.5166 99.4979 41.5166 99.4979C41.5731 99.5971 41.631 99.6949 41.6874 99.7899C47.9704 110.493 51.0671 106.633 59.8943 108.602C61.5363 108.97 63.0144 109.376 63.9911 110.248C73.1021 118.372 67.0106 129.64 57.9368 135.131Z" fill="#49ADB7"/>
<path d="M58.682 124.67L58.996 124.263C58.817 124.123 40.5495 110.338 0.986743 106.842L0.941284 107.356C40.3566 110.837 58.5029 124.532 58.682 124.67Z" fill="white"/>
<path d="M35.0227 107.767C40.5549 103.401 41.7162 99.7263 41.763 99.572L41.2698 99.4219C41.2588 99.4577 40.0934 103.108 34.7031 107.362L35.0227 107.767Z" fill="white"/>
<path d="M33.7582 113.257C35.3947 110.764 35.4981 107.025 34.0572 102.444C32.9786 99.0129 31.3971 96.2761 31.3806 96.2485L30.9357 96.5075C30.9977 96.6135 37.0905 107.241 33.3271 112.974L33.7582 113.257Z" fill="white"/>
<path d="M23.3882 111.687C24.0439 111.207 24.4021 110.89 24.4186 110.876L24.0742 110.493C23.9999 110.561 16.4496 117.22 6.00927 116.227L5.96106 116.739C14.3723 117.54 20.9445 113.477 23.3882 111.687Z" fill="white"/>
<path d="M17.477 123.246C20.0365 120.736 20.8905 118.118 21.1564 116.365C21.4457 114.456 21.1275 113.153 21.1137 113.098L20.6136 113.223C20.626 113.273 21.8038 118.283 17.1161 122.878L17.477 123.246Z" fill="white"/>
<path d="M9.91869 75.0554C8.47228 74.3626 8.33728 73.5404 8.70233 72.7787C9.066 72.0184 9.79196 71.6066 11.2384 72.2994C13.8736 73.561 14.4866 75.5485 14.4866 75.5485C14.4866 75.5485 12.5925 76.3364 9.91869 75.0554Z" fill="#64BC62"/>
<g opacity="0.4">
<path opacity="0.4" d="M139.326 3.47635C139.326 3.47635 137.286 -0.449095 132.121 0.0426183C126.957 0.534332 127.573 4.46942 125.114 4.10029C122.655 3.73116 119.212 4.10029 118.474 6.56023C117.736 9.02018 114.417 7.66762 114.293 9.75706C114.171 11.8479 118.105 13.323 122.653 11.4787C127.202 9.63447 129.416 12.9112 135.809 12.3189C142.202 11.7253 142.994 10.987 146.778 11.3562C150.562 11.7253 150.473 9.13312 148.751 7.41143C147.032 5.68975 140.064 5.85365 139.326 3.47635Z" fill="white"/>
</g>
<g opacity="0.6">
<path opacity="0.6" d="M155.923 16.2539C155.923 16.2539 155.017 14.5102 152.723 14.7278C150.43 14.9468 150.703 16.6946 149.61 16.5307C148.518 16.3668 146.989 16.5307 146.661 17.623C146.333 18.7152 144.859 18.1147 144.804 19.043C144.749 19.9713 146.497 20.627 148.518 19.8074C150.539 18.9879 151.522 20.4438 154.361 20.1807C157.202 19.9176 157.553 19.5898 159.235 19.7537C160.916 19.9176 160.876 18.7662 160.111 18.0017C159.347 17.2373 156.251 17.3103 155.923 16.2539Z" fill="white"/>
</g>
<g opacity="0.6">
<path opacity="0.6" d="M45.5967 17.031C45.5967 17.031 44.2343 14.4099 40.7877 14.739C37.3412 15.0669 37.7517 17.6935 36.1096 17.4483C34.469 17.2017 32.1699 17.4483 31.6781 19.0901C31.1863 20.7319 28.9699 19.8283 28.8886 21.2236C28.806 22.6189 31.4329 23.6037 34.469 22.3723C37.5051 21.141 38.9832 23.3282 43.2494 22.9329C47.517 22.5362 48.046 22.0445 50.571 22.291C53.0974 22.5376 53.0368 20.8076 51.8879 19.6576C50.7404 18.5089 46.0899 18.6177 45.5967 17.031Z" fill="white"/>
</g>
<path d="M85.1761 93.2507C84.9515 93.2507 84.7256 93.2438 84.4983 93.23C81.1978 93.0248 78.3394 92.1006 76.2304 90.5566C73.8583 88.8197 72.5455 86.4232 72.3306 83.4357C72.2603 82.4619 72.3141 81.4868 72.489 80.535C72.5827 80.0268 72.4353 79.5171 72.0826 79.1356C71.7286 78.7513 71.2272 78.5613 70.7065 78.615L61.1712 79.5888C59.9438 79.7141 58.7467 79.3464 57.8018 78.553C56.8568 77.7596 56.2878 76.6454 56.1997 75.414L53.2008 33.6473C53.0465 31.4918 54.6748 29.6103 56.8306 29.456L101.372 26.2551C103.18 26.1256 104.758 27.4906 104.889 29.299L105.528 38.1967C105.57 38.7972 105.303 39.3606 104.811 39.7049C104.313 40.0534 103.683 40.1126 103.125 39.8619C101.439 39.1057 99.5686 38.7766 97.7144 38.9088L97.7075 38.8206L97.7144 38.9088C94.4799 39.1416 91.7414 40.2021 89.7963 41.9775C87.6598 43.9278 86.5219 46.6412 86.4159 50.0405C86.3346 52.6313 87.5895 55.3805 89.8597 57.5829C92.4784 60.1241 96.06 61.5841 99.2076 61.3912C101.34 61.2604 103.379 60.5359 105.102 59.2935C105.482 59.0194 105.962 58.974 106.386 59.1723C106.809 59.3693 107.08 59.766 107.113 60.2301L107.827 70.1498C108.014 72.7489 106.128 74.9939 103.536 75.2584L95.3616 76.0944C94.9152 76.1399 94.5295 76.3892 94.3036 76.7762C94.0805 77.1577 94.0543 77.6081 94.232 78.0103C94.7568 79.2059 95.0709 80.4785 95.166 81.7925C95.4029 85.0816 94.2981 88.2192 92.1354 90.4023C90.2991 92.2535 87.8499 93.2507 85.1761 93.2507ZM70.88 78.429C71.387 78.429 71.865 78.637 72.2135 79.0158C72.6033 79.4386 72.7673 80.0033 72.664 80.5667C72.4918 81.5033 72.4394 82.4633 72.5083 83.4219C72.7191 86.3557 74.007 88.7082 76.3351 90.4133C78.4165 91.9367 81.2432 92.8499 84.5094 93.0537C87.3939 93.2341 90.0567 92.248 92.0059 90.2797C94.1314 88.1338 95.2183 85.0458 94.9855 81.8077C94.8918 80.5143 94.5833 79.261 94.0653 78.0833C93.8656 77.6288 93.8945 77.1206 94.1466 76.6894C94.4014 76.2514 94.8367 75.9718 95.3395 75.9195L103.514 75.0848C106.011 74.83 107.825 72.669 107.646 70.1663L106.933 60.2467C106.904 59.8459 106.67 59.5056 106.307 59.3362C105.942 59.1654 105.531 59.2054 105.203 59.4409C103.452 60.7026 101.381 61.4394 99.2159 61.5717C96.0214 61.7673 92.3875 60.2894 89.733 57.7137C87.3939 55.4438 86.1514 52.7181 86.2354 50.0378C86.3429 46.5889 87.5 43.8342 89.6737 41.8494C91.6477 40.0465 94.4235 38.9694 97.6979 38.7339C99.5809 38.5989 101.482 38.9336 103.194 39.7021C103.694 39.9266 104.26 39.8743 104.707 39.5616C105.148 39.2545 105.386 38.749 105.347 38.2118L104.708 29.3142C104.649 28.485 104.27 27.7288 103.642 27.1848C103.014 26.6407 102.211 26.3735 101.383 26.4341L56.8416 29.6351C54.7822 29.7825 53.2283 31.5785 53.3757 33.6363L56.3774 75.403C56.4628 76.5848 57.0097 77.6563 57.9175 78.4194C58.8253 79.1811 59.9741 79.535 61.1547 79.4152L70.6886 78.4414C70.7533 78.4318 70.8167 78.429 70.88 78.429Z" fill="#1C3A3E"/>
<path d="M135.515 139.922C134.548 139.922 133.628 139.579 132.901 138.944C132.114 138.257 131.649 137.311 131.589 136.279L131.113 127.958C131.075 127.301 131.352 126.688 131.874 126.278C132.413 125.854 133.131 125.719 133.796 125.919C134.992 126.278 136.236 126.424 137.496 126.351C143.156 126.027 148.777 123.063 148.574 117.17C148.464 113.967 147.131 111.027 144.821 108.892C142.502 106.749 139.456 105.594 136.463 105.727C135.306 105.778 134.176 106.01 133.106 106.417C132.355 106.703 131.538 106.616 130.865 106.181C130.206 105.754 129.804 105.067 129.76 104.294L129.305 96.3593C129.243 95.2725 129.617 94.2257 130.356 93.4117C131.096 92.5991 132.114 92.1156 133.222 92.0523L144.263 91.4201C144.469 91.4077 144.654 91.3058 144.771 91.1391C144.882 90.978 144.914 90.7796 144.858 90.5951C144.617 89.8072 144.469 88.9863 144.422 88.1571C144.263 85.3694 145.217 82.6808 147.109 80.5886C149.055 78.4358 151.74 77.1811 154.67 77.053C160.478 76.7981 165.474 81.2222 165.813 86.9093C165.844 87.4368 165.835 87.9698 165.787 88.4932L165.698 88.485L165.787 88.4932C165.748 88.9119 165.894 89.3265 166.19 89.6337C166.5 89.9546 166.937 90.1254 167.389 90.0992L176.942 89.5524C177.986 89.4932 178.99 89.8348 179.77 90.5165C180.551 91.1983 181.012 92.1377 181.072 93.1624L183.36 133.13C183.488 135.363 181.738 137.286 179.461 137.415L135.752 139.917C135.671 139.919 135.592 139.922 135.515 139.922ZM133.179 126.003C132.749 126.003 132.326 126.144 131.983 126.414C131.508 126.789 131.255 127.348 131.289 127.947L131.766 136.268C131.822 137.253 132.266 138.156 133.016 138.812C133.767 139.468 134.736 139.798 135.74 139.74L179.449 137.239C181.63 137.114 183.303 135.275 183.182 133.139L180.894 93.1707C180.837 92.1942 180.397 91.2975 179.653 90.6474C178.908 89.9959 177.947 89.6681 176.95 89.7259L167.397 90.2727C166.895 90.3017 166.408 90.113 166.062 89.7535C165.73 89.4105 165.566 88.9436 165.61 88.4753C165.658 87.9616 165.667 87.4382 165.636 86.9189C165.304 81.3269 160.389 76.9786 154.677 77.2279C151.794 77.3532 149.153 78.5887 147.238 80.7057C145.378 82.7621 144.44 85.4052 144.597 88.1461C144.644 88.9615 144.787 89.7686 145.026 90.5427C145.099 90.7796 145.059 91.0344 144.916 91.2396C144.768 91.4518 144.534 91.5812 144.274 91.5964L133.233 92.2286C132.171 92.2892 131.195 92.752 130.487 93.5302C129.779 94.3084 129.422 95.3097 129.482 96.3496L129.936 104.285C129.978 105.001 130.351 105.638 130.963 106.034C131.588 106.439 132.348 106.519 133.047 106.253C134.134 105.838 135.281 105.603 136.459 105.55C139.498 105.417 142.59 106.587 144.943 108.762C147.288 110.93 148.642 113.914 148.753 117.164C148.847 119.895 147.698 122.234 145.428 123.927C143.418 125.427 140.605 126.35 137.51 126.526C136.229 126.6 134.964 126.452 133.749 126.087C133.559 126.03 133.369 126.003 133.179 126.003Z" fill="#1C3A3E"/>
<path d="M167.798 89.4904C167.845 88.9657 167.854 88.4312 167.823 87.8886C167.481 82.1271 162.527 77.6549 156.76 77.9056C150.828 78.1631 146.27 83.218 146.609 89.1268C146.658 89.9821 146.807 90.8086 147.044 91.5936C147.183 92.0551 146.852 92.5234 146.372 92.5509L135.331 93.1831C133.087 93.3112 131.373 95.234 131.501 97.4777L131.964 105.572C132.056 107.182 133.69 108.247 135.194 107.663C136.248 107.255 137.385 107.009 138.578 106.957C144.3 106.707 150.536 111.328 150.795 118.732C151.003 124.662 145.551 127.839 139.645 128.177C138.346 128.252 137.089 128.089 135.913 127.728C134.592 127.322 133.267 128.336 133.346 129.716L133.832 138.204C133.953 140.331 135.777 141.956 137.904 141.835L181.613 139.334C183.845 139.206 185.552 137.293 185.423 135.061L183.09 94.2864C182.969 92.1749 181.16 90.562 179.048 90.6832L169.495 91.23C168.518 91.2837 167.71 90.4628 167.798 89.4904Z" fill="#64BC62"/>
<path d="M95.5075 36.6225C97.4443 36.4834 99.304 36.8387 100.961 37.5825C102.078 38.0839 103.328 37.2271 103.24 36.0054L102.6 27.1078C102.474 25.3448 100.942 24.0184 99.1786 24.1451L54.6375 27.346C52.5271 27.4976 50.9375 29.3322 51.0904 31.4423L54.092 73.209C54.2711 75.7034 56.4779 77.5559 58.9657 77.3025L68.4996 76.3287C69.643 76.2116 70.5852 77.2226 70.3772 78.3534C70.2064 79.2817 70.1485 80.2459 70.2202 81.2307C70.6692 87.4852 76.0444 90.554 82.3039 90.9437C88.8664 91.3514 93.3241 85.8572 92.8751 79.6027C92.7786 78.2694 92.4563 77.0064 91.948 75.8494C91.5499 74.9417 92.1643 73.9101 93.1506 73.8095L101.325 72.9735C103.853 72.7145 105.719 70.4942 105.536 67.9599L104.822 58.0403C104.756 57.1174 103.702 56.6271 102.952 57.1684C101.27 58.3805 99.2365 59.1463 97.0118 59.2826C90.8873 59.6573 83.9349 53.9729 84.1264 47.8396C84.3495 40.6746 89.2012 37.0756 95.5075 36.6225Z" fill="#49ADB7"/>
<path d="M72.0869 43.9649C72.0731 43.9649 72.0593 43.9621 72.0469 43.9552L65.0036 40.3535C64.9829 40.3425 64.9664 40.3246 64.9595 40.3011C64.9526 40.2791 64.954 40.2543 64.965 40.2336C64.9719 40.2212 65.6331 38.9265 65.797 37.0148C65.9472 35.2532 65.6937 32.5907 63.6288 29.9077C60.3434 25.9381 59.7083 21.4893 61.8435 17.3848C63.6316 13.947 67.074 11.1454 71.2893 9.69783C75.7442 8.1676 80.2956 8.39899 84.1072 10.3479C88.6324 12.6633 92.0831 16.6948 93.3353 21.1326C94.2748 24.4616 93.885 27.7838 92.2374 30.4848C89.2523 35.3799 85.803 37.9486 81.6938 38.3384C80.9761 38.4169 74.5995 39.2406 72.1681 43.9167C72.1502 43.947 72.1199 43.9649 72.0869 43.9649ZM65.162 40.2336L72.0497 43.7569C74.554 39.0684 80.9499 38.242 81.6745 38.1621C85.7258 37.7778 89.1311 35.2366 92.0845 30.3925C93.7072 27.7328 94.0902 24.4616 93.1631 21.1808C91.9233 16.7898 88.5071 12.7996 84.0246 10.5063C80.257 8.57942 75.7539 8.35216 71.3457 9.86587C67.2352 11.2777 63.7418 14.1191 62.0006 17.4675C59.9012 21.5045 60.528 25.8844 63.7679 29.7975C65.8714 32.5315 66.129 35.2435 65.9734 37.0382C65.8301 38.7103 65.3094 39.9196 65.162 40.2336Z" fill="#1C3A3E"/>
<g opacity="0.4">
<path opacity="0.4" d="M73.0152 15.3372C72.5675 15.3372 72.1804 15.1691 71.9008 14.8372C71.3608 14.1953 71.4186 13.1706 72.0426 12.3469C72.6625 11.526 73.7894 10.942 75.0539 10.7823C76.0292 10.6597 76.9177 10.8291 77.4302 11.2368C78.8008 12.3277 79.4179 13.1499 79.3146 13.7491C79.2595 14.0659 79.0033 14.3069 78.5501 14.4625C78.5349 14.4681 78.5184 14.4694 78.5033 14.4653C78.4798 14.4612 76.1435 14.0025 74.1365 15.0341C73.7411 15.2366 73.3609 15.3372 73.0152 15.3372ZM75.6711 10.92C75.4796 10.92 75.2798 10.9324 75.076 10.9586C73.8568 11.1128 72.7769 11.672 72.1845 12.4544C71.6115 13.2119 71.5509 14.1444 72.0371 14.7229C72.4752 15.2435 73.2301 15.3014 74.0566 14.8758C76.0072 13.873 78.2553 14.2394 78.5143 14.2862C78.8876 14.1526 79.0984 13.9626 79.1397 13.7188C79.2017 13.3593 78.9358 12.661 77.32 11.3759C76.948 11.0798 76.3543 10.92 75.6711 10.92Z" fill="#1C3A3E"/>
</g>
<path d="M82.0492 9.30802C73.9768 5.17872 63.5062 9.38377 59.9054 16.3063C57.6421 20.6574 58.6311 25.047 61.6824 28.7341C65.7172 33.9777 63.0282 39.1538 63.0282 39.1538L70.0715 42.7556C72.518 38.0533 78.8657 37.2186 79.6674 37.1305C83.4763 36.7696 86.9835 34.5011 90.1436 29.3181C94.2087 22.6545 90.1202 13.4359 82.0492 9.30802Z" fill="#65F0B1"/>
<path d="M71.2327 41.0768C71.2327 41.0768 73.2839 42.541 71.4614 44.7406C71.4614 44.7406 72.1612 47.2184 69.9503 47.8492C69.9503 47.8492 70.3084 50.25 68.198 51.3243C66.089 52.3986 57.4064 46.9788 57.175 45.6854C56.9436 44.3921 57.8624 43.4927 58.7619 43.6277C58.7619 43.6277 58.12 42.2338 58.9493 41.3316C59.7785 40.4295 60.448 40.5107 60.448 40.5107C60.448 40.5107 59.8708 39.6292 60.5197 38.1982C61.1671 36.7671 63.677 35.7864 71.2327 41.0768Z" fill="#64BC62"/>
<g opacity="0.4">
<path opacity="0.4" d="M76.5032 13.2581C76.5032 13.2581 74.138 12.7774 72.0786 13.8352C70.0192 14.893 68.8992 12.8628 70.0963 11.2802C71.292 9.69904 74.2096 9.27206 75.3571 10.1852C76.5046 11.0984 78.1948 12.6755 76.5032 13.2581Z" fill="white"/>
</g>
<path d="M69.8925 48.0116C69.8677 48.0034 69.8429 47.9882 69.8236 47.9662C69.8167 47.9593 69.1403 47.2444 67.9612 46.4594C66.8757 45.7376 65.1303 44.8038 62.9759 44.465C62.8808 44.4498 62.8174 44.3617 62.8312 44.2666C62.8464 44.1716 62.9345 44.1082 63.0296 44.122C65.2502 44.4718 67.0465 45.4319 68.1623 46.177C69.3718 46.9841 70.0481 47.699 70.0757 47.7293C70.1404 47.7995 70.1377 47.9083 70.0674 47.9744C70.0206 48.0213 69.9517 48.0323 69.8925 48.0116Z" fill="#333333"/>
<path d="M71.4036 44.9031C71.3843 44.8962 71.3651 44.8852 71.3472 44.87C71.3375 44.8618 70.3526 44.0106 68.9516 43.1222C67.6664 42.3068 65.7571 41.2917 63.965 41.0865C63.8699 41.0754 63.8024 40.9901 63.8134 40.895C63.8245 40.8 63.9099 40.7325 64.0049 40.7421C65.8646 40.9556 67.8248 41.9969 69.1417 42.8329C70.5633 43.7351 71.5648 44.6001 71.5744 44.6083C71.6461 44.6703 71.6543 44.7805 71.5924 44.8521C71.5441 44.9086 71.4698 44.9265 71.4036 44.9031Z" fill="#333333"/>
<g opacity="0.4">
<path opacity="0.4" d="M69.3167 39.6908L68.672 39.5035C68.6789 39.4773 69.442 36.8631 70.4104 34.1924C70.7851 33.1608 71.1198 32.3082 71.4215 31.6003C70.978 31.4488 70.5371 31.2587 70.1156 31.0245C68.6485 34.4114 66.5134 37.965 66.3756 38.1936L65.7998 37.8465C65.8342 37.7901 68.0645 34.0781 69.5384 30.6664C68.9103 30.2284 68.3593 29.6775 67.9667 28.9957C67.2724 27.7919 67.3716 26.4476 68.2353 25.3994C68.8882 24.6061 69.8015 24.2342 70.5055 24.4766C70.8567 24.5964 71.4505 24.9807 71.4849 26.1942C71.5138 27.241 71.0427 28.7781 70.376 30.4061C70.7961 30.6471 71.2424 30.8386 71.6901 30.9873C72.6723 28.8222 73.2605 28.3222 73.6476 28.1624C74.8543 27.6638 76.0996 28.2216 76.7071 29.0288C77.2375 29.734 77.2485 30.5714 76.7374 31.2132C76.2333 31.8441 75.0431 32.1553 73.5526 32.0438C73.0925 32.0093 72.5869 31.9281 72.069 31.7959C71.7673 32.4969 71.4243 33.3605 71.0399 34.4225C70.0812 37.0711 69.3249 39.666 69.3167 39.6908ZM72.3472 31.1733C72.7853 31.2793 73.2123 31.3441 73.6049 31.373C74.8172 31.4639 75.8655 31.2311 76.214 30.7945C76.6699 30.2215 76.3366 29.6513 76.1726 29.4323C75.7318 28.8456 74.7868 28.4186 73.9066 28.7836C73.7027 28.8676 73.2165 29.2822 72.3472 31.1733ZM70.055 25.0744C69.6486 25.0744 69.1389 25.3609 68.756 25.8264C68.5025 26.1349 67.7366 27.2506 68.5507 28.6596C68.8676 29.2092 69.3043 29.6637 69.8071 30.0342C70.4187 28.5343 70.8416 27.1432 70.8154 26.2135C70.8058 25.8664 70.7245 25.2617 70.2892 25.1116C70.2176 25.0868 70.1377 25.0744 70.055 25.0744Z" fill="white"/>
</g>
<path d="M190.219 138.897C190.07 138.897 189.936 138.791 189.907 138.64L178.183 77.7624C178.15 77.5902 178.263 77.4236 178.435 77.3905C178.607 77.3575 178.774 77.4704 178.807 77.6426L190.531 138.52C190.564 138.692 190.451 138.859 190.279 138.892C190.258 138.896 190.238 138.897 190.219 138.897Z" fill="#1C3A3E"/>
<path d="M212.18 133.63C212.037 133.63 211.906 133.532 211.872 133.386L198.55 77.7756C198.508 77.6048 198.614 77.434 198.785 77.3927C198.956 77.3514 199.127 77.4575 199.168 77.6282L212.49 133.239C212.532 133.409 212.426 133.58 212.255 133.622C212.229 133.627 212.204 133.63 212.18 133.63Z" fill="#1C3A3E"/>
<path d="M200.708 84.7363H179.92V85.4705H200.708V84.7363Z" fill="#1C3A3E"/>
<path d="M183.435 102.931L183.387 103.663L205.298 105.103L205.346 104.371L183.435 102.931Z" fill="#1C3A3E"/>
<path d="M209.019 118.884L186.814 120.673L186.873 121.405L209.078 119.616L209.019 118.884Z" fill="#1C3A3E"/>
<path d="M184.838 81.8706C184.838 81.8706 184.807 83.0813 183.988 83.4229C183.168 83.7645 180.793 84.073 181.68 84.8512C182.19 85.2975 184.588 85.0096 185.266 85.0096C185.944 85.0096 186.58 85.3044 187.083 84.8512C187.637 84.3526 187.083 81.8706 187.083 81.8706C187.083 81.8706 186.499 82.175 185.973 82.1612C185.215 82.142 184.838 81.8706 184.838 81.8706Z" fill="#333333"/>
<path d="M194.249 81.8706C194.249 81.8706 194.219 83.0813 193.399 83.4229C192.58 83.7645 190.205 84.073 191.092 84.8512C191.602 85.2975 194 85.0096 194.678 85.0096C195.355 85.0096 195.992 85.3044 196.495 84.8512C197.048 84.3526 196.495 81.8706 196.495 81.8706C196.495 81.8706 195.91 82.175 195.384 82.1612C194.627 82.1406 194.249 81.8706 194.249 81.8706Z" fill="#333333"/>
<path d="M178.746 48.6729C178.746 48.6729 178.595 53.7415 180.214 63.4656C181.382 70.4859 182.761 77.56 183.437 80.951C183.679 82.1645 184.699 83.0515 185.908 83.0997L186.558 83.1258C187.866 83.1782 188.928 82.0556 188.831 80.7196L187.189 57.7757L186.784 50.2237L178.746 48.6729Z" fill="#65F0B1"/>
<path d="M193.548 53.134C193.473 53.751 189.984 53.6766 185.712 53.1353C181.441 52.594 178.115 51.6699 178.19 51.0528C178.264 50.4358 181.711 50.3614 185.982 50.9013C190.254 51.4412 193.622 52.5169 193.548 53.134Z" fill="#333333"/>
<path d="M183.65 52.2938L192.771 81.5872C193.153 82.8131 194.257 83.6532 195.515 83.6753L196.063 83.6849C197.358 83.707 198.347 82.51 198.11 81.2084L193.121 53.6835C193.048 53.3557 192.807 53.0967 192.491 53.0058C190.78 52.5114 183.482 51.0817 183.65 52.2938Z" fill="#65F0B1"/>
<path d="M192.122 36.2678C192.122 36.2678 190.909 32.8547 186.586 33.009C182.263 33.1646 179 38.8434 178.19 51.0509C178.19 51.0509 185.269 49.4986 193.56 53.1196C193.56 53.1196 194.021 41.2428 192.122 36.2678Z" fill="#64BC62"/>
<path d="M195.516 35.5462L192.095 38.0227C192.095 38.0227 182.696 39.0488 180.606 38.6701C178.516 38.2913 179.238 33.7226 179.238 33.7226C179.238 33.7226 181.696 33.8273 185.48 33.1497C185.835 33.0849 186.204 33.0381 186.586 33.0105C187.228 32.9651 187.87 32.9844 188.498 33.0519C192.235 33.4554 195.516 35.5462 195.516 35.5462Z" fill="#64BC62"/>
<path d="M195.516 35.5464C195.702 35.815 195.086 36.5863 194.141 37.2695C193.196 37.9527 192.28 38.2901 192.094 38.0215C191.908 37.7529 192.524 36.9816 193.469 36.2985C194.414 35.6153 195.33 35.2778 195.516 35.5464Z" fill="#333333"/>
<path d="M188.49 33.0501C188.027 33.0005 187.626 32.7099 187.441 32.2829L186.865 30.9455L186.699 30.5571L185.715 28.2734L185.886 30.6397L185.988 32.0598L186.017 32.4647C186.04 32.7953 185.81 33.0873 185.484 33.1465L185.478 33.1479C185.303 33.433 185.062 34.0101 185.784 34.2401C186.633 34.5101 188.005 33.8421 188.498 33.0515C188.495 33.0515 188.492 33.0515 188.49 33.0501Z" fill="#FCBDB6"/>
<path d="M193.729 47.6036C193.729 47.6036 192.448 46.4315 191.436 46.5348C190.425 46.6381 189.212 47.5347 189.852 47.6036C190.493 47.6725 191.336 47.5347 191.336 47.5347C191.336 47.5347 189.549 47.9135 189.819 48.2936C190.089 48.6724 191.639 48.3281 191.639 48.3281C191.639 48.3281 189.549 48.9493 189.92 49.2247C190.29 49.5002 191.875 49.0181 191.875 49.0181C191.875 49.0181 189.953 49.6737 190.391 49.9836C190.829 50.2935 191.975 49.4313 192.245 49.8115C192.515 50.1902 193.021 51.6737 194.167 51.0525L193.729 47.6036Z" fill="#FCBDB6"/>
<path d="M187.727 65.3864L185.765 59.4252C185.324 58.085 184.416 56.9653 183.211 56.2752L183.287 56.1416C184.527 56.8509 185.458 58.001 185.911 59.377L187.873 65.3382L187.727 65.3864Z" fill="#020202"/>
<path d="M188.39 27.8857C188.39 27.8857 188.298 28.2742 188.522 29.0703C188.849 30.2341 187.518 30.7203 187.178 30.3884C187.135 30.3471 187.192 28.3664 187.192 28.3664L187.617 28.1144L188.39 27.8857Z" fill="black"/>
<path d="M186.868 30.9076C186.868 30.9199 186.867 30.9337 186.866 30.9461C186.809 31.7092 185.994 32.0659 185.994 32.0659L185.988 32.0618L185.886 30.6417C186.136 30.5508 186.491 30.4558 186.699 30.5591C186.808 30.6114 186.875 30.7189 186.868 30.9076Z" fill="#333333"/>
<path d="M185.608 31.3948C186.836 31.3948 187.831 30.167 187.831 28.6525C187.831 27.1379 186.836 25.9102 185.608 25.9102C184.38 25.9102 183.385 27.1379 183.385 28.6525C183.385 30.167 184.38 31.3948 185.608 31.3948Z" fill="#FCBDB6"/>
<path d="M184.727 26.5482C184.789 26.6322 184.44 28.044 187.054 28.38C189.669 28.7175 188.098 25.5455 186.168 25.4738C183.383 25.3705 182.978 27.2424 183.245 27.9173C183.512 28.5908 184.727 26.5482 184.727 26.5482Z" fill="black"/>
<path d="M188.757 24.8125C188.757 24.8125 187.582 25.5976 188.485 26.3372C189.389 27.0769 191.873 27.4006 191.195 28.6471C190.517 29.8949 189.93 31.7433 191.15 31.9747C192.369 32.2061 193.137 32.1138 193.633 33.0835C194.129 34.0532 196.343 33.4526 196.162 32.2984C195.982 31.1428 197.879 30.1263 197.066 29.0644C196.253 28.0011 194.266 27.0769 193.768 25.6913C193.274 24.3043 189.705 24.212 188.757 24.8125Z" fill="black"/>
<path d="M186.765 27.9307C186.765 27.9307 187.834 29.0573 187.463 30.2088C187.463 30.2088 188.083 29.5311 188.097 29.2791C188.111 29.027 187.946 28.1139 187.946 28.1139L186.765 27.9307Z" fill="black"/>
<path d="M187.534 29.067C187.281 29.308 186.93 29.3314 186.747 29.1221C186.564 28.9113 186.62 28.5463 186.872 28.3067C187.124 28.0656 187.476 28.0409 187.659 28.2516C187.842 28.4623 187.786 28.8259 187.534 29.067Z" fill="#FCBDB6"/>
<path d="M195.623 33.461C195.616 33.461 195.61 33.4596 195.603 33.4569C195.288 33.3357 195.1 33.1814 195.032 32.9872C194.925 32.6911 195.107 32.3674 195.299 32.0244C195.467 31.7242 195.642 31.4129 195.6 31.1347C195.551 30.8055 195.118 30.7284 194.661 30.6471C194.275 30.5782 193.877 30.508 193.719 30.2614C193.643 30.1444 193.629 29.9956 193.675 29.8193C193.726 29.6251 193.786 29.4502 193.847 29.2821C194.104 28.5577 194.307 27.9861 193.172 26.6762C191.716 24.9972 190.509 24.9159 189.424 25.0785C189.297 25.0978 188.975 25.263 188.977 25.4104C188.979 25.4862 189.082 25.6762 190.024 25.7947C190.042 25.7988 191.363 26.106 192 27.5315C192.339 28.2905 191.858 29.1031 191.471 29.756C191.212 30.1939 190.987 30.5727 191.057 30.8262C191.082 30.9184 191.147 30.9914 191.254 31.0493C191.517 31.1925 191.814 31.2724 192.1 31.3495C192.836 31.5479 193.596 31.7545 193.691 33.0781C193.693 33.107 193.672 33.1332 193.642 33.1346C193.613 33.1373 193.587 33.1153 193.585 33.085C193.496 31.8358 192.804 31.6484 192.071 31.4501C191.779 31.3716 191.478 31.2889 191.203 31.1402C191.071 31.0686 190.987 30.9708 190.954 30.8523C190.873 30.5548 191.107 30.1595 191.378 29.7009C191.772 29.0356 192.219 28.2836 191.902 27.5742C191.289 26.1996 190.019 25.9021 190.005 25.898C189.246 25.803 188.873 25.6432 188.87 25.4104C188.867 25.1763 189.268 24.9931 189.407 24.9724C190.523 24.8058 191.761 24.887 193.252 26.606C194.428 27.9626 194.216 28.5604 193.947 29.3166C193.888 29.4832 193.828 29.6554 193.778 29.8455C193.739 29.9942 193.75 30.1113 193.81 30.2036C193.943 30.4116 194.318 30.4777 194.682 30.5424C195.156 30.6264 195.646 30.7146 195.707 31.1182C195.753 31.4322 195.57 31.76 195.394 32.0754C195.213 32.3963 195.043 32.6993 195.133 32.95C195.193 33.1139 195.359 33.2462 195.645 33.3563C195.672 33.3674 195.686 33.3977 195.675 33.4252C195.664 33.4486 195.643 33.461 195.623 33.461Z" fill="white"/>
<path d="M187.073 27.5478C186.066 27.5258 185.566 26.7352 185.546 26.7008C185.531 26.676 185.539 26.6429 185.562 26.6278C185.587 26.6126 185.62 26.6209 185.635 26.6443C185.639 26.6526 186.127 27.4198 187.073 27.4404C187.102 27.4404 187.126 27.4652 187.126 27.4941C187.126 27.5258 187.102 27.5478 187.073 27.5478Z" fill="white"/>
<path d="M191.349 47.5693L191.323 47.4991C191.344 47.4908 191.837 47.3104 192.11 47.5032L192.066 47.5638C191.825 47.3944 191.354 47.568 191.349 47.5693Z" fill="#E9845C"/>
<path d="M191.653 48.3623L191.625 48.292C191.646 48.2838 192.12 48.1006 192.552 48.292L192.522 48.3609C192.118 48.1818 191.658 48.3595 191.653 48.3623Z" fill="#E9845C"/>
<path d="M191.888 49.0526L191.862 48.9823C191.887 48.9727 192.468 48.7578 192.742 48.9892L192.694 49.0471C192.454 48.8432 191.894 49.0498 191.888 49.0526Z" fill="#E9845C"/>
<path d="M178.823 51.6049C178.823 51.6049 180.808 51.3294 183.791 51.5484C188.408 51.89 192.33 52.9589 192.33 52.9589L190.864 53.2054L181.686 53.569L179.839 52.0539L178.823 51.6049Z" fill="#65F0B1"/>
<path d="M184.38 30.428C184.38 30.428 185.14 30.4459 185.9 30.1787C185.9 30.1787 185.963 30.9266 185.141 30.9776C184.662 31.0065 184.38 30.428 184.38 30.428Z" fill="#E9633E"/>
<path d="M184.38 30.428C184.38 30.428 184.564 30.5809 184.994 30.5781C185.422 30.5768 185.9 30.1787 185.9 30.1787C185.9 30.1787 184.984 30.4308 184.38 30.428Z" fill="white"/>
<path d="M185.393 28.6799C185.378 28.6758 185.365 28.6648 185.36 28.6496C185.349 28.6234 185.363 28.5945 185.387 28.5835C185.403 28.578 185.743 28.4017 186.042 28.7295C186.061 28.7502 186.06 28.7818 186.04 28.8011C186.02 28.8204 185.992 28.8149 185.969 28.7997C185.736 28.6441 185.437 28.673 185.425 28.6785C185.414 28.6813 185.402 28.6827 185.393 28.6799Z" fill="#080435"/>
<path d="M185.792 29.235C185.796 29.3562 185.729 29.4554 185.641 29.4582C185.553 29.4609 185.48 29.3659 185.476 29.2447C185.471 29.1235 185.539 29.0243 185.627 29.0215C185.715 29.0188 185.79 29.1152 185.792 29.235Z" fill="#080435"/>
<path d="M183.587 28.9431C183.572 28.9445 183.555 28.9404 183.544 28.928C183.525 28.9073 183.525 28.8756 183.546 28.8564C183.558 28.8453 183.806 28.5533 184.207 28.742C184.232 28.7544 184.244 28.7834 184.233 28.8095C184.222 28.8357 184.193 28.8412 184.166 28.8357C183.891 28.7792 183.626 28.9211 183.616 28.9307C183.608 28.9376 183.598 28.9418 183.587 28.9431Z" fill="#080435"/>
<path d="M184.17 29.3057C184.219 29.4159 184.195 29.5343 184.115 29.5701C184.035 29.606 183.93 29.5454 183.881 29.4365C183.831 29.3264 183.856 29.2079 183.936 29.1721C184.016 29.1349 184.12 29.1955 184.17 29.3057Z" fill="#080435"/>
<path d="M180.606 38.7224C180.598 38.7224 180.591 38.721 180.583 38.7168C180.556 38.7044 180.545 38.6728 180.558 38.6466L181.781 36.1412C181.793 36.115 181.825 36.104 181.851 36.1164C181.878 36.1288 181.889 36.1605 181.876 36.1867L180.653 38.6921C180.645 38.7113 180.625 38.7224 180.606 38.7224Z" fill="#333333"/>
<path d="M194.129 51.0649L192.06 48.6628C192.098 48.6394 195.682 46.5141 195.293 42.8655C195.117 41.2072 194.039 39.1687 192.457 38.1054C193.043 36.7322 194.726 35.5849 195.183 35.7887C197.302 37.3492 198.514 39.6274 198.832 42.0873C199.41 46.5279 195.158 50.5635 194.129 51.0649Z" fill="#FCBDB6"/>
<path d="M197.846 43.2637C197.689 43.2637 197.543 43.177 197.435 43.0186C197.333 42.8698 197.278 42.6729 197.278 42.4649C197.278 42.0241 197.533 41.666 197.846 41.666C198.159 41.666 198.413 42.0241 198.413 42.4649C198.413 42.9056 198.159 43.2637 197.846 43.2637ZM197.846 41.8161C197.62 41.8161 197.428 42.1137 197.428 42.4649C197.428 42.6439 197.475 42.8106 197.559 42.9346C197.638 43.0502 197.74 43.1136 197.846 43.1136C198.072 43.1136 198.263 42.8161 198.263 42.4649C198.263 42.1137 198.072 41.8161 197.846 41.8161Z" fill="#EC865C"/>
<path d="M183.964 107.528L168.391 133.79L169.023 134.164L184.595 107.902L183.964 107.528Z" fill="#1C3A3E"/>
<path d="M123.5 30.0496L123.445 36.9239C123.434 38.2917 122.145 39.293 120.82 38.9542C119.875 38.7131 118.882 38.5905 117.858 38.6043C111.769 38.6814 106.783 43.6248 106.653 49.7126C106.518 56.0539 111.593 61.2631 117.917 61.3127C119.244 61.3237 120.52 61.1061 121.706 60.697C122.465 60.4353 123.254 61.0096 123.247 61.8126L123.169 71.7888C123.153 73.662 124.66 75.1936 126.535 75.2087L138.834 75.3065C140.115 75.3162 140.901 73.9278 140.257 72.8218C139.235 71.0684 138.669 69.0189 138.722 66.8331C138.87 60.7328 143.889 55.7991 149.992 55.7564C156.344 55.711 161.482 60.8719 161.432 67.2022C161.416 69.2489 160.859 71.1648 159.899 72.8149C159.213 73.9939 160.035 75.4746 161.401 75.4856L170.995 75.5613C173.112 75.5779 174.843 73.8755 174.86 71.7585L175.19 30.1088C175.203 28.3224 173.767 26.8638 171.981 26.8486L127.117 26.4933C125.134 26.4768 123.516 28.069 123.5 30.0496Z" fill="#65F0B1"/>
<path d="M51.5271 89.2354C51.7144 89.3207 54.964 89.7643 56.2879 95.9003C57.4298 101.192 53.0727 96.9402 53.0727 96.9402L51.5271 89.2354Z" fill="#FCBDB6"/>
<path d="M48.5077 137.127C48.5077 137.127 48.5393 138.37 49.3796 138.721C50.2199 139.071 52.6568 139.388 51.7462 140.187C51.2242 140.645 48.7611 140.349 48.0668 140.349C47.3712 140.349 46.7196 140.652 46.203 140.187C45.6341 139.674 46.203 137.127 46.203 137.127C46.203 137.127 46.8023 137.44 47.3423 137.426C48.1192 137.406 48.5077 137.127 48.5077 137.127Z" fill="#333333"/>
<path d="M38.8509 137.127C38.8509 137.127 38.8826 138.37 39.7229 138.721C40.5632 139.071 43.0001 139.388 42.0895 140.187C41.5674 140.645 39.1044 140.349 38.4101 140.349C37.7145 140.349 37.0629 140.652 36.5463 140.187C35.9774 139.674 36.5463 137.127 36.5463 137.127C36.5463 137.127 37.1455 137.44 37.6855 137.426C38.4625 137.406 38.8509 137.127 38.8509 137.127Z" fill="#333333"/>
<path d="M54.7575 103.062C54.7575 103.062 54.9131 108.263 53.2532 118.242C52.0547 125.446 50.64 132.704 49.9457 136.184C49.6978 137.429 48.6509 138.339 47.4097 138.389L46.743 138.415C45.4013 138.469 44.3116 137.316 44.4108 135.947L46.0955 112.404L46.5102 104.655L54.7575 103.062Z" fill="#64BC62"/>
<path d="M39.5699 107.641C39.647 108.275 43.2258 108.198 47.6105 107.642C51.9938 107.087 55.406 106.138 55.3289 105.505C55.2517 104.871 51.7156 104.795 47.3323 105.349C42.949 105.904 39.4927 107.008 39.5699 107.641Z" fill="#333333"/>
<path d="M49.7252 106.779L40.3677 136.837C39.9764 138.094 38.8427 138.957 37.552 138.979L36.99 138.988C35.662 139.01 34.6468 137.783 34.8892 136.447L40.0081 108.204C40.0825 107.868 40.3305 107.601 40.6542 107.509C42.4092 107.002 49.8974 105.535 49.7252 106.779Z" fill="#64BC62"/>
<path d="M41.033 90.3345C41.033 90.3345 42.2783 86.8319 46.7139 86.9916C51.1496 87.1514 54.4984 92.979 55.329 105.505C55.329 105.505 48.0653 103.912 39.5576 107.627C39.5562 107.627 39.0851 95.4403 41.033 90.3345Z" fill="#65F0B1"/>
<path d="M37.829 90.3595L41.0607 92.1349C41.0607 92.1349 49.7433 94.0908 51.8867 93.7024C54.0315 93.3139 55.1584 91.3223 55.1584 91.3223C55.1584 91.3223 51.7214 87.7908 47.8395 87.0966C47.4745 87.0305 47.108 87.0195 46.7154 86.9919C46.057 86.9451 45.3985 86.9644 44.7538 87.0346C39.2795 87.6282 37.829 90.3595 37.829 90.3595Z" fill="#65F0B1"/>
<path d="M45.543 120.214L45.3928 120.164L47.4054 114.047C47.8696 112.634 48.8256 111.455 50.0971 110.728L50.1756 110.864C48.9386 111.574 48.0074 112.721 47.5542 114.097L45.543 120.214Z" fill="#020202"/>
<path d="M49.7554 86.2119L49.743 86.1623C49.7485 86.1609 50.3132 86.0232 50.473 85.6375C50.5557 85.4378 50.5171 85.2037 50.356 84.942C50.2802 84.8194 50.2099 84.7078 50.1466 84.6059C49.7058 83.9034 49.5418 83.6417 49.6617 83.0674L49.7127 83.0784C49.5969 83.6321 49.7457 83.8718 50.1907 84.5797C50.254 84.6817 50.3243 84.7932 50.4 84.9158C50.5695 85.1927 50.6108 85.4419 50.5213 85.6582C50.3518 86.0659 49.7801 86.205 49.7554 86.2119Z" fill="black"/>
<path d="M49.6892 83.0723C49.6892 83.0723 49.4922 83.962 50.0818 84.8931C50.6714 85.8242 50.0295 86.5046 49.2319 86.1465C48.4329 85.7884 48.1285 86.8063 47.1091 86.2443C46.087 85.681 49.6892 83.0723 49.6892 83.0723Z" fill="black"/>
<path d="M44.9712 87.0044C45.412 86.9576 45.795 86.6807 45.9713 86.273L46.5209 84.9962L46.6807 84.6257L47.6188 82.4468L47.4563 84.7042L47.3585 86.0596L47.3309 86.4452C47.3075 86.7606 47.5279 87.0389 47.8392 87.0953L47.8447 87.0967C48.0114 87.368 48.2428 87.9204 47.5541 88.1394C46.7441 88.3969 45.4354 87.7592 44.9657 87.0044C44.9671 87.0058 44.9685 87.0058 44.9712 87.0044Z" fill="#FCBDB6"/>
<g opacity="0.5">
<path opacity="0.5" d="M46.5181 84.9604C46.5181 84.9728 46.5195 84.9852 46.5208 84.9976C46.5746 85.7248 47.3529 86.065 47.3529 86.065L47.357 86.0609L47.4548 84.7056C47.2165 84.6188 46.8776 84.5293 46.6792 84.6271C46.5759 84.678 46.5112 84.78 46.5181 84.9604Z" fill="#CD653F"/>
</g>
<path d="M47.7209 85.4263C48.8925 85.4263 49.8423 84.2546 49.8423 82.8093C49.8423 81.364 48.8925 80.1924 47.7209 80.1924C46.5493 80.1924 45.5995 81.364 45.5995 82.8093C45.5995 84.2546 46.5493 85.4263 47.7209 85.4263Z" fill="#FCBDB6"/>
<path d="M45.883 83.204C46.1227 83.434 46.4588 83.4574 46.6337 83.2563C46.8087 83.0552 46.7549 82.7082 46.5139 82.4781C46.2728 82.2481 45.9381 82.2247 45.7631 82.4258C45.5895 82.6255 45.6419 82.974 45.883 83.204Z" fill="#FCBDB6"/>
<path d="M48.8626 84.5029C48.8626 84.5029 48.138 84.5195 47.4134 84.2646C47.4134 84.2646 47.3528 84.9781 48.138 85.0263C48.594 85.0539 48.8626 84.5029 48.8626 84.5029Z" fill="#E9633E"/>
<path d="M48.8627 84.5029C48.8627 84.5029 48.6878 84.6489 48.2787 84.6462C47.8695 84.6448 47.4136 84.2646 47.4136 84.2646C47.4136 84.2646 48.2869 84.5043 48.8627 84.5029Z" fill="white"/>
<path d="M47.926 82.8352C47.9397 82.831 47.9521 82.8214 47.9576 82.8063C47.9673 82.7815 47.9563 82.7539 47.9315 82.7443C47.9163 82.7388 47.5926 82.5721 47.3075 82.8834C47.2895 82.9027 47.2895 82.933 47.3088 82.9523C47.3281 82.9702 47.3543 82.966 47.3777 82.9509C47.5995 82.8021 47.8846 82.8297 47.897 82.8352C47.9053 82.8366 47.9163 82.8379 47.926 82.8352Z" fill="#080435"/>
<path d="M47.5444 83.365C47.5402 83.4807 47.605 83.5758 47.689 83.5785C47.773 83.5813 47.8433 83.4904 47.8474 83.3747C47.8516 83.259 47.7868 83.1639 47.7028 83.1612C47.6188 83.1584 47.5471 83.2493 47.5444 83.365Z" fill="#080435"/>
<path d="M49.6477 83.0857C49.6629 83.0871 49.678 83.083 49.6891 83.072C49.707 83.0527 49.707 83.0224 49.6877 83.0045C49.6767 82.9935 49.4397 82.7152 49.0568 82.8957C49.032 82.9067 49.021 82.9356 49.032 82.959C49.043 82.9824 49.0692 82.9893 49.0953 82.9838C49.3571 82.9301 49.6092 83.0651 49.6188 83.0733C49.6284 83.0802 49.6381 83.0844 49.6477 83.0857Z" fill="#080435"/>
<path d="M49.093 83.4311C49.0461 83.5358 49.0696 83.6488 49.1453 83.6832C49.2211 83.7176 49.3217 83.6598 49.3685 83.5551C49.4153 83.4504 49.3919 83.3375 49.3161 83.3031C49.2404 83.2686 49.1398 83.3251 49.093 83.4311Z" fill="#080435"/>
<path d="M48.6217 80.6671C48.6217 80.6671 48.5763 81.5748 47.4425 81.7304C46.3088 81.8847 45.5264 82.3654 45.6793 83.1821C45.8322 83.9989 47.6588 85.6931 46.3157 86.3501C44.9726 87.0071 45.2578 85.7826 43.8017 86.0663C42.3457 86.3501 42.0826 84.4052 43.0854 83.2772C44.0883 82.1491 43.6819 79.163 47.4425 79.2953C51.2032 79.4275 49.8257 82.4274 49.8257 82.4274C49.8257 82.4274 48.619 81.6698 48.6217 80.6671Z" fill="black"/>
<path d="M45.9271 86.5167L45.916 86.4878C46.1929 86.3762 46.3568 86.2165 46.4147 86.003C46.5759 85.4093 45.872 84.4948 45.2493 83.689C45.084 83.4755 44.9283 83.2731 44.7906 83.0802C44.4063 82.5431 44.3718 81.9026 44.7024 81.4081C45.0689 80.8586 45.7659 80.6272 46.5208 80.8021C47.2509 80.9715 47.7523 80.8186 48.0443 80.6616C48.3598 80.4908 48.5044 80.2787 48.5058 80.2773L48.5306 80.2939C48.5251 80.3021 48.3804 80.5142 48.0581 80.6878C47.7619 80.8476 47.2522 81.0032 46.5125 80.831C45.77 80.6589 45.0854 80.8861 44.7258 81.4247C44.398 81.915 44.4311 82.5279 44.814 83.0623C44.9518 83.2552 45.1074 83.4563 45.2727 83.6697C45.8981 84.481 46.6089 85.4011 46.4436 86.0099C46.3844 86.2316 46.2108 86.4024 45.9271 86.5167Z" fill="white"/>
<path d="M49.5005 84.8007C49.3876 84.8007 49.2787 84.7691 49.1754 84.7057C48.7195 84.422 48.5473 83.5652 48.7925 82.7981C48.9426 82.327 49.2223 81.9758 49.5419 81.8587C49.732 81.7885 49.9234 81.805 50.0929 81.9138C50.5488 82.1961 50.721 83.0515 50.4758 83.8201C50.3257 84.2925 50.046 84.6437 49.7264 84.7608C49.6507 84.787 49.5749 84.8007 49.5005 84.8007ZM48.882 82.827C48.6492 83.5556 48.8035 84.3627 49.2264 84.6258C49.3683 84.714 49.5308 84.7277 49.6948 84.6713C49.9868 84.5638 50.2458 84.2333 50.3863 83.7898C50.6191 83.0598 50.4648 82.2526 50.0433 81.9909C49.9 81.9028 49.7388 81.8876 49.5749 81.9455C49.2815 82.0543 49.0239 82.3821 48.882 82.827Z" fill="#764678"/>
<g opacity="0.3">
<path opacity="0.3" d="M46.3392 82.2977C46.1683 83.0442 46.4411 83.8472 46.9466 84.0896C47.4522 84.3321 48.0005 83.923 48.1699 83.1751C48.3407 82.4286 48.068 81.6256 47.5624 81.3832C47.0569 81.1407 46.5086 81.5512 46.3392 82.2977Z" fill="white"/>
</g>
<g opacity="0.3">
<path opacity="0.3" d="M48.7718 82.8598C48.601 83.6104 48.8283 84.4244 49.2787 84.6779C49.7292 84.9313 50.2334 84.5277 50.4042 83.7771C50.575 83.0264 50.3477 82.2124 49.8972 81.959C49.4468 81.7069 48.9426 82.1091 48.7718 82.8598Z" fill="white"/>
</g>
<path d="M47.3035 84.1831C47.1892 84.1831 47.0762 84.157 46.9646 84.1046C46.4067 83.8443 46.105 82.9821 46.291 82.1832C46.3984 81.7191 46.6464 81.3623 46.9715 81.2039C47.1988 81.0951 47.4357 81.0937 47.6603 81.1984C48.2182 81.4601 48.5199 82.3223 48.3339 83.1198C48.2264 83.5854 47.9771 83.9421 47.6506 84.1005C47.5377 84.1542 47.4206 84.1831 47.3035 84.1831ZM47.3228 81.2136C47.2181 81.2136 47.1134 81.2384 47.0128 81.2866C46.718 81.4312 46.4811 81.7742 46.3819 82.2039C46.2056 82.9614 46.4852 83.7754 47.0046 84.0192C47.2016 84.1088 47.4123 84.1074 47.6107 84.0151C47.9069 83.8719 48.1438 83.5275 48.2443 83.0964C48.4193 82.3389 48.141 81.5248 47.6217 81.2811C47.5239 81.237 47.4233 81.2136 47.3228 81.2136Z" fill="#764678"/>
<path d="M48.8725 83.1392C48.8533 83.1392 48.8326 83.1323 48.8161 83.1185C48.8064 83.1103 48.5778 82.9312 48.1838 83.0069C48.1369 83.0138 48.0901 82.9849 48.0805 82.9367C48.0708 82.8885 48.1025 82.843 48.1507 82.8348C48.6273 82.7356 48.9166 82.9725 48.929 82.9821C48.9662 83.0138 48.9717 83.0689 48.94 83.1061C48.9235 83.1282 48.8973 83.1392 48.8725 83.1392Z" fill="#764678"/>
<path d="M37.7821 90.4707C37.716 90.8991 38.8084 91.4459 40.2218 91.6924C41.6351 91.939 42.8349 91.793 42.9011 91.3646C42.9672 90.9363 41.8748 90.3895 40.4615 90.1429C39.0481 89.8964 37.8483 90.0438 37.7821 90.4707Z" fill="#333333"/>
<path d="M43.0939 106.955C43.0939 106.955 51.8426 105.285 54.6789 106.072L53.3193 108.088L48.2624 108.374L43.0939 106.955Z" fill="#64BC62"/>
<path d="M49.5987 101.5C45.5446 101.5 42.441 100.434 40.343 98.3155C37.1898 95.1297 38.1073 90.8489 38.1293 90.6684C38.1293 90.6684 38.3194 90.0872 40.4009 90.6492C42.3349 91.1712 42.39 91.7125 42.39 91.7125C42.39 91.7125 41.8514 93.6146 43.5031 95.2509C45.1065 96.8376 48.7115 97.8651 52.862 97.3761L53.0521 101.514C51.7091 101.569 50.6112 101.5 49.5987 101.5Z" fill="#FCBDB6"/>
<g opacity="0.5">
<path opacity="0.5" d="M43.2038 99.4857C43.044 99.4857 42.8732 99.4416 42.7148 99.3562C42.3153 99.1441 42.1128 98.7405 42.2629 98.4568C42.4131 98.173 42.8608 98.1152 43.2603 98.3259C43.449 98.4265 43.6005 98.5711 43.6873 98.735C43.7782 98.9086 43.7879 99.0821 43.7121 99.2253C43.6363 99.3672 43.4876 99.4581 43.292 99.4802C43.2644 99.4843 43.2341 99.4857 43.2038 99.4857ZM42.7726 98.3535C42.6032 98.3535 42.4613 98.4141 42.3993 98.5298C42.2891 98.7391 42.4627 99.049 42.7864 99.2212C42.9476 99.3066 43.1225 99.3452 43.2754 99.3286C43.4187 99.3135 43.5248 99.2515 43.5757 99.1551C43.6267 99.0587 43.6184 98.9361 43.5509 98.8094C43.4793 98.673 43.3498 98.5504 43.1886 98.4637C43.0509 98.3893 42.9035 98.3535 42.7726 98.3535Z" fill="#EC865C"/>
</g>
<path d="M110.6 106.351C109.627 106.334 108.681 106.438 107.777 106.647C106.576 106.925 105.424 106.033 105.424 104.821V93.3032C105.424 92.0939 104.402 91.127 103.171 91.1724L93.448 91.5278C92.1558 91.5746 91.2398 92.7633 91.5222 94.0015C91.8087 95.259 91.9616 96.6267 91.9616 97.6942C91.9616 103.901 86.7959 108.922 80.4551 108.842C74.3003 108.765 69.2874 103.81 69.2488 97.7658C69.242 96.7355 69.3783 95.737 69.6387 94.788C69.9404 93.6902 69.1125 92.609 67.9553 92.609H55.7669C54.6456 92.609 53.7365 93.5015 53.7365 94.602V135.782C53.7365 138.356 55.862 140.444 58.4848 140.444H99.7708C102.894 140.444 105.424 137.96 105.424 134.894V129.749C105.424 128.729 106.413 127.99 107.416 128.258C108.365 128.511 109.364 128.646 110.394 128.646C116.719 128.646 122.192 123.555 121.749 117.342C121.248 110.265 116.701 106.457 110.6 106.351Z" fill="#8BC0CC"/>
<path d="M58.6722 91.6849C58.6722 91.6849 57.8691 91.2772 57.6322 92.1683C57.3291 93.3033 57.7493 95.0511 58.2714 94.5208C58.3898 94.401 58.5469 93.536 58.5469 93.536C58.5469 93.536 58.511 95.1875 59.0593 95.0401C59.6076 94.8927 59.631 93.43 59.631 93.43C59.631 93.43 59.8156 95.1834 60.277 94.8831C60.7385 94.5842 60.7013 93.4327 60.7013 93.4327C60.7013 93.4327 60.8212 95.0208 61.3474 94.6613C61.8736 94.3019 61.5664 93.0746 61.5609 92.5333C61.5568 92.021 61.1945 91.9356 60.6683 91.9521C60.6683 91.9521 60.3211 91.5885 59.8266 91.8199C59.7054 91.8763 59.5056 91.6339 59.4092 91.6215C59.0194 91.5664 58.6722 91.6849 58.6722 91.6849Z" fill="#FCBDB6"/>
<path d="M52.7323 97.4435C52.7323 97.4435 53.7282 95.7356 54.8647 95.5028C56.0012 95.2687 57.6267 95.8251 56.953 96.1185C56.2794 96.4119 55.3152 96.551 55.3152 96.551C55.3152 96.551 57.3897 96.3513 57.2244 96.854C57.0591 97.3568 55.2545 97.5138 55.2545 97.5138C55.2545 97.5138 57.741 97.4725 57.431 97.8967C57.1211 98.3223 55.2325 98.3402 55.2325 98.3402C55.2325 98.3402 57.5468 98.3925 57.1762 98.8787C56.8043 99.3649 55.2642 98.8223 55.0989 99.325C54.9336 99.8277 54.1098 101.771 52.651 101.49L52.7323 97.4435Z" fill="#FCBDB6"/>
<path d="M54.5314 96.833L54.4639 96.7807C54.6953 96.4777 55.2931 96.5066 55.3179 96.5066L55.3138 96.592C55.3069 96.592 54.7352 96.5658 54.5314 96.833Z" fill="#E9845C"/>
<path d="M54.3053 97.851L54.2488 97.7863C54.6538 97.4309 55.2323 97.4681 55.2571 97.4695L55.2516 97.5549C55.2461 97.5549 54.6841 97.5205 54.3053 97.851Z" fill="#E9845C"/>
<path d="M54.3509 98.651L54.2793 98.6056C54.4983 98.2626 55.205 98.2971 55.2353 98.2984L55.2312 98.3838C55.2229 98.3825 54.5424 98.3494 54.3509 98.651Z" fill="#E9845C"/>
<path d="M121.615 147.176C121.602 147.176 121.591 147.175 121.579 147.174C121.418 147.154 121.304 147.008 121.323 146.847L127.152 98.9485C127.172 98.7874 127.321 98.6717 127.479 98.6923C127.64 98.7116 127.754 98.8576 127.735 99.0188L121.905 146.917C121.888 147.066 121.761 147.176 121.615 147.176Z" fill="#1C3A3E"/>
<path d="M99.8663 143.065C99.847 143.065 99.8277 143.064 99.8084 143.06C99.65 143.028 99.5467 142.874 99.5783 142.714L108.339 98.9252C108.371 98.7668 108.525 98.6635 108.685 98.6952C108.844 98.7268 108.947 98.8811 108.915 99.0409L100.154 142.83C100.125 142.969 100.003 143.065 99.8663 143.065Z" fill="#1C3A3E"/>
<path d="M126.581 104.724H107.368V105.403H126.581V104.724Z" fill="#1C3A3E"/>
<path d="M124.297 124.504H103.452V125.183H124.297V124.504Z" fill="#1C3A3E"/>
<path d="M100.686 137.494L100.641 138.172L122.457 139.626L122.502 138.948L100.686 137.494Z" fill="#1C3A3E"/>
<path d="M106.762 91.3594C108.133 87.653 110.79 82.1932 113.764 78.3807C114.453 77.4978 114.728 77.17 115.204 76.7141C115.585 76.3477 115.373 75.2568 114.753 74.5971C114.17 73.9773 113.064 73.7555 112.834 73.9222C112.443 74.2059 111.944 74.8161 111.161 75.7885C108.437 79.1658 105.745 83.97 103.613 90.2438L106.762 91.3594Z" fill="#FCBDB6"/>
<g opacity="0.5">
<path opacity="0.5" d="M108.296 82.9447C108.22 82.9447 108.148 82.9268 108.083 82.8896C107.818 82.7354 107.776 82.307 107.992 81.9324C108.094 81.7561 108.239 81.6156 108.397 81.5385C108.567 81.4572 108.732 81.4545 108.866 81.5316C108.999 81.6087 109.081 81.7547 109.095 81.9407C109.108 82.117 109.059 82.3112 108.957 82.4888C108.794 82.774 108.53 82.9447 108.296 82.9447ZM108.654 81.6239C108.594 81.6239 108.53 81.6404 108.464 81.6721C108.33 81.7368 108.209 81.8553 108.122 82.0068C107.95 82.3057 107.966 82.6514 108.159 82.7629C108.352 82.8745 108.661 82.7147 108.833 82.4158C108.921 82.2643 108.962 82.0991 108.951 81.9517C108.942 81.8153 108.887 81.7106 108.796 81.6583C108.753 81.6363 108.705 81.6239 108.654 81.6239Z" fill="#EC865C"/>
</g>
<path d="M121.392 72.3286L121.802 70.5477L121.922 70.0285L122.623 66.979L122.965 69.9348L123.17 71.7088L123.235 72.2708C123.279 72.6523 123.518 72.7157 123.827 73.027C123.952 73.1537 124.749 73.9153 123.941 74.3451C122.936 74.8822 120.94 74.3313 120.132 73.4746C120.138 73.4732 121.259 72.9044 121.392 72.3286Z" fill="#FCBDB6"/>
<path d="M123.218 71.2375C124.655 70.9391 125.528 69.2928 125.168 67.5604C124.808 65.828 123.351 64.6656 121.914 64.964C120.477 65.2625 119.604 66.9088 119.964 68.6411C120.324 70.3735 121.781 71.536 123.218 71.2375Z" fill="#FCBDB6"/>
<path d="M123.974 66.8782C125.494 66.8218 126.163 65.8934 126.121 65.0836C126.065 64.0437 125.344 63.1732 124.612 63.6167C123.881 64.0588 124.135 63.0892 123.397 63.0423C122.015 62.9569 121.832 63.9472 120.716 64.0781C119.245 64.2503 117.745 66.8342 119.116 68.5366C119.114 68.5366 122.774 66.9223 123.974 66.8782Z" fill="black"/>
<path d="M125.245 65.7313C125.245 65.7313 123.742 67.4103 124.021 68.2712C124.3 69.132 124.272 69.4791 123.362 70.0176C122.451 70.5562 123.342 71.2531 122.087 71.4019C120.832 71.5506 119.178 70.1774 118.996 67.7299C118.894 66.3663 119.612 65.4146 119.612 65.4146L125.245 65.7313Z" fill="black"/>
<path d="M124.835 68.172C124.633 67.9255 124.29 67.8731 124.07 68.0535C123.849 68.2354 123.835 68.5811 124.038 68.8276C124.24 69.0741 124.583 69.1265 124.804 68.9461C125.024 68.7642 125.038 68.4185 124.835 68.172Z" fill="#FCBDB6"/>
<path d="M119.434 68.1899C119.43 68.1899 119.425 68.1886 119.42 68.1872C119.4 68.1789 119.39 68.1569 119.397 68.1362C119.528 67.7864 119.887 67.6349 119.903 67.628C119.922 67.6197 119.945 67.6293 119.953 67.6486C119.962 67.6679 119.952 67.6913 119.933 67.6996C119.93 67.701 119.59 67.8456 119.471 68.1624C119.464 68.1803 119.451 68.1899 119.434 68.1899Z" fill="#333333"/>
<path d="M119.944 67.5164C119.941 67.5164 119.938 67.5164 119.935 67.515C119.931 67.5136 119.47 67.4158 119.453 67.0316C119.452 67.0095 119.468 66.9916 119.491 66.9902C119.515 66.9902 119.53 67.0068 119.532 67.0274C119.546 67.3497 119.948 67.4365 119.952 67.4379C119.973 67.442 119.986 67.4627 119.982 67.4847C119.978 67.5026 119.962 67.5164 119.944 67.5164Z" fill="#333333"/>
<path d="M124.359 63.5716C124.316 63.5716 124.275 63.5606 124.236 63.5385C124.024 63.4173 123.95 62.9986 123.947 62.9807C123.943 62.96 123.958 62.9394 123.979 62.9353C124.002 62.9311 124.02 62.9463 124.024 62.9669C124.025 62.9711 124.094 63.3664 124.275 63.4697C124.323 63.4972 124.374 63.5 124.43 63.4779C124.542 63.4352 124.626 63.3677 124.707 63.3016C124.868 63.1708 125.034 63.0372 125.395 63.1239C125.415 63.1295 125.429 63.1501 125.424 63.1708C125.418 63.1914 125.397 63.2052 125.377 63.1997C125.054 63.1212 124.917 63.2328 124.757 63.3622C124.67 63.4325 124.582 63.5041 124.458 63.5509C124.425 63.5647 124.39 63.5716 124.359 63.5716Z" fill="black"/>
<path d="M120.74 63.9431C120.71 63.9431 120.679 63.9417 120.648 63.9389C120.626 63.9376 120.611 63.9183 120.612 63.8963C120.613 63.8742 120.633 63.8591 120.655 63.8604C121.24 63.91 121.702 63.4128 121.706 63.4073C121.721 63.3908 121.746 63.3908 121.761 63.4045C121.777 63.4197 121.777 63.4445 121.764 63.4596C121.746 63.4817 121.319 63.9431 120.74 63.9431Z" fill="black"/>
<path d="M124.462 69.0835C124.331 69.0835 124.128 69.027 123.953 68.735C123.947 68.7268 123.95 68.7144 123.96 68.7089C123.968 68.7034 123.98 68.7061 123.986 68.7157C124.252 69.1606 124.573 69.0325 124.586 69.027C124.596 69.0229 124.607 69.027 124.611 69.0367C124.615 69.0463 124.611 69.0573 124.601 69.0615C124.599 69.0615 124.545 69.0835 124.462 69.0835Z" fill="black"/>
<path d="M138.644 72.3111C138.948 71.5769 136.583 70.3112 136.583 70.3112C136.324 70.2561 132.829 73.9914 128.511 74.395C126.972 74.5382 121.503 78.3728 123.532 79.0986C127.728 80.6013 135.465 77.8948 138.644 72.3111Z" fill="#FCBDB6"/>
<path d="M119.93 121.672C119.93 121.672 119.958 122.79 120.715 123.107C121.473 123.422 123.667 123.708 122.846 124.427C122.375 124.84 120.159 124.573 119.532 124.573C118.907 124.573 118.318 124.845 117.853 124.427C117.34 123.965 117.853 121.672 117.853 121.672C117.853 121.672 118.393 121.953 118.879 121.94C119.58 121.923 119.93 121.672 119.93 121.672Z" fill="#333333"/>
<path d="M126.464 87.8994C126.464 87.8994 126.615 92.9502 125.003 102.638C123.839 109.633 122.466 116.68 121.792 120.059C121.551 121.268 120.535 122.151 119.329 122.2L118.682 122.226C117.379 122.278 116.322 121.16 116.417 119.829L118.052 96.9693L118.456 89.4448L126.464 87.8994Z" fill="#64BC62"/>
<path d="M112.757 121.672C112.757 121.672 112.785 122.79 113.542 123.107C114.3 123.422 116.494 123.708 115.673 124.427C115.202 124.84 112.986 124.573 112.359 124.573C111.734 124.573 111.145 124.845 110.68 124.427C110.167 123.965 110.68 121.672 110.68 121.672C110.68 121.672 111.22 121.953 111.706 121.94C112.407 121.923 112.757 121.672 112.757 121.672Z" fill="#333333"/>
<path d="M119.291 87.8994C119.291 87.8994 119.73 92.8978 118.118 102.586C116.954 109.58 115.293 116.679 114.618 120.058C114.377 121.267 113.36 122.15 112.155 122.198L111.508 122.224C110.205 122.277 109.148 121.158 109.243 119.828L110.878 96.9679L111.282 89.4434L119.291 87.8994Z" fill="#64BC62"/>
<path d="M114.277 74.691C114.277 74.691 115.519 71.6401 121.412 72.4362C129.91 73.5836 128.027 81.2747 127.146 93.2411C127.146 93.2411 118.948 90.8831 110.786 91.4698C110.786 91.4684 111.753 79.2638 114.277 74.691Z" fill="#49ADB7"/>
<path d="M110.991 74.5574C110.991 74.5574 112.002 77.8851 114.661 78.863C117.187 79.7927 126.055 81.3932 127.917 80.0654C132.029 77.1344 130.376 73.8673 130.376 73.8673C130.376 73.8673 123.235 72.271 120.24 72.3123C113.953 72.4018 110.991 74.5574 110.991 74.5574Z" fill="#49ADB7"/>
<path d="M110.769 91.6165C110.7 92.2225 114.315 92.9745 118.848 93.4676C123.382 93.9607 127.075 93.8436 127.145 93.239C127.214 92.6329 123.633 91.7693 119.1 91.2749C114.567 90.7818 110.838 91.0118 110.769 91.6165Z" fill="#64BC62"/>
<path d="M117.338 106.999C117.336 106.999 117.333 106.999 117.332 106.999C117.304 106.996 117.285 106.972 117.289 106.945C118.095 99.4334 115.839 96.3261 115.817 96.2958C115.8 96.2737 115.804 96.2434 115.826 96.2269C115.848 96.2104 115.879 96.2145 115.895 96.2365C115.919 96.2668 118.197 99.4058 117.387 106.956C117.383 106.98 117.362 106.999 117.338 106.999Z" fill="#333333"/>
<path d="M102.718 91.5178C103.38 90.4146 103.992 89.8154 103.992 89.8154C103.992 89.8154 106.602 90.522 106.667 90.7865C106.817 91.3966 106.844 92.6693 106.983 93.2836C107.043 93.5494 107.184 94.4585 106.929 94.5535C106.707 94.6361 106.253 93.9681 106.075 93.6238C105.403 95.2931 103.675 97.428 104.832 93.8263C104.831 93.8263 104.828 93.8249 104.827 93.8249C104.677 94.1789 103.839 96.1443 103.448 95.7573C103.104 95.4171 103.645 93.9847 103.886 93.4007C103.88 93.3979 103.876 93.3952 103.871 93.3924C103.575 93.964 102.823 95.3276 102.599 94.8965C102.32 94.3565 102.875 92.7712 102.875 92.7712C102.875 92.7712 102.12 94.7794 101.72 94.1968C101.448 93.7987 102.313 92.2644 102.588 91.7175C102.628 91.6377 102.672 91.5729 102.718 91.5178Z" fill="#FCBDB6"/>
<path d="M138.231 73.0848C138.231 73.0848 136.054 71.3549 136.1 71.078C136.206 70.4403 136.7 69.2269 136.819 68.5905C136.87 68.3151 137.107 67.3991 137.388 67.4129C137.631 67.4253 137.787 68.2407 137.816 68.6387C139.132 67.3358 141.633 66.0232 139.072 68.9542C139.074 68.9555 139.075 68.9569 139.076 68.9583C139.363 68.6856 139.946 68.2214 140.247 68.5864C140.367 68.731 140.054 69.4362 139.589 69.8894C139.593 69.8935 140.494 69.1497 140.695 69.4362C140.887 69.7103 139.991 70.6979 139.991 70.6979C139.991 70.6979 140.743 70.264 140.74 70.753C140.739 71.2474 138.231 73.0848 138.231 73.0848Z" fill="#FCBDB6"/>
<path d="M168.298 26.0044C168.298 26.0044 167.442 25.7235 167.343 26.6394C167.217 27.8074 167.896 29.4712 168.331 28.8679C168.43 28.7316 168.338 27.1215 168.338 27.1215C168.338 27.1215 168.67 29.4919 169.188 29.2619C169.707 29.0332 169.459 27.0664 169.459 27.0664C169.459 27.0664 169.958 29.2894 170.368 28.923C170.779 28.5567 170.477 27.0471 170.477 27.0471C170.477 27.0471 170.928 28.9768 171.393 28.5415C171.859 28.1063 171.37 26.941 171.283 26.4052C171.2 25.8998 170.83 25.8695 170.313 25.9659C170.313 25.9659 169.915 25.6587 169.462 25.9617C169.35 26.0361 169.116 25.8268 169.02 25.8281C168.623 25.835 168.298 26.0044 168.298 26.0044Z" fill="#FCBDB6"/>
</svg>
