<svg width="173" height="152" viewBox="0 0 173 152" fill="none" xmlns="http://www.w3.org/2000/svg">
<path d="M67.5168 131.668C44.9506 123.839 22.9254 111.908 12.943 90.5273C3.09011 69.4218 7.99865 42.5553 24.7148 26.111C30.529 20.3913 37.8567 15.7942 46.0215 14.7159C57.5548 13.1932 68.8324 18.806 78.2115 25.5566C87.5906 32.3072 96.1092 40.4384 106.66 45.2463C118.635 50.7033 132.237 51.4303 144.892 55.1294C152.613 57.3852 160.252 60.956 165.331 67.0835C170.375 73.1712 172.392 81.2368 172.487 89.0779C172.76 111.566 156.983 133.249 135.356 140.784C121.185 145.722 106.339 142.591 92.2871 138.964C84.3483 136.916 75.8952 134.574 67.5168 131.668Z" fill="#64BC62"/>
<path d="M114.398 131.413C93.4934 144.568 69.6163 154.782 45.8608 149.646C22.4093 144.576 3.82105 124.247 1.29118 100.904C0.410477 92.7852 1.419 84.1484 5.8147 76.9976C12.0248 66.8976 23.8496 61.3643 35.3688 58.0348C46.8881 54.7053 58.9716 52.9046 69.6756 47.4553C81.823 41.2713 91.1912 30.9025 102.353 23.1026C109.162 18.3436 116.986 14.4536 125.225 14.1634C133.412 13.8748 141.245 17.2027 147.656 21.922C166.043 35.4553 173.42 61.2543 165.566 83.0548C160.419 97.3396 148.301 107.227 136.295 116.182C129.51 121.242 122.159 126.531 114.398 131.413Z" stroke="#64BC62" stroke-width="2" stroke-miterlimit="10"/>
<path d="M42.6698 94.5827C42.6698 94.5827 40.3472 88.7882 49.9305 80.9639L49.7855 93.9107L42.6698 94.5827Z" fill="black"/>
<path d="M42.3502 67.6458C38.938 60.8265 36.1541 55.927 34.3989 56.6998C33.9344 56.9045 33.713 57.4909 33.8487 58.0102C34.7746 61.5642 38.525 68.188 38.525 68.188L42.3502 67.6458Z" fill="#F9B384"/>
<path d="M46.7067 77.3978L40.7133 81.1946C38.0821 80.0308 35.7876 77.6834 34.2023 73.3321C33.981 72.7227 34.034 72.0309 34.3644 71.4826L35.6193 69.378C36.0666 68.6372 36.2817 67.7651 36.235 66.8824L36.1149 64.3409C36.1056 64.1561 36.1742 63.9759 36.2989 63.8492L37.2248 62.9145C37.3916 62.7465 37.6456 62.7312 37.828 62.8778L39.7656 64.4295L39.3883 64.4051C39.3883 64.4051 39.7079 67.6918 42.1988 67.8537L43.4941 69.4788L46.7067 77.3978Z" fill="#F9B384"/>
<path d="M47.5205 76.8873L46.7068 77.3974L43.4942 69.4799L42.1989 67.8549C39.708 67.693 39.3884 64.4062 39.3884 64.4062L39.7656 64.4307L42.6992 64.5987C43.5129 64.643 44.2798 64.9973 44.8722 65.5945L46.8643 67.6181C47.2477 68.0107 47.533 68.4963 47.6888 69.0309C48.4729 71.6639 48.3217 74.2787 47.5205 76.8873Z" fill="#F9B384"/>
<path d="M51.0917 78.1123L49.7386 90.6894C49.7386 90.6894 45.8651 93.6936 45.6734 94.0067C45.5861 94.1426 44.2565 91.059 42.7928 87.5478C40.9051 83.0347 38.7961 77.8221 38.7961 77.8221L47.2181 73.1562L50.1751 76.9347L51.0917 78.1123Z" fill="#F9B384"/>
<path d="M51.0916 78.1121L49.7386 90.6893C49.7386 90.6893 45.865 93.6934 45.6733 94.0065C45.586 94.1424 44.2564 91.0589 42.7927 87.5477L50.175 76.9346L51.0916 78.1121Z" fill="#E28B6D"/>
<path d="M43.6109 69.9091C43.4208 69.6922 42.5697 68.5773 42.3 68.2229C39.3368 68.003 39.0999 64.4581 39.0983 64.4215L39.0812 64.1282L39.3805 64.1221C44.183 64.0152 45.1993 65.2722 45.8057 66.0251C45.9101 66.155 46.0021 66.268 46.0925 66.3474L45.7059 66.772C45.5781 66.659 45.4674 66.523 45.3505 66.3779C44.7894 65.683 43.943 64.6399 39.7094 64.6857C39.8263 65.4799 40.336 67.583 42.4606 67.6624L42.5993 67.667L42.6819 67.7754C43.081 68.3023 43.8822 69.347 44.0489 69.5379L43.6109 69.9091Z" fill="#E28B6D"/>
<path d="M41.7327 70.8394C41.4318 70.8394 41.1653 70.7188 40.9969 70.5844C40.5979 70.2652 37.8794 68.1697 37.8794 68.1697L38.2379 67.7222C38.2379 67.7222 40.9642 69.8238 41.3632 70.1445C41.4583 70.2209 41.6812 70.3247 41.9182 70.2361C42.2642 70.1048 42.5183 69.6054 42.6336 68.831L43.2088 68.9135C43.0202 70.1781 42.5183 70.6195 42.1286 70.7677C41.9961 70.8181 41.8605 70.8394 41.7327 70.8394Z" fill="#E28B6D"/>
<path d="M39.1403 64.5525C38.8831 64.3021 36.7865 64.0105 36.3797 64.1235L36.2207 63.5769C36.7304 63.4349 39.2915 63.699 39.6375 64.2578L39.1403 64.5525Z" fill="#E28B6D"/>
<path d="M41.6019 73.9361C40.7539 73.9361 39.708 73.2627 39.5599 73.1634L37.1189 71.5936L37.4369 71.1187L39.8826 72.6916C40.5061 73.1054 41.5801 73.5757 41.9168 73.2795C42.0352 73.1741 42.0945 73.0031 42.0898 72.7679C42.0758 72.0624 41.5006 71.0363 41.0345 70.656L41.4055 70.2178C41.9885 70.6912 42.6541 71.8777 42.6712 72.7557C42.679 73.1573 42.5527 73.4841 42.3065 73.7009C42.1116 73.8704 41.8669 73.9361 41.6019 73.9361Z" fill="#E28B6D"/>
<path d="M39.8153 75.8673C39.0905 75.8673 38.2207 75.319 38.0072 75.1785L35.8623 73.7978L36.1803 73.3228L38.3298 74.705C38.8692 75.0624 39.7935 75.4733 40.0756 75.2243C40.1723 75.1388 40.219 74.9968 40.2159 74.8013C40.2035 74.1598 39.661 73.2633 39.3009 72.9715L39.6719 72.5332C40.1894 72.9547 40.7817 74.0086 40.7973 74.7906C40.8051 75.1541 40.6898 75.4504 40.4653 75.6489C40.2829 75.8062 40.0569 75.8673 39.8153 75.8673Z" fill="#E28B6D"/>
<path d="M94.3614 42.4321H82.7222V56.5688H94.3614V42.4321Z" fill="#F9B384"/>
<path d="M82.6489 51.1374C86.9075 56.9227 92.3273 54.389 94.3599 50.5005L108.205 110.764C95.2858 116.215 82.8656 117.023 71.2263 110.556L78.5837 53.494L82.6489 51.1374Z" fill="white"/>
<path d="M100.785 33.6929C103.363 28.7063 103.94 20.9981 97.9434 20.6759C92.7402 15.6465 84.3276 16.3369 79.4362 21.5831C69.9839 18.7332 68.5872 35.7074 80.6177 35.0598L100.785 33.6929Z" fill="black"/>
<path d="M82.7222 42.4321V49.951C86.1593 50.0243 89.0492 48.7735 90.8075 46.6154C90.8075 46.6154 87.4141 44.2924 84.7377 42.4321H82.7222Z" fill="black"/>
<path d="M99.1999 28.717L98.2771 37.447C96.8665 41.3171 95.1238 44.0433 92.9337 45.7722C90.675 47.553 87.7477 48.1165 85.0526 47.3208C82.7409 46.632 80.8533 44.9535 80.0801 42.6825C79.6562 41.4301 79.5689 40.0021 79.9414 38.4595C79.9991 38.2152 80.0458 37.9708 80.0692 37.7203C80.1908 36.7184 80.0801 35.6997 79.8245 34.7208C79.2836 32.6727 79.2556 30.5375 79.6328 28.3306L90.0749 25.0928L99.1999 28.717Z" fill="#F9B384"/>
<path d="M78.7767 133.742C73.3725 134.903 67.0361 134.796 59.9983 133.742C61.727 118.324 64.0963 103.526 67.7438 89.9625L52.5459 88.5086C52.6893 86.1077 53.0089 83.6335 53.5123 81.0997C54.0766 78.2452 54.8809 75.3113 55.9144 72.3178C55.9487 72.2109 55.9892 72.104 56.0297 71.9971C59.6975 61.5948 66.3612 53.7583 82.7438 51.084C87.8752 75.0517 87.4886 110.501 78.7767 133.742Z" fill="#65F0B1"/>
<path d="M117.931 113.782C118.854 119.183 119.668 124.59 120.498 130.218C115.248 132.05 108.9 132.716 101.622 132.397C98.5791 122.803 96.5168 112.81 95.3259 102.47C95.3259 102.43 95.3197 102.397 95.315 102.355C93.4383 85.914 92.2256 68.5686 94.3626 50.5176C101.065 50.9849 107.936 52.9994 114.371 57.0391C116.578 58.4274 118.368 60.4709 119.563 62.8886C124.065 71.9653 126.161 79.95 127.904 88.1958L113.819 93.801C114.232 95.4856 114.62 97.1534 114.993 98.7967C116.135 103.893 117.083 108.833 117.931 113.782Z" fill="#65F0B1"/>
<path d="M70.9829 84.1548L69.0984 99.1925L68.2208 100.333L63.9061 105.928C62.1494 108.202 59.7411 109.335 57.3173 109.355C54.7032 109.375 52.0907 108.101 50.3075 105.54L42.6711 94.5831C46.4278 89.6622 50.0488 84.6603 51.09 78.1113C56.0172 83.7394 57.4809 85.8608 57.4809 85.8608L70.9829 84.1548Z" fill="#65F0B1"/>
<path d="M79.3693 31.9441C83.2381 31.7547 87.1147 30.9467 91.0023 28.9643C92.2322 31.2644 95.1361 34.2991 99.3962 33.1613L99.8592 30.6489L100.19 26.3741L87.3673 22.3589L77.321 25.5967L79.3693 31.9441Z" fill="black"/>
<path opacity="0.4" d="M117.931 113.783C109.742 113.004 101.976 109.305 95.3262 102.47C95.2966 102.436 95.2623 102.407 95.2327 102.374L95.3137 102.357L114.992 98.7998C116.136 103.893 117.083 108.833 117.931 113.783Z" fill="black"/>
<path d="M51.3223 77.9354L50.8645 78.2866L59.287 88.8216L59.7448 88.4704L51.3223 77.9354Z" fill="black"/>
<path opacity="0.4" d="M111.302 71.6689L114.206 87.9819C114.206 87.9819 109.028 91.345 107.436 88.5898C106.196 86.4409 107.823 79.4215 111.302 71.6689Z" fill="black"/>
<path d="M81.4813 83.2582L77.9585 83.4995C77.575 83.5254 77.2492 83.8065 77.1417 84.2005L77.1183 84.2876C76.9484 84.9061 77.07 85.5751 77.4441 86.0821L78.0801 86.9435C78.1814 87.081 78.1596 87.2719 78.0286 87.3834C77.4706 87.6522 77.0653 88.1852 77.0419 88.7946C77.0357 88.9473 77.0482 89.0955 77.0778 89.2314C77.2056 89.8194 77.6249 90.2822 78.1689 90.4364L78.5134 90.5342C78.5586 90.5464 78.5773 90.6029 78.5524 90.6441L78.0567 91.4551C77.6888 92.0874 78.2266 93.2726 78.7535 93.6987C78.861 93.8744 79.2039 93.9385 79.3972 93.9645L80.9498 94.1722C81.6715 94.2684 82.3589 94.5204 82.9886 94.8809C86.1217 96.68 89.9547 96.4937 93.7862 96.315L93.4869 86.4533C90.8744 84.4876 87.8753 82.8183 84.404 81.5155L76.1363 75.75C74.3235 76.5304 75.4582 78.7236 81.4813 83.2582Z" fill="#F9B384"/>
<path d="M127.903 88.1971L129.123 93.2356C130.708 99.7785 125.703 106.001 119.432 105.283L89.6179 101.736L91.8921 85.0845L127.903 88.1971Z" fill="#65F0B1"/>
<path d="M67.7829 71.3932L63.6206 105.892L64.198 105.958L68.3603 71.4601L67.7829 71.3932Z" fill="black"/>
<path d="M91.9112 84.8041L91.8623 85.3701L114.223 87.2237L114.272 86.6577L91.9112 84.8041Z" fill="black"/>
<path d="M82.909 87.8396C82.7376 87.8213 78.7144 87.4076 77.9958 87.2122L78.1517 86.6641C78.7082 86.8167 81.8179 87.1557 82.9683 87.2748L82.909 87.8396Z" fill="#E28B6D"/>
<path d="M83.4423 91.5861C83.2661 91.5693 79.1261 91.1571 78.4075 90.9602L78.5633 90.4121C79.1198 90.5648 82.3153 90.9022 83.5 91.0197L83.4423 91.5861Z" fill="#E28B6D"/>
<path d="M96.5547 39.5869C103.848 40.656 104.816 29.2732 97.0722 33.826L96.5547 39.5869Z" fill="#F9B384"/>
<path d="M98.2413 36.4787C98.1524 36.1122 98.1306 35.7182 98.2132 35.3287C98.2943 34.9392 98.4907 34.5589 98.7947 34.2611C99.0971 33.9694 99.5257 33.754 99.9824 33.7876C100.434 33.8105 100.852 34.0824 101.024 34.4459L100.841 34.5788C100.576 34.3558 100.274 34.255 99.9856 34.284C99.6956 34.3054 99.4197 34.4581 99.1984 34.6658C98.9739 34.8751 98.8118 35.1546 98.6855 35.457C98.5686 35.767 98.5203 36.1046 98.4673 36.4589L98.2413 36.4787Z" fill="#E28B6D"/>
<path d="M84.0765 34.9512C84.0765 35.6843 83.6541 36.2784 83.1335 36.2784C82.6128 36.2784 82.1904 35.6843 82.1904 34.9512C82.1904 34.2181 82.6128 33.624 83.1335 33.624C83.6541 33.624 84.0765 34.2181 84.0765 34.9512Z" fill="black"/>
<path d="M91.1905 34.2413C91.1905 34.9744 90.7681 35.5686 90.2475 35.5686C89.7269 35.5686 89.3044 34.9744 89.3044 34.2413C89.3044 33.5082 89.7269 32.9141 90.2475 32.9141C90.7681 32.9141 91.1905 33.5082 91.1905 34.2413Z" fill="black"/>
<path d="M87.054 33.8304C86.9855 34.5055 86.7407 35.1561 86.443 35.7517C86.1671 36.3535 85.7525 36.9262 85.4812 37.4516C85.2022 37.9953 85.129 38.5054 85.475 38.9483C85.8164 39.4004 86.3791 39.7624 86.9184 40.1472L86.7859 40.3809C86.1702 40.1366 85.514 39.8861 84.9965 39.3225C84.7393 39.0461 84.5584 38.6337 84.5616 38.2305C84.5662 37.8258 84.6972 37.4654 84.8577 37.1492C85.2007 36.5154 85.5872 36.0374 85.9177 35.4738C86.2544 34.9255 86.5693 34.3757 86.7859 33.7739L87.054 33.8304Z" fill="black"/>
<path d="M84.9243 42.3436L90.0417 40.9155C90.0417 40.9155 90.0215 43.1745 87.5742 43.7259C86.1744 44.0405 84.9243 42.3436 84.9243 42.3436Z" fill="white"/>
<path opacity="0.4" d="M82.3852 40.201C82.3852 41.4992 81.3751 42.5683 80.0798 42.6828C79.6559 41.4304 79.5686 40.0024 79.9411 38.4599C79.9988 38.2155 80.0455 37.9712 80.0689 37.7207C81.3689 37.8291 82.3852 38.8982 82.3852 40.201Z" fill="#FC8879"/>
<path opacity="0.4" d="M95.8939 38.8222C96.1188 37.4642 95.1776 36.1847 93.7916 35.9643C92.4056 35.7439 91.0997 36.6661 90.8748 38.0241C90.6499 39.382 91.5911 40.6616 92.9771 40.882C94.363 41.1024 95.6689 40.1802 95.8939 38.8222Z" fill="#FC8879"/>
<path opacity="0.4" d="M64.5766 101.808L63.9048 105.927C62.1481 108.202 59.7398 109.335 57.3159 109.355C59.7055 99.8046 65.37 92.9165 65.37 92.9165L64.5766 101.808Z" fill="black"/>
<path opacity="0.2" d="M59.4404 88.5559L53.5125 81.0997C54.0767 78.2452 54.881 75.3113 55.9145 72.3178C55.9488 72.2109 55.9893 72.104 56.0299 71.9971C57.1537 74.0513 59.774 79.8259 59.4404 88.5559Z" fill="black"/>
<path d="M56.5057 38.0793C53.728 36.9888 51.3664 35.3118 49.4694 32.9797C51.6782 29.7189 52.9673 25.809 52.9673 21.6029C52.9673 10.1544 43.1767 0.767652 31.4954 1.00438C19.6379 1.24569 10.1918 11.1028 10.954 22.9408C11.6165 33.2301 20.1632 41.5645 30.6661 42.1709C35.8396 42.4702 40.6375 40.9322 44.4487 38.1648C47.7548 39.55 51.672 39.8601 56.4698 38.6153C56.7348 38.5451 56.7598 38.1785 56.5057 38.0793Z" fill="white" stroke="#65F0B1" stroke-width="2" stroke-miterlimit="10"/>
<path d="M38.4847 21.3755C38.4847 17.4748 35.0352 14.3652 30.9637 14.8112C27.9132 15.1457 25.4316 17.5451 25.0529 20.5294C24.7957 22.5607 25.4815 24.4332 26.7379 25.794C27.7293 26.8661 28.2421 28.2819 28.2421 29.7298V29.7374C28.2421 31.6313 29.8086 33.1662 31.7415 33.1662C33.6744 33.1662 35.2409 31.6313 35.2409 29.7374V29.7329C35.2409 28.23 35.852 26.8127 36.8543 25.6748C37.869 24.5202 38.4847 23.0189 38.4847 21.3755Z" fill="#65F0B1"/>
<path d="M31.7415 34.2838C32.9713 34.2838 33.9861 33.3858 34.1451 32.2236H29.3363C29.4969 33.3874 30.5116 34.2838 31.7415 34.2838Z" fill="black"/>
<path opacity="0.8" d="M29.7605 20.3698C29.324 21.567 28.4885 22.3687 27.8931 22.161C27.2992 21.9533 27.1714 20.8142 27.6078 19.617C28.0443 18.4197 28.8798 17.618 29.4752 17.8257C30.0691 18.0334 30.1969 19.1726 29.7605 20.3698Z" fill="white"/>
<path d="M31.9535 12.5598H31.7852C31.4563 12.5598 31.1866 12.2956 31.1866 11.9734V8.26665C31.1866 7.9444 31.4563 7.68018 31.7852 7.68018H31.9535C32.2824 7.68018 32.5521 7.9444 32.5521 8.26665V11.9734C32.5521 12.2971 32.2824 12.5598 31.9535 12.5598Z" fill="#65F0B1"/>
<path d="M26.7519 13.6434L26.5882 13.7518C26.3216 13.9274 25.9569 13.8587 25.7776 13.5991L23.9243 10.9148C23.745 10.6537 23.8152 10.2963 24.0802 10.1207L24.2438 10.0123C24.5104 9.83674 24.8751 9.90545 25.0544 10.165L26.9077 12.8479C27.0885 13.109 27.0168 13.4663 26.7519 13.6434Z" fill="#65F0B1"/>
<path d="M36.792 13.5451L36.965 13.6596C37.2284 13.8338 37.5901 13.7666 37.7693 13.5084L39.5635 10.912C39.7412 10.6539 39.6726 10.2995 39.4091 10.1239L39.2361 10.0093C38.9727 9.83521 38.6111 9.90242 38.4318 10.1605L36.6377 12.757C36.4584 13.0166 36.527 13.371 36.792 13.5451Z" fill="#65F0B1"/>
</svg>
