<svg width="157" height="150" viewBox="0 0 157 150" fill="none" xmlns="http://www.w3.org/2000/svg">
<path d="M75.3568 110.136C75.3568 110.136 73.9636 125.046 83.8126 125.787C93.6615 126.527 111.808 126.23 114.904 124.305C118.001 122.381 120.36 118.975 120.808 115.867C121.25 112.76 116.718 105.948 116.718 105.948L75.3568 110.136Z" fill="#455A64"/>
<path d="M119.008 123.578C119.008 123.675 109.69 123.758 98.1997 123.758C86.7024 123.758 77.3845 123.675 77.3845 123.578C77.3845 123.481 86.7024 123.398 98.1997 123.398C109.69 123.398 119.008 123.481 119.008 123.578Z" fill="#263238"/>
<path d="M152.789 11.9749L153.348 9.10921C153.479 8.43777 153.017 7.79403 152.334 7.70404L149.279 7.31641C149.279 7.31641 148.838 8.02937 149.189 8.56237C149.541 9.09536 151.631 9.42762 151.631 9.42762V12.2656L152.789 11.9749Z" fill="#AA6550"/>
<path d="M88.3577 58.6844C92.4201 58.636 95.6272 55.2096 95.4203 51.1394C95.2272 47.2285 95.0064 43.283 95.0064 43.283C95.0064 43.283 100.841 42.2031 100.752 36.3263C100.662 30.4426 99.2688 16.9724 99.2688 16.9724C92.4063 14.2382 84.6057 15.4426 78.8881 20.1219L78.0398 20.8141L81.1503 52.2124C81.5159 55.9226 84.6471 58.7329 88.3577 58.6844Z" fill="#FFBE9D"/>
<path d="M152.872 8.9221L145.948 12.2308C145.679 10.0573 143.996 7.91149 144.092 9.00517C144.189 10.0988 144.175 15.7749 144.175 15.7749L134.602 36.5617C133.306 39.8497 130.629 41.9401 128.622 42.4454L119.511 45.2696L123.215 57.3623L135.878 53.0015C139.161 51.8663 141.72 49.2428 142.768 45.9203L151.245 19.049C151.245 19.049 152.252 15.9964 152.603 13.7606C152.948 11.5179 152.872 8.9221 152.872 8.9221Z" fill="#EBA77A"/>
<path d="M57.866 78.9244C57.866 78.9244 66.6941 55.881 67.4597 55.1196C72.2325 50.4127 78.8536 50.2465 78.8536 50.2465L96.8617 48.7929C96.8617 48.7929 110.87 45.7472 119.008 43.6152L124.112 60.2904L108.607 65.5373L108.814 84.9327L113.628 99.3167C114.566 100.992 115.387 102.736 116.077 104.536L116.718 106.204L75.074 110.357C74.5016 105.484 78.9984 92.8723 78.9984 92.8723L74.274 74.1413L73.4325 81.534L57.866 78.9244Z" fill="#E0E0E0"/>
<path d="M108.366 70.3205C108.373 70.3828 107.545 70.0714 106.173 70.5144C105.497 70.7359 104.717 71.165 103.924 71.7949C103.124 72.4248 102.345 73.297 101.421 74.2107C100.503 75.1106 99.3859 76.1212 97.8686 76.578C96.3788 77.0557 94.6477 77.0003 92.9786 76.5296C91.3026 76.0589 89.668 75.2006 88.1576 74.0792C86.6402 72.9786 85.1988 71.6773 83.6538 70.459C82.1158 69.2338 80.5088 68.1816 78.7845 67.5241C77.0741 66.8526 75.3084 66.5065 73.6187 66.4511C70.2253 66.3058 67.2182 67.3233 65.0388 68.6523C62.8386 69.9814 61.404 71.5527 60.5212 72.6879C60.0867 73.2624 59.7764 73.7331 59.5694 74.0515C59.3694 74.3768 59.2591 74.543 59.2453 74.5361C59.2315 74.5291 59.3211 74.3492 59.5005 74.01C59.6798 73.6708 59.9695 73.1863 60.3902 72.591C61.2385 71.4142 62.6593 69.7945 64.8801 68.4031C67.0803 67.0187 70.1495 65.9389 73.6256 66.0704C75.3567 66.1189 77.1637 66.465 78.9225 67.1503C80.695 67.8217 82.3503 68.9085 83.8952 70.1406C85.4539 71.3727 86.8816 72.6671 88.3783 73.7539C89.8611 74.8545 91.4475 75.6989 93.0683 76.1627C94.6822 76.6334 96.3305 76.6957 97.7513 76.2527C99.1859 75.8374 100.276 74.8891 101.2 74.0031C102.124 73.1101 102.931 72.2449 103.766 71.615C104.593 70.9851 105.4 70.5697 106.111 70.3621C106.814 70.1475 107.4 70.1475 107.78 70.189C108.18 70.2306 108.366 70.3205 108.366 70.3205Z" fill="#FAFAFA"/>
<path d="M109.138 87.9232C109.145 87.9717 108.663 88.0132 107.849 88.2831C107.035 88.5531 105.917 89.1207 104.697 90.0483C103.455 90.962 102.138 92.2425 100.51 93.5162C98.8687 94.7622 96.8203 95.8766 94.496 96.4442C92.1786 97.0257 89.8681 97.1087 87.8197 96.8526C85.7644 96.6034 83.9781 96.015 82.5711 95.3505C81.8538 95.046 81.2607 94.6514 80.7227 94.3468C80.2192 93.9938 79.7778 93.6892 79.4329 93.4193C78.7777 92.8448 78.426 92.5194 78.4467 92.4987C78.5156 92.3948 79.8537 93.8623 82.6883 95.0806C84.0884 95.6966 85.8472 96.2435 87.8611 96.4719C89.8681 96.7003 92.1235 96.6103 94.3857 96.0427C96.6548 95.489 98.648 94.4161 100.269 93.2116C101.883 91.9795 103.235 90.7059 104.511 89.8129C105.773 88.8992 106.945 88.3593 107.787 88.1309C108.214 88.027 108.545 87.9578 108.773 87.944C109.021 87.9094 109.138 87.9094 109.138 87.9232Z" fill="#FAFAFA"/>
<path d="M111.821 49.9627C111.801 49.9211 112.332 49.6304 113.27 49.4089C114.208 49.1805 115.566 49.0836 117.022 49.3743C118.477 49.6719 119.691 50.2949 120.463 50.8694C121.243 51.444 121.615 51.9147 121.588 51.9424C121.539 51.9908 121.098 51.6032 120.305 51.1117C119.512 50.6202 118.332 50.0665 116.939 49.7827C115.546 49.5058 114.249 49.5473 113.325 49.6927C112.408 49.8381 111.849 50.025 111.821 49.9627Z" fill="#FAFAFA"/>
<path d="M90.7441 107.374C90.7234 107.277 92.0821 107.201 93.9995 106.266C94.9582 105.816 96.0479 105.159 97.2066 104.356C98.3653 103.525 99.6344 102.618 100.959 101.67C102.31 100.729 103.683 99.9395 105.007 99.3927C106.338 98.8597 107.614 98.5759 108.683 98.4513C109.759 98.3267 110.635 98.3336 111.235 98.3821C111.835 98.4305 112.166 98.4997 112.159 98.5205C112.159 98.6036 110.821 98.4236 108.725 98.742C107.676 98.9012 106.442 99.2127 105.152 99.7457C103.869 100.299 102.531 101.082 101.193 102.009C99.8551 102.937 98.6067 103.878 97.4204 104.667C96.241 105.463 95.1168 106.1 94.1237 106.529C93.634 106.758 93.1581 106.896 92.7581 107.035C92.3442 107.145 91.9787 107.228 91.689 107.291C91.0752 107.374 90.7441 107.408 90.7441 107.374Z" fill="#FAFAFA"/>
<path d="M96.3859 11.7049C106.945 12.7225 102.883 26.6149 105.524 30.8235C106.497 32.381 108.118 33.5439 109.407 34.9144C110.704 36.285 111.711 38.0778 111.152 39.8083C110.67 41.3104 109.056 42.6602 109.449 44.1623C109.656 44.9583 110.401 45.5466 110.959 46.1973C112.339 47.7963 112.684 49.9629 112.173 51.9426C111.663 53.9223 110.366 55.7289 108.752 57.231C104.035 61.6334 96.3376 63.5162 89.7785 61.8688C87.8405 61.3842 85.8403 60.609 83.8609 61.0727C82.6401 61.3565 81.6262 62.0833 80.502 62.5886C76.15 64.5545 70.3841 62.8032 67.9839 59.2453C65.5838 55.6943 66.3149 50.9181 69.1082 47.4502C71.1152 44.9652 74.2189 42.7086 74.1775 39.7322C74.1361 36.8042 70.9221 34.1599 72.0325 31.3635C72.7498 29.5568 75.0879 28.4562 75.7914 26.6426C76.5294 24.7599 75.2879 22.8078 75.0603 20.8558C74.7499 18.2116 76.3224 15.6297 78.157 13.4216C80.4607 10.6528 83.5091 8.05011 87.3577 7.29561C91.22 6.55496 95.8341 8.39621 96.3859 11.7049Z" fill="black"/>
<path d="M95.3376 62.7894C95.3238 62.734 96.2066 62.7548 97.586 62.1111C98.2688 61.7857 99.0551 61.2666 99.7724 60.4706C100.483 59.6745 101.083 58.567 101.324 57.2449C101.572 55.9228 101.421 54.3999 100.717 52.974C100.386 52.2472 99.9793 51.5273 99.593 50.752C99.2068 49.9837 98.8344 49.1392 98.7171 48.1978C98.5861 47.2564 98.8068 46.2458 99.324 45.4013C99.8344 44.5568 100.545 43.8577 101.262 43.1794C101.986 42.5079 102.704 41.8296 103.255 40.9989C103.807 40.1891 104.138 39.1992 103.931 38.2232C103.724 37.2541 103.083 36.4373 102.386 35.7174C101.69 34.9975 100.931 34.3261 100.283 33.5508C99.6344 32.7825 99.1447 31.848 99.0068 30.8651C98.8551 29.8891 98.9723 28.9269 99.1378 28.0271C99.5103 26.2274 100.055 24.6007 100.276 23.0086C100.531 21.4304 100.559 19.9283 100.317 18.5924C99.862 15.8928 98.2274 14.1346 96.9584 13.3732C95.6479 12.591 94.7444 12.6325 94.7582 12.5633C94.7582 12.5564 94.8134 12.5564 94.9168 12.5633C95.0203 12.5771 95.1789 12.5702 95.372 12.6187C95.7721 12.681 96.3583 12.854 97.0342 13.2347C98.3654 13.9754 100.09 15.7543 100.6 18.537C100.869 19.9076 100.855 21.4512 100.614 23.0571C100.407 24.6768 99.862 26.3381 99.5103 28.0963C99.3516 28.9754 99.2482 29.896 99.393 30.8028C99.5241 31.7096 99.9655 32.5541 100.586 33.2878C101.207 34.0285 101.959 34.693 102.676 35.4267C103.386 36.1604 104.09 37.0326 104.324 38.1332C104.559 39.2407 104.173 40.369 103.58 41.2204C102.993 42.0926 102.241 42.7987 101.524 43.4632C100.807 44.1346 100.124 44.813 99.6482 45.5951C99.1654 46.3704 98.9654 47.2703 99.0827 48.1355C99.324 49.8799 100.386 51.3266 101.021 52.8148C101.738 54.2961 101.883 55.9159 101.6 57.2864C101.331 58.6639 100.69 59.813 99.931 60.6159C99.1792 61.4327 98.3516 61.938 97.6412 62.2495C96.9308 62.561 96.3376 62.6856 95.9376 62.741C95.7376 62.7687 95.5859 62.7825 95.4755 62.7825C95.3927 62.7963 95.3376 62.7963 95.3376 62.7894Z" fill="#455A64"/>
<path d="M76.0188 25.1615C75.9913 25.1615 75.9085 24.7392 75.8119 23.964C75.7223 23.1887 75.605 22.0535 75.6602 20.6414C75.7223 19.2362 75.9913 17.5265 76.8534 15.8444C77.7155 14.1693 79.1501 12.598 80.9433 11.4005C84.5711 8.99857 88.8542 8.66631 91.4957 9.71846C92.8338 10.2238 93.7304 11.0406 94.1442 11.7189C94.3649 12.0512 94.4822 12.3419 94.5373 12.5426C94.5994 12.7434 94.6201 12.8472 94.6063 12.8541C94.5649 12.868 94.4546 12.4388 94.0063 11.8158C93.5648 11.1928 92.682 10.4522 91.3854 10.0023C88.8266 9.06087 84.6746 9.43466 81.164 11.7605C79.4191 12.9234 78.0259 14.4323 77.1775 16.0383C76.3292 17.6442 76.0326 19.2985 75.9361 20.676C75.8395 22.0604 75.9154 23.1887 75.9568 23.9709C76.0188 24.7254 76.0533 25.1545 76.0188 25.1615Z" fill="#455A64"/>
<path d="M92.8269 14.986C92.8338 15.0552 92.0613 14.7575 90.7923 15.2144C89.5715 15.6505 87.9093 17.0141 87.3093 19.3399C87.0058 20.489 86.9438 21.8111 87.0196 23.2162C87.0886 24.6283 87.3162 26.1304 87.3783 27.7432C87.4403 29.3422 87.3576 31.1004 86.6058 32.7409C85.8885 34.4022 84.3091 35.5582 83.8056 37.2679C83.5642 38.1124 83.6815 39.0053 83.9505 39.836C84.2125 40.6735 84.5988 41.4696 84.9229 42.2864C85.2471 43.0962 85.523 43.9477 85.5506 44.8268C85.5988 45.6989 85.3781 46.5434 85.0747 47.2979C84.447 48.8138 83.5228 50.039 82.8055 51.2504C82.0814 52.4548 81.5296 53.6662 81.4537 54.8429C81.3503 56.0196 81.6951 57.0787 82.1158 57.9163C82.5366 58.7677 83.0263 59.4322 83.4332 59.9652C83.847 60.4982 84.185 60.8927 84.4126 61.1696C84.6402 61.4396 84.7574 61.5919 84.7436 61.5988C84.7367 61.6057 84.5988 61.4811 84.3505 61.225C84.1022 60.9689 83.7435 60.5882 83.309 60.0621C82.8814 59.536 82.3572 58.8854 81.9089 58.0201C81.4537 57.1687 81.0744 56.0681 81.1572 54.8152C81.2192 53.5623 81.7848 52.2887 82.509 51.0635C83.2263 49.8314 84.1298 48.5992 84.716 47.1456C84.9988 46.4257 85.1988 45.6366 85.1505 44.8337C85.116 44.0307 84.8609 43.2278 84.5367 42.4317C84.2194 41.6357 83.8263 40.8328 83.5504 39.9537C83.2676 39.0884 83.1297 38.0916 83.3987 37.1502C83.6677 36.2088 84.247 35.4405 84.7919 34.7345C85.3436 34.0215 85.8885 33.3431 86.2265 32.5679C86.9369 31.0243 87.0334 29.3214 86.9851 27.7502C86.93 26.165 86.7162 24.656 86.661 23.2301C86.5989 21.8041 86.6748 20.4474 87.0127 19.2568C87.6817 16.8411 89.4405 15.4567 90.7233 15.0552C91.3785 14.8406 91.9234 14.8268 92.2751 14.8683C92.4545 14.8821 92.5855 14.9237 92.6752 14.9375C92.7786 14.9652 92.8269 14.979 92.8269 14.986Z" fill="#455A64"/>
<path d="M112.449 95.8077C112.477 95.8008 112.628 96.2023 112.911 96.9429C113.194 97.6766 113.594 98.7426 114.139 100.037C114.684 101.331 115.387 102.847 116.256 104.481C117.118 106.122 118.215 107.845 119.167 109.783C120.105 111.714 120.877 113.68 120.953 115.591C121.008 116.56 120.732 117.453 120.394 118.221C120.056 118.99 119.656 119.661 119.263 120.249C118.463 121.419 117.691 122.271 117.125 122.817C116.842 123.094 116.608 123.288 116.442 123.42C116.277 123.544 116.187 123.607 116.173 123.593C116.153 123.572 116.491 123.295 117.022 122.72C117.553 122.146 118.291 121.281 119.05 120.111C119.429 119.529 119.808 118.858 120.119 118.11C120.429 117.363 120.677 116.518 120.615 115.612C120.525 113.784 119.767 111.853 118.836 109.949C117.891 108.039 116.801 106.301 115.953 104.64C115.091 102.986 114.415 101.449 113.891 100.141C113.373 98.8326 113.008 97.7528 112.766 96.9983C112.642 96.6245 112.559 96.3338 112.504 96.133C112.463 95.9185 112.442 95.8077 112.449 95.8077Z" fill="#64BC62"/>
<path d="M146.368 34.4854C146.375 34.4854 146.361 34.5477 146.334 34.6654C146.292 34.8038 146.251 34.9699 146.189 35.1845C146.044 35.6621 145.851 36.3197 145.603 37.1573C145.065 38.8947 144.306 41.3589 143.368 44.3977C143.127 45.1591 142.899 45.9621 142.609 46.7927C142.306 47.6234 141.885 48.454 141.299 49.2154C140.727 49.9768 140.016 50.676 139.216 51.292C138.816 51.6035 138.395 51.8942 137.968 52.185C137.761 52.3303 137.526 52.4618 137.285 52.5934C137.044 52.6972 136.802 52.8079 136.561 52.9118C132.629 54.4762 128.222 55.909 123.594 57.4319L123.277 57.5357L123.394 57.3142C123.698 58.304 124.001 59.287 124.291 60.256L124.339 60.4222L124.174 60.4775C118.456 62.4019 113.166 64.1808 108.662 65.6967L108.766 65.5583C108.773 66.7281 108.78 67.8495 108.786 68.9086C108.78 69.9676 108.855 70.9851 108.849 71.9335C108.862 73.8301 108.814 75.4775 108.8 76.8342C108.78 78.191 108.78 79.25 108.786 79.9768C108.793 80.316 108.793 80.5929 108.793 80.8006C108.793 80.9875 108.793 81.0844 108.786 81.0844C108.78 81.0844 108.766 80.9875 108.752 80.8006C108.738 80.6137 108.718 80.3368 108.697 79.9768C108.662 79.257 108.635 78.191 108.628 76.8342C108.621 75.4775 108.642 73.8301 108.607 71.9404C108.6 70.9921 108.518 69.9953 108.518 68.9224C108.504 67.8564 108.483 66.7281 108.469 65.5583V65.4545L108.573 65.4199C113.076 63.8832 118.36 62.0834 124.063 60.1453L123.953 60.3668C123.656 59.4046 123.36 58.4217 123.05 57.4249L122.994 57.2519L123.167 57.1965L123.484 57.0927C128.105 55.5768 132.519 54.1508 136.43 52.6141C136.671 52.5103 136.906 52.4065 137.14 52.3026C137.361 52.185 137.575 52.0742 137.788 51.9219C138.216 51.6381 138.63 51.3543 139.023 51.0498C139.809 50.4475 140.499 49.7761 141.058 49.0424C141.623 48.3156 142.044 47.5126 142.34 46.7097C142.63 45.8998 142.872 45.083 143.12 44.3285C144.099 41.3105 144.899 38.8532 145.458 37.1227C145.734 36.292 145.955 35.6414 146.113 35.1707C146.189 34.963 146.244 34.7969 146.292 34.6654C146.334 34.5408 146.361 34.4785 146.368 34.4854Z" fill="#64BC62"/>
<path d="M150.251 10.1685C150.369 10.1131 152.79 3.33643 153.1 2.69961C153.576 1.7236 153.617 3.21876 153.369 5.06001C153.162 6.61746 152.872 8.91557 152.872 8.91557L150.251 10.1685Z" fill="#EBA77A"/>
<path d="M103.945 20.2124C103.959 20.2124 104 20.3855 104.069 20.7246C104.145 21.0638 104.228 21.5691 104.324 22.2198C104.407 22.8705 104.504 23.6734 104.572 24.6079C104.648 25.5424 104.69 26.6083 104.828 27.7712C104.973 28.9203 105.255 30.2009 106.062 31.2945C106.862 32.3882 107.973 33.385 109.014 34.541C109.538 35.1224 110.063 35.7316 110.518 36.4238C110.966 37.116 111.373 37.9051 111.449 38.798C111.497 39.241 111.407 39.7186 111.207 40.134C111.014 40.5493 110.732 40.9023 110.456 41.2415C110.173 41.5807 109.89 41.906 109.697 42.2659C109.483 42.6259 109.49 43.0204 109.58 43.4427C109.973 45.1247 111.518 46.3292 111.952 48.0666C112.456 49.7486 112.228 51.493 111.697 52.9674C111.138 54.4487 110.29 55.7293 109.304 56.7191C108.311 57.7159 107.221 58.4427 106.193 59.0241C104.117 60.1593 102.29 60.7408 101.041 61.1492C100.414 61.3499 99.9239 61.4953 99.5928 61.5853C99.2618 61.6822 99.0825 61.7237 99.0825 61.7099C99.0756 61.696 99.248 61.6337 99.5722 61.5161C99.9308 61.3915 100.407 61.2253 101 61.0177C102.228 60.5677 104.035 59.9517 106.069 58.8026C107.069 58.2143 108.138 57.4874 109.09 56.5114C110.042 55.5424 110.856 54.2964 111.387 52.8566C111.89 51.4238 112.09 49.7556 111.614 48.1704C111.387 47.3744 110.952 46.6545 110.456 45.9346C109.973 45.2147 109.428 44.4533 109.228 43.5188C109.125 43.0758 109.125 42.5151 109.38 42.0998C109.607 41.6776 109.911 41.3453 110.187 41.0061C110.745 40.3555 111.207 39.6287 111.104 38.8188C111.035 38.0227 110.669 37.2682 110.235 36.6037C109.794 35.9323 109.283 35.3301 108.773 34.7556C107.745 33.5996 106.642 32.6097 105.821 31.4538C104.979 30.2978 104.704 28.9549 104.572 27.7851C104.448 26.6014 104.435 25.5424 104.372 24.6079C104.324 23.6734 104.248 22.8774 104.186 22.2198C104.11 21.5691 104.048 21.0569 103.993 20.7177C103.945 20.3993 103.931 20.2193 103.945 20.2124Z" fill="#64BC62"/>
<path d="M38.3543 10.4519L36.7473 43.1515L50.7 44.4736L51.4724 36.5341C51.4724 36.5341 56.39 37.7524 57.8867 33.1838C58.8385 30.2627 59.6937 7.40625 59.6937 7.40625L38.3543 10.4519Z" fill="#FFBE9D"/>
<path d="M60.887 11.2274C61.2732 14.2869 57.0108 16.059 57.0108 16.059L56.266 23.2994C55.6728 23.2025 54.2589 23.2786 54.2589 23.2786C54.6176 19.8799 50.2587 20.5444 49.8173 22.8633C49.3896 25.0922 51.9208 26.5804 51.9208 26.5804C50.1759 29.2662 49.4655 30.6852 46.9895 33.2048C44.3065 35.9321 42.872 36.1536 40.0994 36.0705L37.0509 35.9321C37.0509 35.9321 35.968 33.3156 35.168 27.148C34.7887 24.1785 32.4782 20.2883 33.1334 15.4637C35.0094 1.73041 48.1068 3.17711 48.1068 3.17711C54.9004 3.37093 59.9904 4.12543 60.887 11.2274Z" fill="black"/>
<path d="M57.204 15.8305C60.3904 14.7715 62.963 12.0165 63.8113 8.75623C64.1424 7.49643 64.2045 6.09126 63.563 4.96297C62.9216 3.83468 61.3974 3.15632 60.2594 3.78623C60.2525 2.01419 58.8524 0.345987 57.1074 0.0483407C55.3625 -0.249306 53.4865 0.858216 52.9003 2.52642C52.0795 1.39813 50.4587 1.01742 49.1414 1.46735C47.8241 1.91728 46.8171 3.07326 46.3205 4.38152C45.8239 5.68978 45.7963 7.13648 45.9825 8.52088" fill="black"/>
<path d="M32.2369 6.58987C32.2231 6.54834 32.4783 6.43066 32.9197 6.38913C33.3611 6.3476 33.9887 6.4099 34.6163 6.68678C35.244 6.96366 35.7199 7.37898 35.9957 7.72508C36.2716 8.0781 36.3613 8.34114 36.3199 8.36191C36.2302 8.4242 35.6371 7.51742 34.4715 7.02596C33.3128 6.51373 32.2507 6.70062 32.2369 6.58987Z" fill="black"/>
<path d="M35.8026 5.01131C35.8992 5.05976 35.6371 5.71043 35.8578 6.49262C36.0578 7.28865 36.6096 7.71782 36.5544 7.8078C36.5268 7.84933 36.3475 7.79396 36.113 7.60014C35.8785 7.40633 35.6233 7.04638 35.4992 6.59645C35.375 6.1396 35.4233 5.70351 35.5267 5.41971C35.6302 5.12899 35.7612 4.99054 35.8026 5.01131Z" fill="black"/>
<path d="M56.9349 19.3953C56.9418 19.4022 56.9005 19.4368 56.8246 19.4922C56.7487 19.5476 56.6384 19.6514 56.4728 19.7414C56.1556 19.949 55.6383 20.1775 54.921 20.2951C53.5002 20.5166 51.307 20.0875 49.2517 18.5162C48.7413 18.1216 48.2378 17.644 47.8723 17.021C47.5067 16.4119 47.2998 15.602 47.5067 14.8267C47.6791 14.0792 48.224 13.2693 49.1137 13.0893C49.9965 12.9024 50.8932 13.4354 51.3553 14.1899C51.8518 14.9652 51.8449 15.9689 51.5691 16.8341C51.2863 17.7063 50.7621 18.5023 50.1069 19.1668C48.7965 20.5097 46.8239 21.3196 44.8238 21.1189C43.8306 21.0289 42.8719 20.7174 42.0374 20.219C41.2029 19.7275 40.4718 19.0422 40.0235 18.1978C39.5683 17.3671 39.4027 16.315 39.851 15.4428C40.3131 14.6052 41.2304 14.0861 42.1546 14.1553C42.6167 14.1761 43.0582 14.446 43.334 14.806C43.6099 15.1728 43.7272 15.6089 43.7479 16.0312C43.7892 16.8826 43.5134 17.6578 43.1547 18.3362C42.4029 19.6929 41.1684 20.5859 39.9269 20.9735C38.6785 21.375 37.4371 21.2158 36.4991 20.8143C35.5473 20.4197 34.8507 19.8314 34.3817 19.2914C33.9058 18.7446 33.6575 18.2324 33.5196 17.8863C33.4437 17.7132 33.4161 17.5679 33.3816 17.4779C33.3541 17.3879 33.3472 17.3394 33.3541 17.3325C33.4092 17.2979 33.5403 18.1355 34.4852 19.1945C34.9542 19.7068 35.6439 20.2605 36.5681 20.6205C37.4854 20.9873 38.6648 21.1189 39.8441 20.7174C41.0166 20.3367 42.1822 19.4645 42.8788 18.1839C43.2099 17.5471 43.4582 16.8064 43.4168 16.045C43.3961 15.6712 43.2858 15.2974 43.065 15.0067C42.8374 14.7229 42.5064 14.5153 42.1271 14.5014C41.3753 14.4391 40.5476 14.9098 40.1683 15.6159C39.8028 16.3357 39.9269 17.2771 40.3476 18.0316C41.196 19.5822 43.003 20.572 44.8583 20.752C46.7412 20.9458 48.5965 20.1775 49.8448 18.9177C50.4655 18.2877 50.9621 17.5402 51.2242 16.7303C51.4863 15.9343 51.4863 15.0413 51.0587 14.3768C50.6587 13.7123 49.8862 13.2624 49.1758 13.4147C48.4585 13.5462 47.9688 14.2315 47.8033 14.9029C47.6102 15.5951 47.7895 16.2942 48.1206 16.8757C48.4585 17.4571 48.9275 17.9209 49.4172 18.3085C51.4035 19.866 53.5278 20.3228 54.9072 20.1567C56.3142 19.9698 56.9143 19.333 56.9349 19.3953Z" fill="#455A64"/>
<path d="M37.4163 40.9229C37.4163 40.9229 20.9876 38.2302 14.4079 56.8712L9.67651 71.4213L23.4154 74.0585L22.4429 110.925L64.9975 107.077L62.5422 79.7069L59.2661 79.1531L59.9972 73.844L76.4672 67.9049C76.4672 67.9049 63.6733 39.0747 49.3964 41.449L37.4163 40.9229Z" fill="#64BC62"/>
<path d="M82.9918 125.69L56.7279 126.977C49.8447 127.829 37.837 127.856 30.4641 127.303C20.6151 126.562 22.4291 110.925 22.4291 110.925L65.1423 106.91C68.5977 105.644 72.1014 105.692 75.6464 106.599C75.6533 106.599 73.7153 123.987 82.9918 125.69Z" fill="#263238"/>
<path d="M9.67658 71.4214C9.67658 71.4214 5.86943 88.055 5.81425 90.2631C5.75218 93.1634 9.42139 98.1611 12.794 98.8395C18.1806 99.9262 23.4154 95.1985 23.4154 95.1985L24.0638 72.8889L9.67658 71.4214Z" fill="#64BC62"/>
<path d="M105.793 91.5852L108.235 92.5889C110.532 93.3088 111.78 93.8003 112.649 93.475C113.808 93.0389 113.001 91.7791 113.001 91.7791C113.001 91.7791 114.829 91.9106 115.091 90.8654C115.27 90.1524 114.546 89.7578 114.546 89.7578C114.546 89.7578 116.187 89.8063 116.711 89.3356C117.429 88.6918 116.615 87.8404 116.615 87.8404C119.036 87.4667 119.36 86.2207 118.967 85.9092C118.574 85.6046 116.78 85.66 116.78 85.66C115.36 85.487 111.463 85.0786 113.546 83.708C115.629 82.3374 116.718 80.5031 116.67 79.7971C116.622 79.091 115.629 78.9041 115.215 79.5686C114.884 80.1016 114.056 80.8146 113.415 81.3268C112.884 81.7491 112.29 82.0813 111.649 82.2959C110.904 82.552 110.263 82.7389 109.711 82.8774L106.669 84.0541L105.793 91.5852Z" fill="#FFBE9D"/>
<path d="M18.615 64.3467C18.6288 64.3467 18.6495 64.4574 18.6909 64.6651C18.7323 64.9143 18.7806 65.2189 18.8357 65.5857C18.9599 66.444 19.1185 67.5931 19.3185 68.9844C19.7324 71.9055 20.2841 75.8441 20.8979 80.1981C21.5118 84.5797 22.036 88.546 22.3739 91.4256C22.5394 92.8654 22.6705 94.0283 22.7464 94.8381C22.7808 95.205 22.8015 95.5165 22.8222 95.7657C22.836 95.9803 22.836 96.091 22.8222 96.091C22.8084 96.091 22.7877 95.9803 22.7464 95.7726C22.705 95.5234 22.6567 95.2188 22.6015 94.852C22.4774 93.9937 22.3187 92.8446 22.1187 91.4533C21.7049 88.5322 21.1531 84.5936 20.5393 80.2396C19.9255 75.858 19.4013 71.8917 19.0633 69.0121C18.8978 67.5723 18.7668 66.4094 18.6909 65.5996C18.6564 65.2327 18.6357 64.9212 18.615 64.672C18.6081 64.4644 18.6081 64.3467 18.615 64.3467Z" fill="#263238"/>
<g opacity="0.2">
<path opacity="0.2" d="M49.7897 58.2349C49.7897 58.2349 49.6035 71.0198 51.3208 79.2985C51.5484 80.3991 51.1208 81.8735 50.5139 82.8149C49.8725 83.8117 48.5758 84.1093 47.4033 84.317C44.0031 84.9192 40.6029 85.5283 37.2026 86.1306C40.3339 88.0134 43.1272 90.4499 45.4101 93.3018C46.686 94.8869 47.8034 96.6036 49.1621 98.1195C50.5208 99.6354 53.8727 101.906 55.9005 101.947C59.7835 102.03 62.4181 97.2612 63.8458 95.8075L59.2524 79.1601L59.8042 74.3978L49.7897 58.2349Z" fill="black"/>
</g>
<g opacity="0.2">
<path opacity="0.2" d="M18.7875 66.022C18.0426 70.5697 17.5184 75.1521 17.215 79.7483C17.0287 82.5933 16.9253 85.4936 17.6564 88.2486C18.3875 91.0035 20.0703 93.627 22.636 94.8591L18.7875 66.022Z" fill="black"/>
</g>
<path d="M59.2592 79.1602L55.2106 87.9096L28.2916 84.5455L27.2915 83.4934C26.857 83.1265 26.3535 82.6835 25.7879 82.1297C25.3052 81.659 24.9051 81.0984 24.6017 80.4961C24.2361 79.7555 23.7947 78.7587 23.7188 78.1357C23.6292 77.3674 22.6498 77.1044 22.305 77.7204C21.9601 78.3365 22.1601 80.4685 23.4637 82.6004C24.7672 84.7324 21.0704 83.4242 19.7117 82.9742C19.7117 82.9742 18.1185 82.1574 17.6288 82.2613C17.1391 82.3651 16.8977 83.6387 18.9323 85.0162C18.9323 85.0162 17.8357 85.4385 18.2081 86.3245C18.484 86.9751 19.9876 87.6397 19.9876 87.6397C19.9876 87.6397 19.1599 87.6881 19.022 88.408C18.8151 89.4601 20.5255 90.1316 20.5255 90.1316C20.5255 90.1316 19.2634 90.9207 20.1186 91.8136C20.76 92.4781 22.098 92.5751 24.4844 92.9073L25.0155 92.935C31.8504 94.9701 58.5212 102.46 63.1422 96.7144C69.4805 88.8302 71.5221 81.216 71.5221 81.216L59.2592 79.1602Z" fill="#EBA77A"/>
<path d="M55.4384 68.1126C55.4384 68.1126 66.8116 84.9262 71.3153 86.539C75.826 88.1588 106.904 93.7725 106.904 93.7725L108.359 82.5935C108.359 82.5935 81.1643 73.6295 80.2056 72.9373C79.4952 72.425 71.8188 59.204 67.3357 52.7527C62.9423 46.4259 54.8108 40.9091 50.5967 49.3193C50.5553 49.4024 50.645 49.2432 50.5967 49.3193C45.6584 57.1689 55.4384 68.1126 55.4384 68.1126Z" fill="#64BC62"/>
<path d="M67.9288 53.6179C67.9081 53.6594 67.2184 53.2579 65.839 52.9326C64.4665 52.6073 62.3767 52.455 59.9007 52.988C57.4109 53.4864 54.6452 54.76 51.7208 56.4144C48.7896 58.0341 45.6101 60.0623 41.8098 61.1144C39.92 61.6405 37.9751 61.8481 36.1267 61.6266C34.2783 61.4051 32.5816 60.7752 31.0505 60.0623C27.9882 58.6017 25.4708 56.892 23.1258 55.916C20.8015 54.8915 18.76 54.5108 17.3461 54.5108C15.9322 54.5039 15.1597 54.7462 15.1528 54.6977C15.1528 54.6977 15.9046 54.407 17.3461 54.3655C18.7807 54.317 20.8705 54.67 23.2292 55.6737C25.6156 56.629 28.1606 58.3318 31.1953 59.7508C32.7126 60.4499 34.3748 61.059 36.1749 61.2667C37.9682 61.4813 39.8649 61.2736 41.7201 60.7614C45.4514 59.73 48.6172 57.7296 51.5622 56.1167C54.5003 54.4693 57.3212 53.2026 59.8524 52.7319C62.3698 52.2196 64.4941 52.4135 65.8735 52.7872C67.2598 53.1749 67.9288 53.6179 67.9288 53.6179Z" fill="#EBEBEB"/>
<path d="M70.9429 58.1725C70.9222 58.2209 70.1773 57.7849 68.6876 57.4318C67.2047 57.0788 64.9494 56.9127 62.2733 57.4872C59.5835 58.0271 56.5902 59.3977 53.4383 61.1905C50.2725 62.9418 46.8378 65.1291 42.741 66.2643C40.7064 66.825 38.6028 67.0604 36.6095 66.8181C34.6094 66.5827 32.7817 65.8975 31.1333 65.1291C27.8296 63.5578 25.1122 61.7027 22.5741 60.6506C20.0636 59.5431 17.8565 59.1347 16.3254 59.1416C14.7943 59.1347 13.9666 59.4046 13.9597 59.3492C13.9597 59.3492 14.7736 59.0377 16.3254 58.9962C17.8703 58.9478 20.1257 59.3285 22.6706 60.4152C25.2432 61.4466 27.9951 63.2879 31.2712 64.8245C32.9127 65.579 34.7059 66.2436 36.6509 66.4651C38.589 66.6935 40.6374 66.472 42.6444 65.9182C46.6723 64.8038 50.0932 62.6441 53.2796 60.8998C56.4522 59.1208 59.4938 57.7503 62.2251 57.238C64.9425 56.6843 67.2392 56.8919 68.722 57.2934C70.2187 57.6949 70.9429 58.1725 70.9429 58.1725Z" fill="#EBEBEB"/>
<path d="M55.2383 44.7853C55.2452 44.8337 54.6383 44.8337 53.6589 45.2214C52.6933 45.6159 51.3691 46.502 50.3828 48.1148C49.8862 48.9108 49.4586 49.866 49.2448 50.9459C49.0172 52.0257 48.9827 53.2232 49.1207 54.4623C49.2517 55.7013 49.569 56.9819 49.9966 58.2763C50.4311 59.5707 50.9553 60.8859 51.6174 62.1665C52.9485 64.7345 54.4934 67.0396 55.928 69.1023C57.3695 71.1651 58.7282 72.9786 59.8938 74.4807C61.0594 75.9828 62.025 77.1803 62.7009 78.004C63.0181 78.3917 63.2733 78.7031 63.4802 78.9523C63.6596 79.1738 63.7423 79.2915 63.7354 79.2984C63.7285 79.3054 63.6182 79.2015 63.4251 79.0008C63.2319 78.8001 62.9492 78.4955 62.5974 78.094C61.887 77.298 60.887 76.1212 59.6938 74.6399C58.5006 73.1517 57.1143 71.352 55.6521 69.2961C54.2038 67.2334 52.645 64.9283 51.2932 62.3326C50.6173 61.0313 50.0931 59.6953 49.6586 58.387C49.231 57.0719 48.9137 55.7705 48.7896 54.4969C48.6585 53.2302 48.7068 51.998 48.9551 50.8836C49.1896 49.7622 49.6448 48.7862 50.169 47.9763C51.2173 46.3358 52.6105 45.4498 53.6106 45.0899C54.6314 44.7299 55.2383 44.7853 55.2383 44.7853Z" fill="#263238"/>
<path d="M143.203 150H13.3042C6.1934 150 0.42749 144.213 0.42749 137.077C0.42749 129.94 6.1934 124.153 13.3042 124.153H143.21C150.32 124.153 156.086 129.94 156.086 137.077C156.086 144.213 150.32 150 143.203 150Z" fill="#455A64"/>
<path d="M12.8767 150C19.9884 150 25.7535 144.214 25.7535 137.077C25.7535 129.939 19.9884 124.153 12.8767 124.153C5.76511 124.153 0 129.939 0 137.077C0 144.214 5.76511 150 12.8767 150Z" fill="#263238"/>
<path d="M15.6561 134.792C15.663 134.786 15.7113 134.841 15.7941 134.952C15.863 135.069 15.9596 135.249 16.0217 135.498C16.1527 136.004 16.1044 136.786 15.7941 137.644C15.6354 138.073 15.463 138.544 15.1182 138.994C14.9457 139.216 14.725 139.423 14.4492 139.562C14.1733 139.7 13.8629 139.769 13.5525 139.783C12.9249 139.811 12.3042 139.728 11.6559 139.569C11.0144 139.409 10.3454 139.098 9.84884 138.551C9.33846 138.011 9.12465 137.208 9.27639 136.523C9.41433 135.831 9.80056 135.256 10.2558 134.834C11.2007 133.989 12.2904 133.713 13.118 133.45L13.1318 133.443H13.1456C13.3111 133.436 13.456 133.429 13.6077 133.422H13.6353L13.656 133.429C14.3802 133.685 14.9457 133.976 15.263 134.266C15.5803 134.564 15.6699 134.786 15.6561 134.792C15.6354 134.806 15.5113 134.612 15.1802 134.37C14.8561 134.121 14.3043 133.879 13.5801 133.657L13.6284 133.664C13.4836 133.678 13.3318 133.692 13.1732 133.706L13.2008 133.699C12.38 133.989 11.3317 134.301 10.4834 135.083C10.0764 135.471 9.73849 136.004 9.62124 136.599C9.49709 137.194 9.66952 137.845 10.1109 138.316C10.5385 138.793 11.1386 139.077 11.7386 139.236C12.3387 139.382 12.9663 139.472 13.5319 139.458C14.0974 139.444 14.5802 139.209 14.8837 138.807C15.194 138.42 15.3871 137.963 15.5527 137.554C15.8837 136.731 15.9665 136.004 15.8768 135.526C15.7941 135.042 15.6216 134.813 15.6561 134.792Z" fill="#455A64"/>
<path d="M18.8565 135.055C18.8634 135.048 18.9393 135.173 19.0565 135.422C19.1669 135.671 19.3324 136.045 19.4635 136.55C19.5945 137.056 19.698 137.706 19.5807 138.454C19.4566 139.195 19.091 140.005 18.4841 140.724C17.2909 142.171 15.1735 143.369 12.663 143.389C11.4216 143.403 10.1042 143.099 8.91793 142.441C7.73164 141.784 6.6695 140.801 5.92463 139.562C5.64875 139.098 5.40735 138.613 5.26251 138.087C5.11767 137.568 5.11767 136.966 5.35217 136.46C5.81427 135.443 6.76606 134.903 7.57301 134.425C7.97994 134.183 8.37996 133.941 8.71792 133.65C9.05587 133.366 9.33175 133.013 9.60763 132.66C9.88351 132.307 10.1594 131.954 10.4905 131.657C10.8284 131.359 11.2284 131.144 11.6492 131.041L11.6354 131.047C12.9803 130.577 14.3114 130.819 15.3322 131.234C16.3736 131.65 17.1392 132.307 17.6358 132.923C18.1392 133.539 18.4289 134.093 18.6151 134.467C18.7945 134.834 18.8703 135.048 18.8565 135.055C18.8083 135.09 18.4979 134.218 17.4978 133.027C16.9943 132.439 16.2495 131.837 15.2356 131.456C14.2424 131.075 12.9665 130.867 11.7319 131.324H11.725H11.7181C11.3526 131.414 10.9939 131.615 10.6974 131.878C10.3939 132.155 10.1318 132.494 9.86282 132.847C9.59384 133.2 9.30416 133.574 8.93862 133.892C8.57308 134.211 8.16616 134.46 7.75234 134.709C6.93849 135.187 6.06946 135.72 5.67633 136.592C5.26941 137.464 5.71772 138.489 6.23499 139.361C6.93849 140.544 7.95925 141.486 9.09036 142.123C10.2215 142.753 11.4767 143.057 12.663 143.05C15.0632 143.043 17.1254 141.915 18.291 140.551C18.8841 139.866 19.2497 139.112 19.3807 138.406C19.5187 137.7 19.4359 137.07 19.3255 136.571C19.091 135.581 18.8221 135.069 18.8565 135.055Z" fill="#455A64"/>
<path d="M13.3456 127.628C13.3456 127.621 13.4008 127.614 13.5043 127.601C13.6353 127.594 13.7871 127.58 13.9733 127.566C14.3871 127.545 15.0009 127.511 15.7941 127.545C16.5803 127.594 17.5666 127.684 18.6219 128.134C19.6771 128.57 20.7117 129.49 21.3669 130.771C22.0428 132.045 22.3876 133.595 22.6635 135.236C22.7946 136.052 22.9532 136.911 22.9463 137.818C22.9532 138.717 22.698 139.7 22.0911 140.462C21.5048 141.23 20.7737 141.853 20.0495 142.511C19.3116 143.161 18.5322 143.791 17.6839 144.366C16.001 145.508 14.0009 146.456 11.8007 146.602C9.62815 146.754 7.38662 146.145 5.85548 144.691C5.08991 143.971 4.55195 143.078 4.15882 142.165C3.76569 141.251 3.5036 140.316 3.28289 139.403C2.84149 137.582 2.68285 135.72 3.16565 134.073C3.63464 132.439 4.57264 131.103 5.61409 130.127C6.66243 129.151 7.82113 128.528 8.88327 128.141C9.94541 127.753 10.911 127.587 11.6973 127.518C13.2767 127.386 14.1457 127.573 14.1457 127.573C14.1457 127.587 13.925 127.573 13.5112 127.566C13.0974 127.559 12.4835 127.559 11.7111 127.656C10.9317 127.753 9.9868 127.933 8.95224 128.327C7.91769 128.722 6.79348 129.345 5.78651 130.314C4.78644 131.276 3.88983 132.578 3.45532 134.149C3.00701 135.727 3.16565 137.527 3.60705 139.32C4.05536 141.099 4.6485 143.051 6.09688 144.428C7.53835 145.799 9.68333 146.387 11.78 146.235C13.8974 146.096 15.8355 145.183 17.4908 144.068C18.3253 143.507 19.0978 142.884 19.8288 142.248C20.5461 141.597 21.2841 140.974 21.8359 140.254C22.4014 139.541 22.629 138.669 22.6359 137.804C22.6497 136.938 22.498 136.094 22.3738 135.27C22.1118 133.637 21.7876 132.114 21.1462 130.882C20.5254 129.636 19.553 128.75 18.546 128.314C17.539 127.864 16.5666 127.753 15.7941 127.684C15.0147 127.628 14.4009 127.635 13.9871 127.635C13.5663 127.642 13.3456 127.642 13.3456 127.628Z" fill="#455A64"/>
<path d="M155.093 136.142C155.093 136.142 154.983 136.156 154.762 136.17C154.528 136.184 154.197 136.198 153.783 136.218C152.9 136.253 151.631 136.308 150.01 136.371C146.734 136.495 141.989 136.668 136.119 136.786C130.25 136.904 123.263 136.959 115.504 136.717C111.628 136.585 107.559 136.371 103.345 136.032C99.1308 135.699 94.7857 135.201 90.344 134.682C81.4537 133.616 72.9842 132.598 65.2319 132.335C57.4866 132.058 50.4999 132.432 44.6788 133.138C38.8577 133.844 34.2092 134.834 31.0296 135.63C29.4433 136.038 28.2088 136.364 27.3811 136.606C26.9742 136.717 26.6638 136.807 26.4362 136.869C26.2224 136.924 26.1121 136.945 26.1121 136.945C26.1121 136.945 26.2155 136.904 26.4293 136.834C26.6569 136.765 26.9673 136.661 27.3673 136.537C28.1881 136.267 29.4157 135.921 31.002 135.492C34.1747 134.647 38.8302 133.623 44.6581 132.882C50.4861 132.141 57.4866 131.747 65.2526 132.003C73.0187 132.245 81.5089 133.256 90.3923 134.322C94.8339 134.848 99.1791 135.339 103.379 135.678C107.58 136.025 111.649 136.246 115.518 136.385C123.263 136.648 130.25 136.62 136.119 136.537C141.982 136.447 146.734 136.315 150.01 136.232C151.638 136.198 152.907 136.163 153.79 136.142C154.21 136.135 154.535 136.128 154.769 136.128C154.976 136.135 155.093 136.142 155.093 136.142Z" fill="#263238"/>
<path d="M154.728 131.144C154.728 131.144 153.038 131.871 149.845 132.73C146.651 133.595 141.906 134.46 135.988 134.682C133.03 134.799 129.788 134.737 126.312 134.522C122.836 134.301 119.139 133.906 115.263 133.401C107.504 132.411 99.0342 130.909 90.0474 130.238C81.0606 129.545 72.4531 129.608 64.6526 129.968C56.8452 130.314 49.8378 130.965 43.9547 131.546C38.0715 132.141 33.3195 132.688 30.0365 133.055C28.4088 133.235 27.1328 133.373 26.25 133.477C25.8293 133.519 25.5051 133.553 25.2637 133.574C25.043 133.595 24.9258 133.595 24.9258 133.595C24.9258 133.595 25.0361 133.567 25.2568 133.54C25.4913 133.505 25.8155 133.463 26.2362 133.401C27.119 133.29 28.3881 133.124 30.0089 132.917C33.2919 132.508 38.037 131.92 43.9202 131.297C49.8033 130.688 56.8107 130.002 64.625 129.642C72.4324 129.269 81.0537 129.192 90.0612 129.885C99.0687 130.563 107.545 132.079 115.291 133.083C119.16 133.595 122.85 133.996 126.319 134.232C129.781 134.46 133.016 134.529 135.968 134.432C141.872 134.246 146.603 133.422 149.796 132.598C150.596 132.397 151.307 132.21 151.914 132.024C152.528 131.844 153.038 131.691 153.452 131.553C153.852 131.421 154.169 131.318 154.39 131.248C154.61 131.172 154.728 131.144 154.728 131.144Z" fill="#263238"/>
<path d="M75.1637 141.271C75.1637 141.271 75.0465 141.313 74.8051 141.375C74.5499 141.438 74.1981 141.528 73.7429 141.645C72.8118 141.874 71.4255 142.185 69.6323 142.538C66.0459 143.203 60.7834 143.985 54.2451 144.068C52.6105 144.082 50.9 144.061 49.1137 143.985C48.224 143.936 47.3136 143.895 46.3894 143.819C45.4721 143.736 44.5065 143.729 43.5616 143.41C43.0926 143.258 42.6305 143.057 42.2236 142.739C41.8166 142.434 41.4787 141.95 41.4442 141.389C41.4028 140.842 41.6442 140.282 42.0442 139.922C42.4374 139.548 42.9133 139.306 43.403 139.119C45.3755 138.482 47.417 138.004 49.5413 137.554C58.0039 135.782 67.6529 135.298 77.5363 136.828C78.7709 137.001 79.9916 137.243 81.2055 137.478C82.3987 137.755 83.6608 138.136 84.5575 139.084C84.992 139.555 85.2816 140.178 85.3161 140.828C85.3644 141.472 85.1782 142.109 84.8885 142.663C84.585 143.21 84.1781 143.694 83.6815 144.068C83.185 144.442 82.6401 144.712 82.0676 144.912C80.9296 145.314 79.7571 145.459 78.6191 145.612C77.4742 145.757 76.3431 145.923 75.2189 146.048C72.9705 146.311 70.7634 146.511 68.6116 146.671C59.9834 147.3 52.1829 147.107 45.6721 146.608C39.1544 146.103 33.9265 145.272 30.3331 144.615C28.533 144.289 27.1467 143.999 26.2087 143.791C25.7535 143.687 25.3948 143.611 25.1397 143.556C24.8983 143.5 24.781 143.466 24.781 143.466C24.781 143.466 24.9052 143.48 25.1465 143.521C25.4017 143.57 25.7604 143.639 26.2225 143.722C27.1674 143.909 28.5606 144.179 30.3607 144.483C33.9609 145.092 39.1889 145.888 45.6997 146.359C52.2035 146.823 59.9903 146.996 68.5978 146.345C70.7496 146.179 72.9498 145.971 75.1913 145.708C76.3155 145.584 77.4397 145.418 78.5846 145.272C79.7226 145.12 80.8813 144.968 81.9642 144.587C83.047 144.213 84.0471 143.528 84.585 142.504C84.8471 141.998 85.0127 141.431 84.9713 140.863C84.9368 140.302 84.6885 139.756 84.3023 139.34C83.5091 138.489 82.309 138.108 81.1365 137.838C79.9365 137.61 78.7226 137.367 77.488 137.187C67.6529 135.658 58.0453 136.135 49.6172 137.88C47.5136 138.316 45.4445 138.8 43.5271 139.409C43.065 139.589 42.6167 139.818 42.2718 140.143C41.9201 140.462 41.7339 140.911 41.7615 141.361C41.7959 141.811 42.058 142.213 42.4236 142.49C42.7822 142.78 43.2236 142.974 43.665 143.12C44.5548 143.424 45.4996 143.438 46.4238 143.521C47.348 143.597 48.2516 143.646 49.1413 143.701C50.9207 143.791 52.6243 143.819 54.2589 143.805C60.7834 143.756 66.0321 143.016 69.6254 142.393C71.4186 142.067 72.8118 141.777 73.7498 141.569C74.205 141.465 74.5637 141.389 74.8189 141.334C75.0327 141.292 75.1637 141.271 75.1637 141.271Z" fill="#263238"/>
<path d="M150.431 145.923C150.431 145.93 150.369 145.923 150.258 145.909C150.121 145.889 149.955 145.861 149.748 145.826C149.272 145.743 148.624 145.626 147.803 145.473C146.962 145.314 145.934 145.12 144.727 144.947C143.527 144.767 142.161 144.525 140.637 144.352C139.878 144.255 139.078 144.158 138.251 144.054C137.423 143.95 136.554 143.888 135.657 143.805C133.864 143.611 131.947 143.521 129.926 143.397C125.884 143.224 121.429 143.182 116.767 143.411C112.097 143.667 107.676 144.158 103.669 144.747C101.669 145.079 99.7723 145.37 98.0066 145.743C97.1238 145.923 96.2686 146.076 95.4547 146.256C94.6409 146.442 93.8615 146.622 93.1097 146.795C91.6131 147.121 90.282 147.501 89.1026 147.806C87.9232 148.104 86.9162 148.394 86.0955 148.644C85.2954 148.872 84.6609 149.059 84.1988 149.19C83.9988 149.246 83.8333 149.287 83.7022 149.322C83.5919 149.35 83.5298 149.364 83.5298 149.357C83.5298 149.35 83.585 149.329 83.6884 149.287C83.8195 149.246 83.9781 149.19 84.1712 149.121C84.6264 148.976 85.254 148.768 86.0472 148.512C86.861 148.242 87.8611 147.931 89.0405 147.612C90.213 147.294 91.5441 146.892 93.0408 146.553C93.7856 146.373 94.5719 146.186 95.3858 145.992C96.1996 145.799 97.0617 145.639 97.9446 145.453C99.7102 145.065 101.614 144.76 103.614 144.421C107.628 143.812 112.063 143.307 116.746 143.058C121.422 142.829 125.891 142.878 129.947 143.071C131.974 143.203 133.899 143.314 135.692 143.514C136.589 143.611 137.458 143.681 138.285 143.784C139.113 143.895 139.913 144.006 140.672 144.103C142.196 144.29 143.561 144.553 144.762 144.747C145.962 144.94 146.996 145.148 147.831 145.335C148.645 145.508 149.293 145.653 149.762 145.75C149.962 145.799 150.127 145.833 150.265 145.868C150.376 145.896 150.431 145.916 150.431 145.923Z" fill="#263238"/>
<path d="M146.838 124.977C146.844 124.991 146.727 125.046 146.493 125.143C146.224 125.254 145.893 125.385 145.486 125.551C145.044 125.731 144.506 125.939 143.865 126.14C143.224 126.347 142.506 126.611 141.686 126.818C140.872 127.047 139.975 127.289 139.003 127.49C138.037 127.725 136.982 127.891 135.878 128.078C133.664 128.403 131.209 128.632 128.623 128.659C126.036 128.666 123.574 128.466 121.353 128.168C120.25 127.988 119.194 127.843 118.222 127.614C117.243 127.427 116.346 127.192 115.525 126.977C114.704 126.777 113.98 126.527 113.332 126.327C112.69 126.133 112.146 125.932 111.704 125.759C111.297 125.6 110.959 125.468 110.69 125.365C110.463 125.268 110.339 125.212 110.345 125.205C110.352 125.198 110.477 125.226 110.718 125.295C110.994 125.385 111.339 125.489 111.752 125.628C112.201 125.78 112.746 125.96 113.394 126.133C114.042 126.313 114.766 126.548 115.587 126.728C116.408 126.929 117.305 127.15 118.277 127.324C119.243 127.531 120.291 127.67 121.395 127.836C123.602 128.113 126.043 128.3 128.616 128.293C131.181 128.265 133.623 128.05 135.83 127.746C136.927 127.566 137.975 127.413 138.941 127.192C139.913 127.005 140.81 126.777 141.623 126.569C142.444 126.375 143.168 126.133 143.81 125.946C144.451 125.766 145.003 125.579 145.444 125.42C145.858 125.282 146.203 125.171 146.479 125.074C146.707 125.005 146.831 124.97 146.838 124.977Z" fill="#263238"/>
<path d="M68.5149 123.987C68.5149 124.001 68.3425 124.029 68.0183 124.084C67.6597 124.133 67.1838 124.202 66.5906 124.292C65.3561 124.492 63.5697 124.797 61.3765 125.282C59.1763 125.787 56.5762 126.389 53.6932 127.054C50.7965 127.697 47.5756 128.313 44.134 128.507C42.4166 128.576 40.7268 128.563 39.1129 128.39C37.499 128.217 35.961 127.953 34.4988 127.677C31.5814 127.123 28.9743 126.562 26.7466 126.306C24.5257 126.029 22.7118 126.036 21.4635 126.14C20.8358 126.175 20.3599 126.258 20.0289 126.292C19.7047 126.334 19.5254 126.348 19.5254 126.341C19.5254 126.327 19.6909 126.285 20.0151 126.223C20.3392 126.161 20.8151 126.057 21.4428 126.001C22.6911 125.849 24.5257 125.808 26.7673 126.057C29.0088 126.278 31.6366 126.818 34.5471 127.351C36.0024 127.614 37.5404 127.87 39.1336 128.037C40.7337 128.203 42.3959 128.21 44.0995 128.147C47.5066 127.96 50.7137 127.358 53.6036 126.728C56.5003 126.105 59.1005 125.475 61.3006 125.032C63.5008 124.582 65.3009 124.306 66.5493 124.153C67.17 124.077 67.6597 124.043 67.9907 124.015C68.3425 123.98 68.5149 123.973 68.5149 123.987Z" fill="#263238"/>
<path d="M125.664 123.994C125.664 123.98 125.85 123.966 126.215 123.96C126.608 123.953 127.133 123.939 127.788 123.925C129.195 123.911 131.16 123.89 133.581 123.87C136.037 123.856 138.947 123.849 142.168 123.828C142.975 123.835 143.823 123.793 144.672 123.918C145.527 124.015 146.375 124.229 147.224 124.499C148.913 125.074 150.534 126.036 151.948 127.289C154.817 129.774 156.39 133.387 156.383 136.675C156.41 139.991 155.121 142.822 153.679 144.802C152.955 145.805 152.134 146.581 151.403 147.224C150.631 147.834 149.927 148.29 149.313 148.616C149.01 148.761 148.734 148.9 148.493 149.017C148.251 149.121 148.038 149.19 147.865 149.253C147.527 149.37 147.341 149.433 147.341 149.419C147.334 149.405 147.506 149.329 147.837 149.183C148.003 149.107 148.21 149.031 148.444 148.92C148.679 148.796 148.948 148.65 149.244 148.498C149.838 148.159 150.527 147.688 151.272 147.079C151.983 146.428 152.776 145.653 153.472 144.656C154.866 142.69 156.093 139.908 156.052 136.682C156.038 133.484 154.507 129.989 151.707 127.559C150.327 126.341 148.748 125.399 147.106 124.839C146.279 124.569 145.451 124.354 144.623 124.264C143.796 124.14 142.982 124.181 142.168 124.167C138.94 124.153 136.03 124.14 133.574 124.126C131.154 124.105 129.188 124.084 127.781 124.07C127.126 124.056 126.602 124.043 126.208 124.036C125.85 124.022 125.664 124.008 125.664 123.994Z" fill="#64BC62"/>
<path d="M120.877 124.146C119.932 127.233 118.918 129.262 116.153 130.916C113.387 132.57 106.642 135.249 103.531 136.087C90.2613 139.645 80.6331 140.821 66.9287 139.887C53.2243 138.952 38.444 132.536 27.5605 124.125L120.877 124.146Z" fill="#64BC62"/>
<path d="M51.7484 136.599C51.7484 136.647 50.8863 136.253 50.3207 134.979C50.0311 134.356 49.8517 133.553 49.7345 132.681C49.6173 131.802 49.5138 130.847 49.2172 129.891C48.6241 127.974 47.5206 126.472 46.5895 125.544C45.6584 124.617 44.9411 124.195 44.9756 124.139C44.9894 124.118 45.1756 124.208 45.4997 124.395C45.817 124.596 46.2653 124.901 46.7688 125.357C47.762 126.257 48.9482 127.787 49.5621 129.781C49.8724 130.777 49.9621 131.76 50.0656 132.632C50.1621 133.505 50.3139 134.273 50.5552 134.875C51.0311 136.114 51.7898 136.557 51.7484 136.599Z" fill="#EBEBEB"/>
<path d="M61.4731 124.146C61.5421 124.146 61.4317 125.053 61.6662 126.465C61.7904 127.171 61.9973 128.002 62.3007 128.902C62.6042 129.802 63.018 130.757 63.4594 131.775C63.9008 132.785 64.3078 133.768 64.5905 134.696C64.8733 135.623 65.032 136.488 65.0802 137.215C65.1354 137.949 65.0664 138.544 64.9906 138.946C64.9147 139.347 64.825 139.562 64.8112 139.555C64.7423 139.541 64.9906 138.662 64.8319 137.236C64.7561 136.523 64.5698 135.692 64.2802 134.793C63.9905 133.893 63.5767 132.93 63.1353 131.92C62.6939 130.909 62.28 129.933 61.9904 129.013C61.7007 128.092 61.5145 127.241 61.4248 126.514C61.3351 125.787 61.3489 125.192 61.3765 124.783C61.4041 124.368 61.4524 124.146 61.4731 124.146Z" fill="#EBEBEB"/>
<path d="M80.4607 140.025C80.3918 140.004 80.8608 139.132 80.8746 137.609C80.8815 136.855 80.7711 135.955 80.4883 134.993C80.2125 134.031 79.7642 133.02 79.2262 131.989C78.1434 129.919 77.0674 128.085 76.5295 126.617C76.2674 125.883 76.1777 125.247 76.157 124.817C76.1363 124.381 76.1708 124.146 76.1915 124.146C76.2674 124.139 76.2053 125.115 76.7708 126.527C77.3502 127.925 78.4537 129.746 79.5503 131.823C80.0883 132.868 80.5435 133.906 80.8125 134.903C81.0815 135.9 81.1711 136.834 81.1298 137.616C81.0884 138.398 80.9297 139.015 80.7711 139.423C80.6125 139.838 80.4745 140.039 80.4607 140.025Z" fill="#EBEBEB"/>
<path d="M94.2617 124.146C94.2893 124.16 94.2066 124.361 94.0962 124.735C93.9927 125.108 93.8824 125.662 93.979 126.347C94.0686 127.033 94.31 127.836 94.579 128.729C94.848 129.621 95.1308 130.639 95.1652 131.747C95.2411 133.969 94.4411 135.893 93.6341 137.063C93.2272 137.658 92.8271 138.073 92.5444 138.35C92.2478 138.613 92.0685 138.745 92.0547 138.731C92.0064 138.682 92.6823 138.108 93.4203 136.924C94.1514 135.754 94.8825 133.892 94.8066 131.76C94.7721 130.701 94.51 129.718 94.2617 128.825C94.0134 127.926 93.7927 127.102 93.7307 126.382C93.6617 125.655 93.8134 125.067 93.9652 124.693C94.1169 124.326 94.241 124.139 94.2617 124.146Z" fill="#EBEBEB"/>
<path d="M106.49 135.325C106.435 135.29 106.8 134.73 107.09 133.719C107.38 132.722 107.559 131.227 107.097 129.697C106.628 128.175 105.8 126.915 105.49 125.87C105.138 124.831 105.207 124.139 105.242 124.146C105.304 124.139 105.331 124.811 105.731 125.787C106.09 126.776 106.952 127.995 107.449 129.601C107.931 131.22 107.704 132.785 107.338 133.802C106.966 134.827 106.518 135.346 106.49 135.325Z" fill="#EBEBEB"/>
<path d="M115.773 130.874C115.773 130.874 115.539 131.013 115.049 131.179C114.566 131.345 113.821 131.532 112.842 131.587C111.863 131.643 110.663 131.567 109.304 131.303C107.959 130.992 106.4 130.881 104.662 130.791C102.938 130.708 101.014 130.639 98.9929 130.438C96.972 130.293 94.7926 130.549 92.5855 131.117C90.3716 131.691 88.1232 132.563 85.7506 133.366C83.378 134.162 80.8606 134.903 78.1984 135.159C75.543 135.429 72.929 135.374 70.4392 135.111C67.9494 134.827 65.563 134.439 63.3077 133.989C58.7971 133.103 54.7554 132.238 51.3069 131.864C47.8653 131.47 45.0444 131.504 43.1201 131.726C42.6373 131.746 42.2097 131.836 41.8442 131.899C41.4855 131.961 41.1752 132.01 40.9131 132.051C40.6786 132.086 40.4855 132.113 40.3406 132.141C40.2096 132.162 40.1406 132.162 40.1406 132.162C40.1406 132.155 40.2027 132.141 40.3337 132.106C40.4786 132.072 40.6717 132.037 40.9062 131.982C41.1683 131.926 41.4717 131.864 41.8373 131.795C42.2028 131.726 42.6304 131.622 43.1132 131.594C45.0444 131.331 47.8791 131.255 51.3414 131.615C54.8106 131.961 58.8729 132.806 63.3767 133.671C65.632 134.107 68.0046 134.488 70.4806 134.764C72.9566 135.021 75.543 135.069 78.1639 134.806C80.7916 134.55 83.2815 133.823 85.6402 133.034C87.999 132.238 90.2612 131.366 92.5028 130.791C94.7443 130.224 96.9582 129.974 99.0136 130.134C101.055 130.348 102.938 130.431 104.683 130.528C106.414 130.632 108 130.764 109.345 131.096C110.69 131.373 111.876 131.47 112.842 131.435C113.808 131.4 114.546 131.241 115.035 131.096C115.518 130.964 115.766 130.854 115.773 130.874Z" fill="#EBEBEB"/>
<path d="M120.008 126.043C120.008 126.05 119.939 126.077 119.794 126.119C119.629 126.167 119.415 126.237 119.146 126.313C119.001 126.354 118.843 126.403 118.67 126.451C118.491 126.486 118.291 126.527 118.084 126.569C117.87 126.61 117.642 126.659 117.394 126.7C117.146 126.742 116.884 126.763 116.601 126.797C114.359 127.095 111.07 126.86 107.125 126.112C105.145 125.759 102.993 125.302 100.662 124.97C98.3308 124.631 95.8134 124.513 93.1788 124.707C87.8887 125.046 82.2056 126.541 76.0741 127.081C73.005 127.365 69.991 127.213 67.108 126.929C64.2251 126.645 61.4663 126.23 58.8316 125.925C53.5692 125.24 48.7757 125.281 44.7824 125.607C40.7821 125.925 37.5681 126.424 35.3473 126.742C34.2506 126.901 33.3954 127.026 32.7885 127.116C32.5126 127.15 32.2919 127.185 32.1194 127.206C31.9677 127.227 31.8918 127.233 31.8918 127.227C31.8918 127.22 31.9677 127.199 32.1126 127.171C32.2781 127.137 32.4988 127.095 32.7747 127.047C33.3816 126.943 34.2368 126.797 35.3266 126.604C37.5405 126.244 40.7545 125.711 44.7617 125.358C48.762 124.998 53.5899 124.928 58.873 125.6C64.1423 126.181 69.9427 127.275 76.0466 126.728C82.1297 126.195 87.8267 124.707 93.1581 124.382C95.8203 124.202 98.3653 124.333 100.71 124.686C103.055 125.039 105.207 125.503 107.18 125.877C111.111 126.659 114.366 126.929 116.601 126.673C116.877 126.645 117.146 126.624 117.387 126.597C117.629 126.555 117.856 126.514 118.07 126.479C118.284 126.444 118.477 126.41 118.656 126.382C118.829 126.341 118.987 126.299 119.132 126.257C119.401 126.188 119.622 126.14 119.787 126.098C119.925 126.05 120.001 126.036 120.008 126.043Z" fill="#EBEBEB"/>
<g opacity="0.4">
<path opacity="0.4" d="M28.6365 124.146C34.4093 126.535 40.7821 128.763 46.8791 130.12C52.9761 131.477 59.4317 131.74 65.3907 129.878C68.7702 128.819 71.9498 127.095 75.4327 126.438C79.6261 125.642 83.9506 126.452 88.1233 127.351C93.6133 128.535 99.1861 129.885 104.78 129.352C110.366 128.819 117.587 129.234 120.008 124.146H28.6365Z" fill="black"/>
</g>
</svg>
