<svg width="168" height="150" viewBox="0 0 168 150" fill="none" xmlns="http://www.w3.org/2000/svg">
<path d="M162.668 108.496C159.929 102.248 154.667 97.0345 148.346 94.4691C141.764 91.7966 134.204 92.7688 127.27 91.8741C121.248 91.0969 116.903 88.4016 113.307 83.6093C109.861 79.0176 106.771 73.9324 101.139 71.8081C96.6874 70.1294 91.6267 70.5955 87.2025 72.3437C79.051 75.5667 72.8933 82.4183 67.7075 89.2449C62.973 95.4777 59.1115 102.302 50.3541 102.524C41.591 102.747 33.2485 97.7354 24.4263 99.0631C12.7656 100.818 3.05336 110.551 1.0186 122.137C-0.888845 132.995 3.89681 143.528 12.1188 149.715H153.44C163.8 138.697 169.237 123.475 162.668 108.496Z" fill="#0A5735"/>
<path d="M34.916 149.715H35.3047C38.0045 146.74 40.12 143.131 41.4636 139.123C43.6393 132.638 43.5483 125.83 41.2055 119.957C40.0222 116.988 38.3125 114.222 36.6586 111.546C34.9819 108.832 33.2484 106.026 32.0719 103.02C31.5853 101.777 31.2261 100.442 31.0102 99.0803C30.9124 99.0677 30.8146 99.0575 30.718 99.0449C30.9351 100.456 31.3046 101.838 31.8081 103.124C32.9938 106.154 34.7352 108.971 36.4187 111.695C38.0659 114.36 39.7687 117.117 40.9429 120.061C43.2607 125.873 43.3506 132.609 41.1953 139.032C39.8335 143.089 37.6737 146.733 34.916 149.715Z" fill="white"/>
<path d="M152.757 137.359C155.669 137.982 158.475 138.539 161.188 138.89C161.235 138.8 161.28 138.71 161.326 138.62C158.59 138.271 155.757 137.709 152.816 137.08C148.337 136.124 143.49 135.088 138.682 135.088C135.705 135.088 132.744 135.485 129.895 136.543C128.816 136.945 127.775 137.453 126.785 138.059C124.212 136.961 121.626 135.76 119.065 134.443C120.924 133.039 122.803 131.665 124.701 130.336C138.794 120.47 151.801 114.876 164.366 113.289C164.341 113.196 164.315 113.104 164.289 113.012C151.69 114.612 138.656 120.22 124.54 130.102C122.601 131.459 120.683 132.865 118.786 134.298C115.905 132.806 113.059 131.166 110.303 129.357C105.306 126.074 99.3634 121.389 94.173 115.163C114.288 112.901 134.766 110.051 151.49 98.8445C152.125 98.4194 152.829 97.9168 153.557 97.3481C153.477 97.2911 153.395 97.2341 153.314 97.1772C152.616 97.7196 151.942 98.1983 151.333 98.6074C134.614 109.81 114.097 112.639 93.9571 114.901C90.2888 110.453 87.0116 105.229 84.7347 99.1807C81.187 89.7591 81.3745 80.5141 85.2485 73.8141C85.4168 73.5234 85.5941 73.2362 85.7771 72.9536C85.6157 73.0277 85.4554 73.1052 85.2951 73.1827C85.1951 73.3445 85.0973 73.5075 85.003 73.6716C81.0858 80.4458 80.8914 89.7796 84.4687 99.281C86.7342 105.296 89.9819 110.5 93.6194 114.939C92.4532 115.07 91.2869 115.199 90.1251 115.327C85.9317 115.791 81.5939 116.271 77.3835 116.815C75.8466 117.013 74.2836 117.244 72.7274 117.535C69.3933 110.479 65.7308 103.597 60.9963 97.6934C60.9281 97.7607 60.8599 97.8268 60.7917 97.894C65.4852 103.752 69.1251 110.584 72.4398 117.59C65.6558 118.887 59.0684 121.325 55.5513 127.001C52.2661 132.302 52.2695 139.628 55.5604 148.778C55.6741 149.095 55.7912 149.406 55.9105 149.716H56.2152C56.0844 149.377 55.9548 149.034 55.8287 148.681C52.5685 139.617 52.5571 132.373 55.7934 127.15C59.2696 121.542 65.8206 119.136 72.5671 117.855C73.7448 120.351 74.8815 122.869 76.0114 125.37L76.1342 125.643C80.0593 134.329 84.1186 142.711 89.4328 149.717H89.7875C84.4244 142.699 80.3424 134.266 76.3922 125.525L76.2695 125.253C75.1486 122.773 74.021 120.277 72.8547 117.802C74.3802 117.519 75.9137 117.292 77.421 117.098C81.6292 116.555 85.9647 116.075 90.1581 115.611C91.3824 115.476 92.61 115.34 93.8377 115.202C99.0781 121.525 105.097 126.275 110.151 129.595C112.876 131.385 115.69 133.009 118.538 134.489C113.703 138.155 109.002 142.011 104.41 145.777C102.82 147.081 101.213 148.398 99.5919 149.716H100.042C101.571 148.472 103.088 147.229 104.59 145.998C109.213 142.206 113.949 138.321 118.817 134.634C121.365 135.948 123.936 137.146 126.495 138.244C122.995 140.475 120.142 143.932 118.417 148.128C118.201 148.653 118.013 149.185 117.839 149.717H118.138C118.303 149.221 118.479 148.726 118.68 148.236C120.409 144.029 123.286 140.576 126.813 138.379C133.966 141.426 140.994 143.687 147.035 145.478L147.262 145.546C149.807 146.3 152.41 147.074 154.713 148.315C154.778 148.241 154.843 148.168 154.907 148.094C152.566 146.821 149.925 146.037 147.343 145.272L147.115 145.205C141.137 143.432 134.188 141.198 127.113 138.197C128.035 137.647 129 137.183 129.998 136.811C137.368 134.071 145.544 135.819 152.757 137.359Z" fill="white"/>
<path d="M12.8318 118.904C14.0867 124.055 13.5275 129.618 11.2949 134.166C9.83307 137.145 7.72215 139.843 5.12244 142.159C5.17359 142.24 5.22702 142.32 5.27931 142.399C7.92108 140.053 10.0661 137.316 11.5495 134.292C13.8105 129.684 14.3777 124.051 13.1069 118.836C12.1145 114.761 10.1184 111.31 7.35953 108.813C7.29815 108.886 7.23676 108.959 7.17652 109.032C9.88877 111.491 11.853 114.89 12.8318 118.904Z" fill="white"/>
<path d="M77.1505 53.651C79.6263 56.1868 80.7358 60.4605 79.3706 64.3992C78.0485 68.2136 75.151 71.3728 71.6703 73.4048C68.8694 75.0391 65.2159 75.9406 62.4616 74.2288C60.403 72.9501 59.3356 70.4405 59.2765 68.0142C59.2174 65.5867 60.0313 63.2219 61.0373 61.0132C62.4559 57.9008 64.3645 54.8819 67.2086 52.9889C71.1281 50.3802 74.7702 51.2133 77.1505 53.651Z" fill="#0A5735"/>
<path d="M44.3339 9.18113H23.834V0H44.3339V9.18113ZM24.2603 8.75375H43.9076V0.427374H24.2603V8.75375Z" fill="#E9DDCA"/>
<path d="M30.9977 17.9625H10.4978V8.78027H30.9977V17.9625ZM10.9241 17.5352H30.5714V9.20765H10.9241V17.5352Z" fill="#E9DDCA"/>
<path d="M160.973 27.7456C159.645 23.3203 157.31 19.2574 153.968 15.5432C150.62 11.8291 146.052 8.76223 140.266 6.33702C134.48 3.91182 127.129 2.69922 118.212 2.69922C111.099 2.69922 103.85 3.66109 96.4643 5.58485C89.0721 7.51544 82.6598 10.2609 77.2217 13.8292L84.3013 33.3151L80.5068 36.3968L86.0098 38.0185C91.4411 35.1682 96.3905 33.0986 100.856 31.8096C105.314 30.5275 110.052 29.8859 115.075 29.8859C120.091 29.8859 123.89 31.0985 126.47 33.5237C129.049 35.9557 130.336 38.8755 130.336 42.3048C130.336 46.444 129.008 50.1172 126.367 53.3299C123.713 56.5426 120.786 59.7895 117.579 63.0717C115.353 65.3511 113.189 67.7056 111.099 70.1308C109.009 72.5629 107.158 75.1624 105.558 77.95C103.952 80.7308 102.665 83.727 101.692 86.9397C100.712 90.1524 100.229 93.7549 100.229 97.7483C100.229 99.0372 100.256 100.57 100.332 102.355C100.344 102.684 100.361 103.004 100.38 103.321H95.1787L100.856 107.17H128.458C128.315 106.313 128.246 105.316 128.246 104.174C128.246 103.031 128.246 102.174 128.246 101.603C128.246 99.1774 128.736 96.7875 129.709 94.4318C130.682 92.0762 131.908 89.8322 133.372 87.6862C134.835 85.547 136.469 83.5116 138.286 81.589C140.097 79.6584 141.839 77.8395 143.514 76.1254C145.74 73.8461 148.04 71.4221 150.409 68.8498C152.778 66.2787 154.874 63.5743 156.685 60.7172C158.496 57.8601 159.993 54.759 161.178 51.4004C162.362 48.0487 162.961 44.3756 162.961 40.3753C162.961 36.3808 162.294 32.1709 160.973 27.7456Z" fill="#E5E5E5"/>
<path d="M109.231 28.5261C104.267 28.5261 99.5849 29.1461 95.1789 30.3872C90.7661 31.6351 85.8758 33.6375 80.507 36.3966L71.8224 12.9868C77.1969 9.5336 83.5342 6.8759 90.84 5.00799C98.1389 3.14692 105.303 2.21582 112.332 2.21582C121.144 2.21582 128.41 3.38967 134.128 5.73624C139.846 8.08281 144.36 11.0505 147.67 14.645C150.973 18.2395 153.28 22.1713 154.591 26.4542C155.896 30.737 156.556 34.8102 156.556 38.6748C156.556 42.5462 155.964 46.1008 154.794 49.3443C153.623 52.5946 152.143 55.5965 150.354 58.3613C148.565 61.1262 146.492 63.7428 144.152 66.2318C141.811 68.7209 139.537 71.0674 137.337 73.2727C135.682 74.932 133.96 76.6917 132.171 78.5607C130.374 80.4218 128.76 82.3911 127.313 84.4619C125.867 86.5395 124.656 88.7106 123.694 90.9899C122.732 93.2692 122.248 95.5827 122.248 97.9293C122.248 98.482 122.248 99.3117 122.248 100.418C122.248 101.525 122.315 102.489 122.456 103.319H95.1789C94.8958 101.936 94.7287 100.385 94.6605 98.6587C94.5866 96.9321 94.5594 95.4482 94.5594 94.2003C94.5594 90.3357 95.0368 86.8495 96.0053 83.7393C96.967 80.6303 98.239 77.7299 99.8259 75.0392C101.407 72.3416 103.236 69.8263 105.302 67.4718C107.367 65.1252 109.506 62.8448 111.706 60.6395C114.874 57.4633 117.767 54.3201 120.391 51.2111C123 48.1021 124.312 44.5475 124.312 40.5416C124.312 37.2229 123.041 34.3976 120.492 32.0442C117.943 29.6999 114.189 28.5261 109.231 28.5261Z" fill="white"/>
<path d="M130.346 134.03C130.346 139.02 128.735 142.869 125.513 145.585C122.291 148.307 118.649 149.662 114.583 149.662C110.511 149.662 106.87 148.307 103.649 145.585C100.432 142.869 98.8209 139.02 98.8209 134.03C98.8209 129.046 100.432 125.197 103.649 122.475C108.608 118.279 115.946 117.344 121.752 120.289C126.905 122.902 130.346 128.21 130.346 134.03Z" fill="#E5E5E5"/>
<path d="M124.946 134.03C124.946 139.02 123.336 142.869 120.113 145.585C116.892 148.307 113.249 149.662 109.183 149.662C105.112 149.662 101.471 148.307 98.2491 145.585C95.0321 142.869 93.4214 139.02 93.4214 134.03C93.4214 129.046 95.0321 125.197 98.2491 122.475C101.471 119.759 105.113 118.398 109.183 118.398C113.249 118.398 116.89 119.759 120.113 122.475C123.336 125.197 124.946 129.046 124.946 134.03Z" fill="white"/>
<path d="M43.2329 63.298C43.5353 61.6803 42.4724 60.123 40.8587 59.8198C39.2451 59.5167 37.6919 60.5823 37.3895 62.2001C37.0871 63.8179 38.15 65.3752 39.7637 65.6783C41.3773 65.9815 42.9305 64.9158 43.2329 63.298Z" fill="#D3DFFF"/>
<path d="M44.6538 68.8979C44.8239 67.9878 44.221 67.1109 43.3071 66.9392C42.3932 66.7675 41.5145 67.366 41.3444 68.2761C41.1743 69.1861 41.7772 70.063 42.6911 70.2347C43.605 70.4064 44.4837 69.8079 44.6538 68.8979Z" fill="#D3DFFF"/>
<path d="M41.2514 56.0432C45.822 51.4608 45.822 44.0314 41.2514 39.449C36.6808 34.8666 29.2704 34.8666 24.6998 39.449C20.1293 44.0314 20.1293 51.4608 24.6999 56.0432C29.2704 60.6255 36.6808 60.6255 41.2514 56.0432Z" fill="#D3DFFF"/>
<path d="M28.4823 49.2244C29.2965 49.2244 29.9566 48.5626 29.9566 47.7462C29.9566 46.9299 29.2965 46.2681 28.4823 46.2681C27.668 46.2681 27.0079 46.9299 27.0079 47.7462C27.0079 48.5626 27.668 49.2244 28.4823 49.2244Z" fill="white"/>
<path d="M32.9757 49.2244C33.7899 49.2244 34.45 48.5626 34.45 47.7462C34.45 46.9299 33.7899 46.2681 32.9757 46.2681C32.1614 46.2681 31.5013 46.9299 31.5013 47.7462C31.5013 48.5626 32.1614 49.2244 32.9757 49.2244Z" fill="white"/>
<path d="M37.4704 49.2244C38.2847 49.2244 38.9448 48.5626 38.9448 47.7462C38.9448 46.9299 38.2847 46.2681 37.4704 46.2681C36.6562 46.2681 35.9961 46.9299 35.9961 47.7462C35.9961 48.5626 36.6562 49.2244 37.4704 49.2244Z" fill="white"/>
<path d="M24.5911 143.787L25.6846 148.014C25.97 149.117 27.0328 149.862 28.2093 149.781C31.7946 149.537 39.2448 148.656 43.5212 145.496L42.306 139.404C36.4268 139.072 30.9295 139.4 26.1678 141.006C24.9753 141.409 24.2865 142.607 24.5911 143.787Z" fill="black"/>
<path d="M31.4434 147.152C31.3809 147.152 31.3241 147.111 31.307 147.048L29.8384 141.777C29.8168 141.701 29.8611 141.623 29.9372 141.602C30.0134 141.581 30.0918 141.625 30.1123 141.701L31.581 146.972C31.6026 147.048 31.5582 147.126 31.4821 147.147C31.4696 147.15 31.4559 147.152 31.4434 147.152Z" fill="white"/>
<path d="M34.6168 146.439C34.5542 146.439 34.4974 146.398 34.4803 146.336L33.0117 141.065C32.9901 140.988 33.0344 140.911 33.1106 140.889C33.1867 140.868 33.2652 140.912 33.2856 140.988L34.7543 146.259C34.7759 146.336 34.7316 146.413 34.6554 146.435C34.6418 146.437 34.6293 146.439 34.6168 146.439Z" fill="white"/>
<path d="M38.3025 120.94L24.6389 125.005L34.7866 138.945L49.355 140.107L69.449 131.588L61.8125 120.068L38.3025 120.94Z" fill="white"/>
<path d="M55.1477 122.876C85.1552 113.971 89.9772 140.559 43.1585 145.399C41.5046 143.533 39.5721 140.297 38.8048 137.59L63.5288 126.135L55.1477 122.876Z" fill="white"/>
<path d="M56.4231 141.931C55.0192 141.481 53.6744 140.591 53.6744 140.591L48.8524 142.108L49.9573 147.367L54.9669 148.387C56.4935 145.588 56.5822 143.291 56.4231 141.931Z" fill="#F9B384"/>
<path d="M38.9118 137.775L38.6981 137.406C43.8566 134.401 57.0678 127.181 68.3249 125.051L68.4044 125.471C57.2121 127.588 44.051 134.78 38.9118 137.775Z" fill="#E5E5E5"/>
<path d="M38.3023 120.94C10.3716 115.615 3.13743 142.528 49.9573 147.368C51.6112 145.502 52.9071 143.298 53.6744 140.591C46.4823 135.767 38.441 131.181 29.6291 126.813L38.3023 120.94Z" fill="white"/>
<path d="M53.5595 140.771C52.2306 139.923 50.8461 139.027 49.3809 138.078C42.0228 133.315 33.6837 127.917 26.5984 124.838L26.7678 124.446C33.8849 127.538 42.2399 132.947 49.6116 137.719C51.0769 138.667 52.4603 139.563 53.788 140.411L53.5595 140.771Z" fill="#E5E5E5"/>
<path d="M17.8103 134.283L17.4375 134.077C18.4856 132.173 20.1657 130.89 22.4289 130.262L22.5426 130.674C20.3623 131.279 18.8152 132.459 17.8103 134.283Z" fill="#E5E5E5"/>
<path d="M76.1058 132.662C75.1009 130.839 73.5527 129.658 71.3735 129.053L71.4872 128.642C73.7504 129.27 75.4305 130.554 76.4786 132.456L76.1058 132.662Z" fill="#E5E5E5"/>
<path d="M47.3416 147.13L47.0302 146.839C49.265 144.44 50.637 141.907 51.2258 139.096L51.643 139.183C51.0371 142.074 49.631 144.673 47.3416 147.13Z" fill="#E5E5E5"/>
<path d="M70.3528 140.365C66.7743 138.149 59.8368 141.979 58.0953 142.173C57.5872 142.23 57.0007 142.118 56.4232 141.932C56.5823 143.292 56.4937 145.59 54.967 148.389L55.8185 148.562C55.8185 148.562 61.7011 150.724 67.9418 149.466C73.7016 148.303 73.1662 142.107 70.3528 140.365Z" fill="black"/>
<path d="M65.4747 147.615C65.4611 147.615 65.4463 147.612 65.4316 147.608C65.3565 147.584 65.3156 147.504 65.3383 147.429C65.7635 146.079 65.9488 143.424 64.7177 141.64C64.6734 141.575 64.6893 141.487 64.7541 141.442C64.8189 141.398 64.9075 141.414 64.9519 141.479C66.2409 143.347 66.0522 146.111 65.61 147.514C65.5907 147.576 65.535 147.615 65.4747 147.615Z" fill="white"/>
<path d="M62.6682 148.149C62.6546 148.149 62.6398 148.147 62.625 148.142C62.55 148.118 62.5091 148.039 62.5318 147.963C62.957 146.614 63.1422 143.959 61.9112 142.175C61.8668 142.11 61.8828 142.021 61.9475 141.977C62.0123 141.932 62.101 141.948 62.1453 142.013C63.4344 143.881 63.2457 146.646 62.8035 148.049C62.7842 148.11 62.7285 148.149 62.6682 148.149Z" fill="white"/>
<path d="M33.3611 86.2418C33.3611 86.2418 40.3952 80.2449 40.1349 79.1052C39.9484 78.2904 37.9557 79.4847 37.9557 79.4847C37.9557 79.4847 40.7498 76.1603 40.6077 75.7569C40.3543 75.0355 38.4207 76.3803 38.4207 76.3803C38.4207 76.3803 39.7268 74.4953 39.1027 74.1876C38.4786 73.8799 37.1168 75.0423 37.1168 75.0423C37.1168 75.0423 37.9125 73.9961 37.5386 73.7215C37.1646 73.4468 35.5527 74.5762 35.5527 74.5762C35.5527 74.5762 36.1313 73.2565 34.9025 73.7568C33.6737 74.2571 25.0549 82.1869 25.0549 82.1869L33.3611 86.2418Z" fill="#F9B384"/>
<path d="M36.2391 79.1284C36.205 79.1284 36.1709 79.1158 36.1437 79.0908C34.9364 77.9842 34.4033 77.7163 33.0722 77.3049C32.9972 77.2821 32.9551 77.2024 32.9778 77.1271C33.0006 77.0519 33.0802 77.0098 33.1552 77.0325C34.5352 77.4576 35.0865 77.7357 36.3358 78.8799C36.3937 78.9335 36.3983 79.0235 36.3449 79.0817C36.3164 79.1136 36.2778 79.1284 36.2391 79.1284Z" fill="#E28B6D"/>
<path d="M34.1202 82.3818C34.1134 82.3818 34.1066 82.3818 34.1009 82.3806C34.0236 82.3692 33.969 82.2974 33.9793 82.2199C34.1179 81.2284 34.4294 80.6084 34.9307 80.3258C35.3604 80.0842 35.9185 80.1081 36.5915 80.3999C36.6631 80.4306 36.6972 80.515 36.6654 80.5868C36.6347 80.6586 36.5506 80.6928 36.4789 80.6609C35.8924 80.4067 35.4184 80.3771 35.0705 80.5742C34.6568 80.8079 34.3839 81.3743 34.2612 82.2598C34.2509 82.3293 34.1896 82.3818 34.1202 82.3818Z" fill="#E28B6D"/>
<path d="M33.7885 76.3862C33.751 76.3862 33.7135 76.3714 33.685 76.3418C33.6316 76.2848 33.6339 76.1948 33.6907 76.14L35.4561 74.4727C35.5129 74.418 35.6027 74.4214 35.6573 74.4784C35.7107 74.5354 35.7084 74.6254 35.6516 74.6801L33.8862 76.3475C33.8578 76.3737 33.8237 76.3862 33.7885 76.3862Z" fill="#E28B6D"/>
<path d="M35.4218 76.9563C35.3866 76.9563 35.3514 76.9426 35.3229 76.9164C35.2661 76.8617 35.265 76.7717 35.3184 76.7147L37.0144 74.9436C37.069 74.8866 37.1588 74.8844 37.2156 74.9391C37.2724 74.9938 37.2736 75.0838 37.2201 75.1408L35.5241 76.9118C35.4969 76.9415 35.4594 76.9563 35.4218 76.9563Z" fill="#E28B6D"/>
<path d="M37.0918 77.953C37.0565 77.953 37.0224 77.9405 36.9952 77.9143C36.9383 77.8607 36.9349 77.7707 36.9883 77.7126L38.3183 76.2823C38.3718 76.2253 38.4616 76.2219 38.5195 76.2754C38.5764 76.329 38.5798 76.419 38.5264 76.4771L37.1964 77.9074C37.1679 77.9382 37.1304 77.953 37.0918 77.953Z" fill="#E28B6D"/>
<path d="M59.9335 126.352L34.2149 127.349L31.373 103.844C31.373 103.844 39.9827 95.6563 43.2951 92.6407L48.8879 92.3535C66.2378 100.261 63.3971 110.136 59.9335 126.352Z" fill="#65F0B1"/>
<path d="M48.8879 92.3535C48.8879 92.3535 68.7376 94.055 74.9953 107.69C81.1189 121.032 55.955 125.782 55.955 125.782L48.8879 92.3535Z" fill="#65F0B1"/>
<path d="M26.1973 95.2754L34.4 85.268L26.7293 80.6079C23.5294 82.8382 17.3422 87.8904 12.0984 93.6115C10.9412 94.8742 10.0364 96.3489 9.58168 97.973C9.19291 99.3588 9.12244 100.728 9.34069 102.068C9.91019 105.562 12.6509 108.257 16.31 108.687C19.4349 109.054 31.3718 108.117 41.034 105.268L43.8759 94.2713C42.4163 93.4405 31.5627 93.2969 26.1973 95.2754Z" fill="#65F0B1"/>
<g opacity="0.8">
<path opacity="0.8" d="M65.4523 97.764C65.4955 97.7538 65.5376 97.7447 65.5808 97.7344C65.491 97.6808 65.4012 97.6296 65.3113 97.5771C63.8563 97.9133 62.3558 98.2564 60.8758 98.4353C59.9869 98.5424 57.0155 98.7396 56.1481 96.7554C55.7162 95.7685 56.0436 94.6698 56.5312 93.8994C56.4596 93.8789 56.3891 93.8584 56.3187 93.8379C55.8185 94.6539 55.4968 95.7993 55.9526 96.8409C56.8791 98.9607 59.9755 98.7601 60.902 98.6473C62.4241 98.4627 63.9643 98.1082 65.4523 97.764Z" fill="white"/>
<path opacity="0.8" d="M74.7165 113.142C73.7685 112.775 72.7886 112.394 71.7587 112.492C69.9525 112.663 68.4065 114.455 68.3122 116.484C68.2485 117.869 68.776 119.32 69.7808 120.595C69.8411 120.558 69.9013 120.519 69.9616 120.48C68.9783 119.24 68.4622 117.833 68.5247 116.494C68.6134 114.565 70.073 112.865 71.7781 112.704C72.7568 112.613 73.6719 112.965 74.6392 113.34C74.9848 113.473 75.336 113.609 75.693 113.723C75.7112 113.655 75.7293 113.585 75.7453 113.516C75.3974 113.405 75.0541 113.273 74.7165 113.142Z" fill="white"/>
<path opacity="0.8" d="M24.6152 106.346C23.3761 105.318 21.4505 105.043 19.3328 105.593C17.4458 106.082 15.8271 107.052 14.7153 108.334C14.7881 108.358 14.8597 108.384 14.9336 108.405C16.0158 107.188 17.5742 106.269 19.3862 105.799C21.4357 105.267 23.2931 105.527 24.4788 106.51C25.0426 106.977 25.4416 107.585 25.7314 108.239C25.8042 108.231 25.8781 108.222 25.952 108.214C25.6485 107.51 25.2256 106.852 24.6152 106.346Z" fill="white"/>
<path opacity="0.8" d="M13.4115 92.2131C15.7339 91.6341 17.9994 90.8216 20.0898 89.6147C20.8799 89.1588 21.7711 88.5776 22.3985 87.7239C23.0658 86.8156 23.2875 85.7341 22.9919 84.8315C22.876 84.477 22.6702 84.1659 22.4133 83.9175C22.3587 83.9619 22.3042 84.0075 22.2496 84.052C22.4895 84.281 22.6816 84.5694 22.7896 84.8987C23.0635 85.7364 22.8544 86.745 22.228 87.5974C21.6244 88.4191 20.7548 88.9856 19.9841 89.43C18.013 90.5685 15.8805 91.3561 13.69 91.9247C13.5968 92.0205 13.5047 92.1173 13.4115 92.2131Z" fill="white"/>
</g>
<path d="M50.704 87.1279L50.7006 87.4926L50.6426 93.1601L50.6358 93.7744C50.6244 94.7351 50.2322 95.6058 49.5979 96.2383C48.967 96.8663 48.0986 97.2606 47.1369 97.2675C45.1988 97.2789 43.613 95.7175 43.5948 93.771L43.5266 86.7666L50.704 87.1279Z" fill="#F9B384"/>
<path d="M50.7004 87.4932L50.6424 93.1607C47.5005 91.8786 46.2069 88.4687 46.2069 88.4687L50.7004 87.4932Z" fill="black"/>
<path d="M51.9428 77.6028C53.0682 78.9579 56.3567 86.6335 53.0238 89.2525C49.2738 92.1997 43.5662 87.3561 43.5662 87.3561L42.8 78.4154L47.7539 77.106L51.9428 77.6028Z" fill="#F9B384"/>
<path d="M40.2767 77.1104C40.2767 77.1104 29.2878 82.8565 38.2476 99.4193C39.398 101.547 41.9477 102.475 44.1279 101.438C46.4673 100.324 47.3528 97.4591 46.082 95.1968C44.6167 92.587 43.2015 89.225 43.8062 86.7246L40.2767 77.1104Z" fill="black"/>
<path d="M43.4153 81.9369C44.5761 80.7731 44.5761 78.8861 43.4153 77.7223C42.2545 76.5584 40.3724 76.5584 39.2115 77.7223C38.0507 78.8861 38.0507 80.7731 39.2115 81.9369C40.3724 83.1008 42.2545 83.1008 43.4153 81.9369Z" fill="white"/>
<path d="M44.9712 83.4106C44.6495 81.5518 44.454 80.2765 46.3285 79.3181C46.3285 79.3181 52.934 80.5227 54.1947 78.0234C55.4553 75.5253 53.5342 71.582 49.5113 74.3206C39.2125 72.3034 37.8314 81.9666 40.954 85.1873L44.0357 84.7132C44.6563 84.6186 45.0781 84.0306 44.9712 83.4106Z" fill="black"/>
<path d="M50.0855 83.8559C50.3278 83.8559 50.5243 83.6589 50.5243 83.416C50.5243 83.173 50.3278 82.9761 50.0855 82.9761C49.8432 82.9761 49.6467 83.173 49.6467 83.416C49.6467 83.6589 49.8432 83.8559 50.0855 83.8559Z" fill="black"/>
<path d="M53.0579 82.3881C53.3003 82.3881 53.4967 82.1912 53.4967 81.9482C53.4967 81.7053 53.3003 81.5083 53.0579 81.5083C52.8156 81.5083 52.6191 81.7053 52.6191 81.9482C52.6191 82.1912 52.8156 82.3881 53.0579 82.3881Z" fill="black"/>
<path d="M52.7535 84.7713C52.7228 84.7713 52.6921 84.7599 52.6682 84.7371C52.6182 84.6892 52.6159 84.6106 52.6637 84.5605C52.8398 84.3747 53.0331 84.1137 52.9512 83.9234C52.8671 83.7262 52.5113 83.6419 52.3476 83.6419C51.9975 83.6419 51.8293 83.0174 51.7986 82.892C51.7827 82.8248 51.8236 82.7576 51.8907 82.7416C51.9577 82.7245 52.0248 82.7667 52.0407 82.8339C52.1044 83.0983 52.2499 83.3935 52.3476 83.3935C52.5159 83.3935 53.0285 83.4732 53.1797 83.8265C53.2877 84.0784 53.1752 84.3838 52.8433 84.7337C52.8194 84.7576 52.7864 84.7713 52.7535 84.7713Z" fill="black"/>
<path d="M52.776 86.4409C52.7522 86.4409 52.7283 86.4341 52.7067 86.4192C51.8803 85.8597 51.0448 86.3292 51.0368 86.3338C50.9777 86.368 50.9016 86.3475 50.8675 86.2882C50.8334 86.2289 50.8538 86.1526 50.9129 86.1184C50.9527 86.0956 51.8917 85.5679 52.8465 86.213C52.9034 86.2517 52.9181 86.3292 52.8795 86.3862C52.8556 86.4227 52.8158 86.4409 52.776 86.4409Z" fill="black"/>
<path d="M49.8933 81.5095C50.1434 81.9814 49.708 82.076 49.1976 82.3472C48.6872 82.6184 48.1655 82.7187 48.0461 82.4931C47.9268 82.2686 48.2439 81.8663 48.7543 81.5939C49.2647 81.3215 49.7001 81.1437 49.8933 81.5095Z" fill="black"/>
<path d="M51.7528 80.6581C51.8631 81.0787 52.1757 80.8952 52.6304 80.7755C53.0851 80.6559 53.4534 80.4268 53.4011 80.2262C53.3488 80.0256 52.9373 79.9595 52.4815 80.0792C52.0268 80.1977 51.6676 80.3322 51.7528 80.6581Z" fill="black"/>
<path opacity="0.4" d="M48.9394 86.4238C49.4651 85.9378 49.4982 85.1165 49.0133 84.5895C48.5285 84.0626 47.7094 84.0294 47.1837 84.5154C46.6581 85.0015 46.625 85.8227 47.1098 86.3497C47.5946 86.8767 48.4138 86.9099 48.9394 86.4238Z" fill="#EB5D60"/>
<path d="M44.719 86.6908C45.3108 85.9219 45.0842 84.7522 44.2129 84.0782C43.3416 83.4041 42.1555 83.481 41.5637 84.2499C40.9719 85.0188 41.1985 86.1885 42.0698 86.8626C42.9411 87.5366 44.1272 87.4597 44.719 86.6908Z" fill="#F9B384"/>
<path d="M43.9117 86.1263C43.8435 86.1263 43.7878 86.0704 43.7878 86.0021C43.7878 85.634 43.6094 85.2943 43.3093 85.0915C43.0535 84.9182 42.7477 84.8783 42.492 84.9821C42.4283 85.0071 42.3555 84.9775 42.3294 84.9137C42.3033 84.8499 42.3339 84.7769 42.3976 84.7507C42.7295 84.6151 43.1217 84.6641 43.4468 84.884C43.8151 85.1325 44.0356 85.5496 44.0356 86.0009C44.0368 86.0704 43.9811 86.1263 43.9117 86.1263Z" fill="black"/>
<path d="M26.0915 95.1761L21.6053 100.042L21.814 100.235L26.3002 95.3695L26.0915 95.1761Z" fill="black"/>
<path d="M57.7008 116.089L57.6178 115.817C60.8836 114.819 64.054 113.625 66.9265 110.023L67.1482 110.201C64.2256 113.867 61.0121 115.078 57.7008 116.089Z" fill="black"/>
<path d="M59.6868 105.056H31.9027C30.9035 105.056 30.093 105.935 30.093 107.019V126.907C30.093 127.991 30.9035 128.869 31.9027 128.869H59.6868C60.686 128.869 61.4965 127.991 61.4965 126.907V107.019C61.4965 105.935 60.686 105.056 59.6868 105.056Z" fill="#D3DFFF"/>
<path d="M47.2624 115.705C47.3681 115.705 47.4533 115.797 47.4533 115.913V118.012C47.4533 118.126 47.3681 118.219 47.2624 118.219H44.3284C44.2227 118.219 44.1375 118.127 44.1375 118.012V115.913C44.1375 115.799 44.2227 115.705 44.3284 115.705H47.2624ZM47.2624 115.135H44.3284C43.9101 115.135 43.5691 115.484 43.5691 115.913V118.012C43.5691 118.44 43.9101 118.789 44.3284 118.789H47.2624C47.6807 118.789 48.0217 118.44 48.0217 118.012V115.913C48.0217 115.484 47.6807 115.135 47.2624 115.135Z" fill="#1F3C88"/>
<path d="M167.518 149.43H0V150H167.518V149.43Z" fill="black"/>
</svg>
