<svg width="166" height="150" viewBox="0 0 166 150" fill="none" xmlns="http://www.w3.org/2000/svg">
<path d="M152.312 114.574C142.209 127.627 127.379 137.519 111.119 143.488C93.3944 150.001 73.9598 151.844 57.0509 148.035C56.209 147.842 55.3583 147.64 54.5076 147.412C45.3252 144.989 36.2657 140.565 31.4158 132.498C27.5832 126.126 26.8115 118.155 22.4001 112.169C17.8308 105.972 10.0517 102.856 5.2369 96.8428C-2.33173 87.3891 -0.604013 73.5289 3.57058 62.1617C6.64013 53.814 10.9287 45.7208 17.4362 39.6729C22.172 35.2665 28.1971 32.0626 34.5204 31.097C35.7833 30.8951 37.055 30.7898 38.3267 30.781C39.4668 30.7722 40.5981 30.8425 41.7295 30.9917C44.5535 31.3691 47.2284 32.1767 49.8155 33.2739C49.9471 33.3353 50.0787 33.388 50.2014 33.4407C54.9724 35.5298 59.4452 38.5406 63.8829 41.4636L64.1986 41.6743C65.1282 42.2799 66.0578 42.8944 66.9963 43.4825C67.084 43.5439 67.1717 43.5966 67.2594 43.6493C67.2857 43.6756 67.3208 43.6932 67.3558 43.7107C67.4698 43.7809 67.5839 43.8599 67.6979 43.9214C67.8119 44.0004 67.9259 44.0706 68.0487 44.1408C68.3819 44.3603 68.724 44.5709 69.066 44.7728C70.364 45.5628 71.6883 46.3002 73.0301 46.9673C73.7054 47.3184 74.3895 47.652 75.0823 47.968C77.0293 48.8721 79.0201 49.6533 81.046 50.3116C81.4231 50.4345 81.8003 50.5574 82.1774 50.6627C84.9487 51.5054 87.7727 52.1111 90.6406 52.4622C92.1052 52.6553 93.5873 52.7782 95.0783 52.8221C95.1396 52.8309 95.201 52.8309 95.2712 52.8309C95.3238 52.8396 95.3764 52.8396 95.4378 52.8309C95.5255 52.8396 95.6132 52.8396 95.7009 52.8396C95.7799 52.8484 95.8676 52.8484 95.9553 52.8396C96.157 52.8572 96.3587 52.8572 96.5604 52.8572H97.2094C97.4374 52.8572 97.6654 52.8484 97.9022 52.8484C98.5162 52.8309 99.1388 52.8045 99.7527 52.7606H99.8141C99.8668 52.7606 99.9194 52.7519 99.972 52.7519L100.314 52.7255C100.7 52.6992 101.077 52.6641 101.463 52.629C102.34 52.5412 103.217 52.4359 104.103 52.3042C104.497 52.2427 104.883 52.1813 105.278 52.1111C113.557 50.6627 121.371 47.2394 129.562 45.3434C137.754 43.4474 146.919 43.263 153.97 47.8538C161.556 52.787 165.064 62.2407 165.704 71.273C166.906 87.9684 161.591 102.601 152.312 114.574Z" fill="#0A5735"/>
<path d="M75.2577 36.2498C81.6511 40.5421 88.9742 44.6063 96.8585 44.7906C110.794 45.1242 118.459 30.5091 105.287 22.1965C94.7713 15.5693 54.8496 22.5476 75.2577 36.2498Z" fill="#0A5735"/>
<path opacity="0.3" d="M42.3259 43.8603C55.0426 44.8171 67.6102 52.1378 76.5996 60.8893C85.2031 69.2633 98.3583 107.21 115.767 89.8473C121.766 83.8608 118.609 72.7832 121.617 65.4011C126.765 52.761 142.077 61.1087 145.849 70.8345C148.401 77.4091 147.778 84.8176 146.024 91.6555C141.016 111.195 126.686 128.127 108.251 136.282C102.577 138.792 96.4377 140.522 90.2459 140.214C89.062 140.153 87.6675 139.881 87.1764 138.792C86.7554 137.862 87.229 136.791 87.7465 135.904C90.4652 131.279 94.7012 127.504 96.4201 122.422C98.1391 117.339 95.4116 110.142 90.053 110.3C85.7819 110.422 83.2035 114.846 80.6076 118.252C72.7583 128.54 57.5509 132.393 45.7638 127.074C38.8091 123.94 33.433 117.778 30.7405 110.686C27.364 101.794 31.5298 94.7979 30.2231 86.0552C28.9602 77.6373 20.3216 74.372 17.7783 66.788C16.1119 61.8109 17.9186 56.1493 21.3126 52.129C26.9167 45.493 34.4064 43.2634 42.3259 43.8603Z" fill="#0A5735"/>
<path d="M60.0241 53.0682C58.9016 54.7535 56.8143 55.7278 56.0074 57.5887C55.1041 59.6778 56.1214 62.2058 55.297 64.3301C54.4376 66.5509 51.9381 67.5515 50.1226 69.0877C46.8602 71.8527 45.8253 76.7331 47.1145 80.806C48.4037 84.8789 51.7451 88.1179 55.6391 89.8823C59.5242 91.6554 63.9181 92.0767 68.1804 91.7607C75.8893 91.1989 83.4053 88.3462 91.1318 88.7236C95.0959 88.9167 98.9723 89.9613 102.928 90.3212C106.883 90.6811 111.128 90.2597 114.303 87.8634C117.469 85.4758 119.021 80.6568 116.811 77.3563C115.197 74.9424 111.917 73.6258 111.259 70.7993C110.707 68.3942 112.347 65.7696 111.435 63.4699C110.216 60.3976 105.366 60.0904 104.243 56.9831C103.48 54.8676 104.822 52.2343 103.559 50.3734C102.866 49.3551 101.577 48.9075 100.797 47.9595C99.2968 46.1688 100.112 43.4126 99.3845 41.1918C98.4198 38.2512 95.0784 36.917 92.0878 36.1094C87.3081 34.8191 82.3266 33.9238 77.4241 34.5909C72.5391 35.258 68.7855 37.8825 64.874 40.6388C60.1382 43.9743 62.7955 48.9075 60.0241 53.0682Z" fill="black"/>
<path d="M62.4447 56.8863C61.5151 59.1071 58.9717 60.5642 58.7086 62.9605C58.5069 64.7688 59.7172 66.5331 59.4365 68.3326C59.077 70.6236 56.5775 71.8261 55.1479 73.6519C52.587 76.9085 53.8938 82.0084 56.9458 84.8085C59.9978 87.6086 64.2601 88.6093 68.3558 89.2062C80.8357 91.0407 93.7278 90.0927 105.804 86.4412C107.278 85.9935 108.769 85.4932 109.988 84.5627C111.207 83.6323 112.136 82.1752 112.049 80.639C111.838 76.61 105.445 74.8106 105.76 70.7903C105.918 68.8241 107.76 67.1475 107.418 65.2077C106.822 61.8545 100.946 62.2056 99.8494 58.993C99.1653 56.9741 100.867 54.7533 100.297 52.6905C99.6476 50.3205 96.5079 49.627 95.1398 47.5818C94.2891 46.309 94.2277 44.6764 93.6226 43.2719C92.2632 40.1207 88.5008 38.7777 85.0804 38.5056C78.4853 37.9701 72.5216 40.542 66.821 43.5791C60.7082 46.8357 64.6285 51.6898 62.4447 56.8863Z" fill="black"/>
<path d="M111.119 143.488C93.3945 150.001 73.9599 151.845 57.051 148.035C56.2091 147.842 55.3584 147.64 54.5077 147.412L55.2532 130.032L55.8495 116.136L56.8318 93.2089L56.9458 90.4351L57.1826 85.0104L57.4632 78.4358L64.0233 76.4959L65.0757 76.1887L65.9352 75.9341L68.7066 75.1178L69.7151 74.8193L73.9862 73.687L76.8628 72.9233H76.8716L88.378 73.1867L91.2195 74.4682L92.6491 75.1002L93.2454 75.3723L98.0164 76.7505L98.7706 76.9699L100.674 77.3122L106.883 78.4358L107.374 85.9233L107.655 90.321L107.9 94.113L109.321 115.873L110.26 130.286L111.119 143.488Z" fill="#65F0B1"/>
<path d="M98.7705 76.9699C97.6918 81.6748 95.9114 88.8375 94.8064 90.1542C93.1225 92.138 88.6673 95.0961 83.0895 95.0961C77.5116 95.0961 72.3723 93.7531 69.1712 91.5674C66.8735 89.9962 66.1631 80.9463 65.9351 75.9341L69.715 74.8193L76.8802 72.9233L88.3779 73.1954L93.2453 75.3723L98.7705 76.9699Z" fill="#F9B384"/>
<path d="M88.7991 77.075L82.8529 77.6455L76.4595 76.7765C76.7927 75.0385 76.9243 72.7387 76.9506 70.5092C76.9594 70.1405 76.9594 69.763 76.9594 69.4032C76.9681 65.9623 76.784 62.9866 76.784 62.9866L87.5976 61.6611C87.4923 62.9076 87.7116 66.0237 88.001 69.1398C88.0273 69.4822 88.0536 69.8245 88.0887 70.1668C88.4219 73.7745 88.7991 77.075 88.7991 77.075Z" fill="#F9B384"/>
<path d="M87.9922 69.1486C86.51 70.1756 84.9402 71.0973 83.1686 71.2904C80.9936 71.5274 78.8975 70.6145 76.9505 69.4032C76.9593 65.9623 76.7751 62.9866 76.7751 62.9866L87.5887 61.6611C87.4835 62.9076 87.7027 66.0237 87.9922 69.1486Z" fill="#8E503D"/>
<path d="M94.8066 56.658C97.0255 56.4298 98.6304 54.7532 99.4899 53.3488C99.6828 53.0328 99.8407 52.7343 99.9547 52.4622C100.586 51.0051 100.753 45.9403 99.1128 44.7729C97.9639 43.9565 97.1395 45.1503 96.7448 45.9403C96.5782 46.2739 96.4905 46.5372 96.4905 46.5372L94.8066 56.658Z" fill="#FAA17F"/>
<path d="M94.8066 56.6584C97.0255 56.4301 98.6304 54.7536 99.4899 53.3491C99.5601 53.2087 99.6302 53.0682 99.6828 52.9366C100.314 51.4795 100.481 46.4147 98.8409 45.2472C97.9113 44.5801 97.1921 45.2384 96.7448 45.9319C96.5782 46.2654 96.4905 46.5288 96.4905 46.5288L94.8066 56.6584Z" fill="#F9B384"/>
<path d="M99.6388 48.7932C99.7177 49.197 99.6739 49.6183 99.5686 50.0221C99.1301 51.725 97.7971 53.0241 96.5254 54.2267C96.9113 53.4016 97.0428 52.4711 96.9639 51.567C96.9376 51.251 96.885 50.935 96.8762 50.619C96.8587 49.355 99.1477 46.4057 99.6388 48.7932Z" fill="#FAA17F"/>
<path d="M95.8853 54.7095C95.8853 54.7095 95.9116 54.6919 95.9554 54.6568C95.9993 54.6217 96.0782 54.5778 96.1571 54.4988C96.3238 54.3496 96.5606 54.1214 96.7886 53.7702C97.0078 53.4279 97.2095 52.9627 97.306 52.4185C97.3937 51.8742 97.3674 51.2422 97.1394 50.6366C97.1131 50.5576 97.078 50.4873 97.0429 50.4171L97.0166 50.3645C97.0078 50.3469 97.0166 50.3557 97.0166 50.3557C97.0166 50.3557 97.0166 50.3557 97.0166 50.3469L97.0341 50.2942L97.078 50.1977C97.1043 50.1362 97.1394 50.066 97.1657 50.0046C97.2885 49.7588 97.4113 49.5218 97.5516 49.3023C97.6831 49.0829 97.8235 48.881 97.9638 48.7055C98.1041 48.5211 98.2357 48.3543 98.3672 48.2227C98.4988 48.091 98.6479 48.012 98.7794 47.9857C98.9197 47.9681 99.0425 48.0032 99.1302 48.0559C99.2179 48.1086 99.2705 48.1788 99.2881 48.2402C99.3144 48.2929 99.3056 48.328 99.3144 48.328C99.3144 48.328 99.3232 48.2929 99.3144 48.2402C99.3056 48.1788 99.2705 48.091 99.1828 48.012C99.0951 47.933 98.9636 47.854 98.7794 47.854C98.5952 47.854 98.4023 47.933 98.2357 48.0559C98.0603 48.1788 97.9024 48.3368 97.7358 48.5123C97.5691 48.6879 97.4025 48.881 97.2446 49.1005C97.0868 49.3199 96.9289 49.5569 96.7886 49.8202C96.7535 49.8817 96.7184 49.9519 96.6833 50.0221L96.6307 50.1275L96.5693 50.2679L96.5255 50.3732C96.5342 50.4083 96.5518 50.4435 96.5693 50.4698L96.6307 50.6102C96.657 50.6717 96.6921 50.7331 96.7096 50.8033C96.9114 51.33 96.9552 51.883 96.9201 52.3834C96.8763 52.8837 96.7447 53.3226 96.5869 53.6737C96.429 54.0248 96.2448 54.2881 96.1045 54.4549C96.0343 54.5427 95.973 54.6041 95.9379 54.648C95.9028 54.6919 95.8853 54.7095 95.8853 54.7095Z" fill="#8E503D"/>
<path d="M69.1715 56.7461C66.9526 56.5354 65.3389 54.8676 64.4707 53.4719C64.2777 53.1559 64.1199 52.8575 63.9971 52.5854C63.3569 51.1283 63.1639 46.0722 64.7864 44.8872C65.9265 44.0621 66.7597 45.2559 67.1543 46.0371C67.321 46.3707 67.4174 46.634 67.4174 46.634L69.1715 56.7461Z" fill="#FAA17F"/>
<path d="M69.1716 56.7462C66.9527 56.5355 65.339 54.8677 64.4708 53.4721C64.3919 53.3316 64.3305 53.1912 64.2778 53.0683C63.6376 51.6112 63.4447 46.5552 65.0672 45.3789C65.988 44.7118 66.7159 45.3614 67.1632 46.0548C67.3299 46.3884 67.4263 46.6517 67.4263 46.6517L69.1716 56.7462Z" fill="#F9B384"/>
<path d="M64.2865 48.9071C64.2076 49.3109 64.2602 49.7322 64.3655 50.136C64.8127 51.8301 66.1546 53.1205 67.435 54.323C67.0491 53.4979 66.9 52.5763 66.979 51.6634C67.0053 51.3474 67.0579 51.0314 67.0579 50.7154C67.0579 49.4426 64.7601 46.5108 64.2865 48.9071Z" fill="#FAA17F"/>
<path d="M68.0751 54.7969C68.0751 54.7969 68.0488 54.7794 68.0049 54.7443C67.9611 54.7092 67.8821 54.6653 67.7944 54.5863C67.619 54.4458 67.3822 54.2088 67.163 53.8665C66.9437 53.5241 66.742 53.0677 66.6368 52.5235C66.5491 51.9793 66.5666 51.3473 66.7946 50.7416C66.8209 50.6626 66.856 50.5924 66.8911 50.5221L66.9174 50.4695C66.9262 50.4519 66.9174 50.4607 66.9174 50.4607C66.9174 50.4607 66.9174 50.4607 66.9174 50.4519L66.8999 50.3992L66.856 50.3027C66.8297 50.2413 66.7946 50.1798 66.7683 50.1184C66.6455 49.8726 66.514 49.6356 66.3824 49.4161C66.2509 49.1967 66.1105 49.0036 65.9702 48.8192C65.8299 48.6349 65.6984 48.4681 65.5668 48.3452C65.4352 48.2224 65.2862 48.1346 65.1546 48.117C65.0143 48.0995 64.8915 48.1346 64.8038 48.196C64.7161 48.2487 64.6635 48.3277 64.6459 48.3804C64.6284 48.433 64.6284 48.4681 64.6196 48.4681C64.6196 48.4681 64.6109 48.433 64.6196 48.3804C64.6284 48.3189 64.6635 48.2311 64.7512 48.1521C64.8389 48.0731 64.9704 47.9941 65.1546 47.9854C65.3388 47.9854 65.5317 48.0556 65.7071 48.1785C65.8825 48.3014 66.0404 48.4594 66.207 48.6261C66.3737 48.8017 66.5403 48.9948 66.6982 49.2142C66.856 49.4337 67.0139 49.6707 67.1542 49.9252C67.1893 49.9867 67.2244 50.0569 67.2594 50.1271L67.3121 50.2325L67.3735 50.3729L67.4173 50.4695C67.4085 50.5046 67.391 50.5397 67.3735 50.566L67.3121 50.7065C67.2857 50.7679 67.2507 50.8294 67.2331 50.8996C67.0314 51.4263 66.9963 51.9793 67.0314 52.4796C67.0753 52.9799 67.2156 53.4188 67.3735 53.7699C67.5313 54.121 67.7155 54.3756 67.8558 54.5512C67.926 54.6389 67.9874 54.7004 68.0224 54.7443C68.0575 54.7794 68.0751 54.7969 68.0751 54.7969Z" fill="#8E503D"/>
<path d="M67.3123 45.7209C67.3123 45.7209 67.742 55.5521 70.3555 59.1949C72.548 62.2408 75.6614 67.0949 80.6166 68.7363C81.5813 69.0611 82.6337 69.0523 83.5984 68.7276C88.5448 67.0598 91.6231 62.1793 93.7981 59.1159C96.394 55.4555 96.7624 45.6244 96.7624 45.6244C96.7799 44.966 96.7887 44.3428 96.7712 43.7284V43.7108C96.4204 25.1019 81.9672 26.164 81.9672 26.164C81.9672 26.164 67.7332 26.3395 67.3123 44.7554C67.3123 45.0714 67.3123 45.3962 67.3123 45.7209Z" fill="#FAA17F"/>
<path d="M67.3208 44.7554C67.4085 46.3266 67.9873 54.6743 70.3553 57.966C72.5478 61.0119 75.6612 65.866 80.6163 67.5075C81.5811 67.8322 82.6335 67.8235 83.5982 67.4987C88.5446 65.8221 91.6229 60.9504 93.7979 57.887C96.3938 54.2266 96.7622 44.3955 96.7622 44.3955C96.771 44.1673 96.7709 43.9478 96.7797 43.7284V43.7108C96.4289 25.1019 81.9757 26.164 81.9757 26.164C81.9757 26.164 67.7418 26.3483 67.3208 44.7554Z" fill="#F9B384"/>
<path d="M81.3442 61.6611C82.9141 60.9413 84.8172 60.9325 86.4046 61.6347C85.8696 60.8359 85.0979 60.3619 84.1244 60.3707C83.1421 60.3883 82.0283 60.9764 81.3442 61.6611Z" fill="#8E503D"/>
<path d="M77.2136 61.705C77.2136 61.705 77.3276 61.5646 77.5206 61.3188C77.7135 61.0642 78.0292 60.7307 78.4678 60.3532C79.3272 59.5983 80.7568 58.7381 82.5283 58.3431C84.2999 57.9569 85.975 58.1412 87.0888 58.466C87.6501 58.624 88.0886 58.7996 88.378 58.94C88.6587 59.0804 88.8253 59.1594 88.8253 59.1594C88.8253 59.1594 88.6499 59.1243 88.3342 59.0629C88.0272 58.9927 87.5712 58.9224 87.0099 58.8698C85.8961 58.7557 84.3525 58.7908 82.7213 59.1419C81.09 59.5018 79.6868 60.1162 78.7309 60.678C78.2573 60.9589 77.8714 61.2134 77.6258 61.4066C77.3539 61.5909 77.2136 61.705 77.2136 61.705Z" fill="#8E503D"/>
<path d="M90.2726 53.3492C90.5182 53.99 92.281 53.9198 94.2279 53.1912C96.1661 52.4539 97.543 51.3391 97.2975 50.6983C97.0519 50.0575 95.2891 50.1278 93.3421 50.8563C91.4127 51.5849 90.0358 52.7084 90.2726 53.3492Z" fill="#FAA17F"/>
<path d="M66.7861 50.6631C66.523 51.3038 67.8648 52.4537 69.7767 53.2525C71.6974 54.0425 73.4602 54.1742 73.7233 53.5334C73.9864 52.8926 72.6446 51.7427 70.7327 50.944C68.8208 50.154 67.0492 50.0223 66.7861 50.6631Z" fill="#FAA17F"/>
<path d="M82.2127 52.7167C83.1335 52.6992 84.0369 53.2346 84.4754 54.0422C84.528 54.1387 84.5806 54.2616 84.5543 54.367C84.5192 54.5337 84.3351 54.6215 84.1684 54.6742C83.0283 55.078 81.8005 55.2272 80.599 55.1306C78.4152 54.9463 81.1427 52.7343 82.2127 52.7167Z" fill="#FAA17F"/>
<path d="M81.1602 54.5513C81.1602 54.5513 81.1602 54.4196 81.1602 54.1914C81.1602 54.0773 81.169 53.9368 81.169 53.77C81.169 53.6033 81.1778 53.4277 81.169 53.2258C81.169 53.0239 81.169 52.8045 81.1602 52.5675C81.1602 52.3305 81.1427 52.0847 81.1339 51.8301C81.1076 51.3122 81.0725 50.7505 81.0374 50.1536C80.9936 49.5655 80.941 49.0037 80.8883 48.4858C80.8533 48.2312 80.8357 47.9767 80.8006 47.7485C80.7743 47.5115 80.7393 47.3008 80.7129 47.0989C80.6866 46.897 80.6516 46.7215 80.634 46.5547C80.6077 46.3967 80.5902 46.2562 80.5638 46.1421C80.5288 45.9139 80.5112 45.7822 80.5112 45.7822C80.5112 45.7822 80.5902 45.8876 80.7305 46.0719C80.8006 46.1685 80.8796 46.2826 80.9673 46.4318C81.055 46.5722 81.1514 46.739 81.2479 46.9233C81.3444 47.1077 81.4496 47.3183 81.5373 47.5466C81.6338 47.7748 81.7215 48.0206 81.8092 48.2927C81.9671 48.8281 82.0986 49.4338 82.1512 50.0746C82.1951 50.7154 82.16 51.3386 82.0723 51.8916C82.0285 52.1637 81.9758 52.427 81.9145 52.664C81.8531 52.901 81.7829 53.1205 81.7127 53.3224C81.6513 53.5243 81.5724 53.6998 81.5023 53.849C81.4409 54.007 81.3795 54.1299 81.3181 54.2353C81.2304 54.4371 81.1602 54.5513 81.1602 54.5513Z" fill="#8E503D"/>
<path d="M92.8071 46.7829C91.8424 47.6607 90.4567 48.047 89.1762 47.7836C87.8958 47.5203 86.7732 46.6249 86.2207 45.4399C87.1766 46.0544 88.308 46.3441 89.4394 46.4933C90.5707 46.6425 91.667 46.8005 92.8071 46.7829Z" fill="#1D1E1E"/>
<path d="M70.9956 47.0813C71.9603 47.9591 73.346 48.3453 74.6264 48.082C75.9069 47.8186 77.0295 46.9233 77.5732 45.7383C76.6173 46.3527 75.4859 46.6424 74.3546 46.7916C73.232 46.9408 72.1357 47.0988 70.9956 47.0813Z" fill="#1D1E1E"/>
<path d="M94.719 58.5013C94.719 58.5013 94.8155 58.3082 94.9646 57.9483C95.1224 57.5884 95.3329 57.0617 95.5697 56.4034C95.8065 55.7451 96.0521 54.9375 96.2889 54.0334C96.5169 53.1205 96.7274 52.111 96.8764 51.0314C97.0255 49.9517 97.0957 48.9071 97.1132 47.9591C97.1308 47.0111 97.1045 46.1509 97.0606 45.4399C97.0168 44.7201 96.9554 44.1408 96.894 43.7458C96.8414 43.3508 96.8063 43.1313 96.8063 43.1313C96.8063 43.1313 96.7537 43.3508 96.6835 43.737C96.6133 44.132 96.4993 44.6938 96.3853 45.3872C96.2625 46.0807 96.1222 46.9058 95.9731 47.8187C95.824 48.7316 95.6749 49.7235 95.5346 50.7768C95.3943 51.8302 95.2715 52.8308 95.1663 53.7525C95.061 54.6742 94.9821 55.5081 94.9119 56.2103C94.8418 56.9125 94.7979 57.4918 94.7628 57.8868C94.7365 58.2731 94.719 58.5013 94.719 58.5013Z" fill="black"/>
<path d="M68.8471 57.8957C68.8471 57.8957 68.7594 57.6938 68.6279 57.3339C68.4876 56.9652 68.3034 56.4298 68.1017 55.7627C67.9 55.0868 67.6895 54.2792 67.4965 53.3576C67.3124 52.4359 67.1457 51.4177 67.0493 50.3292C66.9528 49.2408 66.9353 48.1962 66.9528 47.2482C66.9791 46.3002 67.0405 45.4488 67.1194 44.729C67.1984 44.018 67.2861 43.4386 67.365 43.0436C67.4352 42.6486 67.479 42.4292 67.479 42.4292C67.479 42.4292 67.5141 42.6486 67.5755 43.0436C67.6281 43.4386 67.707 44.0092 67.8035 44.7114C67.8912 45.4137 67.9964 46.2388 68.1017 47.1517C68.2069 48.0646 68.3122 49.074 68.3999 50.1273C68.4963 51.1807 68.5665 52.1901 68.6279 53.1118C68.6893 54.0335 68.7331 54.8761 68.7682 55.5784C68.8033 56.2894 68.8208 56.8599 68.8384 57.2637C68.8471 57.6675 68.8471 57.8957 68.8471 57.8957Z" fill="black"/>
<path d="M99.1127 44.7819L96.7535 45.9493L95.2099 37.9352C92.2193 39.1992 79.2044 36.1884 79.2044 36.1884L77.9591 30.3775L75.8981 36.6712L66.6807 45.4402L64.7951 44.8785C64.7951 44.8785 64.225 42.6752 64.0233 39.7873C63.8479 37.1715 63.9707 33.994 65.102 31.3957C68.1365 24.3911 76.2226 22.4073 78.1432 22.1878C80.0639 21.9684 86.1592 20.9238 92.3597 25.1196C95.0082 26.9103 96.6219 30.7462 97.6042 34.5558C98.9285 39.6995 99.1127 44.7819 99.1127 44.7819Z" fill="black"/>
<path d="M75.9333 38.769C77.0822 40.0593 75.2931 41.7885 73.9951 42.2011C72.5831 42.6488 70.1888 42.8331 68.9961 41.7534C69.6451 42.0343 70.3555 41.6656 71.022 41.4374C71.8815 41.1478 72.7585 40.8493 73.5303 40.3665C74.1354 39.9891 74.6879 39.48 75.0387 38.848C75.2492 38.4617 75.2492 38.1896 75.6789 38.5407C75.7754 38.611 75.8544 38.69 75.9333 38.769Z" fill="black"/>
<path d="M85.8786 36.7676C84.6069 38.1984 86.5802 40.112 88.0185 40.5684C89.5796 41.0688 92.2369 41.2706 93.5525 40.0769C92.8333 40.3929 92.0528 39.9803 91.3073 39.7257C90.3514 39.401 89.3866 39.0762 88.5359 38.5407C87.8606 38.1194 87.2555 37.5576 86.8696 36.8554C86.6328 36.4253 86.6328 36.1268 86.1592 36.5131C86.054 36.5921 85.9575 36.6798 85.8786 36.7676Z" fill="black"/>
<path d="M97.6042 34.5641C93.3069 34.3797 89.0621 32.7558 85.8435 29.8943C84.1684 28.402 82.4933 26.4885 80.2394 26.4358C77.4592 26.3744 75.5999 29.1306 73.9073 31.3426C71.6534 34.2744 67.8647 37.8294 64.0146 39.7956C63.848 37.3027 63.9532 34.3007 64.9355 31.7815C64.9881 31.6586 65.0407 31.5269 65.0933 31.4128C68.1278 24.4081 76.2139 22.4244 78.1345 22.2049C80.0552 21.9855 86.1504 20.9409 92.3509 25.1367C93.1402 25.6721 93.8331 26.3919 94.4558 27.2346C95.9116 29.2096 96.9114 31.8956 97.6042 34.5641Z" fill="black"/>
<path d="M94.4558 27.2346C93.9472 27.3312 93.4297 27.3838 92.9298 27.375C90.4742 27.3838 88.115 26.5236 85.7822 25.7424C83.4581 24.9611 81.0288 24.2238 78.5907 24.4871C73.425 25.0401 69.6539 29.8065 64.9355 31.7815C64.9882 31.6586 65.0408 31.5269 65.0934 31.4128C68.1279 24.4081 76.2139 22.4244 78.1346 22.2049C80.0553 21.9855 86.1505 20.9409 92.351 25.1367C93.1491 25.6634 93.8419 26.3831 94.4558 27.2346Z" fill="black"/>
<path d="M57.4632 78.4355C57.4632 78.4355 48.1756 81.7184 45.4218 84.0095C42.668 86.3005 35.6606 109.878 35.6606 109.878L61.3309 117.839L63.5322 100.108L57.4632 78.4355Z" fill="#65F0B1"/>
<path d="M64.6108 75.1269L48.009 113.697L39.195 110.958C39.195 110.958 37.5725 119.314 38.3618 121.544C39.1599 123.774 49.5876 131.103 49.5876 131.103C49.5876 131.103 63.6637 128.873 64.9353 126.328C66.207 123.782 72.4075 75.0918 72.4075 75.0918L64.6108 75.1269Z" fill="#EBA77A"/>
<path d="M63.9618 51.9007C65.4177 52.1289 62.7165 61.9776 62.7165 61.9776L65.0055 63.6454L66.5227 59.634L71.2498 55.5523C71.2498 55.5523 72.3549 56.0526 73.6704 56.7548C73.837 56.8426 74.0037 56.9304 74.1703 57.027C74.9508 57.4571 75.7665 57.9311 76.433 58.4051C76.5031 58.449 76.5645 58.4929 76.6259 58.5367C76.9592 58.7825 77.8888 59.7217 77.9415 59.9324L75.0385 63.8385C75.0385 63.8385 76.6873 70.3429 76.4242 71.326C76.319 71.721 69.908 77.3037 69.1801 77.9006L65.1107 76.224C65.1107 76.224 61.436 67.9027 61.2519 67.4199C60.5853 65.6731 59.9977 63.7508 59.8662 62.1795C59.8136 61.5124 59.8399 60.9068 59.989 60.4064C60.9625 56.948 62.506 51.6725 63.9618 51.9007Z" fill="#EBA77A"/>
<path d="M76.4332 58.4053C76.5034 58.4492 76.5648 58.4931 76.6261 58.5369C76.4858 58.6862 76.3017 58.8705 76.0736 59.0987C75.565 59.6166 74.8984 60.3364 74.188 61.1176C73.4864 61.9076 72.8988 62.6625 72.5217 63.2857C72.4252 63.4437 72.3463 63.5842 72.2674 63.7071C72.206 63.8387 72.1446 63.9528 72.1008 64.0494C72.0043 64.2337 71.9517 64.3478 71.9517 64.3478C71.9517 64.3478 71.9517 64.225 71.9604 63.9967C71.9604 63.8826 71.9692 63.751 71.9867 63.5842C72.0131 63.4262 72.0481 63.2506 72.092 63.0575C72.2674 62.2851 72.7322 61.2493 73.5127 60.3803C74.2933 59.5201 75.1615 58.9758 75.8105 58.6598C76.0473 58.5545 76.2578 58.4667 76.4332 58.4053Z" fill="#8E503D"/>
<path d="M73.6617 56.7637C73.8283 56.8515 73.9949 56.9392 74.1616 57.0358C74.1352 57.0709 74.1002 57.0972 74.0739 57.1323C73.5652 57.6502 72.8987 58.37 72.1883 59.1512C71.4779 59.9412 70.8903 60.6961 70.5132 61.3194C70.4167 61.4774 70.3378 61.6178 70.2588 61.7407C70.1887 61.8724 70.1361 61.9865 70.0922 62.083C69.9957 62.2761 69.9431 62.3815 69.9431 62.3815C69.9431 62.3815 69.9431 62.2586 69.9519 62.0391C69.9607 61.925 69.9607 61.7934 69.9782 61.6266C70.0045 61.4686 70.0396 61.293 70.0834 61.0999C70.2676 60.3187 70.7324 59.2917 71.5042 58.4227C72.2321 57.6063 73.0302 57.0797 73.6617 56.7637Z" fill="#8E503D"/>
<path d="M106.892 78.4355C106.892 78.4355 116.179 81.7184 118.933 84.0095C121.696 86.3005 128.694 109.878 128.694 109.878L103.024 117.839L100.823 100.108L106.892 78.4355Z" fill="#65F0B1"/>
<path d="M99.7354 75.1269L116.337 113.697L125.151 110.958C125.151 110.958 126.774 119.314 125.984 121.544C125.186 123.774 114.759 131.103 114.759 131.103C114.759 131.103 100.683 128.873 99.4109 126.328C98.1392 123.782 91.9387 75.0918 91.9387 75.0918L99.7354 75.1269Z" fill="#EBA77A"/>
<path d="M100.384 51.9007C98.9286 52.1289 101.63 61.9776 101.63 61.9776L99.3408 63.6454L97.8235 59.634L93.0964 55.5523C93.0964 55.5523 91.9914 56.0526 90.6759 56.7548C90.5092 56.8426 90.3426 56.9304 90.176 57.027C89.3954 57.4571 88.5798 57.9311 87.9133 58.4051C87.8431 58.449 87.7817 58.4929 87.7203 58.5367C87.387 58.7825 86.4574 59.7217 86.4048 59.9324L89.3077 63.8385C89.3077 63.8385 87.6589 70.3429 87.922 71.326C88.0273 71.721 94.4382 77.3037 95.1662 77.9006L99.2355 76.224C99.2355 76.224 102.91 67.9027 103.094 67.4199C103.761 65.6731 104.349 63.7508 104.48 62.1795C104.533 61.5124 104.506 60.9068 104.357 60.4064C103.393 56.948 101.84 51.6725 100.384 51.9007Z" fill="#EBA77A"/>
<path d="M87.9132 58.4053C87.843 58.4492 87.7816 58.4931 87.7202 58.5369C87.8605 58.6862 88.0447 58.8705 88.2727 59.0987C88.7814 59.6166 89.4479 60.3364 90.1583 61.1176C90.8599 61.9076 91.4475 62.6625 91.8334 63.2857C91.9299 63.4437 92.0088 63.5842 92.0878 63.7071C92.1492 63.8387 92.2105 63.9528 92.2544 64.0494C92.3509 64.2337 92.4035 64.3478 92.4035 64.3478C92.4035 64.3478 92.4035 64.225 92.3947 63.9967C92.3859 63.8826 92.3859 63.751 92.3684 63.5842C92.3421 63.4262 92.307 63.2506 92.2632 63.0575C92.0878 62.2851 91.6229 61.2493 90.8424 60.3803C90.0619 59.5201 89.1936 58.9758 88.5446 58.6598C88.299 58.5545 88.0886 58.4667 87.9132 58.4053Z" fill="#8E503D"/>
<path d="M90.6845 56.7637C90.5178 56.8515 90.3512 56.9392 90.1846 57.0358C90.2109 57.0709 90.246 57.0972 90.2723 57.1323C90.7809 57.6502 91.4475 58.37 92.1579 59.1512C92.8682 59.9412 93.4558 60.6961 93.833 61.3194C93.9294 61.4774 94.0084 61.6178 94.0873 61.7407C94.1574 61.8724 94.2101 61.9865 94.2539 62.083C94.3504 62.2761 94.403 62.3815 94.403 62.3815C94.403 62.3815 94.403 62.2586 94.3942 62.0391C94.3855 61.925 94.3855 61.7934 94.3679 61.6266C94.3416 61.4686 94.3065 61.293 94.2627 61.0999C94.0785 60.3187 93.6137 59.2917 92.8419 58.4227C92.114 57.6063 91.3159 57.0797 90.6845 56.7637Z" fill="#8E503D"/>
<path d="M29.2321 34.5913L37.8882 28.8682L40.5017 40.2179L50.1576 33.0201L52.0958 53.0422L46.86 42.86L37.0638 52.1469L29.2321 34.5913Z" fill="white"/>
<path d="M48.272 12.0145L49.6489 22.0739L56.551 18.7032L58.6909 28.0252L59.9363 13.5857L53.3411 16.4736L52.9114 9.61816L48.272 12.0145Z" fill="white"/>
<path d="M119.53 31.6946L115.469 41.0079L109.742 35.8729L105.146 44.2645L107.883 30.0269L113.443 34.6089L115.723 28.1309L119.53 31.6946Z" fill="white"/>
<path d="M101.402 18.106C99.0863 16.4821 96.3412 15.7008 93.5874 15.6745C93.3068 14.9898 92.8419 14.3403 92.307 13.7434C94.3855 14.1647 96.4377 14.7177 98.4636 15.2795C99.0337 15.4463 99.63 14.7616 99.2705 14.2349C97.6305 11.8386 95.6045 9.58271 93.2892 7.69548C94.7275 5.70292 95.894 3.50847 96.6657 1.20868C96.8061 0.787348 96.5079 0.401125 96.1308 0.26068C93.0524 -0.854101 90.246 1.80557 88.2902 4.46525C87.8079 4.22825 87.3343 4.00003 86.8432 3.80691C84.5191 2.88524 81.9582 3.22758 80.9146 5.74681C80.7391 6.17692 80.6339 6.62459 80.5813 7.07226C78.4852 6.8967 76.4769 7.67793 75.9857 10.0918C75.7402 11.268 75.9506 12.3126 76.4155 13.2694C75.5823 13.7258 74.8456 14.3315 74.3983 15.1391C73.6616 16.5084 74.3282 18.0709 75.8805 18.3781C77.4766 18.6853 79.4236 17.8075 80.8882 17.2457C81.7565 16.9122 82.616 16.5347 83.4491 16.1134C83.265 17.4037 83.186 18.7029 83.2386 19.9932C83.2562 20.555 83.9139 20.8271 84.3349 20.4409C85.3172 19.528 86.4397 18.8082 87.6325 18.264C87.8342 18.4044 88.0184 18.5624 88.2289 18.7029C89.2111 19.3436 90.3425 19.9756 91.5527 19.8352C92.7542 19.7035 93.6137 18.7994 93.8242 17.632C93.8681 17.4388 93.8768 17.2457 93.8768 17.0526C96.2886 17.158 98.6916 17.869 100.753 19.2207C101.454 19.6772 102.068 18.58 101.402 18.106ZM96.8587 13.3572C94.6398 12.7427 92.4122 12.1546 90.1495 11.7772C90.0618 11.7069 89.9741 11.6367 89.8952 11.5753C89.9566 11.5226 90.018 11.4699 90.0706 11.4085C90.9037 10.6185 91.6843 9.75827 92.4122 8.84537C94.061 10.1796 95.5432 11.6894 96.8587 13.3572ZM90.3337 4.20192C91.3861 2.99936 93.1314 1.15602 94.9029 1.45446C94.1049 3.30658 93.1314 5.06214 91.9737 6.66848C91.2019 6.11548 90.3951 5.60636 89.5707 5.14114C89.8162 4.82514 90.0706 4.50914 90.3337 4.20192ZM88.7112 6.33492C89.5181 6.80015 90.3074 7.2917 91.0704 7.82715C90.2898 8.79271 89.4479 9.7056 88.5358 10.5483C88.0096 10.1796 87.4658 9.81971 86.9133 9.49493C87.0098 9.27549 87.1063 9.06482 87.2203 8.84537C87.6676 7.98515 88.1587 7.14248 88.7112 6.33492ZM82.5019 6.08037C83.4579 3.99125 85.7644 4.79881 87.4659 5.65025C87.1414 6.14181 86.8519 6.60703 86.6064 7.02837C86.2643 7.59893 85.9574 8.20459 85.6592 8.81026C84.5717 8.24848 83.4316 7.7657 82.2564 7.39704C82.2476 7.39704 82.2301 7.38826 82.2125 7.38826C82.2213 6.94059 82.309 6.51048 82.5019 6.08037ZM78.5905 9.02093C79.2219 8.6786 79.9761 8.74882 80.6865 8.93315C80.8795 9.85482 81.2566 10.7589 81.7126 11.6104C80.8181 11.7508 79.9411 11.9352 79.0904 12.1985C78.6606 12.3302 78.1958 12.4794 77.7398 12.6549C77.5731 12.1897 77.4679 11.6982 77.4854 11.1803C77.503 10.3464 77.8187 9.43349 78.5905 9.02093ZM77.617 16.5084C77.0294 16.6488 75.5735 16.9648 76.0383 15.9291C76.2664 15.4287 76.8715 15.0776 77.424 14.8143C77.8275 15.3058 78.2835 15.7711 78.7483 16.2187C78.3712 16.3241 77.9941 16.4206 77.617 16.5084ZM79.9937 15.7974C79.5464 15.3322 79.0816 14.8231 78.6782 14.2876C79.3359 14.0243 80.0025 13.7961 80.6865 13.6205C81.3531 13.4537 82.0284 13.3308 82.7037 13.2343C82.9405 13.5854 83.1948 13.9102 83.4491 14.2437C82.3353 14.8494 81.1864 15.3673 79.9937 15.7974ZM83.6596 11.3822C83.3176 10.8467 82.9755 10.2498 82.7124 9.6266C83.4491 9.92504 84.1683 10.2586 84.8699 10.636C84.7822 10.873 84.6857 11.11 84.598 11.347C84.2911 11.3558 83.9753 11.3646 83.6596 11.3822ZM84.5805 18.58C84.6419 17.6846 84.7471 16.7981 84.8962 15.9291C85.3873 16.4382 85.9135 16.9297 86.4661 17.3862C85.8083 17.7285 85.1768 18.1323 84.5805 18.58ZM88.0447 16.1924C87.3781 15.6921 86.7555 15.1303 86.1591 14.5334C86.8256 14.0945 87.4658 13.6293 88.0973 13.1377C88.3166 13.1553 88.5446 13.1728 88.7726 13.1992C89.7549 13.9716 90.702 14.8494 91.351 15.8237C90.3775 15.9554 89.4128 16.1836 88.4832 16.5084C88.3341 16.4031 88.185 16.2977 88.0447 16.1924ZM90.6933 17.7461C90.4389 17.6758 90.1934 17.5705 89.9478 17.4476C90.5705 17.2896 91.1932 17.1843 91.8246 17.1228C91.7983 17.6232 91.4738 17.9743 90.6933 17.7461Z" fill="#37274C"/>
</svg>
