<svg width="204" height="150" viewBox="0 0 204 150" fill="none" xmlns="http://www.w3.org/2000/svg">
<path d="M188.971 124.911C188.953 124.911 188.936 124.913 188.919 124.913L189.071 122.261H175.589L176.239 133.513C176.36 135.623 178.104 137.27 180.216 137.27H184.444C186.555 137.27 188.299 135.623 188.422 133.513L188.571 130.917C188.703 130.929 188.835 130.936 188.971 130.936C190.939 130.936 192.54 129.585 192.54 127.924C192.54 126.263 190.938 124.911 188.971 124.911ZM188.971 129.689C188.859 129.689 188.75 129.681 188.643 129.669L188.846 126.164C188.887 126.162 188.928 126.16 188.971 126.16C190.252 126.16 191.293 126.951 191.293 127.925C191.293 128.897 190.251 129.689 188.971 129.689Z" fill="#EE6F57"/>
<path d="M183.695 121.241C182.372 121.069 181.125 120.302 180.276 119.208C179.852 118.658 179.513 118.025 179.325 117.337C179.271 117.167 179.24 116.993 179.202 116.819C179.178 116.644 179.144 116.469 179.135 116.293C179.098 115.94 179.112 115.586 179.14 115.234C179.209 114.532 179.401 113.844 179.715 113.211C179.87 112.894 180.055 112.591 180.27 112.311C180.48 112.03 180.732 111.763 180.971 111.544C181.208 111.323 181.437 111.132 181.633 110.941C181.732 110.846 181.823 110.753 181.904 110.656C181.985 110.559 182.054 110.461 182.105 110.37C182.219 110.179 182.288 109.943 182.294 109.722C182.302 109.498 182.251 109.294 182.107 109.127L182.446 108.632C182.628 108.723 182.789 108.871 182.91 109.041C183.029 109.214 183.108 109.407 183.155 109.601C183.248 109.994 183.219 110.392 183.102 110.774C182.833 111.54 182.322 112.041 181.942 112.489C181.749 112.715 181.59 112.914 181.449 113.143C181.374 113.253 181.314 113.373 181.245 113.487C181.189 113.607 181.123 113.723 181.074 113.848C180.858 114.335 180.726 114.86 180.666 115.39C180.553 116.456 180.784 117.521 181.351 118.457C181.922 119.389 182.788 120.169 183.855 120.663L183.695 121.241Z" fill="#E5ECFF"/>
<path d="M184.099 118.084C184.641 117.603 185.081 117.084 185.415 116.515C185.751 115.95 185.981 115.343 186.086 114.725C186.19 114.108 186.174 113.463 186.057 112.818C185.937 112.172 185.71 111.536 185.379 110.886L185.816 110.474C186.517 110.921 187.045 111.636 187.353 112.431C187.664 113.229 187.754 114.127 187.595 114.993C187.437 115.86 187.035 116.663 186.471 117.303C185.906 117.94 185.172 118.428 184.368 118.62L184.099 118.084Z" fill="#E5ECFF"/>
<path d="M77.6775 139.949C60.4614 136.613 48.301 126.573 42.6563 111.021C33.6773 86.2832 43.2984 49.8153 69.0369 41.8038C79.2308 38.6306 91.7481 44.3125 102.221 44.2355C116.93 44.1269 130.157 35.0927 144.769 36.2445C163.792 37.7437 177.696 55.2834 181.264 73.0793C182.488 79.1879 182.631 85.5092 181.65 91.6579C180.585 98.3397 178.415 104.886 175.123 110.675C172.287 115.663 165.728 122.267 160.148 123.597C160.147 123.598 77.6775 139.949 77.6775 139.949Z" stroke="#64BC62" stroke-width="3.8197" stroke-miterlimit="10"/>
<path d="M123.76 137.187C140.775 132.983 153.776 120.285 158.259 105.756C165.389 82.6435 152.975 50.1271 126.552 44.5874C121.185 43.4627 115.529 43.7472 110.083 44.3768C101.189 45.4059 92.0646 46.6989 83.1008 46.4123C74.3832 46.1333 65.9302 43.5691 57.1443 43.7667C28.1084 44.4213 10.7198 72.172 17.3841 97.5843C18.9591 103.59 21.6306 109.397 25.3717 114.439C28.5954 118.784 35.674 124.345 41.3708 125.175C41.3719 125.175 123.76 137.187 123.76 137.187Z" stroke="#64BC62" stroke-width="3.75" stroke-miterlimit="10"/>
<path d="M166.461 109.461C161.897 122.678 156.446 135.73 137.489 140.769L55.55 139.897C37.0854 131.169 26.9957 113.935 25.3166 95.3427C24.7612 89.1983 25.1246 82.9019 26.4121 76.7196C26.7484 75.0912 27.1497 73.4704 27.6161 71.8638C31.8485 57.2573 40.8091 43.4867 54.1366 35.7194C62.7002 30.7279 73.6772 32.3758 82.7723 34.9377C90.9725 37.2468 98.9829 40.4818 107.449 41.4567C114.193 42.2296 121.054 41.5435 127.819 41.8095C130.24 41.9039 132.646 42.121 135.032 42.5694C145.252 44.4908 154.313 50.7633 160.53 59.1483C162.672 62.0306 164.476 65.1625 165.878 68.4518C171.353 81.3192 171.024 96.2437 166.461 109.461Z" fill="#64BC62"/>
<path d="M10.5909 129.474C10.2177 124.933 12.7581 120.038 17.2205 116.697C21.2848 113.655 26.2993 112.104 31.1131 110.882C57.8593 104.087 86.1099 104.898 113.431 105.682C137.847 106.383 163.094 107.106 187.265 102.422C190.706 101.755 194.324 100.943 197.401 99.0325C200.707 96.9796 202.8 93.763 202.864 90.6398C202.983 84.782 196.643 80.7676 192.853 78.896C178.46 71.7877 160.75 69.1139 137.122 70.4795C119.339 71.5076 101.503 74.3735 84.1065 78.997C80.1973 80.0359 76.2252 81.1855 72.3854 82.2961C58.6359 86.2747 44.42 90.3869 29.9189 90.3869C29.8462 90.3869 29.7735 90.3869 29.7009 90.3869C25.7645 90.376 20.711 89.5781 18.9885 85.8405C17.7737 83.2025 18.7954 80.1976 19.8671 78.1416C23.4487 71.2687 30.2248 67.263 35.2783 65.1124C40.9555 62.697 47.1242 61.3845 53.0899 60.1144C53.7982 59.9635 54.5065 59.8126 55.2126 59.6606C68.5402 56.7871 81.8612 53.1938 94.8058 48.9785C100.948 46.9778 104.102 44.3768 104.444 41.0267C104.748 38.0554 102.569 35.4522 100.275 34.1919C97.5251 32.6807 94.2776 32.4853 91.7546 32.4832C91.7427 32.4832 91.7308 32.4832 91.7188 32.4832C84.1054 32.4832 76.5517 34.3525 69.8678 37.8915C67.385 39.2062 64.9889 40.7694 62.6731 42.2816C59.6056 44.2834 56.434 46.3536 53.0162 47.8767C46.405 50.8208 38.579 51.9053 29.754 51.0998C22.9411 50.4777 17.7476 48.8038 13.8764 45.9813C11.5411 44.278 9.59187 42.0819 7.70669 39.9574C5.41258 37.3759 3.04363 34.7064 0 32.9717L0.201751 32.6178C3.30395 34.3851 5.69568 37.0806 8.00823 39.6871C9.87931 41.7953 11.8133 43.9751 14.1128 45.6523C17.9223 48.4303 23.0496 50.0793 29.7876 50.6948C38.541 51.4938 46.3009 50.4202 52.848 47.5054C56.2377 45.9965 59.3952 43.9349 62.4486 41.9418C64.7731 40.4242 67.1767 38.8555 69.6758 37.5322C76.4172 33.9628 84.0382 32.0771 91.7166 32.0771C91.7286 32.0771 91.7405 32.0771 91.7524 32.0771C94.3231 32.0793 97.6379 32.2812 100.468 33.8358C102.88 35.1613 105.169 37.9121 104.847 41.069C104.486 44.5971 101.242 47.3111 94.9295 49.3661C81.9729 53.5857 68.6378 57.1833 55.2962 60.059C54.589 60.211 53.8807 60.3619 53.1724 60.5128C47.225 61.7786 41.0759 63.0867 35.4356 65.4869C30.4428 67.6103 23.7524 71.5629 20.2261 78.3294C19.1968 80.3051 18.2097 83.1819 19.3562 85.67C20.9887 89.2123 25.8817 89.9689 29.6998 89.9798C29.7714 89.9798 29.8451 89.9798 29.9167 89.9798C44.3604 89.9798 58.547 85.8752 72.2704 81.9053C76.1124 80.7936 80.0866 79.644 84.0002 78.604C101.423 73.9729 119.287 71.1027 137.097 70.0735C160.799 68.7024 178.573 71.3903 193.032 78.5313C196.908 80.4462 203.394 84.566 203.27 90.6485C203.204 93.9085 201.037 97.2543 197.614 99.3787C194.478 101.326 190.82 102.147 187.341 102.821C163.127 107.514 137.856 106.79 113.418 106.089C86.1262 105.306 57.9038 104.496 31.2118 111.277C26.4392 112.489 21.4703 114.024 17.4634 117.024C13.1128 120.282 10.6343 125.04 10.9965 129.442L10.5909 129.474Z" fill="white"/>
<path d="M128.827 129.633C134.359 131.053 141.96 132.325 139.537 137.059L125.755 137.046L128.827 129.633Z" fill="#E28B6D"/>
<path d="M71.6044 140.77H58.2726C53.7201 140.77 50.03 137.076 50.03 132.52V105.269C50.03 100.713 53.7201 97.0195 58.2726 97.0195H71.6044C76.1568 97.0195 79.8469 100.713 79.8469 105.269V132.519C79.8469 137.075 76.1568 140.77 71.6044 140.77Z" fill="#102048"/>
<path opacity="0.8" d="M56.6694 101.054C56.1682 101.185 55.8309 101.642 55.6053 102.11C55.3743 102.585 55.2311 103.106 55.115 103.629C54.8883 104.677 54.782 105.754 54.7224 106.832C54.6128 108.989 54.6573 111.157 54.7896 113.317C54.9122 115.479 55.1107 117.638 55.371 119.789C55.4968 120.864 55.6422 121.938 55.8081 123.009C55.9665 124.081 56.1455 125.15 56.3635 126.212L56.2084 126.247C55.9491 125.19 55.7268 124.125 55.5283 123.056C55.3385 121.986 55.1693 120.911 55.0196 119.834C54.7289 117.679 54.5152 115.512 54.3883 113.34C54.2777 111.168 54.2234 108.987 54.3807 106.809C54.4642 105.722 54.5879 104.633 54.8482 103.565C54.9859 103.034 55.1508 102.504 55.4122 102.011C55.5435 101.766 55.6986 101.528 55.8982 101.326C56.0967 101.124 56.3494 100.961 56.6347 100.899L56.6694 101.054Z" fill="white"/>
<path d="M61.7705 103.937C61.7705 103.937 62.6144 121.06 67.925 139.897H82.4359L61.7705 103.937Z" fill="#1F3C88"/>
<path d="M68.4274 95.1946C64.7807 93.2091 63.7806 88.2903 66.4435 85.0955C66.6995 84.7883 66.9848 84.4767 67.2994 84.163C71.368 80.1072 68.8331 76.0483 68.2647 66.7166C67.6964 57.3937 78.0735 54.848 78.0941 54.8425C78.5833 54.7231 79.5303 53.3249 79.9305 52.9775C84.6142 48.912 91.3327 49.2116 96.4676 52.3066C98.9103 53.7787 101.368 56.0464 102.69 58.6464C104.787 62.7716 105.167 68.206 108.697 71.4183C113.731 75.9972 119.314 79.8847 119.089 87.2699C119.008 89.8937 118.352 92.6652 116.756 94.768C115.363 96.6004 113.242 97.8304 111.329 99.0159C108.218 100.943 104.934 102.647 101.459 103.791C98.0957 104.9 94.6953 105.895 91.2861 106.845C90.9639 106.935 90.6418 107.024 90.3186 107.112L68.4274 95.1946Z" fill="black"/>
<path d="M92.1582 91.1629C104.347 86.9747 110.967 100.628 120.069 127.268L128.828 129.634L127.811 139.121L124.615 139.787L98.522 139.897L92.1582 91.1629Z" fill="#65F0B1"/>
<path d="M196.003 136.753H10.6689V143.146H196.003V136.753Z" fill="#E5ECFF"/>
<path d="M74.9874 89.1772L102.243 96.0055L113.695 130.348L75.4398 131.514L72.9092 106.122L74.9874 89.1772Z" fill="#65F0B1"/>
<path opacity="0.3" d="M75.9486 103.937C82.6454 110.684 81.1648 120.571 86.8855 121.553C90.6721 122.202 101.435 123.741 106.57 125.883C107.608 126.316 110.475 128.45 110.032 130.343C109.745 131.563 105.925 130.586 105.925 130.586L77.324 127.713L71.2671 113.688L75.9486 103.937Z" fill="#1F3C88"/>
<path d="M99.4753 128.669C99.6695 128.362 103.771 127.548 104.234 127.611C105.759 127.82 106.592 129.016 106.96 129.93L100.892 133.133L99.4753 128.669Z" fill="#102048"/>
<path d="M104.015 103.906L104.719 105.512C104.95 106.048 105.167 106.591 105.391 107.132C105.823 108.217 106.241 109.31 106.632 110.412C107.425 112.613 108.127 114.843 108.785 117.087C109.432 119.334 110.013 121.6 110.527 123.881C110.775 125.024 111.015 126.168 111.228 127.318C111.436 128.469 111.615 129.625 111.767 130.784L111.616 130.806C111.425 129.655 111.206 128.511 110.961 127.371C110.727 126.229 110.466 125.092 110.197 123.958C109.656 121.689 109.063 119.434 108.414 117.195C107.778 114.952 107.069 112.73 106.322 110.522C105.953 109.416 105.552 108.321 105.146 107.228C104.939 106.683 104.741 106.135 104.527 105.592L103.875 103.968L104.015 103.906Z" fill="#102048"/>
<path d="M125.802 134.464C125.802 134.464 124.655 135.821 121.035 134.499C119.329 134.698 116.157 134.546 110.123 133.56C110.123 133.56 112.314 135.093 117.267 135.357C117.267 135.357 117.056 136.817 114.445 136.752C111.302 136.673 110.938 136.483 108.076 136.602C107.49 136.627 106.216 136.6 104.835 136.557C102.427 136.478 99.6912 136.35 99.6912 136.35L97.3049 132.082L102.067 129.799C103.529 129.226 104.258 129.028 104.968 128.928C108.043 128.491 109.985 128.144 112.189 128.524C114.637 128.943 122.119 131.427 125.802 134.464Z" fill="#F9B384"/>
<path d="M104.967 136.483L104.835 136.557C102.427 136.478 99.6912 136.35 99.6912 136.35L97.3049 132.082L102.067 129.799C103.529 129.226 104.258 129.028 104.968 128.928C103.218 129.641 101.784 131.514 104.967 136.483Z" fill="#E28B6D"/>
<path d="M86.2226 91.1161C80.0269 89.846 64.9292 88.7886 60.7108 96.6113C57.2377 103.052 65.9433 124.618 69.7148 132.204C71.267 135.326 75.7738 136.871 77.5267 136.883L102.419 136.74C100.744 136.351 98.5978 127.357 104.235 127.612L83.6194 124.738C82.8156 124.626 82.0986 124.176 81.6507 123.499C81.3524 123.047 81.0064 122.477 80.8296 121.83L74.9788 100.379L86.2226 91.1161Z" fill="#65F0B1"/>
<path d="M141.3 136.882L117.014 136.867V134.574H141.441L141.3 136.882Z" fill="white"/>
<path d="M161.819 136.882L132.522 136.873L143.209 105.6L172.505 105.61L161.819 136.882Z" fill="#102048"/>
<path d="M154.873 122.911C153.975 124.347 152.297 124.935 151.017 124.306C150.941 124.27 150.868 124.23 150.795 124.184C149.49 123.37 149.206 121.476 150.155 119.958C151.104 118.438 152.93 117.868 154.233 118.686C154.626 118.932 154.926 119.274 155.128 119.676C155.595 120.606 155.535 121.852 154.873 122.911Z" fill="white"/>
<path d="M154.874 122.911C153.975 124.347 151.769 125.389 150.222 123.683C153.577 123.988 154.707 121.788 154.644 119.008C155.792 120.278 155.535 121.853 154.874 122.911Z" fill="#65F0B1"/>
<path d="M112.202 128.445C113.447 128.628 114.652 128.977 115.846 129.348C117.041 129.723 118.214 130.16 119.368 130.645C120.527 131.119 121.658 131.665 122.756 132.269C123.848 132.884 124.911 133.567 125.851 134.404L125.751 134.526C125.253 134.156 124.74 133.809 124.208 133.492C123.681 133.166 123.139 132.866 122.588 132.583C121.489 132.011 120.363 131.484 119.212 131.018C118.076 130.516 116.908 130.091 115.738 129.675C115.152 129.469 114.562 129.274 113.968 129.093C113.375 128.907 112.777 128.737 112.174 128.603L112.202 128.445Z" fill="black"/>
<path d="M111.718 134.231L113.028 134.607C113.466 134.724 113.904 134.825 114.345 134.915C114.786 135.006 115.23 135.076 115.677 135.139C116.124 135.197 116.573 135.242 117.023 135.287L117.173 135.302L117.185 135.432C117.201 135.609 117.183 135.757 117.136 135.916C117.088 136.07 117.001 136.221 116.874 136.329C116.747 136.436 116.597 136.504 116.447 136.537C116.373 136.555 116.298 136.558 116.224 136.568L116.004 136.563V136.403L116.2 136.374C116.262 136.355 116.327 136.346 116.384 136.322C116.503 136.279 116.604 136.212 116.681 136.13C116.758 136.047 116.81 135.945 116.835 135.832C116.86 135.723 116.862 135.589 116.843 135.489L117.005 135.634C116.085 135.616 115.163 135.507 114.263 135.298C113.813 135.195 113.37 135.061 112.935 134.907C112.499 134.757 112.078 134.574 111.663 134.382L111.718 134.231Z" fill="black"/>
<path d="M110.609 131.071C111.662 131.205 112.721 131.31 113.781 131.417C114.84 131.534 115.902 131.636 116.96 131.805C118.015 131.973 119.063 132.165 120.111 132.355C121.159 132.547 122.207 132.739 123.252 132.951L123.499 133.001L123.394 133.231C123.324 133.381 123.258 133.607 123.124 133.795C123.066 133.895 122.975 133.971 122.899 134.057C122.809 134.123 122.72 134.198 122.625 134.252C122.241 134.476 121.83 134.552 121.427 134.632C120.619 134.764 119.813 134.759 119.014 134.731C118.613 134.716 118.214 134.7 117.816 134.664C117.418 134.635 117.02 134.605 116.624 134.556C115.831 134.473 115.043 134.36 114.254 134.246L114.274 134.089C115.065 134.154 115.855 134.242 116.647 134.288C117.043 134.319 117.438 134.344 117.834 134.361C118.23 134.386 118.624 134.394 119.019 134.398C119.807 134.401 120.601 134.387 121.363 134.26C121.736 134.185 122.121 134.104 122.426 133.919C122.503 133.876 122.566 133.818 122.637 133.768C122.689 133.703 122.758 133.652 122.796 133.577C122.895 133.44 122.939 133.276 123.031 133.063L123.173 133.343C121.082 132.949 118.993 132.527 116.899 132.164C115.857 131.974 114.8 131.846 113.744 131.705C112.689 131.558 111.631 131.424 110.58 131.229L110.609 131.071Z" fill="black"/>
<path d="M10.6689 136.753H196.004" stroke="#102048" stroke-width="5" stroke-miterlimit="10"/>
<path d="M83.1737 99.2441C84.074 99.8575 85.0763 100.305 86.1241 100.551C87.1708 100.793 88.262 100.857 89.3174 100.674C90.3728 100.507 91.3902 100.098 92.246 99.458C93.1094 98.8273 93.7939 97.9631 94.2755 96.9883L94.4219 97.0512C94.3091 97.3042 94.193 97.5582 94.0737 97.8112C93.9381 98.0543 93.7776 98.2856 93.629 98.5244C93.4641 98.7513 93.2667 98.9543 93.0867 99.1703C92.8925 99.3733 92.6701 99.5492 92.4619 99.7413C91.5746 100.444 90.4953 100.892 89.3835 101.072C88.2696 101.244 87.1209 101.184 86.0405 100.884C84.9591 100.59 83.9395 100.077 83.0793 99.3711L83.1737 99.2441Z" fill="#102048"/>
<path d="M76.0212 103.916L77.3803 108.54L78.7177 113.169L80.041 117.803L80.6994 120.12L81.0281 121.28C81.1409 121.667 81.2342 122.061 81.386 122.398C81.6843 123.098 82.2874 123.616 82.9708 123.973C83.6617 124.327 84.4275 124.546 85.2009 124.717C85.9786 124.884 86.765 124.997 87.5633 125.1L89.9486 125.424L94.7179 126.085L99.484 126.771L99.4645 126.922L94.6821 126.354L89.903 125.761L87.5145 125.457C86.7205 125.358 85.9157 125.247 85.1228 125.08C84.331 124.909 83.537 124.689 82.795 124.313C82.064 123.938 81.3676 123.354 81.0346 122.558C80.9858 122.463 80.9511 122.362 80.9185 122.261C80.886 122.161 80.848 122.058 80.8242 121.964L80.6626 121.384L80.3382 120.224L79.6907 117.903L78.4021 113.26L77.1276 108.612L75.8748 103.958L76.0212 103.916Z" fill="#102048"/>
<path d="M91.5029 81.4165L92.7232 91.9336C93.0865 95.0644 89.7902 97.6871 86.4483 96.8198C84.5381 96.3236 82.5467 95.0003 80.4868 93.0115C80.0627 92.6034 79.8056 92.0736 79.7482 91.5102L78.4465 78.835L91.5029 81.4165Z" fill="#F9B384"/>
<path d="M91.6687 82.8474L92.3336 88.5738C89.6338 88.9972 85.8277 87.4785 81.9651 82.3491L91.6687 82.8474Z" fill="#3C1C16"/>
<path d="M98.3287 73.8455C98.1726 75.7529 97.8721 77.7449 97.3373 79.5351C96.4338 82.5432 94.8588 84.9706 92.159 85.42C84.2105 86.7422 78.4508 78.8338 78.4508 78.8338L77.5266 68.0724L82.3242 59.7666L93.0658 59.4551L98.3038 65.657C98.3027 65.6559 98.6813 69.5249 98.3287 73.8455Z" fill="#F9B384"/>
<path d="M77.2675 72.1607C81.5346 71.8426 82.5163 68.2331 82.8081 63.5553C82.8081 63.5553 94.3654 60.6904 98.4676 68.9126L101.579 69.2502L92.158 56.7324L77.5148 58.4813L74.6501 67.9953L77.2675 72.1607Z" fill="black"/>
<path d="M79.5246 70.7584C79.0224 70.2048 78.2729 69.9225 77.5309 70.0126C74.6967 70.3557 74.2042 74.1129 74.8518 75.7108C75.8215 78.1035 78.4475 78.8319 78.4475 78.8319L80.7036 76.4436C80.8859 73.9576 80.6028 71.9482 79.5246 70.7584Z" fill="#F9B384"/>
<path opacity="0.15" d="M79.5713 81.7183C81.1289 86.1518 85.9211 98.6696 78.094 98.3548C74.3215 98.2028 71.0067 90.8805 65.6299 92.2625C66.2232 91.9759 66.8903 91.7154 67.6409 91.4852L79.5713 81.7183Z" fill="#3C1C16"/>
<path d="M78.4487 78.833C79.9586 81.7033 84.1823 95.9027 76.9876 95.082C73.5199 94.6868 72.6684 90.5063 67.6409 91.4855L78.4487 78.833Z" fill="black"/>
<path d="M78.6959 73.3603C78.7068 73.027 78.6015 72.7209 78.4377 72.4625C78.2696 72.2063 78.0364 71.9936 77.7718 71.8763C77.5082 71.7569 77.2218 71.7341 76.9506 71.8318C76.6773 71.9295 76.4322 72.1445 76.1925 72.3941L76.0178 72.2899C76.1545 71.948 76.3899 71.6093 76.7641 71.4139C76.8574 71.3672 76.9528 71.3194 77.0591 71.3031C77.1632 71.2782 77.2685 71.2564 77.3758 71.2651L77.5364 71.2706L77.6915 71.3031C77.7967 71.3205 77.8932 71.3607 77.9876 71.4052C78.364 71.5821 78.659 71.8883 78.8282 72.2508C79.0018 72.6091 79.0365 73.0411 78.8955 73.4016L78.6959 73.3603Z" fill="#3C1C16"/>
<path d="M93.9031 71.7571C93.9291 72.4888 94.3543 73.0674 94.8544 73.0501C95.3544 73.0327 95.7384 72.4259 95.7124 71.6942C95.6863 70.9625 95.2611 70.3839 94.7611 70.4013C94.2611 70.4186 93.8771 71.0255 93.9031 71.7571Z" fill="#3C1C16"/>
<path d="M86.0219 72.033C86.0479 72.7647 86.4731 73.3433 86.9732 73.326C87.4732 73.3086 87.8572 72.7018 87.8311 71.9701C87.8051 71.2384 87.3799 70.6598 86.8799 70.6771C86.3809 70.6945 85.997 71.3024 86.0219 72.033Z" fill="#3C1C16"/>
<path d="M93.8033 79.2022C93.4595 79.6353 93.0441 80.0413 92.5039 80.3095C91.9594 80.5722 91.2923 80.6058 90.7196 80.4365C90.1414 80.2715 89.6479 79.9578 89.2064 79.6093C88.7596 79.2641 88.3778 78.8548 88.0317 78.4228L88.1955 78.2534C88.6457 78.565 89.0676 78.8972 89.5145 79.1772C89.9571 79.4606 90.4115 79.7211 90.8855 79.8579C91.3585 79.999 91.8379 79.9914 92.3032 79.8329C92.7653 79.6603 93.2003 79.3542 93.6374 79.0318L93.8033 79.2022Z" fill="#3C1C16"/>
<path d="M96.5706 69.498C96.218 69.2549 95.8905 69.0236 95.5575 68.8749C95.2223 68.7316 94.9001 68.6556 94.5682 68.6936C94.2363 68.7251 93.8957 68.8423 93.5432 68.9954C93.1896 69.1496 92.8425 69.3569 92.4444 69.5339L92.3359 69.4199C92.5529 69.0367 92.8371 68.6958 93.1993 68.4233C93.5595 68.153 94.0064 67.9446 94.5075 67.9066C95.0075 67.8588 95.5249 68.039 95.8926 68.3299C96.269 68.6187 96.5337 68.9922 96.6953 69.4003L96.5706 69.498Z" fill="#3C1C16"/>
<path d="M88.6751 69.7748C88.2965 69.5055 87.9223 69.2993 87.5362 69.1766C87.149 69.0583 86.7595 69.0127 86.3669 69.0583C85.9753 69.1006 85.5848 69.2124 85.1922 69.3742C84.7995 69.537 84.4134 69.7476 83.9849 69.9528L83.8765 69.8388C84.1216 69.423 84.4589 69.0626 84.8679 68.7793C85.2768 68.497 85.7714 68.307 86.2921 68.2604C86.8116 68.2093 87.3572 68.3244 87.803 68.586C88.251 68.8422 88.6078 69.2298 88.7988 69.6781L88.6751 69.7748Z" fill="#3C1C16"/>
<path opacity="0.5" d="M81.0433 77.0918C81.0997 78.6887 82.4371 79.9371 84.0327 79.8807C85.6282 79.8242 86.8756 78.4857 86.8192 76.8888C86.7628 75.2919 85.4254 74.0435 83.8298 74.1C82.2353 74.1554 80.988 75.495 81.0433 77.0918Z" fill="#FC8879"/>
<path opacity="0.5" d="M98.3288 73.846C98.1726 75.7534 97.8722 77.7454 97.3374 79.5355C96.1172 79.2316 95.1963 78.146 95.1496 76.8281C95.0921 75.2301 96.3406 73.8927 97.9351 73.8351C98.0663 73.8297 98.1987 73.8351 98.3288 73.846Z" fill="#FC8879"/>
<path opacity="0.5" d="M90.6414 71.1853C90.6544 71.0485 90.8432 71.0311 90.8833 71.1625C91.5298 73.2718 93.6287 74.8144 93.2924 75.4342C93.056 75.8706 92.1676 76.3635 91.545 76.6685C91.2163 76.8292 90.8226 76.6349 90.7531 76.2734C90.4527 74.708 90.47 72.9841 90.6414 71.1853Z" fill="#FC8879"/>
<path d="M91.0906 70.9712C91.2349 71.5889 91.5169 72.1501 91.8586 72.6777C92.2024 73.2064 92.6049 73.696 93.0116 74.2127C93.1147 74.3419 93.2134 74.4765 93.311 74.6187C93.4075 74.7642 93.5051 74.9108 93.58 75.1148C93.6147 75.2158 93.6494 75.3417 93.618 75.5067C93.5724 75.6935 93.4943 75.7564 93.4336 75.8433C93.2991 75.9942 93.158 76.1049 93.0127 76.2037C92.4335 76.5901 91.8185 76.8279 91.1839 77.0255L91.0939 76.8073C91.3716 76.6423 91.6557 76.487 91.9237 76.3112C92.1938 76.1429 92.4628 75.9681 92.6971 75.7781C92.812 75.6815 92.9227 75.5827 92.9997 75.485C93.0311 75.4405 93.0669 75.3765 93.0517 75.4004C93.0528 75.4036 93.0474 75.3645 93.0268 75.3146C92.9422 75.0986 92.7253 74.8326 92.5376 74.5818C92.1449 74.0705 91.7317 73.5386 91.416 72.9415C91.0939 72.351 90.8694 71.6801 90.8574 71.0005L91.0906 70.9712Z" fill="#3C1C16"/>
<path d="M75.9235 79.6211C75.7402 80.0249 75.6806 80.4722 75.7077 80.9118C75.738 81.3537 75.8541 81.789 76.0179 82.2037C76.3672 83.0276 76.8336 83.8342 77.2425 84.6669C77.6601 85.4951 78.0257 86.3777 78.1927 87.3244C78.273 87.7977 78.299 88.2829 78.2621 88.766C78.2296 89.0059 78.2068 89.2458 78.1439 89.4901C78.0745 89.7289 77.9964 89.9667 77.877 90.187C77.6525 90.6321 77.3098 91.0305 76.8737 91.3019C76.4409 91.5809 75.9051 91.7003 75.3942 91.6493C74.8768 91.5842 74.4429 91.3964 74.0101 91.2238C73.5795 91.0446 73.1587 90.8557 72.74 90.6679C71.9037 90.2988 71.0576 89.9406 70.179 89.7767C69.743 89.6953 69.2961 89.6692 68.8796 89.7778C68.6746 89.8364 68.4804 89.9297 68.309 90.0568C68.1366 90.1849 67.9977 90.3531 67.873 90.5355L67.6973 90.4334C67.8177 90.225 67.9608 90.0231 68.1496 89.8614C68.3394 89.7029 68.5607 89.5813 68.795 89.5009C69.269 89.35 69.7647 89.3544 70.2354 89.4184C71.1802 89.5639 72.0577 89.9059 72.9157 90.25L74.1891 90.7787C74.6089 90.9448 75.0395 91.113 75.4408 91.1564C75.8476 91.1901 76.2565 91.0967 76.5993 90.8709C76.9442 90.6517 77.2219 90.3206 77.4182 89.9493C77.5224 89.7647 77.5896 89.5628 77.6514 89.3598C77.7068 89.1568 77.7295 88.9364 77.7621 88.7204C77.799 88.284 77.7805 87.8422 77.7111 87.4058C77.5657 86.5297 77.2252 85.6862 76.8455 84.8557C76.468 84.0198 76.0255 83.2154 75.6871 82.3263C75.5341 81.8758 75.4322 81.4036 75.4235 80.9227C75.4137 80.4439 75.5114 79.9533 75.7413 79.5288L75.9235 79.6211Z" fill="#3C1C16"/>
<path d="M76.0688 55.444C76.8477 55.0923 77.6623 54.8404 78.4844 54.6244C79.3055 54.4051 80.1408 54.2423 80.9803 54.1109C81.8209 53.985 82.6681 53.896 83.5195 53.871C83.9458 53.8601 84.3721 53.8612 84.7995 53.8829C85.2258 53.9112 85.6531 53.9589 86.0729 54.0469L86.0447 54.2477C85.6271 54.2347 85.2127 54.2206 84.7951 54.2455C84.3786 54.2553 83.9621 54.2835 83.5467 54.3237C82.7158 54.3997 81.8849 54.4995 81.0573 54.6222C80.2297 54.7438 79.4053 54.8936 78.5831 55.0521C78.1721 55.1313 77.7631 55.2225 77.3564 55.3202C76.9464 55.4082 76.545 55.5243 76.1404 55.6329L76.0688 55.444Z" fill="#3C1C16"/>
<path d="M82.7625 63.4655C83.1096 63.2821 83.4751 63.1713 83.8428 63.0812C84.2116 62.9955 84.5836 62.9206 84.9568 62.8717C85.7052 62.7697 86.4601 62.7284 87.214 62.7295C88.7239 62.7295 90.2338 62.9401 91.697 63.3363C93.1548 63.7445 94.566 64.3872 95.7787 65.3175C96.3796 65.7854 96.9371 66.3152 97.4046 66.9177C97.8667 67.5224 98.2604 68.177 98.5587 68.8717L98.3754 68.9586C97.6704 67.6613 96.7039 66.5214 95.5075 65.6823C94.9142 65.26 94.284 64.8866 93.6201 64.5804C92.9563 64.2721 92.261 64.0376 91.5571 63.8335C90.1481 63.4243 88.6772 63.2289 87.2053 63.1692C86.4688 63.1399 85.7301 63.1583 84.9958 63.2224C84.2669 63.2875 83.5185 63.3819 82.8536 63.6479L82.7625 63.4655Z" fill="#3C1C16"/>
<path d="M31.6891 103.963L34.4768 104.867C34.7176 104.945 34.8824 105.158 34.8998 105.411C34.9161 105.663 34.7794 105.896 34.5505 106.005L31.5058 107.449L31.5112 107.491L35.7708 108.34C35.9302 108.371 36.0344 108.527 36.0029 108.687C35.9715 108.847 35.8153 108.951 35.6558 108.919L31.3963 108.07C31.1327 108.017 30.9407 107.812 30.9081 107.545C30.8745 107.278 31.0101 107.03 31.2542 106.915L34.2989 105.47L34.2967 105.429L31.5091 104.525C31.354 104.475 31.2693 104.308 31.3192 104.153C31.367 103.997 31.534 103.913 31.6891 103.963Z" fill="#3C1C16"/>
<path d="M24.4901 100.119L26.9664 100.922C27.1801 100.991 27.3276 101.18 27.3417 101.405C27.3558 101.629 27.2343 101.836 27.0315 101.933L24.3273 103.216L24.3317 103.253L28.114 104.007C28.2561 104.035 28.3483 104.173 28.3201 104.317C28.2919 104.459 28.1541 104.551 28.012 104.523L24.2297 103.768C23.9954 103.721 23.8251 103.539 23.7959 103.302C23.7666 103.064 23.887 102.845 24.1028 102.743L26.8069 101.459L26.8048 101.424L24.3284 100.62C24.1907 100.576 24.1148 100.428 24.1592 100.289C24.2048 100.15 24.3523 100.074 24.4901 100.119Z" fill="#3C1C16"/>
<path d="M39.4349 109.853L41.3982 110.49C41.5674 110.546 41.6845 110.696 41.6954 110.874C41.7073 111.052 41.6108 111.216 41.4502 111.292L39.3058 112.309L39.3091 112.338L42.3082 112.936C42.421 112.959 42.4937 113.069 42.472 113.182C42.4492 113.294 42.3397 113.367 42.2279 113.346L39.2288 112.747C39.0433 112.709 38.9077 112.565 38.885 112.377C38.8622 112.189 38.9565 112.015 39.1279 111.934L41.2723 110.917L41.2702 110.888L39.3069 110.25C39.1973 110.215 39.1377 110.097 39.1735 109.988C39.2082 109.877 39.3253 109.817 39.4349 109.853Z" fill="#3C1C16"/>
<path d="M162.15 94.4368H153.436C152.011 94.4368 150.845 93.2699 150.845 91.8434V83.9914C150.845 82.5649 152.011 81.3979 153.436 81.3979H162.15C163.575 81.3979 164.741 82.5649 164.741 83.9914V91.8434C164.741 93.2699 163.575 94.4368 162.15 94.4368Z" fill="white" stroke="#1F3C88" stroke-width="3.75" stroke-miterlimit="10"/>
<path d="M157.792 97.0142L155.267 94.437H160.318L157.792 97.0142Z" fill="#1F3C88"/>
<path d="M157.571 91.6123C157.436 91.6123 157.307 91.5537 157.22 91.4495L154.693 88.4771C154.528 88.2828 154.551 87.9908 154.745 87.8258C154.94 87.6608 155.231 87.6847 155.396 87.8779L157.491 90.3422L160.752 84.4605C160.876 84.2369 161.158 84.1576 161.379 84.2803C161.603 84.404 161.683 84.6852 161.559 84.9077L157.974 91.3735C157.901 91.5059 157.767 91.5938 157.617 91.609C157.601 91.6112 157.586 91.6123 157.571 91.6123Z" fill="#1F3C88"/>
<path d="M28.9168 122.952C25.0477 123.869 20.7556 125.14 18.9203 129.044C17.187 132.732 18.9908 136.314 22.4738 138.058C24.8308 139.238 33.8109 141.226 30.0817 145.588C27.6727 148.406 23.4879 147.535 20.7372 145.871C19.3032 145.003 17.9973 147.249 19.4269 148.113C22.5551 150.006 26.1574 150.699 29.56 149.135C33.2534 147.437 34.7068 143.085 31.8888 139.901C30.444 138.268 28.4026 137.501 26.3971 136.81C24.5 136.157 22.016 135.427 21.0951 133.425C20.2285 131.542 21.3663 129.388 22.81 128.148C24.6789 126.544 27.2778 126.008 29.6066 125.455C31.2315 125.072 30.5438 122.566 28.9168 122.952Z" fill="#EE6F57"/>
<path d="M64.4815 127.704C68.8799 127.96 69.1955 122.227 69.1955 122.227C69.1955 122.227 66.1866 120.698 63.3665 122.594L64.4815 127.704Z" fill="#EE6F57"/>
<path d="M64.73 125.967C66.4817 125.939 67.3441 123.735 67.3441 123.735C67.3441 123.735 66.0522 122.945 64.4263 123.753L64.73 125.967Z" fill="#3C1C16"/>
<path d="M52.0575 122.396C49.0074 119.213 53.1606 115.252 53.1606 115.252C53.1606 115.252 56.2758 116.551 56.6652 119.929L52.0575 122.396Z" fill="#EE6F57"/>
<path d="M53.1421 121.065C52.078 119.776 53.1421 117.786 53.1421 117.786C53.1421 117.786 54.5142 118.234 54.9351 119.917L53.1421 121.065Z" fill="#3C1C16"/>
<path d="M58.3529 136.475C58.2032 136.822 57.8778 137.058 57.5036 137.115C54.5283 137.575 53.8016 136.752 53.8016 136.752C53.8016 136.752 51.4348 138.071 45.8703 136.502C45.7326 136.76 45.4527 136.969 45.1328 137.072C44.2813 137.351 40.9752 137.063 38.8221 136.839C37.5204 136.701 33.7078 137.007 33.7078 137.007C30.2346 137.007 26.2885 136.079 24.7613 132.591C22.8284 128.178 24.8622 122.888 28.1401 119.73C31.6382 116.354 36.3045 116.05 40.5489 118.261C50.8425 123.629 51.6213 121.878 54.2615 119.653L56.0436 133.181C56.6272 133.385 57.1391 133.664 57.5079 134.053C57.7596 134.319 57.9527 134.565 58.0937 134.797C58.5568 135.541 58.5134 136.1 58.3529 136.475Z" fill="#EE6F57"/>
<path opacity="0.3" d="M51.2699 122.396C47.1427 124.823 47.0071 132.514 54.9752 133.264L55.8885 129.777L51.2699 122.396Z" fill="#3C1C16"/>
<path d="M65.564 128.113C64.7266 131.06 63.3426 132.748 61.9249 133.687C60.6037 134.569 59.2587 134.8 58.2879 134.8C57.4148 134.8 56.547 134.661 55.7172 134.398C52.5608 133.405 49.9814 130.637 49.9814 127C49.9814 122.408 53.3147 118.889 57.5091 118.889C62.3121 118.889 67.0554 122.856 65.564 128.113Z" fill="#EE6F57"/>
<path opacity="0.3" d="M61.9249 133.687C60.6037 134.569 59.2587 134.8 58.2879 134.8C58.2229 134.8 58.161 134.8 58.0959 134.797C57.9549 134.567 57.7619 134.319 57.5102 134.053C57.1414 133.664 56.6295 133.385 56.0459 133.181C57.3345 132.918 58.0797 133.263 58.0797 133.263C58.0797 133.263 60.4519 132.082 61.9195 133.681C61.9216 133.685 61.9216 133.685 61.9249 133.687Z" fill="#3C1C16"/>
<path d="M57.445 135.003C57.0274 135.604 57.1022 136.442 57.6836 136.887C57.8181 136.99 57.9613 137.06 58.1023 137.06H62.2392C62.4366 137.06 62.543 136.848 62.5961 136.572C62.7566 135.744 62.4095 134.903 61.7641 134.36C60.43 133.235 58.6522 133.263 57.445 135.003Z" fill="#EE6F57"/>
<path d="M49.9814 132.778C50.8199 132.741 51.6551 132.775 52.4903 132.85C53.3255 132.924 54.1564 133.063 54.9753 133.264C55.3853 133.366 55.7888 133.497 56.1836 133.657C56.5763 133.819 56.9668 134.002 57.3215 134.253C57.674 134.501 57.9994 134.815 58.2174 135.204C58.4311 135.595 58.5027 136.058 58.4279 136.483L58.276 136.466C58.2912 136.064 58.2012 135.666 57.9821 135.342C57.7727 135.013 57.469 134.747 57.1306 134.535C56.4527 134.108 55.6706 133.84 54.8777 133.637C54.0859 133.421 53.2691 133.293 52.4512 133.176C51.6323 133.065 50.8058 132.985 49.9792 132.928V132.778H49.9814Z" fill="#3C1C16"/>
<path d="M36.1721 124.603C36.9998 124.738 37.8241 125.029 38.5129 125.552C38.847 125.821 39.1561 126.14 39.3687 126.52C39.5867 126.896 39.744 127.307 39.8297 127.731C39.911 128.155 39.9436 128.586 39.9284 129.014C39.9078 129.441 39.8514 129.864 39.77 130.281C39.5987 131.112 39.3329 131.919 39.0032 132.695C38.8405 133.085 38.6561 133.464 38.4554 133.836L38.3784 133.976L38.3383 134.046L38.3361 134.051C38.3545 134.112 38.1625 133.537 38.2461 133.782L38.2547 133.785L38.2721 133.792L38.3079 133.807L38.5942 133.919C38.7862 133.993 38.9804 134.061 39.1745 134.126C39.9555 134.384 40.7593 134.566 41.5728 134.695C42.383 134.81 43.2323 134.901 44.0469 135.106C44.4559 135.209 44.8615 135.332 45.2499 135.515C45.444 135.604 45.6328 135.718 45.7976 135.874C45.8757 135.954 45.9549 136.049 45.9853 136.173C46.0287 136.295 45.9896 136.429 45.9386 136.535L45.8041 136.463C45.8855 136.3 45.8106 136.133 45.6664 136.01C45.5232 135.888 45.3475 135.788 45.1598 135.713C44.7878 135.555 44.3875 135.454 43.9851 135.371C43.177 135.191 42.3646 135.128 41.524 135.031C40.6888 134.924 39.8644 134.733 39.0596 134.479C38.8589 134.413 38.6593 134.346 38.4619 134.272L38.1658 134.159L38.1289 134.145L38.1105 134.138L38.1018 134.134C38.1831 134.377 37.9846 133.802 38.0074 133.86L38.0096 133.855L38.0465 133.79L38.1191 133.656C38.3111 133.293 38.4847 132.92 38.6496 132.543C38.9771 131.788 39.2418 131.007 39.4132 130.207C39.4945 129.806 39.552 129.402 39.5748 128.997C39.5889 128.593 39.5759 128.189 39.5086 127.792C39.3687 127.004 38.975 126.264 38.3491 125.756C37.7297 125.24 36.9477 124.932 36.145 124.752L36.1721 124.603Z" fill="#3C1C16"/>
<path d="M59.7316 125.719C60.0212 126.253 60.4138 126.731 60.9388 126.895C61.198 126.977 61.4811 126.998 61.7729 126.966C61.9183 126.952 62.0636 126.912 62.2144 126.891C62.3608 126.848 62.5083 126.805 62.6635 126.77L62.7383 126.921C62.6027 127.01 62.4595 127.091 62.3142 127.172C62.1591 127.228 62.0061 127.301 61.8391 127.337C61.5093 127.421 61.1438 127.417 60.8 127.312C60.455 127.203 60.1557 126.973 59.9517 126.694C59.7467 126.414 59.6122 126.1 59.5688 125.762L59.7316 125.719Z" fill="#3C1C16"/>
<path d="M55.012 123.681C55.2593 124.235 55.614 124.742 56.1238 124.946C56.3766 125.048 56.6564 125.092 56.9504 125.082C57.0968 125.08 57.2443 125.052 57.3962 125.042C57.5448 125.01 57.6955 124.979 57.8528 124.956L57.9157 125.113C57.7736 125.192 57.625 125.261 57.4743 125.33C57.3148 125.374 57.1565 125.435 56.9883 125.458C56.6532 125.516 56.2887 125.484 55.9535 125.352C55.6184 125.218 55.3374 124.965 55.1563 124.671C54.9741 124.375 54.8645 124.052 54.8472 123.712L55.012 123.681Z" fill="#3C1C16"/>
<path d="M55.2885 44.0856H31.4384C29.5901 44.0856 28.0911 42.5853 28.0911 40.7355V27.3145C28.0911 25.4646 29.5901 23.9644 31.4384 23.9644H55.2885C57.1368 23.9644 58.6358 25.4646 58.6358 27.3145V40.7344C58.6369 42.5853 57.1379 44.0856 55.2885 44.0856Z" fill="#C6EAE9"/>
<path d="M54.7721 29.0146H31.9558V30.9166H54.7721V29.0146Z" fill="#8CBFBE"/>
<path opacity="0.8" d="M54.7721 33.0747H31.9558V34.9766H54.7721V33.0747Z" fill="white"/>
<path opacity="0.8" d="M54.7721 37.1338H31.9558V39.0357H54.7721V37.1338Z" fill="white"/>
<path d="M35.8109 64.4468L31.4744 61.0522H40.1475L35.8109 64.4468Z" fill="white"/>
<path d="M41.3168 61.0553H17.4667C15.6184 61.0553 14.1194 59.555 14.1194 57.7052V44.2842C14.1194 42.4344 15.6184 40.9341 17.4667 40.9341H41.3168C43.1651 40.9341 44.6641 42.4344 44.6641 44.2842V57.7041C44.6641 59.555 43.1662 61.0553 41.3168 61.0553Z" fill="white"/>
<g opacity="0.8">
<path opacity="0.8" d="M23.5364 52.4165H20.5796V56.0738H23.5364V52.4165Z" fill="#64BC62"/>
<path opacity="0.8" d="M28.2852 48.3447H25.3284V56.0751H28.2852V48.3447Z" fill="#64BC62"/>
<path opacity="0.8" d="M33.2444 50.1001H30.2876V56.0751H33.2444V50.1001Z" fill="#64BC62"/>
<path opacity="0.8" d="M38.2025 45.915H35.2456V56.0739H38.2025V45.915Z" fill="#64BC62"/>
</g>
</svg>
