<svg width="375" height="378" viewBox="0 0 375 378" fill="none" xmlns="http://www.w3.org/2000/svg">
<g clip-path="url(#clip0_371_2034)">
<path d="M251.416 134.451C248.243 134.451 245.672 131.879 245.672 128.707C245.672 125.534 248.243 122.962 251.416 122.962C254.588 122.962 257.16 125.534 257.16 128.707C257.16 131.879 254.588 134.451 251.416 134.451Z" fill="#64BC62"/>
<path d="M251.417 134.882C254.822 134.882 257.592 132.112 257.592 128.707C257.592 125.302 254.822 122.532 251.417 122.532C248.012 122.532 245.242 125.302 245.242 128.707C245.242 132.112 248.012 134.882 251.417 134.882ZM251.417 123.395C254.346 123.395 256.73 125.778 256.73 128.708C256.73 131.638 254.347 134.022 251.417 134.022C248.487 134.022 246.103 131.638 246.103 128.708C246.103 125.778 248.487 123.395 251.417 123.395Z" fill="black"/>
<path d="M357.807 222.222C356.337 221.627 355.627 219.953 356.222 218.483C356.817 217.013 358.491 216.303 359.961 216.898C361.431 217.492 362.141 219.166 361.546 220.637C360.951 222.107 359.277 222.817 357.807 222.222Z" fill="#64BC62"/>
<path d="M358.878 222.866C360.7 222.866 362.181 221.384 362.181 219.564C362.181 217.743 360.699 216.261 358.878 216.261C357.058 216.261 355.576 217.743 355.576 219.564C355.576 221.384 357.058 222.866 358.878 222.866ZM358.878 217.122C360.224 217.122 361.319 218.217 361.319 219.563C361.319 220.909 360.224 222.004 358.878 222.004C357.532 222.004 356.437 220.909 356.437 219.563C356.437 218.217 357.532 217.122 358.878 217.122Z" fill="black"/>
<path d="M144.084 315.978C142.963 314.857 142.963 313.039 144.084 311.917C145.206 310.796 147.024 310.796 148.145 311.917C149.267 313.039 149.267 314.857 148.145 315.978C147.024 317.1 145.206 317.1 144.084 315.978Z" fill="#64BC62"/>
<path d="M146.11 317.252C147.931 317.252 149.412 315.77 149.412 313.949C149.412 312.129 147.93 310.647 146.11 310.647C144.288 310.647 142.807 312.129 142.807 313.949C142.807 315.77 144.288 317.252 146.11 317.252ZM146.11 311.508C147.455 311.508 148.551 312.603 148.551 313.949C148.551 315.294 147.455 316.39 146.11 316.39C144.764 316.39 143.669 315.294 143.669 313.949C143.669 312.603 144.764 311.508 146.11 311.508Z" fill="black"/>
<path d="M92.9808 60.2575C91.3949 60.2575 90.1091 58.9718 90.1091 57.3859C90.1091 55.7999 91.3949 54.5142 92.9808 54.5142C94.5668 54.5142 95.8525 55.7999 95.8525 57.3859C95.8525 58.9718 94.5668 60.2575 92.9808 60.2575Z" fill="#64BC62"/>
<path d="M92.9817 60.689C94.8031 60.689 96.2842 59.207 96.2842 57.3865C96.2842 55.5659 94.8022 54.084 92.9817 54.084C91.1603 54.084 89.6792 55.5659 89.6792 57.3865C89.6792 59.207 91.1603 60.689 92.9817 60.689ZM92.9817 54.9447C94.3275 54.9447 95.4226 56.0398 95.4226 57.3856C95.4226 58.7314 94.3275 59.8265 92.9817 59.8265C91.6359 59.8265 90.5408 58.7314 90.5408 57.3856C90.5408 56.0398 91.6359 54.9447 92.9817 54.9447Z" fill="black"/>
<path d="M297.128 216.643C297.222 216.643 297.316 216.613 297.395 216.55C297.582 216.403 297.613 216.131 297.466 215.945L288.371 204.458C288.223 204.272 287.952 204.24 287.766 204.387C287.579 204.534 287.548 204.806 287.695 204.992L296.79 216.48C296.875 216.587 297 216.643 297.128 216.643Z" fill="black"/>
<path d="M120.263 237.794C120.322 237.794 120.382 237.782 120.441 237.755L130.971 232.968C131.188 232.87 131.283 232.614 131.185 232.398C131.087 232.182 130.831 232.086 130.615 232.184L120.084 236.971C119.868 237.069 119.772 237.325 119.871 237.541C119.942 237.7 120.099 237.794 120.263 237.794Z" fill="black"/>
<path d="M18.3072 215.297C18.3227 215.297 18.3382 215.296 18.3537 215.294L31.7566 213.858C31.9936 213.833 32.1642 213.62 32.1392 213.384C32.1142 213.147 31.9014 212.976 31.6653 213.002L18.2623 214.438C18.0254 214.463 17.8548 214.676 17.8798 214.912C17.9031 215.133 18.09 215.297 18.3072 215.297Z" fill="black"/>
<path d="M149.462 278.959C149.646 278.959 149.817 278.839 149.874 278.654L153.225 267.644C153.293 267.417 153.165 267.175 152.938 267.107C152.71 267.038 152.47 267.166 152.4 267.393L149.049 278.403C148.98 278.63 149.109 278.872 149.336 278.94C149.378 278.953 149.421 278.959 149.462 278.959Z" fill="black"/>
<path d="M382.569 177.961C382.762 177.961 382.938 177.83 382.987 177.634C383.045 177.403 382.904 177.17 382.673 177.112L373.1 174.719C372.869 174.661 372.636 174.801 372.578 175.032C372.52 175.263 372.661 175.497 372.892 175.554L382.465 177.948C382.499 177.956 382.535 177.961 382.569 177.961Z" fill="black"/>
<path d="M252.85 288.053C252.906 288.053 252.962 288.042 253.017 288.02C253.236 287.928 253.34 287.675 253.248 287.456L249.419 278.361C249.326 278.141 249.074 278.038 248.854 278.131C248.635 278.223 248.532 278.475 248.624 278.695L252.453 287.79C252.522 287.954 252.682 288.053 252.85 288.053Z" fill="black"/>
<path d="M128.876 38.6701C129.031 38.6701 129.18 38.5865 129.258 38.44C129.369 38.2298 129.288 37.9687 129.077 37.8584L119.982 33.0714C119.772 32.9611 119.511 33.0413 119.4 33.2524C119.289 33.4626 119.37 33.7237 119.581 33.8339L128.676 38.621C128.74 38.6546 128.809 38.6701 128.876 38.6701Z" fill="black"/>
<path d="M233.979 363.8C234.134 363.8 234.283 363.716 234.36 363.57C234.471 363.36 234.39 363.099 234.179 362.988L225.084 358.201C224.874 358.09 224.613 358.171 224.503 358.382C224.392 358.592 224.473 358.853 224.684 358.964L233.779 363.751C233.843 363.784 233.911 363.8 233.979 363.8Z" fill="black"/>
<path d="M20.2216 281.353C20.2905 281.353 20.3603 281.337 20.4258 281.301C20.6352 281.188 20.7136 280.927 20.6007 280.718L17.25 274.496C17.1371 274.286 16.876 274.208 16.6667 274.321C16.4573 274.434 16.3789 274.695 16.4918 274.904L19.8425 281.126C19.92 281.271 20.0682 281.353 20.2216 281.353Z" fill="black"/>
<path d="M230.833 25.7461C230.902 25.7461 230.972 25.7297 231.037 25.6944C231.247 25.5815 231.325 25.3204 231.212 25.1111L227.861 18.8886C227.748 18.6793 227.487 18.6009 227.278 18.7137C227.069 18.8266 226.99 19.0877 227.103 19.297L230.454 25.5195C230.531 25.6642 230.68 25.7461 230.833 25.7461Z" fill="black"/>
<path d="M126.004 188.971C126.073 188.971 126.143 188.955 126.208 188.919C126.417 188.807 126.496 188.546 126.383 188.336L123.032 182.114C122.919 181.904 122.658 181.826 122.449 181.939C122.24 182.052 122.161 182.313 122.274 182.522L125.625 188.745C125.702 188.889 125.85 188.971 126.004 188.971Z" fill="black"/>
<path d="M180.789 385.328C180.953 385.328 181.11 385.234 181.182 385.076L184.103 378.64C184.201 378.423 184.106 378.168 183.888 378.069C183.671 377.971 183.416 378.067 183.318 378.284L180.397 384.72C180.299 384.936 180.395 385.192 180.612 385.29C180.67 385.316 180.73 385.328 180.789 385.328Z" fill="black"/>
<path d="M100.433 368.108C100.501 368.108 100.571 368.092 100.637 368.057C100.846 367.944 100.925 367.683 100.812 367.473L97.4609 361.251C97.3481 361.042 97.087 360.963 96.8776 361.076C96.6683 361.189 96.5899 361.45 96.7027 361.659L100.053 367.882C100.131 368.026 100.279 368.108 100.433 368.108Z" fill="black"/>
<path d="M150.733 209.496L159.45 214.098L151.106 219.347L150.733 209.496Z" fill="#64BC62"/>
<path d="M151.107 219.778C151.187 219.778 151.266 219.756 151.336 219.712L159.681 214.463C159.811 214.381 159.888 214.236 159.882 214.082C159.875 213.928 159.788 213.789 159.652 213.718L150.935 209.115C150.799 209.044 150.635 209.05 150.504 209.131C150.374 209.213 150.297 209.359 150.303 209.512L150.676 219.363C150.682 219.517 150.769 219.656 150.905 219.727C150.969 219.761 151.038 219.778 151.107 219.778ZM158.591 214.131L151.509 218.585L151.192 210.226L158.591 214.131Z" fill="black"/>
<path d="M33.9206 316.918L37.1533 324.172L29.2551 323.345L33.9206 316.918Z" fill="#64BC62"/>
<path d="M37.1527 324.603C37.2897 324.603 37.4198 324.538 37.5007 324.426C37.5912 324.301 37.6084 324.138 37.5456 323.998L34.3129 316.744C34.25 316.603 34.1173 316.507 33.9639 316.491C33.8106 316.475 33.6607 316.541 33.5702 316.666L28.9046 323.093C28.8142 323.218 28.7969 323.381 28.8598 323.521C28.9227 323.662 29.0554 323.758 29.2088 323.774L37.107 324.602C37.1225 324.602 37.138 324.603 37.1527 324.603ZM33.8304 317.775L36.4556 323.666L30.0411 322.994L33.8304 317.775Z" fill="black"/>
<path d="M160.419 15.4561L169.137 20.0587L160.792 25.3066L160.419 15.4561Z" fill="#64BC62"/>
<path d="M160.794 25.7376C160.874 25.7376 160.953 25.7152 161.023 25.6713L169.367 20.4224C169.497 20.3406 169.574 20.195 169.568 20.0416C169.562 19.8883 169.475 19.7487 169.339 19.6772L160.621 15.0745C160.485 15.003 160.321 15.0091 160.19 15.0909C160.06 15.1728 159.984 15.3184 159.99 15.4717L160.363 25.3223C160.369 25.4757 160.456 25.6153 160.592 25.6868C160.656 25.7212 160.725 25.7376 160.794 25.7376ZM168.277 20.0916L161.195 24.546L160.878 16.1869L168.277 20.0916Z" fill="black"/>
<path d="M279.394 45.8496L286.644 52.5304L277.234 55.4676L279.394 45.8496Z" fill="#64BC62"/>
<path d="M277.234 55.8985C277.277 55.8985 277.32 55.8924 277.362 55.8787L286.773 52.9406C286.92 52.895 287.031 52.7743 287.065 52.6236C287.098 52.4736 287.049 52.3168 286.936 52.2126L279.687 45.5326C279.574 45.4284 279.414 45.3922 279.267 45.4379C279.119 45.4835 279.008 45.6042 278.974 45.7549L276.814 55.3729C276.78 55.5228 276.829 55.6796 276.942 55.7839C277.022 55.8588 277.127 55.8985 277.234 55.8985ZM285.803 52.341L277.817 54.8344L279.651 46.6725L285.803 52.341Z" fill="black"/>
<path d="M179.511 141.386L178.941 148.316L173.225 144.358L179.511 141.386Z" fill="#64BC62"/>
<path d="M178.941 148.747C179.004 148.747 179.067 148.734 179.126 148.706C179.265 148.641 179.358 148.505 179.371 148.352L179.941 141.422C179.954 141.269 179.883 141.121 179.756 141.033C179.63 140.945 179.466 140.932 179.327 140.997L173.041 143.969C172.902 144.034 172.809 144.17 172.796 144.323C172.783 144.476 172.853 144.625 172.98 144.713L178.697 148.671C178.769 148.722 178.855 148.747 178.941 148.747ZM179.021 142.095L178.574 147.538L174.084 144.429L179.021 142.095Z" fill="black"/>
<path d="M191.877 111.321C191.908 111.321 191.939 111.318 191.972 111.311L198.359 109.869C198.591 109.816 198.737 109.586 198.685 109.353C198.632 109.122 198.401 108.975 198.17 109.028L191.783 110.47C191.551 110.523 191.405 110.754 191.457 110.985C191.502 111.186 191.679 111.321 191.877 111.321Z" fill="black"/>
<path d="M223.609 70.8135C223.744 70.8135 223.877 70.7506 223.961 70.6317C224.099 70.4379 224.052 70.1691 223.858 70.0312L218.515 66.2454C218.322 66.1075 218.053 66.154 217.915 66.3479C217.777 66.5418 217.824 66.8106 218.017 66.9484L223.36 70.7343C223.436 70.7886 223.523 70.8135 223.609 70.8135Z" fill="black"/>
<path d="M223.847 344.015C267.691 315.394 277.504 233.316 212.944 235.731C189.43 236.61 197.677 233.021 177.932 237.409C178.906 234.489 146.225 130.425 105.663 120.042C60.6222 108.512 28.0661 127.176 11.3201 175.046C-9.09961 233.416 -0.484558 287.424 58.2287 335.877C107.532 376.564 189.383 366.512 223.847 344.015Z" fill="#3C8F5D"/>
<path d="M145.176 364.076C145.653 364.076 146.128 364.074 146.606 364.071C161.467 363.956 176.636 361.986 190.471 358.373C203.739 354.908 215.361 350.068 224.082 344.376C230.68 340.068 236.666 334.477 241.876 327.755C246.834 321.356 250.878 314.219 253.897 306.54C256.879 298.958 258.688 291.289 259.275 283.748C259.88 275.989 259.151 268.799 257.109 262.378C255.783 258.208 253.905 254.419 251.528 251.118C249.035 247.657 245.973 244.706 242.427 242.347C234.73 237.226 224.807 234.855 212.929 235.3C203.27 235.661 199.02 235.269 195.917 234.983C191.588 234.584 189.576 234.398 178.356 236.874C178.244 235.758 177.679 233.473 176.673 230.05C175.284 225.328 173.309 219.406 171.111 213.372C166.822 201.597 159.731 183.935 150.312 166.66C143.539 154.238 136.636 144.043 129.794 136.362C121.691 127.262 113.608 121.631 105.771 119.625C83.1952 113.846 63.6457 115.619 47.6657 124.897C31.6314 134.205 19.2658 151.031 10.9144 174.905C5.67938 189.869 2.46136 204.352 1.34988 217.952C0.770905 225.042 0.746796 232.071 1.27927 238.843C1.82465 245.779 2.9697 252.658 4.6834 259.289C6.43501 266.065 8.83284 272.788 11.8105 279.268C14.8485 285.879 18.5809 292.436 22.9035 298.758C27.3071 305.199 32.4551 311.586 38.2045 317.744C44.0539 324.008 50.6994 330.221 57.9557 336.21C69.669 345.876 83.7949 353.172 99.9394 357.891C113.984 361.997 129.198 364.076 145.176 364.076ZM215.648 236.11C236.447 236.11 250.828 245.463 256.288 262.639C264.807 289.43 249.843 326.53 223.611 343.654C205.481 355.488 175.972 362.982 146.599 363.208C146.133 363.212 145.666 363.213 145.201 363.213C110.898 363.213 80.1538 353.411 58.5037 335.544C4.78766 291.215 -10.5134 238.762 11.7269 175.188C28.2678 127.905 60.7137 108.98 105.556 120.459C126.55 125.833 145.021 156.543 156.818 181.36C164.334 197.169 169.689 211.757 172.212 219.047C175.847 229.548 177.655 236.486 177.52 237.284C177.477 237.428 177.511 237.585 177.612 237.697C177.716 237.812 177.874 237.862 178.026 237.828C189.57 235.263 191.405 235.431 195.837 235.84C198.964 236.128 203.246 236.523 212.96 236.159C213.868 236.128 214.764 236.11 215.648 236.11ZM177.523 237.277C177.523 237.278 177.523 237.278 177.523 237.277C177.523 237.278 177.523 237.278 177.523 237.277ZM177.524 237.274C177.524 237.274 177.523 237.275 177.523 237.276C177.524 237.275 177.524 237.274 177.524 237.274Z" fill="#0A5735"/>
<path d="M80.3099 264.056C80.3099 264.056 98.767 261.871 119.03 273.888C145.292 257.635 182.581 249.338 232.46 263.838C235.753 300.91 169.229 332.812 118.759 309.675C113.542 310.729 106.706 309.835 97.7486 305.528C62.6611 288.658 80.3099 264.056 80.3099 264.056Z" fill="#3C8F5D"/>
<path d="M119.028 274.32C119.107 274.32 119.186 274.298 119.255 274.255C150.093 255.17 189.196 251.711 232.337 264.253C232.566 264.319 232.805 264.188 232.871 263.959C232.938 263.731 232.807 263.491 232.578 263.425C209.21 256.631 187.091 254.438 166.835 256.903C149.429 259.021 133.345 264.567 119.023 273.385C114.439 270.688 109.576 268.497 104.562 266.872C100.486 265.55 96.3012 264.597 92.1259 264.038C85.0066 263.086 80.447 263.605 80.2566 263.628C80.0205 263.656 79.8517 263.87 79.8792 264.106C79.9068 264.343 80.1213 264.512 80.3574 264.484C80.4031 264.479 85.0229 263.955 92.0432 264.897C98.5172 265.766 108.415 268.096 118.808 274.259C118.876 274.299 118.952 274.32 119.028 274.32Z" fill="#64BC62"/>
<path d="M97.7467 302.234C97.9311 302.234 98.1017 302.114 98.1585 301.929C98.1732 301.88 99.7042 296.936 103.063 291.076C106.152 285.688 111.463 278.398 119.231 274.269C119.442 274.157 119.521 273.897 119.41 273.687C119.298 273.476 119.038 273.397 118.827 273.508C115.31 275.377 111.991 278.024 108.961 281.375C106.544 284.048 104.304 287.174 102.305 290.665C98.9029 296.606 97.3512 301.626 97.3357 301.676C97.2659 301.904 97.3943 302.144 97.6217 302.214C97.6622 302.228 97.7053 302.234 97.7467 302.234Z" fill="#64BC62"/>
<path d="M194.696 299.451C194.756 299.451 194.815 299.439 194.873 299.413C195.09 299.316 195.187 299.06 195.089 298.844C191.566 291.029 186.634 284.541 180.426 279.561C175.461 275.577 169.675 272.544 163.231 270.548C152.267 267.151 143.053 267.949 142.96 267.958C142.723 267.979 142.549 268.189 142.571 268.426C142.593 268.663 142.803 268.836 143.04 268.816C143.13 268.807 152.202 268.026 163.008 271.381C172.957 274.469 186.463 281.802 194.304 299.198C194.375 299.357 194.532 299.451 194.696 299.451Z" fill="#64BC62"/>
<path d="M278.631 329.864C275.807 340.86 259.117 342.611 259.117 342.611C259.117 342.611 252.962 326.244 259.566 322.888C266.171 319.531 278.631 329.864 278.631 329.864Z" fill="#64BC62"/>
<path d="M259.118 343.042C259.132 343.042 259.148 343.041 259.163 343.04C259.336 343.021 263.447 342.575 267.976 340.762C270.648 339.691 272.902 338.365 274.675 336.82C276.911 334.87 278.383 332.565 279.049 329.971C279.09 329.81 279.035 329.638 278.907 329.532C278.875 329.506 275.715 326.898 271.784 324.739C266.422 321.795 262.246 321.043 259.373 322.503C257.739 323.334 256.701 324.951 256.287 327.311C255.968 329.133 256.019 331.409 256.441 334.076C257.152 338.578 258.699 342.722 258.715 342.763C258.778 342.932 258.94 343.042 259.118 343.042ZM278.143 330.023C276.637 335.356 271.638 338.364 267.674 339.954C263.978 341.437 260.477 341.995 259.406 342.141C259.038 341.097 257.874 337.635 257.29 333.929C256.664 329.959 256.585 324.887 259.763 323.271C265.58 320.316 276.481 328.698 278.143 330.023Z" fill="black"/>
<path d="M246.829 294.321C253.261 286.949 256.125 282.73 263.978 295.817C272.587 310.165 284.805 357.975 300.789 361.134C316.428 364.225 272.239 380.658 272.128 360.553C272.017 340.448 236.826 305.785 246.829 294.321Z" fill="white"/>
<path d="M284.944 370.821C288.79 370.821 293.138 370.051 297.126 368.644C301.563 367.079 304.341 365.148 304.556 363.48C304.616 363.02 304.514 362.347 303.693 361.752C303.083 361.311 302.134 360.961 300.873 360.712C290.067 358.576 280.833 335.122 273.413 316.277C269.988 307.579 267.03 300.067 264.348 295.596C260.845 289.758 258.263 287.171 255.714 286.948C252.876 286.699 250.52 289.415 247.258 293.172C247.012 293.455 246.762 293.743 246.506 294.037C245.142 295.601 244.508 297.671 244.624 300.192C244.726 302.426 245.394 305.04 246.666 308.182C249.015 313.985 253.026 320.629 257.272 327.664C264.34 339.372 271.648 351.479 271.698 360.556C271.716 363.869 272.894 366.44 275.197 368.198C277.162 369.697 279.889 370.563 283.303 370.773C283.838 370.805 284.386 370.821 284.944 370.821ZM255.365 287.794C255.457 287.794 255.548 287.798 255.639 287.806C257.852 288 260.31 290.538 263.61 296.039C266.256 300.448 269.201 307.929 272.612 316.593C276.335 326.05 280.555 336.769 285.195 345.313C290.589 355.246 295.663 360.56 300.707 361.556C301.883 361.789 303.836 362.333 303.702 363.369C303.565 364.433 301.39 366.226 296.84 367.831C292.443 369.382 287.403 370.161 283.358 369.912C278.454 369.61 272.601 367.742 272.561 360.55C272.509 351.235 265.139 339.025 258.011 327.218C249.744 313.523 241.935 300.587 247.156 294.603C247.413 294.309 247.664 294.02 247.91 293.736C250.885 290.307 253.068 287.794 255.365 287.794Z" fill="black"/>
<path d="M319.404 366.383C313.902 368.404 313.319 373.422 313.319 373.422C313.319 373.422 279.351 373.072 270.317 373.184C270.331 376.199 270.439 378.278 270.439 378.278L334.517 378.48C334.525 376.127 334.788 374.122 333.224 372.073C331.014 369.181 324.734 367.578 319.404 366.383Z" fill="white"/>
<path d="M334.516 378.911C334.753 378.911 334.946 378.719 334.947 378.482C334.948 378.19 334.953 377.898 334.957 377.617C334.992 375.614 335.025 373.723 333.565 371.812C331.273 368.811 325.102 367.219 319.497 365.963C319.416 365.945 319.332 365.95 319.254 365.979C316.288 367.068 314.716 369.013 313.921 370.452C313.325 371.528 313.064 372.481 312.957 372.987C309.26 372.95 278.743 372.649 270.311 372.753C270.074 372.755 269.885 372.949 269.886 373.185C269.899 376.176 270.007 378.279 270.009 378.3C270.021 378.528 270.209 378.707 270.438 378.708L334.515 378.911H334.516ZM319.434 366.831C325.248 368.139 330.879 369.714 332.881 372.335C334.159 374.007 334.129 375.674 334.097 377.602C334.094 377.748 334.092 377.897 334.09 378.047L270.851 377.847C270.821 377.15 270.765 375.606 270.75 373.609C280.274 373.514 312.979 373.849 313.314 373.852C313.316 373.852 313.318 373.852 313.319 373.852C313.536 373.852 313.721 373.689 313.747 373.471C313.748 373.46 313.9 372.256 314.693 370.836C315.729 368.98 317.324 367.633 319.434 366.831Z" fill="black"/>
<path d="M317.448 373.421L319.403 366.383C315.103 365.499 309.846 363.809 307.152 362.401C298.461 357.857 291.7 351.904 291.7 351.904C291.7 351.904 278.654 363.561 271.181 359.203C269.341 364.076 270.292 367.683 270.318 373.184C279.35 373.071 317.448 373.421 317.448 373.421Z" fill="#64BC62"/>
<path d="M317.449 373.852C317.642 373.852 317.813 373.723 317.864 373.537L319.819 366.498C319.851 366.384 319.834 366.26 319.772 366.158C319.71 366.056 319.608 365.985 319.491 365.961C315.17 365.072 309.951 363.377 307.353 362.019C298.81 357.553 292.052 351.639 291.985 351.581C291.821 351.437 291.575 351.437 291.413 351.582C291.285 351.697 278.515 362.979 271.399 358.83C271.289 358.766 271.157 358.753 271.038 358.796C270.918 358.839 270.823 358.932 270.778 359.051C269.393 362.72 269.555 365.715 269.742 369.182C269.81 370.44 269.881 371.742 269.887 373.186C269.887 373.3 269.933 373.411 270.015 373.491C270.097 373.571 270.21 373.613 270.322 373.614C279.249 373.503 317.064 373.848 317.445 373.852C317.446 373.852 317.447 373.852 317.449 373.852ZM318.866 366.709L317.123 372.987C313.419 372.953 279.91 372.657 270.744 372.747C270.727 371.455 270.663 370.277 270.602 369.135C270.421 365.781 270.275 363.102 271.416 359.817C273.134 360.659 275.222 360.83 277.628 360.321C279.683 359.888 281.98 358.959 284.454 357.562C287.934 355.596 290.809 353.232 291.7 352.472C293.082 353.646 299.311 358.787 306.952 362.782C309.522 364.126 314.57 365.785 318.866 366.709Z" fill="black"/>
<path d="M293.948 359.276C294.061 359.276 294.173 359.232 294.258 359.145L297.618 355.675C297.783 355.504 297.779 355.231 297.608 355.066C297.438 354.9 297.165 354.905 296.999 355.075L293.639 358.546C293.474 358.716 293.478 358.989 293.649 359.155C293.733 359.236 293.841 359.276 293.948 359.276Z" fill="black"/>
<path d="M297.046 361.565C297.167 361.565 297.289 361.513 297.374 361.413L300.493 357.754C300.647 357.573 300.625 357.301 300.445 357.146C300.264 356.992 299.991 357.014 299.837 357.195L296.718 360.854C296.564 361.035 296.585 361.307 296.766 361.461C296.847 361.53 296.946 361.565 297.046 361.565Z" fill="black"/>
<path d="M300.144 363.853C300.275 363.853 300.405 363.793 300.49 363.68L303.367 359.832C303.51 359.642 303.471 359.372 303.28 359.229C303.09 359.087 302.82 359.126 302.677 359.316L299.8 363.164C299.657 363.355 299.696 363.624 299.887 363.767C299.963 363.825 300.054 363.853 300.144 363.853Z" fill="black"/>
<path d="M303.241 366.141C303.381 366.141 303.519 366.072 303.602 365.945L306.238 361.909C306.369 361.71 306.313 361.442 306.113 361.312C305.914 361.182 305.647 361.238 305.517 361.437L302.881 365.474C302.751 365.673 302.807 365.94 303.006 366.07C303.079 366.117 303.161 366.141 303.241 366.141Z" fill="black"/>
<path d="M278.635 329.864C271.691 324.821 259.121 342.612 259.121 342.612C259.121 342.612 221.049 290.868 227.919 245.128C197.288 253.417 131.256 282.594 121.69 255.946C110.734 225.424 211.375 206.022 236.24 212.509C261.105 218.995 261.793 285.458 278.635 329.864Z" fill="#64BC62"/>
<path d="M259.121 343.042C259.123 343.042 259.124 343.042 259.125 343.042C259.264 343.04 259.393 342.973 259.473 342.86C259.56 342.738 268.224 330.576 274.903 329.473C276.253 329.25 277.391 329.492 278.383 330.212C278.537 330.324 278.746 330.321 278.897 330.206C279.049 330.09 279.106 329.889 279.038 329.711C272.969 313.706 269.036 294.998 265.233 276.904C261.885 260.976 258.722 245.931 254.387 234.262C252.059 227.992 249.58 223.199 246.811 219.609C243.699 215.574 240.276 213.115 236.35 212.091C231.336 210.783 223.299 210.481 213.111 211.216C202.982 211.947 191.73 213.629 180.571 216.079C168.533 218.721 157.339 222.124 148.194 225.919C137.714 230.268 130.068 235.024 125.47 240.053C120.734 245.233 119.326 250.629 121.287 256.09C122.242 258.751 123.796 260.97 125.905 262.685C127.884 264.294 130.406 265.501 133.401 266.274C138.796 267.666 145.716 267.722 154.556 266.448C170.655 264.126 189.628 257.862 206.367 252.335C214.114 249.777 221.446 247.357 227.402 245.716C225.95 256.033 226.648 267.479 229.48 279.751C231.79 289.763 235.516 300.344 240.556 311.202C249.134 329.68 258.682 342.735 258.776 342.865C258.856 342.977 258.984 343.042 259.121 343.042ZM275.822 328.533C275.478 328.533 275.124 328.563 274.762 328.622C271.79 329.113 268.19 331.583 264.062 335.963C261.723 338.445 259.869 340.87 259.124 341.876C257.34 339.366 248.951 327.248 241.329 310.824C233.458 293.863 224.815 268.708 228.347 245.193C228.368 245.049 228.316 244.904 228.207 244.807C228.099 244.71 227.949 244.674 227.808 244.713C221.721 246.36 214.131 248.866 206.096 251.518C189.391 257.034 170.456 263.285 154.432 265.597C135.995 268.256 125.418 265.051 122.098 255.801C120.254 250.664 121.602 245.561 126.106 240.636C134.623 231.32 154.543 222.677 180.756 216.921C203.358 211.959 226.13 210.316 236.133 212.925C243.242 214.779 248.785 221.655 253.58 234.562C257.892 246.171 261.048 261.185 264.391 277.082C268.114 294.794 271.961 313.098 277.821 328.916C277.2 328.66 276.533 328.533 275.822 328.533Z" fill="black"/>
<path d="M303.394 281.896C308.627 283.225 312.485 286.531 317.489 287.26C347.057 291.566 372.19 291.564 359.546 306.687C344.761 324.37 320.588 311.182 304.128 308.658C298.789 307.839 296.375 303.597 296.049 299.165C295.895 297.078 295.497 287.988 296.181 286.153C297.462 282.714 300.053 281.047 303.394 281.896Z" fill="#64BC62"/>
<path d="M339.13 316.186C339.197 316.186 339.265 316.186 339.332 316.185C348.005 316.141 354.725 313.124 359.876 306.964C362.914 303.331 363.932 300.398 362.989 298C361.955 295.371 358.564 293.445 352.316 291.937C346.744 290.592 339.526 289.687 331.167 288.637C326.78 288.087 322.245 287.518 317.552 286.834C314.904 286.448 312.591 285.327 310.145 284.139C308.077 283.135 305.937 282.098 303.5 281.478C301.766 281.038 300.137 281.234 298.792 282.048C297.491 282.834 296.449 284.202 295.778 286.003C295.01 288.064 295.516 297.799 295.619 299.197C295.8 301.652 296.577 303.841 297.866 305.529C299.362 307.487 301.447 308.683 304.063 309.084C307.857 309.665 312.058 310.816 316.505 312.034C323.955 314.076 331.657 316.186 339.13 316.186ZM303.287 282.314C305.639 282.912 307.738 283.93 309.768 284.914C312.277 286.132 314.647 287.282 317.428 287.687C322.129 288.372 326.669 288.941 331.06 289.493C339.393 290.539 346.59 291.442 352.114 292.775C358.065 294.212 361.265 295.972 362.187 298.316C363.005 300.394 362.032 303.043 359.215 306.413C348.038 319.78 331.407 315.224 316.732 311.205C312.261 309.98 308.037 308.823 304.193 308.234C299.731 307.55 296.847 304.148 296.478 299.136C296.292 296.611 295.971 287.954 296.584 286.307C297.815 282.999 300.259 281.545 303.287 282.314Z" fill="black"/>
<path d="M347.96 291.464C343.247 290.519 341.087 300.721 342.981 310.389C329.553 312.922 313.789 305.632 301.988 303.822C299.43 303.43 297.543 302.252 296.236 300.644C296.951 304.507 299.385 307.931 304.126 308.659C320.586 311.182 344.766 324.96 359.55 307.277C363.827 302.16 363.774 298.186 360.696 295.779C358.761 293.283 352.985 292.47 347.96 291.464Z" fill="white"/>
<path d="M339.675 316.581C348.192 316.581 354.802 313.628 359.881 307.553C362.397 304.543 363.545 301.816 363.294 299.449C363.129 297.885 362.358 296.548 361.003 295.473C359.181 293.186 354.472 292.281 349.916 291.406C349.299 291.287 348.66 291.164 348.046 291.041L347.961 291.463L348.046 291.041C346.891 290.809 345.797 291.168 344.884 292.078C342.109 294.841 341.095 302.508 342.477 310.042C333.595 311.572 323.509 308.81 314.593 306.367C310.121 305.143 305.898 303.986 302.054 303.396C299.761 303.045 297.917 302.027 296.571 300.372C296.447 300.22 296.235 300.17 296.056 300.253C295.877 300.335 295.777 300.528 295.813 300.722C296.672 305.364 299.678 308.412 304.061 309.084C307.972 309.684 312.316 310.922 316.915 312.232C324.372 314.357 332.082 316.554 339.542 316.581C339.586 316.581 339.631 316.581 339.675 316.581ZM347.37 291.835C347.536 291.835 347.705 291.852 347.876 291.886C348.494 292.011 349.134 292.134 349.754 292.253C354.18 293.103 358.757 293.982 360.355 296.044C360.376 296.073 360.402 296.098 360.43 296.12C361.619 297.051 362.295 298.201 362.437 299.54C362.659 301.637 361.546 304.218 359.219 307.001C353.732 313.564 346.914 315.72 339.666 315.72C332.294 315.721 324.477 313.492 317.151 311.404C312.526 310.086 308.157 308.841 304.192 308.233C300.694 307.697 298.155 305.491 297.047 302.095C298.373 303.233 300.007 303.956 301.923 304.249C305.718 304.831 309.918 305.982 314.365 307.2C323.513 309.705 333.881 312.545 343.061 310.813C343.174 310.792 343.274 310.726 343.337 310.631C343.402 310.536 343.425 310.419 343.404 310.306C341.975 303.015 342.892 295.277 345.49 292.689C346.062 292.121 346.692 291.835 347.37 291.835Z" fill="black"/>
<path d="M321.958 295.747C322.141 295.747 322.31 295.63 322.368 295.446L324.446 288.914C324.519 288.688 324.393 288.446 324.166 288.373C323.94 288.302 323.698 288.427 323.625 288.653L321.547 295.185C321.475 295.412 321.6 295.654 321.827 295.726C321.871 295.74 321.915 295.747 321.958 295.747Z" fill="black"/>
<path d="M324.88 296.357C325.063 296.357 325.232 296.239 325.29 296.056L327.368 289.524C327.441 289.298 327.315 289.055 327.088 288.983C326.862 288.912 326.619 289.036 326.547 289.263L324.469 295.795C324.397 296.021 324.522 296.263 324.749 296.336C324.793 296.35 324.837 296.357 324.88 296.357Z" fill="black"/>
<path d="M327.804 296.967C327.986 296.967 328.156 296.85 328.214 296.667L330.292 290.135C330.364 289.908 330.239 289.666 330.012 289.594C329.785 289.522 329.543 289.647 329.471 289.874L327.393 296.406C327.32 296.632 327.446 296.874 327.673 296.947C327.717 296.961 327.761 296.967 327.804 296.967Z" fill="black"/>
<path d="M330.728 297.577C330.91 297.577 331.08 297.46 331.138 297.277L333.216 290.745C333.288 290.518 333.162 290.276 332.936 290.204C332.709 290.132 332.467 290.257 332.395 290.484L330.317 297.015C330.244 297.242 330.37 297.484 330.597 297.557C330.64 297.571 330.684 297.577 330.728 297.577Z" fill="black"/>
<path d="M271.217 267.423C285.637 278.398 295.793 292.137 295.793 292.137C295.793 292.137 311.394 297.999 315.219 295.527C319.044 293.055 319.334 288.048 319.334 288.048C319.334 288.048 305.253 281.641 297.045 264.816C288.837 247.992 281.148 245.076 280.623 246.216C280.097 247.356 271.217 267.423 271.217 267.423Z" fill="white"/>
<path d="M312.279 296.562C313.698 296.562 314.759 296.338 315.453 295.889C319.416 293.329 319.753 288.287 319.765 288.074C319.775 287.896 319.675 287.731 319.513 287.657C319.478 287.641 315.971 286.023 311.516 282.388C307.41 279.037 301.633 273.236 297.432 264.628C293.485 256.539 289.79 251.961 287.385 249.545C284.459 246.608 282.19 245.568 281.124 245.568C281.118 245.568 281.112 245.568 281.106 245.568C280.531 245.574 280.311 245.864 280.232 246.037C279.711 247.167 271.187 266.43 270.824 267.249C270.743 267.432 270.798 267.645 270.957 267.766C285.158 278.575 295.345 292.257 295.446 292.394C295.496 292.461 295.564 292.512 295.641 292.541C295.681 292.556 299.612 294.027 303.962 295.176C307.46 296.099 310.239 296.562 312.279 296.562ZM318.876 288.306C318.744 289.371 318.068 293.173 314.986 295.165C312.026 297.078 300.439 293.41 296.062 291.778C295.097 290.496 285.26 277.64 271.75 267.286C272.863 264.77 280.346 247.865 280.994 246.442C281.06 246.425 281.281 246.397 281.77 246.555C282.359 246.747 284.526 247.642 287.718 251.143C290.827 254.553 293.834 259.216 296.659 265.005C300.933 273.767 306.815 279.668 310.996 283.076C314.856 286.221 317.949 287.85 318.876 288.306Z" fill="black"/>
<path d="M100.699 232.045C98.0433 199.653 114.04 219.851 128.041 209.394C130.436 207.604 141.639 241.02 144.225 239.112C175.66 215.907 202.785 185.185 219.542 179.316C245.733 170.142 289.269 257.049 299.987 259.798C310.705 262.547 298.991 292.657 283.846 282.528C271.992 274.6 262.527 266.804 254.972 259.44C241.561 213.296 225.172 210.66 225.172 210.66C225.172 210.66 201.853 268.684 159.55 282.164C123.248 293.731 104.351 276.6 100.699 232.045Z" fill="#64BC62"/>
<path d="M139.594 286.1C145.581 286.1 152.325 284.916 159.679 282.574C169.386 279.481 178.894 273.778 187.937 265.624C195.159 259.111 202.104 251.028 208.578 241.6C218.652 226.928 224.461 213.473 225.427 211.166C226.496 211.478 230.105 212.858 234.819 218.142C240.03 223.983 247.684 235.909 254.557 259.559C254.578 259.63 254.617 259.695 254.67 259.747C262.884 267.753 272.619 275.537 283.605 282.885C288.789 286.352 293.128 284.993 295.854 283.244C298.619 281.469 301.048 278.454 302.691 274.756C304.251 271.247 304.881 267.59 304.418 264.722C303.959 261.876 302.423 259.978 300.092 259.38C296.581 258.48 288.817 247.323 279.828 234.403C271.063 221.806 260.154 206.128 249.549 194.745C237.072 181.352 227.21 176.172 219.398 178.909C209.613 182.336 196.3 194.187 180.885 207.91C169.778 217.798 157.188 229.005 143.977 238.758C143.916 238.744 143.593 238.62 142.904 237.599C142.376 236.817 141.748 235.691 140.986 234.156C139.56 231.287 137.885 227.425 136.265 223.691C134.748 220.192 133.178 216.574 131.854 213.872C129.849 209.783 129.039 209.077 128.463 208.924C128.219 208.858 127.977 208.903 127.781 209.05C122.69 212.853 117.356 212.502 112.649 212.192C108.667 211.93 105.229 211.703 102.888 214.082C100.274 216.739 99.4656 222.29 100.269 232.081L100.698 232.046L100.269 232.081C101.274 244.343 103.468 254.63 106.79 262.655C108.469 266.712 110.476 270.287 112.754 273.282C115.047 276.297 117.682 278.812 120.586 280.757C125.385 283.972 131.102 285.755 137.581 286.055C138.242 286.085 138.914 286.1 139.594 286.1ZM225.17 210.228C224.997 210.228 224.837 210.333 224.77 210.499C224.712 210.644 218.825 225.16 207.857 241.128C197.754 255.839 181.148 274.829 159.417 281.753C152.177 284.061 145.581 285.214 139.667 285.214C132.43 285.214 126.211 283.489 121.065 280.041C109.831 272.515 103.123 256.355 101.128 232.01C100.358 222.62 101.112 217.115 103.502 214.686C105.566 212.589 108.822 212.803 112.593 213.051C114.911 213.203 117.538 213.376 120.196 213.012C123.248 212.594 125.887 211.531 128.265 209.763C128.35 209.798 128.652 209.982 129.258 210.909C129.745 211.656 130.327 212.718 131.035 214.156C132.361 216.851 133.945 220.502 135.476 224.033C137.059 227.684 138.697 231.461 140.109 234.323C142.255 238.677 143.154 239.429 143.751 239.589C144.012 239.659 144.271 239.613 144.48 239.458C157.727 229.68 170.335 218.456 181.459 208.553C196.806 194.891 210.06 183.092 219.684 179.721C223.606 178.347 228.233 179.166 233.436 182.157C238.088 184.832 243.153 189.141 248.92 195.331C259.483 206.669 270.373 222.319 279.122 234.893C283.891 241.746 288.01 247.665 291.519 252.166C295.497 257.269 298.076 259.75 299.88 260.213C302.416 260.863 303.286 263.097 303.569 264.857C304.425 270.167 301.108 278.847 295.389 282.517C292.879 284.127 288.881 285.374 284.085 282.167C273.178 274.873 263.513 267.149 255.354 259.207C252.295 248.703 248.826 239.601 245.042 232.153C241.997 226.16 238.74 221.215 235.364 217.455C229.555 210.989 225.414 210.259 225.241 210.232C225.216 210.23 225.194 210.228 225.17 210.228Z" fill="black"/>
<path d="M172.81 210.516L239.761 205.078C242.695 204.839 245.633 202.243 246.323 199.276L256.093 157.312C256.783 154.347 254.965 152.135 252.031 152.374L185.08 157.811C182.146 158.05 179.208 160.647 178.518 163.613L168.748 205.577C168.058 208.543 169.877 210.754 172.81 210.516Z" fill="white"/>
<path d="M172.381 210.965C172.533 210.965 172.688 210.959 172.845 210.946L239.797 205.508C242.899 205.257 246.015 202.505 246.744 199.374L256.514 157.411C256.887 155.804 256.598 154.344 255.698 153.301C254.838 152.302 253.523 151.821 251.998 151.944L185.046 157.381C181.944 157.633 178.828 160.385 178.099 163.515L168.33 205.479C167.956 207.086 168.245 208.545 169.145 209.589C169.917 210.485 171.054 210.965 172.381 210.965ZM172.775 210.087C171.531 210.188 170.473 209.811 169.797 209.026C169.082 208.196 168.859 207.006 169.169 205.674L178.938 163.711C179.588 160.918 182.36 158.464 185.116 158.24L252.068 152.803C253.311 152.701 254.37 153.078 255.046 153.863C255.761 154.693 255.985 155.883 255.674 157.215L245.905 199.179C245.254 201.971 242.483 204.425 239.727 204.649L172.775 210.087Z" fill="black"/>
<path d="M135.864 218.178L210.035 212.154C210.975 212.077 211.675 211.254 211.599 210.314C211.522 209.374 210.698 208.673 209.758 208.75L135.587 214.774C134.647 214.851 133.947 215.675 134.023 216.615C134.1 217.555 134.924 218.255 135.864 218.178Z" fill="white"/>
<path d="M135.725 218.616C135.782 218.616 135.841 218.613 135.9 218.609L210.071 212.584C211.246 212.489 212.125 211.455 212.029 210.28C211.982 209.71 211.718 209.193 211.282 208.823C210.847 208.453 210.294 208.275 209.724 208.321L135.553 214.345C134.984 214.392 134.467 214.657 134.097 215.092C133.727 215.528 133.549 216.081 133.595 216.65C133.685 217.767 134.623 218.616 135.725 218.616ZM135.83 217.75C135.127 217.806 134.511 217.282 134.454 216.58C134.397 215.878 134.922 215.261 135.623 215.204L209.794 209.18C210.134 209.153 210.464 209.259 210.725 209.48C210.985 209.701 211.142 210.01 211.171 210.349C211.198 210.69 211.092 211.02 210.871 211.28C210.65 211.54 210.341 211.698 210.002 211.725L135.83 217.75Z" fill="black"/>
<path d="M174.002 211.654L240.954 206.217C243.888 205.978 246.826 203.381 247.516 200.415L257.285 158.451C257.976 155.485 256.158 153.274 253.224 153.512L186.272 158.95C183.338 159.188 180.4 161.785 179.71 164.752L169.941 206.716C169.25 209.681 171.068 211.893 174.002 211.654Z" fill="white"/>
<path d="M173.571 212.103C173.724 212.103 173.879 212.097 174.036 212.084L240.987 206.647C244.089 206.395 247.205 203.643 247.934 200.513L257.704 158.549C258.078 156.943 257.788 155.483 256.889 154.44C256.028 153.441 254.713 152.959 253.188 153.083L186.237 158.52C183.135 158.772 180.018 161.524 179.29 164.654L169.52 206.618C169.146 208.225 169.436 209.684 170.335 210.727C171.108 211.624 172.244 212.103 173.571 212.103ZM253.649 153.925C254.724 153.925 255.632 154.301 256.237 155.002C256.952 155.832 257.175 157.022 256.865 158.354L247.095 200.318C246.445 203.11 243.674 205.564 240.918 205.788L173.966 211.225C172.722 211.327 171.664 210.95 170.987 210.165C170.272 209.335 170.049 208.145 170.359 206.813L180.129 164.849C180.778 162.057 183.55 159.603 186.306 159.379L253.258 153.942C253.391 153.931 253.522 153.925 253.649 153.925Z" fill="black"/>
<path d="M168.053 215.565L242.224 209.54C243.164 209.464 243.865 208.64 243.788 207.7C243.712 206.76 242.888 206.059 241.948 206.136L167.777 212.16C166.837 212.237 166.136 213.061 166.213 214.001C166.289 214.941 167.113 215.641 168.053 215.565Z" fill="white"/>
<path d="M167.914 216.002C167.972 216.002 168.03 215.999 168.089 215.995L242.26 209.97C243.435 209.875 244.314 208.841 244.218 207.666C244.123 206.491 243.089 205.612 241.914 205.707L167.743 211.732C166.567 211.827 165.689 212.861 165.784 214.036C165.876 215.152 166.813 216.002 167.914 216.002ZM168.019 215.136C167.315 215.192 166.7 214.668 166.643 213.967C166.586 213.265 167.111 212.647 167.812 212.591L241.983 206.566C242.685 206.509 243.303 207.034 243.359 207.736C243.416 208.437 242.892 209.055 242.19 209.111L168.019 215.136Z" fill="black"/>
<path d="M210.555 183.22C209.109 181.713 209.615 178.883 211.683 176.899C213.751 174.915 216.6 174.529 218.045 176.036C219.49 177.543 218.985 180.372 216.917 182.356C214.849 184.34 212 184.727 210.555 183.22Z" fill="white"/>
<path d="M212.893 184.588C213.023 184.588 213.154 184.583 213.288 184.571C215.913 184.359 218.549 182.031 219.166 179.382C219.485 178.015 219.237 176.771 218.469 175.88C217.733 175.026 216.612 174.614 215.312 174.72C212.687 174.933 210.051 177.261 209.434 179.909C209.115 181.277 209.363 182.521 210.131 183.412C210.792 184.177 211.762 184.588 212.893 184.588ZM215.703 175.566C216.582 175.566 217.324 175.872 217.817 176.443C218.401 177.12 218.582 178.095 218.328 179.187C217.79 181.497 215.498 183.528 213.219 183.713C212.2 183.796 211.335 183.489 210.784 182.849C210.2 182.172 210.019 181.197 210.273 180.105C210.811 177.795 213.102 175.764 215.382 175.579C215.491 175.57 215.598 175.566 215.703 175.566Z" fill="black"/>
<path d="M118.324 142.699L134.006 168.727C134.006 168.727 143.316 143.49 145.438 127.296C145.795 124.572 149.161 122.342 150.921 121.265C154.849 118.862 154.3 124.441 154.633 135.15C155.295 156.409 152.017 193.512 142.222 197.899C127.492 204.495 100.38 157.095 97.9289 146.506C95.4785 135.916 118.324 142.699 118.324 142.699Z" fill="white"/>
<path d="M139.226 198.954C140.351 198.954 141.41 198.733 142.397 198.291C144.812 197.21 146.963 194.214 148.789 189.385C150.375 185.19 151.715 179.65 152.773 172.918C154.906 159.347 155.354 144.502 155.063 135.137C155.015 133.604 154.984 132.146 154.958 130.86C154.831 124.707 154.76 121.318 153.214 120.472C152.567 120.118 151.743 120.258 150.696 120.898C149.391 121.697 145.419 124.127 145.011 127.24C143.137 141.541 135.537 163.2 133.91 167.732L118.694 142.477C118.639 142.385 118.551 142.317 118.448 142.287C117.819 142.101 103.01 137.766 98.5783 141.936C97.4083 143.037 97.0482 144.606 97.5108 146.603C98.475 150.769 103.462 161.295 110.805 172.592C115.639 180.029 125.057 193.156 133.823 197.512C135.756 198.472 137.564 198.954 139.226 198.954ZM152.443 121.144C152.58 121.144 152.698 121.172 152.8 121.228C153.91 121.835 153.988 125.628 154.097 130.878C154.124 132.166 154.154 133.626 154.202 135.163C154.492 144.49 154.046 159.272 151.923 172.785C150.874 179.459 149.549 184.941 147.984 189.081C146.242 193.687 144.244 196.522 142.046 197.506C139.847 198.491 137.209 198.233 134.204 196.74C119.469 189.418 100.37 155.143 98.3492 146.408C97.9563 144.709 98.2234 143.451 99.1677 142.563C100.827 141.002 104.622 140.593 110.141 141.382C113.893 141.917 117.28 142.85 118.042 143.067L133.637 168.95C133.722 169.092 133.88 169.172 134.046 169.157C134.21 169.141 134.352 169.033 134.409 168.877C134.502 168.624 143.76 143.409 145.864 127.352C146.218 124.648 149.927 122.378 151.145 121.633C151.677 121.307 152.111 121.144 152.443 121.144Z" fill="black"/>
<path d="M106.172 179.1C124.329 183.333 133.854 163.825 133.854 163.825C133.854 163.825 118.972 123.424 98.6764 134.49C92.8089 137.689 87.6661 147.095 93.1708 155.827C102.189 170.134 106.172 179.1 106.172 179.1Z" fill="white"/>
<path d="M111.252 180.13C113.665 180.13 116.022 179.721 118.304 178.905C121.408 177.794 124.374 175.93 127.117 173.365C131.772 169.013 134.143 164.217 134.241 164.015C134.293 163.909 134.299 163.787 134.259 163.677C134.235 163.614 131.887 157.284 127.87 150.403C125.507 146.354 123.035 142.905 120.522 140.152C117.362 136.689 114.123 134.318 110.898 133.106C106.741 131.544 102.561 131.883 98.4724 134.112C94.8985 136.06 91.9924 139.907 90.8887 144.149C90.1442 147.011 89.8728 151.399 92.8092 156.057C101.703 170.168 105.742 179.185 105.781 179.275C105.836 179.398 105.946 179.488 106.077 179.519C107.822 179.927 109.551 180.13 111.252 180.13ZM133.384 163.8C132.926 164.679 130.585 168.95 126.509 172.753C120.51 178.352 113.771 180.361 106.477 178.727C105.836 177.328 101.742 168.616 93.5363 155.598C90.7646 151.2 91.0196 147.063 91.721 144.366C92.7669 140.346 95.512 136.706 98.8834 134.868C102.742 132.764 106.682 132.443 110.593 133.912C117.631 136.555 123.464 144.568 127.118 150.825C130.729 157.007 132.978 162.737 133.384 163.8Z" fill="black"/>
<path d="M113.311 135.607C105.063 127.275 66.9887 135.607 57.4242 152.021C55.3374 155.601 56.1309 164.261 61.8778 175.45C70.8892 192.995 98.075 221.25 97.7476 239.207C108.81 254.957 137.971 233.464 138.223 225.959C134.54 214.328 130.168 196.099 128.929 184.2C138.138 175.62 122.834 158.306 122.834 158.306C122.834 158.306 122.477 144.866 113.311 135.607Z" fill="white"/>
<path d="M109.062 245.272C111.23 245.272 113.575 244.899 116.068 244.157C121.188 242.633 126.795 239.54 131.452 235.674C135.88 231.999 138.572 228.371 138.652 225.973C138.654 225.924 138.647 225.875 138.632 225.828C135.088 214.632 130.656 196.349 129.378 184.366C131.468 182.337 132.448 179.696 132.29 176.512C132.163 173.949 131.298 171.032 129.719 167.843C127.293 162.944 123.886 158.871 123.256 158.137C123.224 157.416 123.023 154.338 121.923 150.315C120.783 146.144 118.416 140.154 113.616 135.304C110.624 132.282 103.756 131.203 94.772 132.344C87.3718 133.284 79.6123 135.578 72.922 138.803C65.3753 142.44 59.8878 146.936 57.0515 151.803C55.9133 153.755 55.6428 157.004 56.2881 160.951C57.0032 165.326 58.804 170.408 61.4947 175.646C64.5964 181.685 69.8203 188.958 75.3508 196.657C85.7468 211.131 97.53 227.536 97.3172 239.198C97.3154 239.29 97.343 239.379 97.3956 239.453C99.4677 242.403 102.28 244.254 105.753 244.954C106.803 245.166 107.909 245.272 109.062 245.272ZM137.789 226.015C137.661 228.116 134.971 231.634 130.902 235.012C126.33 238.806 120.834 241.839 115.822 243.331C110.326 244.967 102.82 245.548 98.1805 239.072C98.2348 233.742 95.9334 227.073 91.1482 218.693C86.9212 211.291 81.3949 203.597 76.0496 196.156C70.538 188.482 65.3331 181.235 62.2607 175.253C56.4751 163.99 55.8495 155.578 57.7959 152.238C63.715 142.08 80.9322 134.971 94.8806 133.2C99.0352 132.672 102.868 132.625 105.966 133.065C109.178 133.52 111.612 134.504 113.004 135.91L113.31 135.607L113.004 135.91C117.673 140.627 119.98 146.47 121.093 150.542C122.3 154.958 122.401 158.283 122.402 158.316C122.404 158.417 122.442 158.514 122.509 158.59C122.547 158.633 126.336 162.949 128.954 168.239C132.402 175.209 132.294 180.473 128.633 183.884C128.534 183.976 128.484 184.11 128.498 184.244C129.751 196.254 134.214 214.706 137.789 226.015Z" fill="black"/>
<path d="M63.5013 152.733C79.2909 145.344 98.2623 195.244 102.244 221.559C120.881 213.494 155.762 203.751 157.626 208.415C160.539 215.707 106.85 247.571 95.114 237.868C79.7949 230.245 39.2656 164.073 63.5013 152.733Z" fill="white"/>
<path d="M101.621 240.122C102.578 240.122 103.606 240.054 104.705 239.92C108.655 239.438 113.435 238.108 118.914 235.969C128.62 232.179 139.794 226.073 148.075 220.034C151.43 217.588 154.109 215.281 155.823 213.362C157.768 211.183 158.51 209.465 158.027 208.257C157.848 207.811 157.462 207.463 156.875 207.221C150.667 204.662 119.397 213.759 102.586 220.945C100.771 209.391 96.3582 194.41 91.0103 181.68C88.0077 174.532 84.8835 168.466 81.7249 163.653C78.1829 158.255 74.7047 154.616 71.3849 152.84C68.5615 151.328 65.8475 151.161 63.3196 152.344C58.2327 154.724 55.61 159.555 55.5239 166.703C55.4567 172.254 56.9171 179.076 59.8637 186.981C62.4451 193.904 66.143 201.525 70.5595 209.019C74.6805 216.013 79.1781 222.503 83.5644 227.789C87.9947 233.128 91.9055 236.738 94.878 238.234C96.4228 239.49 98.6837 240.122 101.621 240.122ZM153.689 207.628C154.953 207.628 155.914 207.757 156.546 208.017C156.908 208.167 157.138 208.355 157.226 208.575C157.783 209.968 155.538 213.527 147.567 219.338C139.341 225.336 128.241 231.401 118.6 235.167C107.178 239.627 98.9344 240.47 95.3889 237.538C95.3639 237.517 95.3355 237.499 95.3062 237.484C92.475 236.076 88.541 232.436 84.2279 227.238C79.8699 221.987 75.4008 215.535 71.3022 208.58C61.6981 192.283 56.2606 177.023 56.3855 166.712C56.4673 159.924 58.9237 155.351 63.6849 153.124C65.9535 152.063 68.4073 152.222 70.9783 153.599C77.0525 156.85 83.8841 166.941 90.2159 182.013C95.6233 194.885 100.069 210.064 101.818 221.625C101.838 221.757 101.918 221.872 102.035 221.937C102.152 222.002 102.293 222.008 102.415 221.956C110.935 218.269 122.974 214.179 133.835 211.282C142.798 208.891 149.725 207.628 153.689 207.628Z" fill="black"/>
<path d="M162.144 197.883C162.144 197.883 165.86 195.591 168.325 196.438C170.79 197.286 179.563 201.979 179.165 203.495C178.806 204.856 177.499 204.997 177.499 204.997C177.499 204.997 179.288 205.922 178.95 206.947C178.439 208.498 175.438 207.736 175.438 207.736C175.438 207.736 176.897 208.585 176.435 209.74C175.973 210.896 172.233 210.682 169.715 208.486C168.443 209.16 164.131 210.023 163.632 209.927C162.813 211.382 161.755 213.404 158.676 215.094C154.75 217.248 148.495 216.115 148.726 211.339C148.957 206.562 154.078 201.22 157.082 197.83C160.086 194.44 162.362 190.181 163.748 188.409C165.135 186.637 175.437 188.329 174.605 190.617C173.914 192.518 166.525 191.417 166.525 191.417C166.525 191.417 164.147 195.495 162.144 197.883Z" fill="white"/>
<path d="M149.326 208.61C150.803 204.629 154.641 200.585 157.083 197.832C160.087 194.442 162.363 190.183 163.749 188.411C165.136 186.639 175.438 188.331 174.606 190.619C173.915 192.52 166.526 191.419 166.526 191.419C166.526 191.419 164.147 195.495 162.144 197.883C162.144 197.883 165.86 195.591 168.325 196.439C170.79 197.286 179.563 201.979 179.165 203.495C178.806 204.856 177.499 204.997 177.499 204.997C177.499 204.997 179.288 205.922 178.95 206.947C178.439 208.498 175.438 207.736 175.438 207.736C175.438 207.736 176.897 208.585 176.435 209.741C175.973 210.896 172.233 210.682 169.715 208.486C168.443 209.16 164.131 210.023 163.632 209.927C162.813 211.382 161.755 213.404 158.676 215.094C156.872 216.084 154.576 216.38 152.644 215.948" fill="white"/>
<path d="M154.436 216.571C155.985 216.571 157.579 216.189 158.883 215.473C161.919 213.807 163.062 211.824 163.885 210.356C165.032 210.283 168.268 209.591 169.649 208.996C171.634 210.605 174.193 211.112 175.653 210.76C176.42 210.574 176.719 210.192 176.834 209.902C177.068 209.318 176.935 208.782 176.667 208.345C177.69 208.394 178.987 208.214 179.359 207.083C179.63 206.259 179.015 205.554 178.454 205.108C178.894 204.855 179.371 204.404 179.581 203.605C179.726 203.054 179.319 202.417 178.26 201.541C177.493 200.906 176.41 200.167 175.04 199.347C172.452 197.797 169.665 196.444 168.464 196.032C166.931 195.504 165.012 196.065 163.649 196.642C165.024 194.749 166.319 192.609 166.75 191.886C167.348 191.964 168.787 192.134 170.297 192.163C173.106 192.217 174.648 191.761 175.01 190.767C175.195 190.259 175.134 189.496 173.792 188.753C172.547 188.063 170.332 187.495 168.149 187.307C166.719 187.185 164.203 187.13 163.409 188.146C162.905 188.79 162.292 189.745 161.583 190.851C160.288 192.87 158.677 195.383 156.759 197.546C156.527 197.809 156.281 198.083 156.026 198.368C153.603 201.075 150.285 204.784 148.921 208.462C148.839 208.685 148.952 208.933 149.175 209.016C149.399 209.098 149.647 208.985 149.729 208.762C151.037 205.237 154.292 201.599 156.669 198.943C156.925 198.657 157.171 198.382 157.405 198.118C159.366 195.905 160.998 193.361 162.309 191.316C163.007 190.229 163.609 189.29 164.088 188.677C164.4 188.279 165.753 187.966 168.075 188.165C170.148 188.344 172.227 188.869 173.375 189.506C173.741 189.708 174.334 190.104 174.2 190.473C174.124 190.683 173.617 191.365 170.322 191.301C168.437 191.265 166.606 190.996 166.588 190.993C166.414 190.966 166.242 191.05 166.153 191.201C166.13 191.242 163.769 195.274 161.812 197.607C161.676 197.768 161.678 198.005 161.817 198.165C161.955 198.325 162.189 198.36 162.369 198.25C162.404 198.229 165.942 196.075 168.184 196.846C169.313 197.233 171.977 198.526 174.481 200.016C178.753 202.559 178.747 203.383 178.746 203.39C178.468 204.447 177.462 204.566 177.452 204.568C177.263 204.589 177.11 204.73 177.075 204.917C177.039 205.104 177.132 205.292 177.3 205.379C177.777 205.627 178.707 206.304 178.54 206.813C178.228 207.764 176.221 207.489 175.543 207.318C175.335 207.266 175.12 207.374 175.039 207.573C174.958 207.772 175.035 208 175.221 208.108C175.231 208.115 176.352 208.787 176.034 209.582C175.979 209.72 175.761 209.846 175.451 209.921C174.157 210.233 171.703 209.65 169.997 208.163C169.862 208.046 169.669 208.023 169.512 208.107C168.296 208.75 164.187 209.55 163.705 209.503C163.525 209.472 163.344 209.557 163.255 209.716L163.169 209.87C162.393 211.252 161.332 213.146 158.468 214.718C156.796 215.635 154.6 215.946 152.736 215.529C152.505 215.476 152.274 215.622 152.222 215.855C152.17 216.087 152.316 216.318 152.549 216.369C153.154 216.505 153.791 216.571 154.436 216.571Z" fill="black"/>
<path d="M177.499 205.428C177.629 205.428 177.758 205.37 177.842 205.258C177.986 205.068 177.948 204.798 177.759 204.655C173.022 201.069 169.559 199.091 168.257 199.226C167.296 199.325 162.884 200.543 162.697 200.595C162.468 200.658 162.334 200.895 162.397 201.125C162.46 201.354 162.697 201.488 162.926 201.425C164.183 201.077 167.607 200.159 168.345 200.082C168.981 200.015 171.568 201.051 177.238 205.341C177.317 205.4 177.408 205.428 177.499 205.428Z" fill="black"/>
<path d="M175.439 208.167C175.578 208.167 175.716 208.099 175.799 207.973C175.93 207.775 175.875 207.507 175.676 207.376C170.781 204.144 170.397 204.042 168.871 204.221L168.802 204.228C167.407 204.39 162.91 205.388 162.72 205.43C162.487 205.482 162.341 205.712 162.392 205.945C162.444 206.177 162.674 206.323 162.907 206.272C162.953 206.262 167.551 205.242 168.901 205.085L168.971 205.077C170.165 204.937 170.38 204.912 175.201 208.095C175.274 208.144 175.357 208.167 175.439 208.167Z" fill="black"/>
<path d="M63.0382 195.117C80.5579 201.494 92.3496 183.268 92.3496 183.268C92.3496 183.268 82.4146 141.375 60.9402 149.929C54.7316 152.403 48.4997 161.125 52.918 170.454C60.1579 185.738 63.0382 195.117 63.0382 195.117Z" fill="white"/>
<path d="M70.4663 196.9C72.0189 196.9 73.5663 196.726 75.1017 196.376C78.3172 195.645 81.4844 194.15 84.5155 191.932C89.6583 188.17 92.5868 183.691 92.7092 183.503C92.773 183.403 92.7936 183.284 92.7669 183.169C92.7523 183.106 91.2333 176.77 88.1824 169.618C88.0893 169.399 87.8352 169.297 87.6172 169.391C87.3983 169.484 87.2967 169.737 87.3897 169.956C90.1236 176.363 91.6141 182.105 91.8838 183.186C91.3238 184.004 88.4874 187.965 83.9864 191.253C77.3599 196.093 70.4284 197.28 63.3832 194.784C62.9136 193.318 59.8937 184.178 53.306 170.271C51.0805 165.574 51.8292 161.497 52.8493 158.903C54.37 155.037 57.5304 151.753 61.0982 150.331C63.9225 149.206 66.696 148.928 69.3411 149.503C69.5737 149.553 69.8029 149.407 69.8537 149.174C69.9046 148.941 69.7572 148.712 69.5246 148.661C66.7081 148.049 63.7657 148.341 60.7794 149.531C56.9979 151.037 53.6523 154.507 52.048 158.588C50.9659 161.34 50.1706 165.664 52.528 170.64C59.668 185.713 62.5965 195.15 62.6258 195.244C62.6655 195.374 62.7637 195.476 62.8903 195.523C65.4096 196.44 67.9453 196.9 70.4663 196.9Z" fill="black"/>
<path d="M128.927 184.199C127.167 185.573 123.767 186.183 123.767 186.183L128.927 184.199Z" fill="#78D176"/>
<path d="M123.767 186.614C123.792 186.614 123.818 186.612 123.844 186.607C123.987 186.582 127.37 185.962 129.193 184.54C129.38 184.393 129.413 184.123 129.268 183.935C129.121 183.747 128.851 183.714 128.663 183.86C127.008 185.151 123.724 185.754 123.691 185.76C123.457 185.802 123.302 186.026 123.343 186.26C123.381 186.468 123.562 186.614 123.767 186.614Z" fill="black"/>
<path d="M101.402 195.876C102.688 195.876 105.024 195.795 107.584 195.314C109.818 194.894 111.752 194.255 113.332 193.414C115.339 192.345 116.782 190.945 117.618 189.251C117.723 189.037 117.636 188.779 117.422 188.673C117.208 188.568 116.951 188.655 116.845 188.869C115.124 192.353 110.782 193.834 107.441 194.463C103.76 195.157 100.449 194.995 100.416 194.993C100.179 194.98 99.9756 195.164 99.9635 195.401C99.9514 195.639 100.133 195.841 100.371 195.853C100.416 195.857 100.79 195.876 101.402 195.876Z" fill="black"/>
<path d="M54.2163 149.051C56.6624 148.354 58.0521 147.983 60.1018 148.179C69.2296 139.209 76.666 136.381 83.8448 135.665C99.0863 134.145 96.1664 139.223 96.5989 132.938C96.6343 132.427 102.12 131.563 111.76 134.382C112.818 125.711 117.073 124.958 122.092 116.355C127.38 107.291 115.483 103.433 112.886 95.1049C110.288 86.7767 119.592 78.1022 109.234 73.5978C98.8761 69.0934 92.8613 69.2235 86.8647 62.1093C80.8688 54.9951 75.4339 62.5384 68.4171 66.9446C61.4003 71.3507 51.2774 62.0723 45.7313 74.7196C40.1853 87.3669 46.9117 92.3564 39.1738 101.527C31.4358 110.698 26.2214 109.441 27.6948 119.036C29.169 128.633 33.7923 128.001 31.8339 136.386C29.8755 144.773 34.3825 154.7 54.2163 149.051Z" fill="black"/>
<path d="M43.9264 151.135C46.7179 151.135 50.1402 150.661 54.3344 149.466C56.8287 148.755 58.1142 148.423 60.0606 148.609C60.1881 148.621 60.313 148.576 60.4035 148.487C70.4919 138.573 78.2531 136.657 83.8879 136.095C91.0607 135.38 94.1564 136.137 95.4781 136.461C96.1001 136.614 96.4422 136.697 96.7317 136.463C97.0229 136.228 97.0126 135.866 96.9928 135.21C96.979 134.754 96.96 134.078 97.0177 133.136C97.906 132.753 103.11 132.302 111.638 134.796C111.76 134.832 111.891 134.812 111.996 134.743C112.102 134.673 112.171 134.561 112.186 134.435C112.837 129.106 114.699 126.866 117.277 123.768C118.827 121.905 120.583 119.794 122.462 116.574C124.013 113.916 124.266 111.427 123.236 108.964C122.328 106.794 120.575 104.896 118.72 102.886C116.523 100.505 114.25 98.0426 113.295 94.9788C112.323 91.8633 113.079 88.6935 113.809 85.628C114.399 83.156 114.954 80.8211 114.546 78.699C114.079 76.2736 112.445 74.5272 109.404 73.2055C106.255 71.8356 103.487 70.8861 101.044 70.0486C95.3859 68.1075 91.2976 66.7057 87.1921 61.8351C82.2733 55.9986 77.5992 59.582 72.6502 63.3756C71.2191 64.4724 69.7388 65.6071 68.1863 66.5824C65.6187 68.1945 62.6186 67.8852 59.4411 67.5578C56.8839 67.2941 54.2396 67.021 51.7988 67.8257C49.033 68.7373 46.9187 70.9369 45.3342 74.5487C42.746 80.4498 42.7925 84.7104 42.8322 88.4686C42.8778 92.7361 42.9175 96.4211 38.8413 101.252C36.247 104.327 33.9293 106.225 32.0674 107.751C30.2184 109.266 28.758 110.463 27.8921 112.109C26.9823 113.84 26.7884 115.997 27.2658 119.104C27.9137 123.321 29.1811 125.639 30.1995 127.502C31.5272 129.93 32.4861 131.684 31.4109 136.291C30.9086 138.444 30.8465 140.596 31.2317 142.515C31.6676 144.684 32.6395 146.499 34.1206 147.911C35.8636 149.566 38.8507 151.135 43.9264 151.135ZM54.0975 148.637C42.6693 151.892 37.2508 149.699 34.7185 147.285C32.126 144.814 31.2274 140.878 32.2535 136.485C33.4046 131.558 32.325 129.585 30.9594 127.087C29.9221 125.19 28.746 123.038 28.1213 118.972C27.1839 112.867 28.9993 111.379 32.6171 108.415C34.5066 106.867 36.8579 104.941 39.5038 101.805C43.7868 96.7296 43.7454 92.8964 43.6972 88.4574C43.6576 84.7862 43.6128 80.6247 46.1269 74.8934C49.4182 67.388 54.2457 67.886 59.3558 68.4133C62.5376 68.7416 65.8281 69.0811 68.6472 67.3105C70.2343 66.3136 71.7308 65.1668 73.1775 64.058C78.1893 60.2161 82.1475 57.1816 86.5365 62.3891C90.7953 67.4423 94.9783 68.8769 100.767 70.8628C103.194 71.6951 105.946 72.6394 109.064 73.9947C111.821 75.1932 113.295 76.7398 113.702 78.861C114.076 80.8013 113.541 83.0483 112.974 85.4272C112.252 88.4574 111.433 91.8926 112.475 95.2339C113.488 98.4838 115.827 101.018 118.09 103.469C121.714 107.395 124.843 110.786 121.72 116.14C119.877 119.299 118.144 121.381 116.616 123.218C114.123 126.215 112.137 128.601 111.398 133.831C106.735 132.508 103.262 132.106 101.146 132.004C98.8555 131.894 97.0074 132.08 96.4361 132.478C96.2302 132.622 96.1777 132.792 96.1691 132.91C96.095 133.982 96.1174 134.736 96.132 135.236C96.1372 135.417 96.1423 135.602 96.1389 135.73C96.0183 135.707 95.8485 135.666 95.6823 135.625C94.3175 135.291 91.121 134.51 83.8018 135.239C79.7144 135.647 76.1267 136.664 72.5132 138.443C68.3586 140.487 64.2445 143.527 59.9408 147.735C57.9523 147.574 56.5461 147.94 54.0975 148.637Z" fill="black"/>
<path d="M29.2716 136.633C29.4611 136.633 29.6343 136.508 29.6869 136.316C31.0336 131.421 30.0418 129.396 28.7865 126.832C27.8327 124.884 26.7506 122.676 26.2965 118.566C25.6141 112.397 27.4821 110.979 31.2024 108.153C33.1453 106.678 35.563 104.841 38.3226 101.805C42.6875 97.0018 42.261 93.4012 41.7664 89.232C41.3365 85.6047 40.8497 81.494 43.6662 75.6774C47.2875 68.1979 53.1593 68.7743 58.8371 69.3309C62.467 69.6867 65.8953 70.0228 68.7231 68.3918C68.929 68.2729 68.9996 68.0092 68.8807 67.8033C68.7618 67.5974 68.4982 67.5267 68.2923 67.6456C65.704 69.1388 62.4093 68.8157 58.9216 68.4736C56.006 68.1876 52.9912 67.892 50.2049 68.6623C47.0204 69.5429 44.6278 71.7149 42.8908 75.3017C39.9648 81.3441 40.468 85.5883 40.9109 89.3328C41.3994 93.4564 41.7854 96.7132 37.6851 101.225C34.9788 104.204 32.5956 106.013 30.6812 107.468C28.7796 108.912 27.2779 110.052 26.3499 111.669C25.3738 113.368 25.0937 115.524 25.4401 118.661C25.9105 122.92 27.0762 125.299 28.0128 127.212C29.2337 129.705 30.1159 131.507 28.8563 136.089C28.7934 136.318 28.9278 136.555 29.1579 136.619C29.1958 136.629 29.2337 136.633 29.2716 136.633Z" fill="black"/>
<path d="M115.814 133.843C115.815 133.843 115.817 133.843 115.817 133.843C116.055 133.841 116.246 133.647 116.245 133.409C116.19 127.136 118.123 124.508 120.8 120.87C122.297 118.836 123.993 116.53 125.656 113.151C127.01 110.399 127.071 107.916 125.841 105.561C124.758 103.487 122.848 101.75 120.825 99.9101C118.43 97.7311 115.953 95.4781 114.753 92.5271C113.534 89.5279 114.047 86.3374 114.542 83.2529C114.942 80.7629 115.32 78.4108 114.743 76.3429C114.084 73.9813 112.305 72.3848 109.144 71.3181C105.869 70.2136 103.012 69.4941 100.49 68.8591C94.6464 67.3875 90.4254 66.3252 85.9158 61.8354C85.747 61.6674 85.4747 61.6683 85.3067 61.8372C85.1387 62.006 85.1395 62.2783 85.3084 62.4463C89.9851 67.1023 94.3034 68.1897 100.279 69.6949C102.786 70.3256 105.626 71.0415 108.868 72.1349C111.734 73.1016 113.338 74.5129 113.913 76.5756C114.44 78.4607 114.076 80.7224 113.692 83.1168C113.202 86.1694 112.646 89.6296 113.956 92.8528C115.229 95.9855 117.779 98.3049 120.246 100.549C124.195 104.14 127.605 107.241 124.884 112.772C123.256 116.082 121.582 118.355 120.107 120.361C117.436 123.991 115.326 126.858 115.384 133.417C115.385 133.653 115.578 133.843 115.814 133.843Z" fill="black"/>
<path d="M102.232 162.936C93.4321 152.287 80.3144 166.727 80.3144 166.727C80.3144 166.727 62.4699 136.211 82.8475 130.966C105.441 125.15 121.188 153.52 121.188 153.52C121.188 153.52 106.131 147.873 102.232 162.936Z" fill="white"/>
<path d="M80.314 167.158C80.4346 167.158 80.5509 167.107 80.6328 167.017C80.7034 166.939 87.7426 159.286 94.7474 159.453C97.4864 159.517 99.8928 160.782 101.899 163.211C102.003 163.336 102.167 163.392 102.325 163.358C102.483 163.322 102.609 163.202 102.649 163.045C103.744 158.813 105.844 155.863 108.89 154.279C114.301 151.462 120.969 153.9 121.035 153.925C121.204 153.988 121.395 153.939 121.513 153.802C121.631 153.665 121.651 153.47 121.563 153.312C121.523 153.241 117.516 146.088 110.784 139.75C106.819 136.017 102.696 133.287 98.5272 131.637C93.2939 129.566 87.9822 129.201 82.7394 130.55C78.3056 131.691 75.2926 134.106 73.784 137.725C72.7371 140.238 72.4149 143.346 72.8285 146.966C73.1559 149.835 73.9425 153.033 75.1677 156.473C77.2484 162.313 79.9159 166.9 79.9426 166.946C80.0116 167.064 80.133 167.143 80.27 167.157C80.2838 167.157 80.2993 167.158 80.314 167.158ZM94.5251 158.589C90.7246 158.589 87.0146 160.683 84.5504 162.461C82.5679 163.892 81.0843 165.318 80.4045 166.01C79.6687 164.677 77.6327 160.826 75.9742 156.168C74.0942 150.888 72.327 143.459 74.5792 138.055C75.9784 134.698 78.7959 132.454 82.9539 131.384C94.4277 128.43 104.091 134.636 110.179 140.362C115.377 145.252 118.928 150.635 120.244 152.776C119.494 152.572 118.404 152.324 117.109 152.177C114.845 151.921 111.513 151.944 108.497 153.511C105.415 155.113 103.242 157.984 102.03 162.052C99.9652 159.82 97.5252 158.657 94.7655 158.592C94.6854 158.589 94.6052 158.589 94.5251 158.589Z" fill="black"/>
<path d="M79.561 108.564L100.884 110.873C98.9769 113.628 100.997 128.114 101.026 134.599C108.784 144.731 108.606 167.802 108.606 167.802C108.606 167.802 74.5758 148.699 81.0188 134.483C81.3488 127.386 79.561 108.565 79.561 108.564Z" fill="white"/>
<path d="M108.607 168.233C108.682 168.233 108.756 168.213 108.823 168.175C108.955 168.098 109.037 167.958 109.038 167.805C109.038 167.747 109.072 161.926 108.154 154.944C107.614 150.837 106.855 147.135 105.897 143.938C104.714 139.986 103.22 136.795 101.457 134.453C101.439 132.412 101.237 129.631 101.023 126.692C100.576 120.539 100.019 112.883 101.24 111.118C101.326 110.993 101.34 110.832 101.277 110.694C101.214 110.557 101.082 110.462 100.931 110.445L79.6076 108.137C79.462 108.122 79.3156 108.182 79.2234 108.298C79.1527 108.387 79.1208 108.5 79.1329 108.61C79.1622 108.913 80.8992 127.363 80.5924 134.383C79.1036 137.745 79.6585 141.623 82.2424 145.91C84.2878 149.303 87.6101 152.968 92.1171 156.803C99.7629 163.308 108.31 168.132 108.395 168.18C108.462 168.215 108.535 168.233 108.607 168.233ZM100.222 111.235C99.2244 113.834 99.7017 120.393 100.164 126.754C100.382 129.748 100.588 132.577 100.597 134.602C100.597 134.696 100.629 134.787 100.686 134.862C103.811 138.943 106.097 145.923 107.298 155.047C108.02 160.522 108.15 165.275 108.172 167.055C106.045 165.808 99.0383 161.561 92.6677 156.14C88.2339 152.367 84.9736 148.774 82.9782 145.461C80.5313 141.401 80.0048 137.767 81.4118 134.662C81.4342 134.612 81.4471 134.559 81.4497 134.504C81.5876 131.544 81.3834 126.272 80.844 118.833C80.5847 115.262 80.1996 110.7 80.0384 109.05L100.222 111.235Z" fill="black"/>
<path d="M80.7962 110.71C87.8716 120.831 96.292 122.464 102.043 121.722C109.519 120.758 108.745 105.474 107.267 98.5859C105.031 88.1658 97.8308 75.9131 84.7725 80.4296C65.3186 87.1586 78.233 103.394 78.233 103.394C78.233 103.394 73.2469 103.144 74.4652 107.534C75.2458 110.345 80.7962 110.71 80.7962 110.71Z" fill="white"/>
<path d="M99.5828 122.312C100.495 122.312 101.339 122.249 102.099 122.151C103.733 121.94 105.093 121.082 106.14 119.602C108.081 116.859 108.58 112.445 108.657 109.225C108.741 105.724 108.379 101.714 107.689 98.4973C106.898 94.8106 105.591 91.3065 103.91 88.3633C101.923 84.8842 99.5139 82.3304 96.7507 80.7726C93.1467 78.741 89.0696 78.4894 84.6324 80.0239C78.7813 82.0478 75.2152 85.1357 74.0331 89.2025C73.1939 92.0905 73.5989 95.5102 75.204 99.0927C75.9907 100.849 76.8747 102.231 77.4088 102.997C76.5507 103.087 75.2436 103.387 74.4682 104.355C73.8125 105.175 73.6721 106.283 74.0521 107.65C74.9042 110.72 80.5304 111.125 80.7691 111.141C81.0051 111.157 81.2119 110.977 81.2274 110.74C81.2429 110.502 81.0628 110.297 80.8259 110.281C80.7734 110.278 75.5711 109.903 74.8818 107.42C74.5811 106.336 74.6672 105.487 75.1394 104.896C76.0639 103.738 78.192 103.825 78.2136 103.825C78.3824 103.833 78.5401 103.742 78.6177 103.591C78.6952 103.44 78.6771 103.259 78.572 103.127C78.5573 103.109 77.14 101.31 75.982 98.7196C74.9266 96.358 73.8754 92.8306 74.8628 89.4394C75.9639 85.6587 79.3457 82.7646 84.9159 80.8381C89.1093 79.388 92.9494 79.6181 96.3294 81.5231C101.2 84.2681 105.132 90.681 106.848 98.6783C108.021 104.146 108.676 114.527 105.438 119.105C104.536 120.381 103.376 121.118 101.99 121.297C98.5515 121.741 93.3104 121.44 87.8703 117.489C87.6782 117.349 87.4085 117.391 87.2689 117.584C87.1293 117.776 87.1716 118.046 87.3646 118.186C91.8328 121.431 96.1812 122.312 99.5828 122.312Z" fill="black"/>
<path d="M102.826 103.109C102.989 103.109 103.145 103.016 103.217 102.858C103.316 102.642 103.223 102.386 103.006 102.287C99.7555 100.791 98.1667 95.6352 98.1512 95.5827C98.0823 95.3552 97.8419 95.226 97.6145 95.2949C97.387 95.3638 97.2578 95.6034 97.3258 95.8317C97.3939 96.0583 99.0404 101.41 102.646 103.07C102.705 103.097 102.766 103.109 102.826 103.109Z" fill="black"/>
<path d="M100.584 110.17C99.9834 110.488 99.5069 110.853 99.1392 111.193C98.0886 112.167 97.6874 113.156 97.6702 113.198C97.5818 113.419 97.6899 113.669 97.9106 113.758C98.1316 113.845 98.3823 113.739 98.4707 113.517C98.5275 113.378 99.9213 110.078 104.51 110.147C104.748 110.151 104.944 109.961 104.947 109.723C104.951 109.485 104.761 109.289 104.523 109.286C102.85 109.261 101.555 109.655 100.584 110.17Z" fill="black"/>
<path d="M90.2286 76.8955C98.8712 91.1135 77.7863 102.528 77.7863 102.528C77.7863 102.528 67.9762 90.4087 74.3279 82.8267C81.2809 74.5278 90.2286 76.8955 90.2286 76.8955Z" fill="black"/>
<path d="M83.8366 77.2998C93.7088 72.1208 102.043 85.3109 102.043 85.3109C102.043 85.3109 92.9799 84.5019 89.3388 80.6178C85.6977 76.7338 83.8366 77.2998 83.8366 77.2998Z" fill="black"/>
<path d="M99.4591 86.114C102.322 86.114 104.884 85.0206 105.599 83.8842C105.725 83.6826 105.665 83.4172 105.464 83.2897C105.262 83.163 104.997 83.2233 104.87 83.4249C104.314 84.3081 101.734 85.4221 98.7931 85.23C96.4857 85.0792 92.2209 83.9712 89.587 78.245C89.4879 78.0288 89.232 77.934 89.0157 78.034C88.7995 78.1339 88.7047 78.3889 88.8046 78.6052C91.6255 84.7371 96.2385 85.9261 98.7379 86.0898C98.9792 86.1062 99.2204 86.114 99.4591 86.114Z" fill="black"/>
<path d="M227.917 245.559C227.99 245.559 228.065 245.54 228.133 245.5C228.339 245.38 228.408 245.117 228.288 244.911C228.277 244.892 227.139 242.913 226.29 239.665C226.23 239.434 225.994 239.297 225.764 239.357C225.534 239.417 225.396 239.652 225.457 239.882C226.338 243.254 227.495 245.261 227.543 245.345C227.624 245.482 227.768 245.559 227.917 245.559Z" fill="black"/>
<path d="M260.547 332.845C260.641 332.845 260.735 332.815 260.814 332.752C261.001 332.605 261.032 332.334 260.885 332.147C260.838 332.089 256.169 326.131 250.608 314.501C245.474 303.768 238.509 285.871 234.478 261.562C234.439 261.328 234.217 261.169 233.982 261.208C233.748 261.247 233.588 261.469 233.628 261.704C235.417 272.488 237.926 282.927 241.084 292.732C243.612 300.579 246.561 308.038 249.846 314.905C255.447 326.61 260.162 332.622 260.209 332.682C260.294 332.789 260.42 332.845 260.547 332.845Z" fill="black"/>
<path d="M291.25 281.645C291.456 281.645 291.638 281.496 291.674 281.287C291.715 281.053 291.557 280.83 291.323 280.789C278.003 278.493 264.857 264.931 256.175 253.958C246.735 242.029 240.388 230.495 240.325 230.38C240.211 230.171 239.949 230.095 239.74 230.208C239.532 230.323 239.455 230.584 239.569 230.793C239.632 230.909 246.01 242.498 255.492 254.483C261.067 261.53 266.611 267.336 271.971 271.741C278.699 277.27 285.161 280.6 291.177 281.638C291.201 281.643 291.226 281.645 291.25 281.645Z" fill="black"/>
<path d="M225.227 211.485C225.227 211.485 232.999 208.328 243.43 210.563C253.86 212.798 257.19 233.738 262.853 266.818C250.247 272.483 230.549 230.872 225.227 211.485Z" fill="#64BC62"/>
<path d="M262.852 267.248C262.876 267.248 262.9 267.247 262.925 267.242C263.16 267.202 263.317 266.98 263.277 266.745C262.996 265.102 262.722 263.494 262.453 261.92C259.883 246.835 257.852 234.92 255.269 226.305C252.488 217.029 249.185 212.123 244.561 210.399C240.024 208.707 234.855 208.937 231.317 209.429C227.497 209.959 224.782 210.873 224.668 210.911C224.443 210.987 224.323 211.232 224.398 211.457C224.474 211.682 224.72 211.803 224.945 211.726C224.972 211.717 227.709 210.798 231.452 210.279C234.887 209.803 239.896 209.578 244.259 211.205C248.606 212.826 251.746 217.559 254.443 226.553C257.01 235.117 259.037 247.009 261.603 262.065C261.871 263.639 262.145 265.248 262.426 266.891C262.464 267.1 262.645 267.248 262.852 267.248Z" fill="black"/>
<path d="M148.176 266.571C148.716 266.571 149.258 266.555 149.802 266.525C153.247 266.332 156.72 265.529 160.124 264.138C163.759 262.652 167.292 260.503 170.625 257.75C174.203 254.794 177.568 251.125 180.625 246.845C180.763 246.652 180.718 246.383 180.525 246.245C180.331 246.106 180.062 246.151 179.924 246.345C166.867 264.625 151.049 267.766 140.599 264.609C131.367 261.82 125.203 254.113 124.896 244.974C124.888 244.736 124.691 244.549 124.451 244.558C124.213 244.566 124.027 244.766 124.034 245.003C124.194 249.76 125.851 254.204 128.826 257.855C131.724 261.412 135.709 264.032 140.35 265.434C142.853 266.19 145.479 266.571 148.176 266.571Z" fill="black"/>
<path d="M143.263 109.824C141.39 105.81 145.638 106.973 147.248 109.377C148.859 111.78 148.227 115.894 150.065 117.04C151.503 117.938 152.081 117.22 154.965 113.394C157.849 109.567 164.009 99.9066 166.29 100.219C167.86 100.434 167.631 101.862 167.631 101.862C167.631 101.862 169.62 99.9385 170.669 101.397C171.719 102.855 169.704 104.952 169.704 104.952C169.704 104.952 172.529 105.236 170.88 107.363C170.324 108.08 170.226 108.157 169.141 109.432C168.336 113.284 168.307 121.322 166.186 123.385C163.486 126.009 155.033 132.836 154.633 135.151L145.323 132.205C145.143 126.739 145.135 113.837 143.263 109.824Z" fill="white"/>
<path d="M154.634 135.581C154.84 135.581 155.021 135.433 155.058 135.224C155.33 133.648 160.254 129.28 163.512 126.391C164.735 125.306 165.791 124.369 166.487 123.693C168.062 122.162 168.518 117.995 168.959 113.965C169.139 112.333 169.308 110.789 169.541 109.627C169.865 109.246 170.097 108.978 170.279 108.766C170.667 108.316 170.844 108.111 171.22 107.626C171.795 106.885 171.963 106.224 171.721 105.661C171.49 105.123 170.943 104.835 170.481 104.684C171.07 103.88 171.904 102.374 171.019 101.145C170.711 100.719 170.293 100.471 169.809 100.427C169.133 100.366 168.453 100.71 167.975 101.035C167.92 100.869 167.839 100.695 167.716 100.53C167.415 100.124 166.955 99.876 166.348 99.7925C164.441 99.5305 161.046 104.097 156.808 110.094C155.993 111.245 155.225 112.333 154.621 113.135C151.661 117.063 151.337 117.328 150.292 116.675C149.46 116.156 149.201 114.739 148.927 113.238C148.678 111.869 148.394 110.315 147.605 109.138C146.555 107.573 144.225 106.252 143.001 106.942C142.438 107.26 141.958 108.049 142.871 110.007C144.435 113.359 144.675 123.42 144.818 129.431C144.844 130.503 144.866 131.428 144.893 132.219C144.9 132.457 145.101 132.643 145.337 132.636C145.575 132.628 145.761 132.429 145.753 132.191C145.727 131.403 145.705 130.481 145.68 129.411C145.526 122.939 145.292 113.158 143.652 109.643C143.178 108.628 143.091 107.881 143.424 107.693C144.018 107.358 145.916 108.167 146.889 109.618C147.578 110.647 147.833 112.043 148.08 113.394C148.388 115.087 148.68 116.686 149.836 117.407C150.753 117.979 151.45 117.956 152.24 117.327C152.958 116.755 153.786 115.674 155.308 113.654C155.921 112.841 156.693 111.749 157.511 110.592C159.095 108.35 160.891 105.81 162.548 103.812C165.015 100.838 165.945 100.608 166.231 100.647C166.596 100.697 166.861 100.829 167.02 101.038C167.263 101.361 167.204 101.793 167.204 101.797C167.178 101.98 167.27 102.16 167.434 102.245C167.597 102.328 167.796 102.301 167.929 102.172C168.206 101.906 169.072 101.225 169.733 101.286C169.97 101.307 170.156 101.423 170.319 101.649C171.132 102.78 169.41 104.636 169.392 104.654C169.278 104.773 169.242 104.947 169.299 105.102C169.356 105.256 169.496 105.364 169.66 105.382C169.932 105.41 170.752 105.586 170.929 106.003C171.064 106.319 170.791 106.774 170.539 107.1C170.176 107.567 170.015 107.754 169.626 108.205C169.43 108.433 169.177 108.726 168.813 109.155C168.766 109.21 168.735 109.275 168.72 109.346C168.467 110.56 168.29 112.169 168.103 113.873C167.718 117.389 167.238 121.763 165.886 123.078C165.205 123.74 164.156 124.671 162.941 125.748C158.341 129.828 154.509 133.346 154.21 135.079C154.169 135.313 154.326 135.537 154.56 135.577C154.585 135.579 154.61 135.581 154.634 135.581Z" fill="black"/>
<path d="M158.004 114.527C158.148 114.527 158.288 114.455 158.37 114.324C158.424 114.237 163.882 105.524 167.905 102.193C168.088 102.042 168.113 101.77 167.961 101.587C167.81 101.403 167.538 101.378 167.355 101.53C163.224 104.95 157.864 113.506 157.639 113.869C157.513 114.07 157.574 114.336 157.777 114.462C157.847 114.506 157.926 114.527 158.004 114.527Z" fill="black"/>
<path d="M160.487 117.229C160.638 117.229 160.785 117.149 160.863 117.008C160.909 116.925 165.513 108.706 169.965 105.293C170.154 105.148 170.19 104.878 170.044 104.689C169.9 104.5 169.629 104.465 169.44 104.61C164.847 108.133 160.301 116.245 160.11 116.589C159.995 116.797 160.069 117.06 160.277 117.175C160.345 117.212 160.416 117.229 160.487 117.229Z" fill="black"/>
<path d="M163.464 119.92C163.648 119.92 163.818 119.802 163.875 119.618C163.896 119.552 165.968 112.931 166.6 110.433C166.886 109.303 167.566 108.842 168.109 108.884C168.455 108.912 168.68 109.131 168.711 109.471C168.733 109.708 168.943 109.882 169.179 109.861C169.416 109.84 169.591 109.63 169.569 109.394C169.501 108.635 168.942 108.086 168.177 108.025C167.272 107.954 166.174 108.605 165.765 110.221C165.138 112.697 163.073 119.294 163.052 119.36C162.981 119.587 163.108 119.829 163.335 119.901C163.378 119.914 163.422 119.92 163.464 119.92Z" fill="black"/>
<path d="M105.507 86.228C105.492 86.2305 105.477 86.2338 105.462 86.238C105.232 86.3005 105.097 86.5378 105.16 86.7669C105.171 86.8079 105.43 87.8535 104.687 88.9615C103.842 90.2215 101.992 91.0801 99.3373 91.4403C99.0979 91.4712 98.9368 91.6892 98.9688 91.925C99.0008 92.1607 99.2177 92.3255 99.4535 92.2935C102.415 91.8897 104.422 90.9227 105.418 89.4195C106.369 87.9808 106.008 86.5983 105.992 86.5399C105.933 86.326 105.722 86.1934 105.507 86.228Z" fill="black"/>
<path d="M94.9873 94.6666C94.8246 94.5322 94.5836 94.5344 94.4238 94.6806C92.6349 96.3097 90.8343 96.4877 87.7789 95.3381C87.5562 95.2547 87.308 95.3671 87.224 95.5893C87.1399 95.8116 87.2518 96.0604 87.4752 96.1443C90.8467 97.4131 92.9568 97.1811 95.0042 95.3174C95.1798 95.1574 95.1929 94.8844 95.033 94.7087C95.0175 94.6937 95.0026 94.6792 94.9873 94.6666Z" fill="black"/>
<path d="M106.149 94.3071C104.578 96.8954 101.804 96.0639 101.804 96.0639L106.149 94.3071Z" fill="white"/>
<path d="M102.828 96.6147C103.889 96.6147 105.46 96.2752 106.519 94.5313C106.642 94.328 106.577 94.0626 106.374 93.9394C106.17 93.8162 105.905 93.8808 105.782 94.0842C104.408 96.3467 102.028 95.6807 101.927 95.6514C101.7 95.5851 101.46 95.7143 101.392 95.9426C101.325 96.1701 101.453 96.4096 101.681 96.4777C101.693 96.4803 102.16 96.6147 102.828 96.6147Z" fill="black"/>
<path d="M94.5938 98.9292C93.0222 101.517 90.2487 100.686 90.2487 100.686L94.5938 98.9292Z" fill="white"/>
<path d="M91.2699 101.237C92.3314 101.237 93.9021 100.897 94.961 99.1534C95.0842 98.9501 95.0196 98.6847 94.8162 98.5615C94.6129 98.4383 94.3475 98.5029 94.2243 98.7062C92.8509 100.969 90.4703 100.303 90.3695 100.273C90.1421 100.207 89.9026 100.336 89.8345 100.565C89.7673 100.792 89.8957 101.032 90.1231 101.1C90.1361 101.102 90.603 101.237 91.2699 101.237Z" fill="black"/>
</g>
<defs>
<clipPath id="clip0_371_2034">
<rect width="375" height="378" fill="white"/>
</clipPath>
</defs>
</svg>
