<svg width="201" height="191" viewBox="0 0 201 191" fill="none" xmlns="http://www.w3.org/2000/svg">
<path d="M133.355 61.391C131.724 61.391 130.402 60.069 130.402 58.4382C130.402 56.8074 131.724 55.4854 133.355 55.4854C134.986 55.4854 136.308 56.8074 136.308 58.4382C136.308 60.069 134.986 61.391 133.355 61.391Z" fill="#64BC62"/>
<path d="M133.355 61.6122C135.105 61.6122 136.529 60.1883 136.529 58.4379C136.529 56.6876 135.105 55.2637 133.355 55.2637C131.605 55.2637 130.181 56.6876 130.181 58.4379C130.181 60.1883 131.605 61.6122 133.355 61.6122ZM133.355 55.707C134.861 55.707 136.086 56.9321 136.086 58.4384C136.086 59.9442 134.861 61.1697 133.355 61.1697C131.849 61.1697 130.624 59.9447 130.624 58.4384C130.624 56.9321 131.849 55.707 133.355 55.707Z" fill="black"/>
<path d="M1.69764 78.5461C0.882367 78.5461 0.221454 77.8852 0.221454 77.0699C0.221454 76.2547 0.882367 75.5938 1.69764 75.5938C2.51291 75.5938 3.17383 76.2547 3.17383 77.0699C3.17383 77.8852 2.51291 78.5461 1.69764 78.5461Z" fill="#64BC62"/>
<path d="M1.69787 78.7683C2.63416 78.7683 3.39551 78.0065 3.39551 77.0707C3.39551 76.1344 2.63372 75.373 1.69787 75.373C0.761582 75.373 0.000234365 76.1348 0.000234365 77.0707C-0.000208378 78.0065 0.761582 78.7683 1.69787 78.7683ZM1.69787 75.8155C2.38968 75.8155 2.95261 76.3784 2.95261 77.0702C2.95261 77.762 2.38968 78.325 1.69787 78.325C1.00606 78.325 0.443134 77.762 0.443134 77.0702C0.443134 76.3784 1.00562 75.8155 1.69787 75.8155Z" fill="black"/>
<path d="M188.045 106.509C187.289 106.204 186.924 105.343 187.23 104.587C187.536 103.832 188.396 103.467 189.152 103.773C189.908 104.078 190.273 104.939 189.967 105.695C189.661 106.45 188.801 106.815 188.045 106.509Z" fill="#64BC62"/>
<path d="M188.595 106.84C189.532 106.84 190.293 106.078 190.293 105.142C190.293 104.206 189.531 103.444 188.595 103.444C187.659 103.444 186.898 104.206 186.898 105.142C186.898 106.078 187.659 106.84 188.595 106.84ZM188.595 103.887C189.287 103.887 189.85 104.45 189.85 105.142C189.85 105.833 189.287 106.396 188.595 106.396C187.904 106.396 187.341 105.833 187.341 105.142C187.341 104.45 187.904 103.887 188.595 103.887Z" fill="black"/>
<path d="M78.1811 154.705C77.6046 154.128 77.6046 153.194 78.1811 152.617C78.7576 152.041 79.6922 152.041 80.2687 152.617C80.8452 153.194 80.8452 154.128 80.2687 154.705C79.6922 155.281 78.7575 155.281 78.1811 154.705Z" fill="#64BC62"/>
<path d="M79.2223 155.359C80.1586 155.359 80.9199 154.597 80.9199 153.662C80.9199 152.726 80.1581 151.964 79.2223 151.964C78.286 151.964 77.5247 152.726 77.5247 153.662C77.5247 154.597 78.286 155.359 79.2223 155.359ZM79.2223 152.406C79.9141 152.406 80.477 152.969 80.477 153.661C80.477 154.353 79.9141 154.916 79.2223 154.916C78.5305 154.916 77.9676 154.353 77.9676 153.661C77.9676 152.969 78.5305 152.406 79.2223 152.406Z" fill="black"/>
<path d="M51.9115 23.2522C51.0962 23.2522 50.4353 22.5913 50.4353 21.776C50.4353 20.9607 51.0962 20.2998 51.9115 20.2998C52.7268 20.2998 53.3877 20.9607 53.3877 21.776C53.3877 22.5913 52.7268 23.2522 51.9115 23.2522Z" fill="#64BC62"/>
<path d="M51.9117 23.4734C52.848 23.4734 53.6094 22.7116 53.6094 21.7758C53.6094 20.8399 52.8476 20.0781 51.9117 20.0781C50.9754 20.0781 50.2141 20.8399 50.2141 21.7758C50.2141 22.7116 50.9754 23.4734 51.9117 23.4734ZM51.9117 20.5206C52.6035 20.5206 53.1665 21.0835 53.1665 21.7753C53.1665 22.4671 52.6035 23.0301 51.9117 23.0301C51.2199 23.0301 50.657 22.4671 50.657 21.7753C50.657 21.0835 51.2199 20.5206 51.9117 20.5206Z" fill="black"/>
<path d="M156.853 103.641C156.901 103.641 156.949 103.625 156.99 103.593C157.086 103.517 157.102 103.378 157.026 103.282L152.351 97.3769C152.275 97.2813 152.136 97.2649 152.04 97.3406C151.944 97.4163 151.928 97.5558 152.004 97.6515L156.679 103.557C156.723 103.612 156.787 103.641 156.853 103.641Z" fill="black"/>
<path d="M65.9358 114.514C65.9664 114.514 65.9974 114.508 66.0275 114.494L71.4406 112.033C71.5518 111.983 71.601 111.851 71.5505 111.74C71.5 111.629 71.3684 111.58 71.2573 111.63L65.8442 114.091C65.733 114.141 65.6838 114.273 65.7343 114.384C65.7711 114.466 65.8517 114.514 65.9358 114.514Z" fill="black"/>
<path d="M13.5261 102.949C13.5341 102.949 13.5421 102.948 13.5501 102.947L20.4398 102.209C20.5616 102.196 20.6493 102.087 20.6364 101.966C20.6236 101.844 20.5142 101.756 20.3929 101.769L13.5031 102.507C13.3813 102.52 13.2936 102.629 13.3065 102.751C13.3184 102.865 13.4145 102.949 13.5261 102.949Z" fill="black"/>
<path d="M80.9459 135.674C81.0407 135.674 81.1284 135.613 81.1576 135.518L82.8801 129.858C82.9155 129.741 82.8495 129.617 82.7326 129.582C82.6157 129.546 82.4921 129.612 82.4562 129.729L80.7338 135.389C80.6984 135.506 80.7644 135.63 80.8813 135.665C80.903 135.671 80.9247 135.674 80.9459 135.674Z" fill="black"/>
<path d="M200.774 83.7573C200.873 83.7573 200.963 83.69 200.988 83.5894C201.018 83.4707 200.946 83.3507 200.827 83.321L195.906 82.0906C195.787 82.061 195.667 82.1332 195.638 82.2519C195.608 82.3706 195.68 82.4906 195.799 82.5203L200.72 83.7506C200.738 83.7551 200.756 83.7573 200.774 83.7573Z" fill="black"/>
<path d="M134.092 140.35C134.121 140.35 134.15 140.344 134.178 140.332C134.29 140.285 134.344 140.155 134.296 140.042L132.328 135.367C132.281 135.254 132.151 135.201 132.038 135.249C131.925 135.296 131.872 135.426 131.92 135.539L133.888 140.214C133.923 140.299 134.006 140.35 134.092 140.35Z" fill="black"/>
<path d="M70.3631 12.1544C70.4429 12.1544 70.5195 12.1114 70.5593 12.0361C70.6165 11.928 70.5748 11.7938 70.4663 11.7371L65.7911 9.2764C65.683 9.21971 65.5488 9.2609 65.4921 9.36941C65.435 9.47748 65.4766 9.61168 65.5851 9.66837L70.2604 12.1291C70.2932 12.1464 70.3286 12.1544 70.3631 12.1544Z" fill="black"/>
<path d="M124.391 179.286C124.471 179.286 124.548 179.243 124.588 179.168C124.645 179.06 124.603 178.926 124.495 178.869L119.819 176.408C119.711 176.351 119.577 176.393 119.52 176.501C119.463 176.61 119.505 176.744 119.613 176.8L124.289 179.261C124.321 179.278 124.357 179.286 124.391 179.286Z" fill="black"/>
<path d="M14.51 136.905C14.5455 136.905 14.5813 136.897 14.615 136.879C14.7226 136.821 14.7629 136.686 14.7049 136.579L12.9825 133.38C12.9245 133.272 12.7903 133.232 12.6826 133.29C12.575 133.348 12.5347 133.482 12.5927 133.59L14.3151 136.789C14.355 136.863 14.4312 136.905 14.51 136.905Z" fill="black"/>
<path d="M122.774 5.5116C122.809 5.5116 122.845 5.50318 122.879 5.48502C122.986 5.427 123.027 5.29281 122.969 5.18518L121.246 1.98656C121.188 1.87894 121.054 1.83863 120.946 1.89665C120.839 1.95467 120.798 2.08887 120.856 2.1965L122.579 5.39512C122.618 5.46952 122.695 5.5116 122.774 5.5116Z" fill="black"/>
<path d="M68.887 89.4159C68.9224 89.4159 68.9583 89.4075 68.992 89.3893C69.0996 89.3313 69.1399 89.1971 69.0819 89.0895L67.3594 85.8909C67.3014 85.7832 67.1672 85.7429 67.0596 85.801C66.952 85.859 66.9117 85.9932 66.9697 86.1008L68.6921 89.2994C68.732 89.3738 68.8082 89.4159 68.887 89.4159Z" fill="black"/>
<path d="M97.0492 190.354C97.1334 190.354 97.214 190.306 97.2512 190.224L98.7526 186.916C98.8031 186.804 98.754 186.673 98.6423 186.622C98.5307 186.572 98.3996 186.621 98.3491 186.733L96.8477 190.041C96.7972 190.152 96.8464 190.284 96.958 190.334C96.9877 190.348 97.0187 190.354 97.0492 190.354Z" fill="black"/>
<path d="M55.7425 181.502C55.7779 181.502 55.8138 181.493 55.8474 181.475C55.955 181.417 55.9954 181.283 55.9373 181.175L54.2149 177.977C54.1569 177.869 54.0227 177.829 53.9151 177.887C53.8074 177.945 53.7671 178.079 53.8251 178.187L55.5476 181.385C55.5874 181.46 55.6636 181.502 55.7425 181.502Z" fill="black"/>
<path d="M81.5988 99.9678L86.0801 102.334L81.7906 105.032L81.5988 99.9678Z" fill="#64BC62"/>
<path d="M81.7911 105.253C81.8323 105.253 81.873 105.241 81.9089 105.219L86.1984 102.521C86.2653 102.479 86.3047 102.404 86.3016 102.325C86.2985 102.246 86.2538 102.174 86.1838 102.138L81.7025 99.7716C81.6325 99.7348 81.5484 99.7379 81.4811 99.78C81.4142 99.8221 81.3748 99.8969 81.3779 99.9758L81.5696 105.039C81.5727 105.119 81.6175 105.19 81.6875 105.227C81.7202 105.244 81.7557 105.253 81.7911 105.253ZM85.6381 102.35L81.9979 104.64L81.8349 100.343L85.6381 102.35Z" fill="black"/>
<path d="M21.5521 155.188L23.2139 158.917L19.1538 158.492L21.5521 155.188Z" fill="#64BC62"/>
<path d="M23.2134 159.138C23.2838 159.138 23.3507 159.105 23.3923 159.047C23.4388 158.983 23.4476 158.899 23.4153 158.827L21.7536 155.098C21.7212 155.026 21.653 154.976 21.5742 154.968C21.4954 154.96 21.4183 154.994 21.3718 155.058L18.9735 158.362C18.927 158.426 18.9181 158.51 18.9504 158.582C18.9828 158.654 19.051 158.704 19.1298 158.712L23.1899 159.137C23.1979 159.138 23.2058 159.138 23.2134 159.138ZM21.5056 155.628L22.8551 158.656L19.5577 158.311L21.5056 155.628Z" fill="black"/>
<path d="M86.5783 0.22168L91.0596 2.58765L86.7701 5.28535L86.5783 0.22168Z" fill="#64BC62"/>
<path d="M86.7706 5.50683C86.8118 5.50683 86.8525 5.49532 86.8884 5.47273L91.1779 2.77459C91.2448 2.73251 91.2842 2.65766 91.2811 2.57883C91.278 2.49999 91.2333 2.42824 91.1633 2.39148L86.682 0.0255136C86.612 -0.0112471 86.5279 -0.00814666 86.4606 0.0339288C86.3937 0.0760042 86.3543 0.150853 86.3574 0.22969L86.5491 5.29336C86.5522 5.37219 86.597 5.44394 86.667 5.48071C86.6997 5.49842 86.7352 5.50683 86.7706 5.50683ZM90.6172 2.60452L86.977 4.89431L86.814 0.597297L90.6172 2.60452Z" fill="black"/>
<path d="M147.737 15.8447L151.464 19.279L146.627 20.7888L147.737 15.8447Z" fill="#64BC62"/>
<path d="M146.627 21.0103C146.649 21.0103 146.671 21.0072 146.693 21.0001L151.53 19.4898C151.606 19.4663 151.663 19.4043 151.68 19.3268C151.697 19.2497 151.672 19.1691 151.614 19.1155L147.888 15.6817C147.83 15.6282 147.747 15.6096 147.672 15.633C147.596 15.6565 147.539 15.7185 147.521 15.796L146.411 20.7401C146.393 20.8172 146.419 20.8978 146.477 20.9514C146.518 20.9899 146.572 21.0103 146.627 21.0103ZM151.031 19.1815L146.927 20.4633L147.869 16.2677L151.031 19.1815Z" fill="black"/>
<path d="M96.3926 64.9561L96.0998 68.5183L93.1612 66.4836L96.3926 64.9561Z" fill="#64BC62"/>
<path d="M96.0997 68.7395C96.132 68.7395 96.1644 68.7324 96.1945 68.7182C96.2662 68.6846 96.3141 68.615 96.3207 68.5362L96.6135 64.9739C96.6201 64.8951 96.5838 64.8189 96.5187 64.7737C96.4536 64.7286 96.3694 64.7219 96.2981 64.7556L93.0667 66.2832C92.995 66.3168 92.9472 66.3863 92.9405 66.4652C92.9339 66.544 92.9702 66.6202 93.0353 66.6654L95.9739 68.7001C96.0111 68.7262 96.0554 68.7395 96.0997 68.7395ZM96.1405 65.3198L95.9106 68.1176L93.6027 66.5197L96.1405 65.3198Z" fill="black"/>
<path d="M102.749 49.5009C102.765 49.5009 102.781 49.4991 102.798 49.4956L106.081 48.7542C106.2 48.7272 106.275 48.6089 106.249 48.4893C106.222 48.3702 106.103 48.2949 105.984 48.3219L102.7 49.0633C102.581 49.0903 102.506 49.209 102.533 49.3282C102.556 49.4314 102.647 49.5009 102.749 49.5009Z" fill="black"/>
<path d="M119.061 28.6781C119.13 28.6781 119.198 28.6458 119.241 28.5847C119.312 28.485 119.288 28.3468 119.189 28.276L116.442 26.3299C116.343 26.259 116.204 26.2829 116.134 26.3826C116.063 26.4822 116.087 26.6204 116.186 26.6913L118.933 28.6374C118.972 28.6653 119.016 28.6781 119.061 28.6781Z" fill="black"/>
<path d="M119.182 169.117C141.72 154.405 146.765 112.213 113.578 113.454C101.491 113.906 105.73 112.061 95.5802 114.316C96.0806 112.815 79.281 59.3216 58.4302 53.9842C35.2772 48.0573 18.5418 57.6514 9.93362 82.2589C-0.563095 112.264 3.86545 140.026 34.0468 164.934C59.3909 185.849 101.466 180.681 119.182 169.117Z" fill="#3C8F5D"/>
<path d="M78.7414 179.429C78.9868 179.429 79.2308 179.428 79.4766 179.426C87.1162 179.367 94.9134 178.355 102.026 176.497C108.846 174.717 114.82 172.228 119.303 169.302C122.695 167.088 125.772 164.214 128.45 160.758C130.999 157.469 133.078 153.8 134.63 149.853C136.162 145.955 137.092 142.013 137.394 138.137C137.705 134.148 137.33 130.452 136.281 127.151C135.599 125.008 134.634 123.06 133.412 121.363C132.13 119.584 130.556 118.068 128.733 116.854C124.777 114.222 119.675 113.003 113.57 113.232C108.605 113.418 106.42 113.216 104.825 113.069C102.6 112.864 101.565 112.769 95.7979 114.041C95.7399 113.468 95.4498 112.293 94.9325 110.533C94.2185 108.106 93.2034 105.062 92.0736 101.96C89.8688 95.9071 86.2238 86.8281 81.382 77.948C77.8999 71.5622 74.3514 66.3218 70.8348 62.3734C66.6693 57.6955 62.514 54.8007 58.4854 53.7696C46.8806 50.7991 36.8312 51.7106 28.6167 56.4797C20.3744 61.2648 14.0179 69.9138 9.72483 82.1861C7.03378 89.8783 5.37956 97.3235 4.80821 104.315C4.51059 107.959 4.4982 111.572 4.77191 115.054C5.05226 118.619 5.64087 122.155 6.52179 125.564C7.42221 129.047 8.6548 132.503 10.1855 135.834C11.7471 139.232 13.6658 142.603 15.8878 145.853C18.1515 149.164 20.7978 152.447 23.7532 155.612C26.7601 158.832 30.1762 162.026 33.9063 165.105C39.9275 170.074 47.1888 173.824 55.4879 176.25C62.7076 178.36 70.5283 179.429 78.7414 179.429ZM114.967 113.649C125.659 113.649 133.051 118.456 135.859 127.286C140.238 141.058 132.545 160.129 119.061 168.931C109.741 175.015 94.572 178.867 79.4731 178.983C79.2335 178.985 78.9934 178.986 78.7547 178.986C61.1211 178.986 45.3171 173.947 34.188 164.762C6.57539 141.975 -1.29007 115.012 10.1425 82.3318C18.6453 58.0259 35.324 48.2976 58.3751 54.1984C69.1668 56.9612 78.6617 72.7474 84.7263 85.5043C88.5897 93.631 91.3423 101.13 92.6396 104.877C94.5082 110.276 95.4374 113.842 95.3679 114.252C95.3457 114.326 95.3634 114.407 95.4152 114.464C95.4688 114.523 95.5499 114.549 95.6278 114.532C101.562 113.213 102.506 113.3 104.784 113.51C106.391 113.658 108.592 113.861 113.586 113.674C114.052 113.658 114.513 113.649 114.967 113.649ZM95.3696 114.248C95.3696 114.249 95.3696 114.249 95.3696 114.248C95.3696 114.249 95.3696 114.249 95.3696 114.248ZM95.3701 114.247C95.3701 114.247 95.3696 114.248 95.3696 114.248C95.3701 114.248 95.3701 114.247 95.3701 114.247Z" fill="#0A5735"/>
<path d="M45.3974 128.014C45.3974 128.014 54.8852 126.891 65.3013 133.069C78.8013 124.714 97.9696 120.449 123.609 127.903C125.302 146.959 91.1059 163.358 65.1618 151.465C62.4805 152.007 58.9661 151.547 54.3617 149.333C36.3251 140.661 45.3974 128.014 45.3974 128.014Z" fill="#3C8F5D"/>
<path d="M65.3005 133.29C65.3408 133.29 65.3815 133.279 65.417 133.256C81.2692 123.446 101.37 121.668 123.547 128.115C123.664 128.149 123.787 128.082 123.821 127.964C123.855 127.846 123.788 127.723 123.67 127.689C111.658 124.197 100.288 123.069 89.8752 124.336C80.9277 125.426 72.6597 128.276 65.2978 132.809C62.9416 131.423 60.4414 130.297 57.8642 129.461C55.7688 128.782 53.6177 128.292 51.4714 128.005C47.8117 127.515 45.4679 127.782 45.37 127.794C45.2486 127.808 45.1618 127.918 45.176 128.04C45.1902 128.161 45.3005 128.248 45.4218 128.233C45.4453 128.231 47.8201 127.962 51.4289 128.446C54.7568 128.893 59.8448 130.09 65.1871 133.259C65.2221 133.279 65.2611 133.29 65.3005 133.29Z" fill="#64BC62"/>
<path d="M54.3608 147.639C54.4556 147.639 54.5433 147.577 54.5725 147.482C54.5801 147.457 55.3671 144.915 57.0935 141.903C58.6813 139.133 61.4118 135.386 65.4049 133.264C65.513 133.206 65.5538 133.072 65.4966 132.964C65.4391 132.856 65.3053 132.815 65.1972 132.873C63.3893 133.833 61.6828 135.194 60.1256 136.916C58.8828 138.29 57.7317 139.897 56.7042 141.692C54.9552 144.746 54.1575 147.327 54.1496 147.352C54.1137 147.469 54.1797 147.593 54.2966 147.629C54.3174 147.636 54.3396 147.639 54.3608 147.639Z" fill="#64BC62"/>
<path d="M104.198 146.209C104.228 146.209 104.259 146.203 104.288 146.189C104.4 146.139 104.45 146.008 104.399 145.897C102.589 141.88 100.053 138.544 96.8619 135.984C94.3095 133.936 91.3354 132.377 88.023 131.351C82.3871 129.605 77.6503 130.015 77.6029 130.02C77.4811 130.031 77.3916 130.139 77.4027 130.26C77.4138 130.382 77.5218 130.471 77.6436 130.461C77.6901 130.456 82.3534 130.055 87.9083 131.779C93.0224 133.367 99.9653 137.137 103.996 146.079C104.032 146.16 104.113 146.209 104.198 146.209Z" fill="#64BC62"/>
<path d="M147.345 161.842C145.893 167.495 137.313 168.395 137.313 168.395C137.313 168.395 134.15 159.981 137.545 158.256C140.94 156.53 147.345 161.842 147.345 161.842Z" fill="#64BC62"/>
<path d="M137.314 168.616C137.321 168.616 137.329 168.616 137.337 168.615C137.426 168.606 139.539 168.376 141.867 167.444C143.241 166.894 144.4 166.212 145.311 165.418C146.461 164.415 147.217 163.231 147.559 161.897C147.581 161.814 147.552 161.726 147.486 161.672C147.47 161.658 145.845 160.317 143.825 159.208C141.069 157.694 138.922 157.308 137.445 158.059C136.605 158.485 136.072 159.317 135.859 160.53C135.695 161.467 135.721 162.636 135.938 164.007C136.304 166.322 137.099 168.452 137.107 168.473C137.139 168.56 137.223 168.616 137.314 168.616ZM147.094 161.924C146.32 164.665 143.75 166.211 141.712 167.029C139.812 167.791 138.013 168.078 137.462 168.153C137.273 167.616 136.675 165.837 136.374 163.932C136.052 161.891 136.012 159.284 137.646 158.453C140.636 156.934 146.239 161.243 147.094 161.924Z" fill="black"/>
<path d="M130.997 143.571C134.304 139.781 135.776 137.612 139.812 144.34C144.238 151.716 150.519 176.292 158.735 177.916C166.774 179.505 144.059 187.952 144.002 177.617C143.945 167.282 125.855 149.464 130.997 143.571Z" fill="white"/>
<path d="M150.59 182.896C152.567 182.896 154.802 182.5 156.852 181.776C159.133 180.972 160.561 179.979 160.672 179.122C160.702 178.885 160.65 178.539 160.228 178.234C159.914 178.007 159.427 177.827 158.778 177.699C153.223 176.601 148.477 164.544 144.662 154.857C142.902 150.386 141.381 146.524 140.003 144.226C138.202 141.225 136.875 139.895 135.564 139.781C134.106 139.653 132.894 141.049 131.217 142.98C131.091 143.125 130.962 143.274 130.831 143.425C130.13 144.229 129.804 145.293 129.863 146.589C129.916 147.737 130.259 149.081 130.913 150.696C132.12 153.679 134.183 157.094 136.365 160.711C139.998 166.729 143.755 172.952 143.781 177.618C143.79 179.322 144.395 180.643 145.579 181.547C146.59 182.318 147.991 182.763 149.747 182.871C150.021 182.887 150.303 182.896 150.59 182.896ZM135.385 140.216C135.432 140.216 135.479 140.218 135.526 140.222C136.663 140.321 137.927 141.626 139.623 144.454C140.983 146.72 142.497 150.566 144.251 155.019C146.164 159.881 148.334 165.391 150.719 169.783C153.492 174.889 156.1 177.621 158.693 178.133C159.297 178.252 160.301 178.532 160.233 179.064C160.162 179.611 159.044 180.533 156.705 181.358C154.445 182.155 151.854 182.556 149.774 182.428C147.254 182.273 144.245 181.313 144.224 177.615C144.198 172.827 140.409 166.551 136.745 160.481C132.496 153.441 128.481 146.792 131.165 143.716C131.297 143.564 131.426 143.416 131.553 143.27C133.082 141.507 134.204 140.216 135.385 140.216Z" fill="black"/>
<path d="M168.304 180.613C165.476 181.652 165.176 184.231 165.176 184.231C165.176 184.231 147.715 184.051 143.071 184.109C143.078 185.659 143.134 186.727 143.134 186.727L176.073 186.832C176.077 185.622 176.213 184.591 175.408 183.538C174.273 182.051 171.044 181.228 168.304 180.613Z" fill="white"/>
<path d="M176.073 187.053C176.194 187.053 176.294 186.954 176.294 186.832C176.294 186.682 176.297 186.532 176.299 186.388C176.317 185.358 176.334 184.386 175.584 183.404C174.406 181.861 171.233 181.043 168.352 180.397C168.31 180.388 168.267 180.39 168.227 180.405C166.702 180.965 165.894 181.965 165.486 182.704C165.179 183.258 165.045 183.748 164.99 184.008C163.09 183.989 147.402 183.834 143.068 183.887C142.946 183.889 142.849 183.988 142.849 184.11C142.856 185.647 142.912 186.728 142.913 186.739C142.919 186.856 143.015 186.948 143.133 186.949L176.072 187.053H176.073ZM168.32 180.843C171.308 181.516 174.203 182.325 175.232 183.673C175.889 184.532 175.874 185.389 175.857 186.38C175.856 186.455 175.854 186.532 175.853 186.609L143.345 186.506C143.33 186.148 143.302 185.354 143.294 184.328C148.189 184.279 165.001 184.451 165.174 184.453C165.175 184.453 165.175 184.453 165.176 184.453C165.288 184.453 165.383 184.368 165.396 184.257C165.397 184.251 165.475 183.632 165.882 182.902C166.415 181.948 167.235 181.256 168.32 180.843Z" fill="black"/>
<path d="M167.299 184.231L168.304 180.613C166.093 180.159 163.391 179.29 162.006 178.567C157.538 176.231 154.063 173.171 154.063 173.171C154.063 173.171 147.357 179.163 143.515 176.923C142.569 179.428 143.058 181.282 143.071 184.11C147.715 184.052 167.299 184.231 167.299 184.231Z" fill="#64BC62"/>
<path d="M167.299 184.453C167.398 184.453 167.486 184.386 167.512 184.291L168.517 180.673C168.534 180.614 168.525 180.551 168.493 180.498C168.461 180.446 168.409 180.409 168.349 180.396C166.127 179.94 163.445 179.069 162.109 178.37C157.718 176.075 154.244 173.035 154.209 173.004C154.125 172.93 153.999 172.931 153.915 173.005C153.849 173.064 147.285 178.864 143.627 176.731C143.571 176.698 143.503 176.692 143.441 176.714C143.38 176.735 143.331 176.783 143.308 176.844C142.596 178.731 142.679 180.27 142.775 182.052C142.81 182.699 142.846 183.368 142.85 184.111C142.85 184.169 142.873 184.226 142.916 184.267C142.958 184.309 143.016 184.33 143.074 184.331C147.662 184.274 167.101 184.451 167.297 184.453C167.298 184.453 167.298 184.453 167.299 184.453ZM168.027 180.781L167.131 184.008C165.227 183.991 148.002 183.839 143.29 183.885C143.281 183.221 143.249 182.615 143.217 182.028C143.124 180.304 143.049 178.927 143.636 177.238C144.519 177.671 145.592 177.759 146.829 177.498C147.885 177.275 149.066 176.797 150.338 176.079C152.127 175.069 153.605 173.853 154.063 173.463C154.773 174.066 157.975 176.709 161.903 178.763C163.224 179.453 165.819 180.306 168.027 180.781Z" fill="black"/>
<path d="M155.218 176.96C155.276 176.96 155.334 176.938 155.377 176.893L157.105 175.109C157.19 175.021 157.187 174.881 157.1 174.796C157.012 174.711 156.872 174.713 156.787 174.801L155.059 176.585C154.974 176.672 154.976 176.813 155.064 176.898C155.108 176.939 155.163 176.96 155.218 176.96Z" fill="black"/>
<path d="M156.811 178.137C156.873 178.137 156.936 178.11 156.98 178.059L158.583 176.178C158.662 176.085 158.651 175.945 158.558 175.865C158.465 175.786 158.325 175.797 158.246 175.89L156.642 177.771C156.563 177.864 156.574 178.004 156.667 178.083C156.709 178.119 156.76 178.137 156.811 178.137Z" fill="black"/>
<path d="M158.404 179.312C158.471 179.312 158.538 179.282 158.581 179.224L160.06 177.246C160.134 177.148 160.114 177.009 160.016 176.936C159.918 176.863 159.779 176.882 159.706 176.98L158.226 178.958C158.153 179.056 158.173 179.195 158.271 179.268C158.311 179.298 158.357 179.312 158.404 179.312Z" fill="black"/>
<path d="M159.995 180.489C160.068 180.489 160.138 180.453 160.181 180.388L161.536 178.313C161.603 178.211 161.574 178.074 161.472 178.007C161.37 177.94 161.232 177.969 161.165 178.071L159.81 180.146C159.743 180.248 159.772 180.386 159.874 180.452C159.912 180.477 159.954 180.489 159.995 180.489Z" fill="black"/>
<path d="M147.347 161.842C143.777 159.249 137.315 168.395 137.315 168.395C137.315 168.395 117.745 141.796 121.276 118.284C105.531 122.544 71.587 137.543 66.6699 123.844C61.0375 108.155 112.772 98.1809 125.554 101.515C138.335 104.85 138.689 139.015 147.347 161.842Z" fill="#64BC62"/>
<path d="M137.316 168.616C137.316 168.616 137.317 168.616 137.318 168.616C137.389 168.615 137.455 168.58 137.497 168.522C137.541 168.459 141.995 162.208 145.428 161.641C146.122 161.526 146.707 161.65 147.217 162.021C147.296 162.078 147.404 162.077 147.481 162.017C147.559 161.958 147.589 161.855 147.554 161.763C144.434 153.536 142.412 143.919 140.457 134.618C138.736 126.43 137.11 118.696 134.882 112.698C133.685 109.475 132.411 107.011 130.987 105.166C129.388 103.092 127.628 101.827 125.61 101.301C123.032 100.629 118.902 100.473 113.664 100.851C108.458 101.227 102.673 102.091 96.9368 103.351C90.7491 104.709 84.9945 106.458 80.294 108.409C74.9066 110.645 70.9763 113.09 68.6125 115.675C66.1779 118.337 65.4542 121.111 66.4622 123.918C66.9534 125.287 67.752 126.427 68.8362 127.308C69.8535 128.136 71.1499 128.756 72.6894 129.153C75.4629 129.869 79.0202 129.898 83.5644 129.243C91.8399 128.049 101.593 124.829 110.198 121.988C114.18 120.673 117.949 119.429 121.01 118.585C120.264 123.889 120.623 129.773 122.078 136.081C123.266 141.228 125.181 146.667 127.772 152.248C132.182 161.747 137.09 168.458 137.138 168.525C137.179 168.582 137.245 168.616 137.316 168.616ZM145.901 161.157C145.724 161.157 145.542 161.173 145.355 161.203C143.828 161.456 141.977 162.725 139.856 164.977C138.653 166.253 137.7 167.499 137.317 168.017C136.4 166.726 132.088 160.497 128.17 152.054C124.123 143.336 119.681 130.405 121.496 118.317C121.507 118.243 121.48 118.168 121.424 118.118C121.368 118.069 121.291 118.05 121.219 118.07C118.09 118.917 114.189 120.205 110.058 121.568C101.471 124.404 91.7376 127.617 83.5006 128.805C74.023 130.172 68.5859 128.525 66.879 123.77C65.9312 121.129 66.6243 118.506 68.9394 115.974C73.3179 111.186 83.5573 106.742 97.032 103.784C108.651 101.233 120.356 100.389 125.499 101.73C129.153 102.683 132.002 106.217 134.467 112.852C136.684 118.82 138.306 126.538 140.024 134.709C141.938 143.814 143.916 153.223 146.928 161.354C146.609 161.223 146.266 161.157 145.901 161.157Z" fill="black"/>
<path d="M160.074 137.185C162.764 137.868 164.747 139.567 167.32 139.942C182.519 142.156 195.439 142.154 188.939 149.929C181.338 159.019 168.912 152.239 160.451 150.941C157.707 150.521 156.466 148.34 156.298 146.062C156.219 144.989 156.015 140.316 156.366 139.373C157.025 137.605 158.356 136.748 160.074 137.185Z" fill="#64BC62"/>
<path d="M178.444 154.811C178.479 154.811 178.513 154.811 178.548 154.81C183.006 154.788 186.46 153.237 189.108 150.07C190.67 148.203 191.193 146.695 190.708 145.462C190.177 144.111 188.434 143.121 185.222 142.346C182.358 141.654 178.647 141.189 174.35 140.649C172.095 140.366 169.764 140.074 167.352 139.722C165.991 139.524 164.802 138.948 163.544 138.337C162.481 137.821 161.381 137.288 160.128 136.969C159.237 136.743 158.4 136.844 157.708 137.262C157.04 137.666 156.504 138.369 156.159 139.295C155.764 140.355 156.024 145.359 156.077 146.078C156.17 147.339 156.57 148.465 157.232 149.332C158.001 150.339 159.073 150.954 160.418 151.16C162.368 151.459 164.528 152.051 166.813 152.676C170.643 153.726 174.602 154.811 178.444 154.811ZM160.019 137.399C161.228 137.706 162.307 138.23 163.35 138.736C164.64 139.361 165.859 139.953 167.288 140.161C169.705 140.513 172.038 140.806 174.295 141.089C178.579 141.627 182.279 142.091 185.118 142.777C188.177 143.515 189.823 144.42 190.296 145.625C190.717 146.693 190.217 148.055 188.768 149.787C183.023 156.658 174.474 154.316 166.93 152.25C164.632 151.62 162.461 151.026 160.484 150.723C158.191 150.371 156.708 148.623 156.519 146.046C156.423 144.748 156.258 140.298 156.573 139.451C157.206 137.751 158.462 137.003 160.019 137.399Z" fill="black"/>
<path d="M182.983 142.103C180.561 141.617 179.45 146.861 180.424 151.831C173.521 153.133 165.417 149.386 159.351 148.456C158.037 148.254 157.067 147.648 156.395 146.822C156.762 148.807 158.013 150.568 160.45 150.942C168.911 152.239 181.341 159.321 188.941 150.231C191.14 147.601 191.112 145.558 189.53 144.321C188.535 143.038 185.566 142.62 182.983 142.103Z" fill="white"/>
<path d="M178.724 155.014C183.102 155.014 186.5 153.495 189.111 150.373C190.404 148.826 190.994 147.424 190.865 146.207C190.78 145.403 190.384 144.715 189.687 144.163C188.751 142.987 186.33 142.522 183.989 142.072C183.671 142.011 183.343 141.948 183.027 141.885L182.984 142.102L183.027 141.885C182.433 141.766 181.871 141.95 181.402 142.418C179.975 143.838 179.454 147.779 180.165 151.652C175.599 152.439 170.414 151.019 165.831 149.763C163.532 149.134 161.361 148.539 159.385 148.236C158.207 148.055 157.258 147.532 156.566 146.681C156.503 146.603 156.394 146.577 156.302 146.62C156.21 146.662 156.158 146.762 156.177 146.861C156.618 149.248 158.164 150.814 160.417 151.16C162.427 151.468 164.66 152.104 167.024 152.778C170.858 153.87 174.821 155 178.656 155.014C178.678 155.014 178.701 155.014 178.724 155.014ZM182.679 142.293C182.765 142.293 182.852 142.302 182.94 142.319C183.257 142.383 183.586 142.446 183.905 142.508C186.18 142.945 188.533 143.396 189.354 144.457C189.365 144.471 189.379 144.484 189.393 144.496C190.004 144.974 190.352 145.565 190.425 146.254C190.539 147.332 189.967 148.658 188.771 150.089C185.95 153.463 182.445 154.571 178.719 154.571C174.93 154.571 170.912 153.425 167.146 152.352C164.768 151.675 162.522 151.035 160.484 150.722C158.686 150.447 157.381 149.313 156.811 147.567C157.493 148.152 158.333 148.523 159.318 148.675C161.268 148.973 163.427 149.565 165.713 150.191C170.416 151.479 175.746 152.939 180.464 152.049C180.522 152.037 180.574 152.004 180.607 151.955C180.64 151.906 180.652 151.846 180.641 151.788C179.906 148.04 180.378 144.062 181.713 142.732C182.007 142.44 182.331 142.293 182.679 142.293Z" fill="black"/>
<path d="M169.617 144.305C169.711 144.305 169.798 144.244 169.827 144.15L170.896 140.792C170.933 140.676 170.868 140.551 170.752 140.514C170.635 140.477 170.511 140.542 170.474 140.658L169.405 144.016C169.368 144.132 169.433 144.257 169.549 144.294C169.572 144.301 169.594 144.305 169.617 144.305Z" fill="black"/>
<path d="M171.119 144.618C171.212 144.618 171.3 144.558 171.329 144.463L172.398 141.106C172.435 140.989 172.37 140.865 172.254 140.828C172.137 140.791 172.013 140.855 171.976 140.972L170.907 144.329C170.87 144.446 170.935 144.57 171.051 144.607C171.074 144.615 171.096 144.618 171.119 144.618Z" fill="black"/>
<path d="M172.622 144.932C172.715 144.932 172.803 144.871 172.832 144.777L173.901 141.419C173.938 141.303 173.873 141.178 173.757 141.141C173.64 141.104 173.516 141.169 173.479 141.285L172.41 144.643C172.373 144.759 172.438 144.884 172.554 144.921C172.577 144.928 172.599 144.932 172.622 144.932Z" fill="black"/>
<path d="M174.124 145.245C174.218 145.245 174.306 145.185 174.335 145.09L175.404 141.733C175.441 141.616 175.376 141.492 175.26 141.455C175.143 141.418 175.019 141.482 174.981 141.599L173.913 144.956C173.876 145.073 173.941 145.197 174.057 145.234C174.079 145.242 174.102 145.245 174.124 145.245Z" fill="black"/>
<path d="M143.533 129.745C150.946 135.387 156.166 142.449 156.166 142.449C156.166 142.449 164.186 145.462 166.152 144.192C168.118 142.921 168.268 140.347 168.268 140.347C168.268 140.347 161.029 137.053 156.81 128.405C152.591 119.756 148.638 118.258 148.368 118.844C148.098 119.43 143.533 129.745 143.533 129.745Z" fill="white"/>
<path d="M164.641 144.723C165.37 144.723 165.916 144.608 166.273 144.377C168.31 143.061 168.483 140.47 168.489 140.36C168.494 140.269 168.443 140.183 168.36 140.145C168.341 140.137 166.539 139.306 164.249 137.437C162.138 135.715 159.168 132.733 157.009 128.308C154.98 124.149 153.08 121.796 151.844 120.554C150.34 119.044 149.174 118.51 148.626 118.51C148.623 118.51 148.62 118.51 148.616 118.51C148.321 118.513 148.208 118.662 148.167 118.751C147.899 119.332 143.517 129.234 143.331 129.655C143.289 129.749 143.318 129.859 143.399 129.921C150.699 135.477 155.936 142.51 155.988 142.58C156.013 142.615 156.048 142.641 156.088 142.656C156.109 142.664 158.129 143.42 160.365 144.011C162.163 144.485 163.592 144.723 164.641 144.723ZM168.032 140.479C167.964 141.027 167.616 142.981 166.032 144.005C164.511 144.988 158.555 143.103 156.305 142.264C155.808 141.605 150.752 134.996 143.807 129.674C144.379 128.381 148.226 119.691 148.559 118.959C148.593 118.95 148.706 118.936 148.958 119.017C149.26 119.116 150.374 119.576 152.015 121.376C153.613 123.128 155.159 125.526 156.611 128.502C158.808 133.005 161.832 136.039 163.981 137.79C165.966 139.408 167.555 140.245 168.032 140.479Z" fill="black"/>
<path d="M55.8784 111.558C54.5134 94.9072 62.7367 105.29 69.9333 99.9147C71.1646 98.9948 76.9236 116.172 78.2528 115.191C94.4119 103.263 108.355 87.4701 116.969 84.453C130.433 79.7371 152.812 124.411 158.322 125.825C163.832 127.238 157.81 142.716 150.025 137.509C143.931 133.434 139.066 129.426 135.182 125.64C128.288 101.921 119.864 100.565 119.864 100.565C119.864 100.565 107.877 130.392 86.1306 137.322C67.4699 143.268 57.7558 134.462 55.8784 111.558Z" fill="#64BC62"/>
<path d="M75.8723 139.345C78.9496 139.345 82.4166 138.737 86.1968 137.533C91.1869 135.943 96.0743 133.011 100.723 128.819C104.435 125.472 108.005 121.317 111.333 116.47C116.512 108.928 119.498 102.012 119.994 100.825C120.544 100.986 122.399 101.695 124.822 104.412C127.501 107.414 131.435 113.545 134.969 125.702C134.979 125.739 134.999 125.772 135.027 125.798C139.249 129.914 144.253 133.915 149.901 137.692C152.565 139.475 154.796 138.776 156.197 137.877C157.619 136.965 158.867 135.415 159.712 133.514C160.513 131.71 160.837 129.83 160.599 128.356C160.364 126.893 159.574 125.918 158.376 125.61C156.571 125.147 152.58 119.412 147.959 112.77C143.453 106.295 137.846 98.2359 132.394 92.3843C125.981 85.4998 120.911 82.8371 116.895 84.2438C111.865 86.0056 105.022 92.0977 97.0978 99.1518C91.388 104.235 84.9163 109.996 78.1254 115.009C78.0939 115.002 77.9278 114.938 77.5735 114.414C77.302 114.011 76.9796 113.433 76.5876 112.644C75.8546 111.169 74.9936 109.183 74.161 107.264C73.381 105.465 72.5741 103.606 71.8933 102.217C70.8627 100.115 70.4464 99.7519 70.1505 99.6731C70.0247 99.6394 69.9003 99.6624 69.7997 99.7377C67.1826 101.693 64.4407 101.512 62.0211 101.353C59.9745 101.218 58.2068 101.102 57.0035 102.325C55.6597 103.69 55.2443 106.544 55.6571 111.577L55.8776 111.559L55.6571 111.577C56.1739 117.88 57.3016 123.168 59.0094 127.293C59.8726 129.379 60.9041 131.217 62.0751 132.756C63.2537 134.306 64.6085 135.599 66.1011 136.599C68.568 138.251 71.5071 139.168 74.8373 139.322C75.1774 139.337 75.5224 139.345 75.8723 139.345ZM119.862 100.344C119.773 100.344 119.691 100.398 119.657 100.483C119.627 100.557 116.6 108.019 110.963 116.227C105.769 123.789 97.2329 133.551 86.0621 137.111C82.3404 138.297 78.95 138.89 75.9095 138.89C72.1896 138.89 68.9928 138.003 66.3473 136.231C60.5728 132.362 57.1244 124.055 56.0986 111.541C55.7031 106.713 56.0907 103.884 57.3193 102.635C58.38 101.557 60.0542 101.667 61.9923 101.795C63.1841 101.873 64.5345 101.962 65.9009 101.775C67.4696 101.56 68.8262 101.013 70.0487 100.104C70.0925 100.123 70.2475 100.217 70.5589 100.694C70.8096 101.077 71.1085 101.624 71.4726 102.363C72.1542 103.748 72.9682 105.625 73.7553 107.44C74.5693 109.317 75.4113 111.258 76.1367 112.729C77.24 114.968 77.7024 115.354 78.0089 115.436C78.1431 115.472 78.2764 115.449 78.384 115.369C85.1932 110.343 91.6745 104.573 97.3928 99.4822C105.282 92.4596 112.095 86.3945 117.042 84.6614C119.059 83.955 121.437 84.3762 124.111 85.9135C126.503 87.2887 129.107 89.5037 132.071 92.6854C137.501 98.514 143.099 106.559 147.596 113.022C150.048 116.545 152.165 119.588 153.969 121.902C156.014 124.525 157.339 125.8 158.267 126.038C159.57 126.372 160.017 127.521 160.163 128.425C160.603 131.155 158.898 135.617 155.958 137.503C154.668 138.331 152.613 138.972 150.147 137.323C144.541 133.574 139.572 129.603 135.378 125.521C133.806 120.121 132.023 115.442 130.077 111.614C128.512 108.533 126.838 105.991 125.102 104.059C122.116 100.735 119.988 100.36 119.899 100.345C119.886 100.344 119.874 100.344 119.862 100.344Z" fill="black"/>
<path d="M92.9473 100.492L127.364 97.6964C128.872 97.5737 130.382 96.2388 130.737 94.7139L135.759 73.1425C136.114 71.618 135.179 70.4811 133.671 70.6038L99.2546 73.3989C97.7465 73.5216 96.2362 74.8565 95.8815 76.3814L90.8594 97.9528C90.5047 99.4773 91.4396 100.614 92.9473 100.492Z" fill="white"/>
<path d="M92.7265 100.722C92.8049 100.722 92.8846 100.719 92.9653 100.713L127.382 97.9174C128.976 97.7881 130.578 96.3734 130.953 94.7644L135.975 73.193C136.167 72.367 136.018 71.6167 135.556 71.0803C135.113 70.567 134.437 70.3194 133.654 70.3828L99.2372 73.1779C97.6427 73.3072 96.0407 74.7219 95.666 76.3309L90.644 97.9023C90.4518 98.7283 90.6006 99.4786 91.063 100.015C91.4598 100.476 92.0445 100.722 92.7265 100.722ZM92.9294 100.271C92.2898 100.323 91.746 100.129 91.3983 99.7257C91.0307 99.2992 90.916 98.6876 91.0754 98.0029L96.0974 76.4315C96.4314 74.996 97.8562 73.7346 99.273 73.6195L133.689 70.8243C134.329 70.7721 134.873 70.9661 135.221 71.3696C135.588 71.7961 135.703 72.4077 135.543 73.0924L130.521 94.6638C130.187 96.0993 128.763 97.3607 127.346 97.4758L92.9294 100.271Z" fill="black"/>
<path d="M73.9554 104.431L112.083 101.334C112.566 101.294 112.926 100.871 112.887 100.388C112.847 99.9047 112.424 99.5446 111.941 99.584L73.8132 102.681C73.33 102.72 72.9699 103.144 73.0094 103.627C73.0488 104.11 73.4722 104.47 73.9554 104.431Z" fill="white"/>
<path d="M73.8836 104.655C73.9133 104.655 73.9434 104.654 73.9735 104.651L112.101 101.555C112.705 101.505 113.157 100.974 113.108 100.37C113.084 100.077 112.948 99.8113 112.724 99.6209C112.5 99.4309 112.216 99.3392 111.923 99.3631L73.7955 102.46C73.5027 102.484 73.237 102.62 73.047 102.844C72.857 103.068 72.7653 103.352 72.7888 103.645C72.8353 104.219 73.3176 104.655 73.8836 104.655ZM73.9376 104.21C73.5762 104.239 73.2596 103.969 73.2303 103.609C73.2011 103.248 73.4708 102.931 73.8313 102.901L111.959 99.8047C112.134 99.7905 112.303 99.8454 112.437 99.9588C112.571 100.072 112.652 100.231 112.667 100.406C112.681 100.581 112.626 100.75 112.512 100.884C112.399 101.018 112.24 101.099 112.066 101.113L73.9376 104.21Z" fill="black"/>
<path d="M93.5605 101.077L127.977 98.2823C129.485 98.1596 130.995 96.8248 131.35 95.2998L136.372 73.7284C136.727 72.204 135.792 71.067 134.284 71.1897L99.8679 73.9849C98.3598 74.1076 96.8495 75.4424 96.4947 76.9674L91.4727 98.5388C91.1179 100.063 92.0525 101.2 93.5605 101.077Z" fill="white"/>
<path d="M93.3388 101.308C93.4172 101.308 93.4969 101.305 93.5775 101.299L127.994 98.5034C129.588 98.3741 131.19 96.9595 131.565 95.3504L136.587 73.779C136.779 72.953 136.63 72.2027 136.168 71.6664C135.726 71.1531 135.05 70.905 134.266 70.9688L99.8494 73.764C98.255 73.8933 96.653 75.3079 96.2783 76.917L91.2563 98.4884C91.0641 99.3144 91.2129 100.065 91.6753 100.601C92.0726 101.062 92.6568 101.308 93.3388 101.308ZM134.503 71.402C135.055 71.402 135.522 71.5951 135.833 71.9556C136.2 72.3821 136.315 72.9938 136.156 73.6785L131.134 95.2499C130.799 96.6853 129.375 97.9467 127.958 98.0619L93.5417 100.857C92.9021 100.909 92.3582 100.715 92.0106 100.312C91.643 99.8853 91.5282 99.2736 91.6877 98.5889L96.7097 77.0175C97.0437 75.5821 98.4685 74.3207 99.8853 74.2055L134.302 71.4104C134.37 71.4051 134.437 71.402 134.503 71.402Z" fill="black"/>
<path d="M90.5023 103.087L128.63 99.9902C129.113 99.9507 129.473 99.5273 129.434 99.0441C129.394 98.5609 128.971 98.2008 128.488 98.2403L90.3601 101.337C89.8769 101.376 89.5168 101.8 89.5562 102.283C89.5952 102.766 90.0191 103.126 90.5023 103.087Z" fill="white"/>
<path d="M90.4305 103.311C90.4602 103.311 90.4903 103.31 90.5204 103.307L128.648 100.211C129.252 100.162 129.704 99.6301 129.655 99.026C129.605 98.4219 129.074 97.9701 128.47 98.0193L90.3423 101.116C89.7382 101.165 89.2865 101.697 89.3356 102.301C89.3826 102.874 89.8645 103.311 90.4305 103.311ZM90.4845 102.866C90.1227 102.895 89.8064 102.625 89.7772 102.265C89.748 101.904 90.0177 101.587 90.3782 101.558L128.506 98.4609C128.866 98.4316 129.184 98.7014 129.213 99.0619C129.242 99.4224 128.972 99.74 128.612 99.7692L90.4845 102.866Z" fill="black"/>
<path d="M112.35 86.4603C111.607 85.6857 111.867 84.2311 112.93 83.2113C113.993 82.1915 115.458 81.9927 116.201 82.7673C116.944 83.542 116.684 84.9966 115.621 86.0164C114.557 87.0362 113.093 87.235 112.35 86.4603Z" fill="white"/>
<path d="M113.552 87.1639C113.619 87.1639 113.686 87.1613 113.755 87.1555C115.105 87.0461 116.46 85.8494 116.777 84.4879C116.941 83.7851 116.813 83.1455 116.419 82.6876C116.04 82.2486 115.464 82.0369 114.796 82.0914C113.446 82.2008 112.091 83.3975 111.774 84.759C111.61 85.4619 111.738 86.1014 112.132 86.5594C112.472 86.9527 112.971 87.1639 113.552 87.1639ZM114.997 82.5263C115.449 82.5263 115.83 82.6836 116.083 82.9772C116.384 83.3253 116.477 83.8262 116.346 84.3878C116.07 85.5753 114.892 86.6192 113.72 86.7144C113.196 86.7569 112.752 86.5992 112.468 86.2702C112.168 85.922 112.075 85.4211 112.205 84.8595C112.482 83.6721 113.66 82.6282 114.832 82.533C114.888 82.5286 114.943 82.5263 114.997 82.5263Z" fill="black"/>
<path d="M64.9387 65.6304L73.0004 79.0099C73.0004 79.0099 77.7859 66.037 78.8768 57.7122C79.0601 56.3122 80.7906 55.166 81.6954 54.6124C83.7146 53.3767 83.432 56.2449 83.6034 61.7497C83.9436 72.6778 82.2588 91.7504 77.2234 94.0056C69.6516 97.3965 55.7149 73.0304 54.4549 67.5871C53.1953 62.1435 64.9387 65.6304 64.9387 65.6304Z" fill="white"/>
<path d="M75.6832 94.5485C76.2616 94.5485 76.806 94.4351 77.3135 94.2079C78.555 93.652 79.6605 92.1116 80.599 89.6296C81.4143 87.4731 82.1035 84.6253 82.6474 81.1649C83.7435 74.1884 83.9739 66.5577 83.8242 61.7433C83.7998 60.9554 83.7838 60.206 83.7706 59.5448C83.705 56.382 83.6687 54.6401 82.8737 54.2052C82.5411 54.0232 82.1177 54.0949 81.5795 54.424C80.9085 54.8345 78.8668 56.084 78.6573 57.6842C77.694 65.0354 73.7872 76.169 72.9505 78.4987L65.1289 65.5168C65.1006 65.4694 65.0554 65.4345 65.0023 65.419C64.6794 65.3233 57.0668 63.0951 54.7886 65.2382C54.1871 65.8043 54.002 66.6112 54.2398 67.6374C54.7354 69.7793 57.2989 75.1898 61.0737 80.9971C63.5584 84.8202 68.3997 91.5682 72.9058 93.807C73.8997 94.3009 74.8289 94.5485 75.6832 94.5485ZM82.4773 54.5506C82.5477 54.5506 82.6088 54.5648 82.6611 54.5936C83.2316 54.9054 83.2718 56.8555 83.3277 59.5541C83.3414 60.2162 83.3569 60.9669 83.3817 61.7571C83.531 66.5514 83.3015 74.1498 82.2102 81.0963C81.6712 84.527 80.99 87.3451 80.1853 89.4733C79.2897 91.841 78.2631 93.2981 77.1328 93.8039C76.0025 94.3102 74.6464 94.1777 73.102 93.4102C65.5271 89.6464 55.7098 72.0275 54.6707 67.5373C54.4688 66.6639 54.6061 66.0173 55.0915 65.5607C55.9445 64.7581 57.8955 64.5482 60.7323 64.9535C62.6611 65.229 64.4021 65.7082 64.7936 65.8198L72.8101 79.1249C72.854 79.198 72.9355 79.2392 73.0205 79.2312C73.1051 79.2232 73.1777 79.1674 73.2074 79.0873C73.2552 78.9575 78.0142 65.9956 79.0958 57.7417C79.2778 56.3515 81.184 55.1849 81.8103 54.8018C82.0836 54.6344 82.3068 54.5506 82.4773 54.5506Z" fill="black"/>
<path d="M58.6924 84.3418C68.0261 86.5178 72.9219 76.4901 72.9219 76.4901C72.9219 76.4901 65.2721 55.7221 54.8392 61.4103C51.823 63.0548 49.1794 67.8899 52.0091 72.3787C56.6449 79.733 58.6924 84.3418 58.6924 84.3418Z" fill="white"/>
<path d="M61.3036 84.872C62.5438 84.872 63.7555 84.6616 64.9283 84.2422C66.5241 83.6708 68.0485 82.7128 69.4587 81.3943C71.8517 79.1573 73.0706 76.6916 73.1211 76.588C73.1476 76.5335 73.1507 76.4711 73.1299 76.4144C73.118 76.382 71.9106 73.1281 69.8458 69.5906C68.631 67.5094 67.3603 65.7365 66.0688 64.3214C64.4442 62.541 62.7794 61.3221 61.1216 60.6994C58.9846 59.8964 56.8357 60.0705 54.7341 61.2163C52.897 62.2177 51.4031 64.1952 50.8357 66.3761C50.453 67.8469 50.3135 70.1026 51.8229 72.4974C56.395 79.7507 58.4709 84.3861 58.4912 84.4322C58.5196 84.4955 58.5758 84.542 58.6431 84.558C59.5405 84.7675 60.4289 84.872 61.3036 84.872ZM72.6804 76.4773C72.4448 76.9295 71.2414 79.1249 69.1465 81.0799C66.0626 83.9578 62.5982 84.9907 58.8491 84.1509C58.5191 83.4317 56.4149 78.9531 52.1967 72.2613C50.7719 70.0007 50.903 67.8739 51.2635 66.4877C51.8012 64.4211 53.2123 62.5499 54.9454 61.6051C56.9287 60.5236 58.9541 60.3584 60.9648 61.1135C64.5824 62.4723 67.5808 66.5913 69.4592 69.8076C71.3154 72.9854 72.4718 75.9312 72.6804 76.4773Z" fill="black"/>
<path d="M62.362 61.9846C58.1221 57.7013 38.5504 61.9846 33.6338 70.4218C32.5611 72.2625 32.969 76.7141 35.9231 82.4656C40.5554 91.4848 54.5302 106.009 54.3619 115.24C60.0487 123.336 75.0386 112.288 75.168 108.43C73.275 102.451 71.0273 93.0801 70.3904 86.9637C75.1246 82.5529 67.2573 73.6528 67.2573 73.6528C67.2573 73.6528 67.074 66.744 62.362 61.9846Z" fill="white"/>
<path d="M60.178 118.358C61.2924 118.358 62.4975 118.166 63.7793 117.785C66.411 117.001 69.2934 115.412 71.6872 113.424C73.9637 111.535 75.3473 109.67 75.3885 108.437C75.3894 108.412 75.3859 108.387 75.3784 108.363C73.5563 102.608 71.278 93.209 70.6212 87.0492C71.6956 86.0062 72.1992 84.6487 72.1182 83.0122C72.0531 81.6945 71.6084 80.1953 70.7966 78.5557C69.5493 76.0374 67.7981 73.9438 67.4744 73.5664C67.4575 73.1957 67.3543 71.6137 66.7892 69.5454C66.2032 67.4013 64.9862 64.3222 62.5188 61.8292C60.981 60.2759 57.4502 59.721 52.8321 60.3078C49.0281 60.791 45.0393 61.97 41.6002 63.6278C37.7208 65.4977 34.9 67.8088 33.442 70.3102C32.8569 71.3139 32.7178 72.984 33.0496 75.013C33.4172 77.262 34.3428 79.8742 35.726 82.567C37.3205 85.6713 40.0057 89.4098 42.8487 93.3676C48.1927 100.808 54.2498 109.241 54.1404 115.236C54.1396 115.283 54.1537 115.329 54.1807 115.367C55.2459 116.883 56.6915 117.835 58.4769 118.194C59.0168 118.304 59.585 118.358 60.178 118.358ZM74.9448 108.459C74.8792 109.539 73.4965 111.348 71.4046 113.084C69.0546 115.034 66.2294 116.593 63.653 117.36C60.8278 118.201 56.9692 118.5 54.5842 115.171C54.6121 112.431 53.4291 109.003 50.9693 104.695C48.7964 100.89 45.9557 96.9351 43.2079 93.1098C40.3747 89.1654 37.6991 85.4401 36.1197 82.3651C33.1457 76.5751 32.8241 72.251 33.8246 70.5339C36.8674 65.3126 45.7178 61.6582 52.8879 60.7476C55.0236 60.4761 56.994 60.4522 58.5863 60.6781C60.2374 60.9124 61.4886 61.4182 62.2043 62.141L62.3615 61.9851L62.2043 62.141C64.6044 64.5654 65.7905 67.5691 66.3622 69.6623C66.9827 71.9321 67.0346 73.6417 67.035 73.6586C67.0363 73.7104 67.0558 73.7604 67.0904 73.7994C67.1099 73.8216 69.0577 76.04 70.4033 78.7594C72.1757 82.3425 72.1204 85.0482 70.2385 86.8016C70.1876 86.849 70.1619 86.9176 70.169 86.9867C70.8129 93.1603 73.1072 102.645 74.9448 108.459Z" fill="black"/>
<path d="M36.7579 70.7885C44.8745 66.9907 54.6267 92.6412 56.6733 106.169C66.2537 102.023 84.1845 97.0144 85.1425 99.4118C86.6399 103.16 59.0411 119.54 53.0084 114.552C45.1336 110.634 24.2996 76.618 36.7579 70.7885Z" fill="white"/>
<path d="M56.353 115.71C56.845 115.71 57.3734 115.676 57.9386 115.606C59.9688 115.358 62.426 114.675 65.2424 113.575C70.2317 111.627 75.9756 108.488 80.2328 105.384C81.9574 104.127 83.3344 102.941 84.2153 101.954C85.2154 100.834 85.5967 99.9513 85.3483 99.3299C85.2566 99.1009 85.0577 98.922 84.7561 98.7975C81.565 97.4821 65.4909 102.158 56.849 105.852C55.9163 99.9132 53.6477 92.212 50.8987 85.6682C49.3552 81.9939 47.7492 78.8759 46.1255 76.4014C44.3048 73.6266 42.5168 71.7563 40.8103 70.843C39.3589 70.0662 37.9638 69.9802 36.6643 70.5883C34.0494 71.8116 32.7013 74.295 32.657 77.9693C32.6224 80.8229 33.3731 84.3297 34.8879 88.3933C36.2148 91.952 38.1157 95.8695 40.386 99.7218C42.5044 103.317 44.8163 106.653 47.0711 109.37C49.3485 112.115 51.3588 113.971 52.8868 114.74C53.681 115.385 54.8431 115.71 56.353 115.71ZM83.1187 99.007C83.768 99.007 84.2623 99.073 84.5869 99.2067C84.7734 99.2838 84.8912 99.3804 84.9368 99.4937C85.2229 100.209 84.0687 102.039 79.9715 105.026C75.7431 108.109 70.0372 111.227 65.0812 113.163C59.2097 115.456 54.972 115.889 53.1495 114.382C53.1366 114.371 53.122 114.362 53.107 114.354C51.6516 113.63 49.6293 111.759 47.4122 109.087C45.172 106.388 42.8747 103.071 40.7678 99.4964C35.8308 91.119 33.0357 83.2743 33.0999 77.9741C33.142 74.4845 34.4047 72.1341 36.8521 70.9892C38.0183 70.4435 39.2796 70.5255 40.6013 71.2332C43.7237 72.9047 47.2354 78.0919 50.4903 85.8396C53.27 92.4565 55.5553 100.259 56.4544 106.202C56.4646 106.27 56.5058 106.329 56.566 106.362C56.6263 106.395 56.6984 106.399 56.7613 106.372C61.1407 104.477 67.3294 102.374 72.9125 100.885C77.52 99.6558 81.0809 99.007 83.1187 99.007Z" fill="black"/>
<path d="M87.4645 93.9974C87.4645 93.9974 89.3747 92.8189 90.6418 93.2547C91.9089 93.6905 96.419 96.103 96.2139 96.882C96.0297 97.5818 95.3578 97.654 95.3578 97.654C95.3578 97.654 96.2773 98.1297 96.1036 98.6567C95.841 99.4539 94.2984 99.062 94.2984 99.062C94.2984 99.062 95.0482 99.4987 94.8108 100.093C94.5734 100.687 92.6508 100.577 91.3562 99.4477C90.7025 99.7941 88.4862 100.238 88.2293 100.188C87.8086 100.936 87.2647 101.976 85.6818 102.844C83.6635 103.952 80.4485 103.37 80.5672 100.914C80.6859 98.4587 83.318 95.7128 84.8624 93.97C86.4068 92.2276 87.5765 90.0379 88.2891 89.1273C89.0022 88.2163 94.2979 89.0861 93.8701 90.2625C93.5149 91.2395 89.7166 90.6735 89.7166 90.6735C89.7166 90.6735 88.4942 92.7697 87.4645 93.9974Z" fill="white"/>
<path d="M80.8754 99.5116C81.635 97.465 83.6077 95.3864 84.8629 93.9709C86.4073 92.2286 87.5769 90.0389 88.2896 89.1283C89.0026 88.2172 94.2984 89.0871 93.8705 90.2634C93.5153 91.2405 89.717 90.6744 89.717 90.6744C89.717 90.6744 88.4942 92.7698 87.4645 93.9975C87.4645 93.9975 89.3747 92.8189 90.6418 93.2548C91.9089 93.6906 96.419 96.1031 96.2139 96.8821C96.0297 97.5819 95.3578 97.6541 95.3578 97.6541C95.3578 97.6541 96.2773 98.1298 96.1036 98.6568C95.841 99.454 94.2984 99.0621 94.2984 99.0621C94.2984 99.0621 95.0482 99.4988 94.8108 100.093C94.5734 100.687 92.6508 100.577 91.3562 99.4478C90.7025 99.7942 88.4862 100.238 88.2293 100.188C87.8086 100.936 87.2647 101.976 85.6818 102.844C84.7543 103.353 83.574 103.506 82.581 103.283" fill="white"/>
<path d="M83.5018 103.604C84.2982 103.604 85.1175 103.408 85.7881 103.04C87.3489 102.183 87.9361 101.163 88.3596 100.409C88.9491 100.371 90.6126 100.016 91.3221 99.7098C92.3425 100.537 93.658 100.798 94.4087 100.616C94.8029 100.521 94.9565 100.325 95.0159 100.176C95.1359 99.8754 95.0677 99.5999 94.93 99.375C95.4557 99.4002 96.1223 99.3081 96.3136 98.7265C96.4531 98.3027 96.1369 97.9404 95.8485 97.7114C96.0749 97.5812 96.3198 97.3491 96.4278 96.9386C96.5023 96.6551 96.2932 96.3278 95.7489 95.8774C95.3547 95.551 94.7975 95.1714 94.0933 94.7497C92.7633 93.953 91.3305 93.2576 90.7131 93.0455C89.9252 92.7744 88.9389 93.0627 88.2378 93.3595C88.9446 92.3864 89.6107 91.2863 89.8322 90.9142C90.1396 90.9545 90.8792 91.0418 91.6556 91.0569C93.0995 91.0848 93.8923 90.85 94.0778 90.3394C94.1731 90.0781 94.1416 89.6861 93.452 89.3039C92.812 88.9491 91.6733 88.6572 90.551 88.5607C89.8162 88.4978 88.523 88.4699 88.1146 88.9921C87.8555 89.3229 87.5406 89.8141 87.1761 90.3823C86.5105 91.4205 85.6822 92.712 84.6963 93.8241C84.5768 93.9592 84.4505 94.1 84.3194 94.2466C83.074 95.6382 81.3684 97.5444 80.6673 99.4352C80.6248 99.5499 80.6832 99.6775 80.7979 99.72C80.9126 99.7625 81.0402 99.704 81.0827 99.5893C81.755 97.7774 83.4283 95.9075 84.6498 94.542C84.7814 94.395 84.908 94.2537 85.0281 94.1182C86.0365 92.9804 86.8754 91.6725 87.549 90.6215C87.9078 90.0625 88.2174 89.5798 88.4636 89.2649C88.624 89.0603 89.3198 88.8995 90.5134 89.0018C91.5785 89.0935 92.6477 89.3636 93.2376 89.691C93.4259 89.795 93.7306 89.9983 93.6619 90.1879C93.6225 90.296 93.3621 90.6467 91.668 90.614C90.6994 90.5954 89.7582 90.4567 89.7489 90.4554C89.6595 90.4417 89.5709 90.4846 89.5253 90.5626C89.5133 90.5834 88.2998 92.6562 87.2939 93.8551C87.224 93.9384 87.2248 94.0602 87.2962 94.1421C87.367 94.2245 87.4875 94.2426 87.58 94.1859C87.5982 94.1749 89.4168 93.0681 90.5692 93.464C91.1494 93.6633 92.5188 94.3277 93.8063 95.0939C96.0022 96.4009 95.9991 96.8243 95.9987 96.8283C95.8556 97.3713 95.3388 97.4328 95.3334 97.4337C95.2365 97.4444 95.1576 97.517 95.1395 97.6131C95.1213 97.7092 95.1687 97.8058 95.2555 97.8505C95.5004 97.978 95.9788 98.3262 95.8928 98.5875C95.7321 99.0764 94.7005 98.9351 94.352 98.8475C94.2452 98.8204 94.1345 98.8762 94.0929 98.9785C94.0513 99.0809 94.0911 99.1978 94.1863 99.2536C94.1917 99.2567 94.7679 99.6026 94.6044 100.011C94.5761 100.082 94.464 100.147 94.3046 100.185C93.6394 100.346 92.378 100.046 91.501 99.2815C91.4319 99.2213 91.3327 99.2098 91.2517 99.2527C90.6268 99.5836 88.5146 99.9946 88.267 99.9707C88.1744 99.9543 88.0814 99.9981 88.0353 100.08L87.9911 100.159C87.5925 100.87 87.0468 101.843 85.5746 102.651C84.7154 103.123 83.5864 103.283 82.6284 103.068C82.5093 103.041 82.3906 103.116 82.364 103.236C82.3374 103.355 82.4123 103.474 82.5319 103.5C82.8432 103.57 83.1705 103.604 83.5018 103.604Z" fill="black"/>
<path d="M95.3575 97.8753C95.4243 97.8753 95.4908 97.8452 95.5342 97.7876C95.6081 97.6902 95.5887 97.5511 95.4912 97.4776C93.0562 95.6347 91.2761 94.6178 90.6069 94.6869C90.1127 94.7378 87.845 95.3641 87.7489 95.3907C87.6311 95.4234 87.562 95.5452 87.5943 95.6631C87.6271 95.7809 87.7489 95.85 87.8667 95.8176C88.5129 95.6387 90.2725 95.1666 90.6521 95.1271C90.979 95.0926 92.309 95.625 95.2237 97.8306C95.264 97.8607 95.311 97.8753 95.3575 97.8753Z" fill="black"/>
<path d="M94.2987 99.2841C94.3705 99.2841 94.4413 99.2491 94.4838 99.1844C94.5512 99.0826 94.5233 98.9448 94.4209 98.8775C91.9044 97.2162 91.7073 97.1639 90.9225 97.2556L90.887 97.2596C90.17 97.3428 87.8585 97.8557 87.7606 97.8774C87.641 97.904 87.5657 98.0223 87.5923 98.1418C87.6189 98.2614 87.7371 98.3363 87.8567 98.3101C87.8806 98.3048 90.244 97.7804 90.938 97.6998L90.9739 97.6958C91.5877 97.6241 91.6984 97.6108 94.1765 99.2473C94.2141 99.2726 94.2566 99.2841 94.2987 99.2841Z" fill="black"/>
<path d="M36.5195 92.5754C45.5254 95.8538 51.5869 86.4847 51.5869 86.4847C51.5869 86.4847 46.4798 64.9496 35.441 69.3471C32.2495 70.6187 29.046 75.1022 31.3172 79.8979C35.0389 87.7545 36.5195 92.5754 36.5195 92.5754Z" fill="white"/>
<path d="M40.3382 93.4923C41.1363 93.4923 41.9317 93.4028 42.721 93.223C44.3739 92.847 46.002 92.0785 47.5601 90.9385C50.2038 89.0044 51.7092 86.7022 51.7721 86.6052C51.8049 86.5543 51.8155 86.4927 51.8018 86.4338C51.7942 86.4014 51.0134 83.1444 49.4451 79.4679C49.3973 79.3554 49.2666 79.3031 49.1546 79.3509C49.0421 79.3988 48.9898 79.529 49.0376 79.6415C50.4429 82.9353 51.2092 85.8868 51.3478 86.4426C51.0599 86.863 49.6019 88.899 47.2882 90.5891C43.8818 93.0773 40.3187 93.6876 36.6971 92.4045C36.4557 91.6507 34.9034 86.9524 31.517 79.8036C30.373 77.3889 30.7578 75.2931 31.2822 73.96C32.064 71.9727 33.6885 70.2843 35.5226 69.5536C36.9744 68.9751 38.4001 68.8321 39.7598 69.1279C39.8793 69.1536 39.9972 69.0783 40.0233 68.9587C40.0494 68.8392 39.9737 68.7214 39.8541 68.6952C38.4063 68.3803 36.8938 68.5305 35.3587 69.1421C33.4148 69.9163 31.695 71.7003 30.8703 73.7979C30.3141 75.2125 29.9053 77.4354 31.117 79.9931C34.7873 87.7417 36.2928 92.5927 36.3078 92.641C36.3282 92.7075 36.3787 92.7602 36.4438 92.7841C37.7388 93.2558 39.0423 93.4923 40.3382 93.4923Z" fill="black"/>
<path d="M70.3896 86.9648C69.4848 87.6708 67.7371 87.9848 67.7371 87.9848L70.3896 86.9648Z" fill="#78D176"/>
<path d="M67.7372 88.2058C67.75 88.2058 67.7633 88.2045 67.7766 88.2023C67.8501 88.189 69.5889 87.8705 70.5261 87.1393C70.6227 87.064 70.6395 86.9249 70.5646 86.8284C70.4894 86.7318 70.3503 86.715 70.2537 86.7898C69.4034 87.4533 67.715 87.7633 67.6982 87.7664C67.5777 87.7881 67.498 87.9033 67.5193 88.0238C67.5388 88.1305 67.6318 88.2058 67.7372 88.2058Z" fill="black"/>
<path d="M56.2404 92.9653C56.9012 92.9653 58.1023 92.9237 59.4182 92.6766C60.5666 92.4609 61.5605 92.1323 62.3727 91.7C63.4047 91.1503 64.1461 90.4306 64.5757 89.5599C64.6298 89.45 64.585 89.3176 64.4752 89.2631C64.3653 89.2091 64.2329 89.2538 64.1784 89.3637C63.294 91.1548 61.0618 91.9161 59.3446 92.2394C57.4521 92.596 55.7505 92.5127 55.7332 92.5118C55.6114 92.5052 55.5069 92.5995 55.5007 92.7213C55.4945 92.8435 55.588 92.9476 55.7102 92.9538C55.7332 92.956 55.9255 92.9653 56.2404 92.9653Z" fill="black"/>
<path d="M31.9845 68.8965C33.2419 68.5382 33.9563 68.3473 35.01 68.4483C39.702 63.8373 43.5247 62.3837 47.2149 62.0156C55.0498 61.2343 53.5488 63.8443 53.7712 60.6138C53.7893 60.3512 56.6093 59.907 61.5644 61.3561C62.1083 56.8988 64.2958 56.5117 66.8757 52.0894C69.5942 47.43 63.4786 45.4467 62.1433 41.1657C60.808 36.8846 65.5908 32.4255 60.2663 30.11C54.9418 27.7945 51.8499 27.8614 48.7673 24.2044C45.6852 20.5474 42.8913 24.425 39.2844 26.69C35.6774 28.9549 30.4738 24.1854 27.6228 30.6867C24.7719 37.188 28.2296 39.7528 24.2519 44.467C20.2743 49.1813 17.5938 48.5351 18.3512 53.4677C19.109 58.4007 21.4856 58.0756 20.4789 62.3863C19.4722 66.6975 21.789 71.8006 31.9845 68.8965Z" fill="black"/>
<path d="M26.6949 69.9671C28.1299 69.9671 29.8891 69.7235 32.0451 69.1092C33.3273 68.7438 33.9881 68.5729 34.9886 68.6685C35.0542 68.6748 35.1184 68.6517 35.1649 68.6061C40.3508 63.5097 44.3405 62.5247 47.237 62.2359C50.9242 61.8683 52.5155 62.2576 53.1949 62.4241C53.5147 62.5025 53.6905 62.5455 53.8393 62.425C53.989 62.3041 53.9837 62.1181 53.9735 61.781C53.9664 61.5467 53.9567 61.199 53.9864 60.715C54.443 60.5179 57.1181 60.2862 61.5019 61.5684C61.5644 61.5866 61.6317 61.5764 61.6857 61.541C61.7402 61.5051 61.7761 61.4475 61.7836 61.3829C62.118 58.6431 63.0755 57.492 64.4007 55.8993C65.1975 54.9418 66.1001 53.8567 67.0661 52.2011C67.8633 50.8348 67.9935 49.5552 67.4638 48.2894C66.997 47.1738 66.0961 46.198 65.1426 45.1648C64.0132 43.941 62.8448 42.6752 62.3536 41.1003C61.854 39.4987 62.2425 37.8693 62.618 36.2935C62.921 35.0228 63.2066 33.8226 62.9967 32.7317C62.7567 31.4849 61.9169 30.5872 60.3535 29.9078C58.7347 29.2036 57.3117 28.7155 56.056 28.285C53.1475 27.2871 51.046 26.5665 48.9355 24.0628C46.407 21.0626 44.0043 22.9046 41.4603 24.8547C40.7246 25.4185 39.9637 26.0018 39.1656 26.5032C37.8458 27.3319 36.3036 27.1729 34.6702 27.0046C33.3557 26.869 31.9964 26.7286 30.7417 27.1423C29.32 27.6109 28.2331 28.7416 27.4186 30.5982C26.0881 33.6317 26.112 35.8218 26.1324 37.7537C26.1559 39.9474 26.1763 41.8417 24.0809 44.325C22.7474 45.9057 21.5559 46.8814 20.5988 47.6658C19.6484 48.4444 18.8977 49.0596 18.4525 49.906C17.9848 50.7958 17.8852 51.9048 18.1306 53.5019C18.4636 55.6694 19.1151 56.8613 19.6386 57.8188C20.3211 59.0669 20.8141 59.9687 20.2613 62.3369C20.0031 63.4432 19.9712 64.5496 20.1692 65.5364C20.3933 66.6511 20.8929 67.5843 21.6543 68.3098C22.5503 69.1606 24.0858 69.9671 26.6949 69.9671ZM31.9233 68.6832C26.0487 70.3564 23.2633 69.2288 21.9616 67.9883C20.629 66.718 20.167 64.6944 20.6945 62.4365C21.2862 59.9036 20.7313 58.8893 20.0293 57.6054C19.496 56.6301 18.8915 55.5242 18.5704 53.4337C18.0885 50.2958 19.0217 49.5309 20.8814 48.0073C21.8527 47.2114 23.0614 46.2211 24.4215 44.6094C26.6232 42.0002 26.6019 40.0298 26.5771 37.748C26.5567 35.8608 26.5337 33.7216 27.8261 30.7754C29.5179 26.9173 31.9995 27.1733 34.6264 27.4444C36.262 27.6131 37.9534 27.7876 39.4026 26.8774C40.2184 26.365 40.9877 25.7755 41.7313 25.2055C44.3077 23.2306 46.3424 21.6707 48.5985 24.3476C50.7877 26.9452 52.938 27.6826 55.9139 28.7035C57.1615 29.1314 58.5757 29.6168 60.1785 30.3135C61.5958 30.9295 62.3536 31.7245 62.5631 32.815C62.7549 33.8124 62.4799 34.9674 62.1884 36.1903C61.8173 37.748 61.3965 39.5138 61.932 41.2314C62.4528 42.902 63.6553 44.2046 64.8184 45.4646C66.6812 47.4829 68.2898 49.2257 66.6843 51.9779C65.7369 53.602 64.8463 54.672 64.061 55.6163C62.7793 57.1572 61.7584 58.3835 61.3784 61.0724C58.9814 60.3921 57.1961 60.1853 56.1083 60.133C54.9311 60.0763 53.981 60.172 53.6874 60.3766C53.5816 60.4506 53.5545 60.5382 53.5501 60.5989C53.512 61.1499 53.5235 61.5374 53.5311 61.7943C53.5337 61.8873 53.5364 61.9825 53.5346 62.0485C53.4726 62.0366 53.3853 62.0153 53.2999 61.9945C52.5983 61.8227 50.9552 61.4209 47.1927 61.7961C45.0916 62.0056 43.2474 62.5286 41.3899 63.4428C39.2542 64.4938 37.1394 66.0563 34.9271 68.2194C33.9049 68.1366 33.1821 68.3249 31.9233 68.6832Z" fill="black"/>
<path d="M19.1621 62.5131C19.2595 62.5131 19.3486 62.4485 19.3756 62.3502C20.0678 59.8336 19.558 58.7928 18.9127 57.4747C18.4224 56.4733 17.8662 55.3382 17.6328 53.2255C17.282 50.0544 18.2422 49.3254 20.1546 47.8731C21.1534 47.1149 22.3961 46.1706 23.8147 44.6098C26.0585 42.1407 25.8392 40.2898 25.585 38.1466C25.364 36.282 25.1138 34.1689 26.5616 31.1789C28.4231 27.3341 31.4415 27.6304 34.3602 27.9165C36.2261 28.0994 37.9884 28.2721 39.442 27.4337C39.5479 27.3726 39.5842 27.2371 39.5231 27.1312C39.4619 27.0254 39.3264 26.9891 39.2206 27.0502C37.8901 27.8177 36.1964 27.6516 34.4036 27.4758C32.9048 27.3288 31.3551 27.1769 29.9228 27.5728C28.2858 28.0255 27.0559 29.142 26.163 30.9858C24.6589 34.0918 24.9176 36.2736 25.1452 38.1984C25.3963 40.3181 25.5948 41.9923 23.487 44.3117C22.0959 45.8428 20.8708 46.7729 19.8867 47.5206C18.9092 48.2629 18.1372 48.8488 17.6602 49.6801C17.1584 50.5535 17.0145 51.6621 17.1925 53.2747C17.4343 55.464 18.0336 56.6868 18.515 57.67C19.1426 58.9518 19.5961 59.8779 18.9486 62.2332C18.9163 62.351 18.9854 62.4728 19.1036 62.5056C19.1231 62.5109 19.1426 62.5131 19.1621 62.5131Z" fill="black"/>
<path d="M63.6488 61.0788C63.6493 61.0788 63.6501 61.0788 63.6506 61.0788C63.7728 61.078 63.8712 60.9779 63.8703 60.8556C63.8419 57.6313 64.8358 56.28 66.2119 54.4101C66.9812 53.3644 67.8533 52.1792 68.7081 50.4422C69.4043 49.0275 69.4353 47.7511 68.8033 46.5407C68.2465 45.4746 67.2646 44.5813 66.2247 43.6357C64.9935 42.5156 63.7201 41.3574 63.1036 39.8405C62.4769 38.2988 62.7404 36.6587 62.9951 35.0731C63.2006 33.7931 63.395 32.584 63.0983 31.5211C62.7595 30.3071 61.8449 29.4864 60.2199 28.9381C58.5369 28.3703 57.0678 28.0005 55.7714 27.674C52.7677 26.9176 50.5979 26.3715 48.2798 24.0635C48.193 23.9772 48.053 23.9776 47.9666 24.0644C47.8803 24.1512 47.8807 24.2912 47.9675 24.3775C50.3716 26.771 52.5914 27.3299 55.6633 28.1036C56.9517 28.4279 58.412 28.7959 60.0782 29.3579C61.5517 29.8549 62.3759 30.5803 62.6718 31.6406C62.9424 32.6097 62.7555 33.7723 62.5579 35.0031C62.3059 36.5723 62.0203 38.351 62.6935 40.0079C63.3481 41.6183 64.6591 42.8106 65.9271 43.9639C67.9569 45.8099 69.7099 47.4043 68.3112 50.2473C67.4741 51.9489 66.614 53.1173 65.8558 54.1483C64.4828 56.0143 63.3981 57.4883 63.4278 60.86C63.4283 60.981 63.5275 61.0788 63.6488 61.0788Z" fill="black"/>
<path d="M56.6679 76.0335C52.1445 70.5593 45.4014 77.9823 45.4014 77.9823C45.4014 77.9823 36.2285 62.2957 46.7035 59.5993C58.3177 56.6097 66.4121 71.1931 66.4121 71.1931C66.4121 71.1931 58.6724 68.2903 56.6679 76.0335Z" fill="white"/>
<path d="M45.401 78.2036C45.463 78.2036 45.5228 78.1774 45.5649 78.1309C45.6012 78.0911 49.2197 74.1568 52.8205 74.2427C54.2284 74.2759 55.4655 74.9261 56.497 76.1746C56.5501 76.2389 56.6343 76.2676 56.7158 76.2499C56.7968 76.2318 56.8615 76.1698 56.8823 76.0892C57.4452 73.9136 58.5246 72.3976 60.0902 71.5831C62.8721 70.1353 66.2997 71.3882 66.3338 71.4011C66.4206 71.4334 66.5185 71.4086 66.5791 71.3382C66.6398 71.2678 66.65 71.1672 66.6048 71.0862C66.5845 71.0494 64.5245 67.3725 61.0642 64.1145C59.0259 62.1954 56.9062 60.7923 54.7635 59.9441C52.0733 58.8794 49.3428 58.6916 46.6478 59.3852C44.3686 59.972 42.8198 61.213 42.0443 63.0737C41.5062 64.3652 41.3405 65.9631 41.5531 67.8238C41.7214 69.2986 42.1258 70.9427 42.7556 72.7107C43.8252 75.7131 45.1964 78.0711 45.2101 78.0946C45.2456 78.1553 45.308 78.1956 45.3784 78.2031C45.3855 78.2031 45.3935 78.2036 45.401 78.2036ZM52.7062 73.7985C50.7526 73.7985 48.8454 74.8752 47.5788 75.7893C46.5596 76.5245 45.797 77.2575 45.4475 77.6132C45.0693 76.928 44.0227 74.9487 43.1701 72.5544C42.2037 69.8398 41.2953 66.0212 42.4531 63.2433C43.1723 61.5178 44.6206 60.364 46.7581 59.8139C52.6562 58.2957 57.6237 61.4859 60.7528 64.4289C63.4248 66.9428 65.2504 69.7101 65.9267 70.8107C65.5414 70.7057 64.9812 70.5782 64.3155 70.5029C63.1515 70.3709 61.4389 70.3828 59.8883 71.1885C58.304 72.0118 57.187 73.4876 56.5643 75.5789C55.5027 74.4314 54.2484 73.8335 52.8298 73.8002C52.7886 73.7989 52.7474 73.7985 52.7062 73.7985Z" fill="black"/>
<path d="M45.0136 48.083L55.9745 49.27C54.9943 50.6864 56.0329 58.1328 56.0475 61.4661C60.0358 66.6746 59.9442 78.5341 59.9442 78.5341C59.9442 78.5341 42.451 68.7141 45.763 61.4067C45.9326 57.7586 45.0136 48.0835 45.0136 48.083Z" fill="white"/>
<path d="M59.9445 78.7558C59.983 78.7558 60.0211 78.7456 60.0556 78.7257C60.1234 78.6862 60.1655 78.614 60.1659 78.5357C60.1659 78.506 60.1836 75.5138 59.7115 71.9245C59.4338 69.8132 59.0436 67.9101 58.5516 66.2669C57.943 64.2353 57.1755 62.5953 56.2689 61.391C56.2596 60.3418 56.1559 58.9125 56.0461 57.4014C55.8162 54.2386 55.5297 50.303 56.1572 49.396C56.2015 49.3317 56.2091 49.2489 56.1763 49.1781C56.144 49.1072 56.0762 49.0585 55.9987 49.0501L45.0374 47.8635C44.9625 47.8556 44.8872 47.8866 44.8398 47.9464C44.8035 47.992 44.7871 48.05 44.7933 48.1067C44.8084 48.2626 45.7013 57.7464 45.5436 61.3551C44.7783 63.0833 45.0635 65.0768 46.3918 67.2807C47.4432 69.0248 49.151 70.9089 51.4678 72.8803C55.3981 76.2242 59.7917 78.7035 59.8355 78.7283C59.8696 78.7465 59.9073 78.7558 59.9445 78.7558ZM55.6342 49.4558C55.1213 50.792 55.3667 54.1638 55.6045 57.4337C55.7166 58.9728 55.8224 60.4268 55.8268 61.4676C55.8268 61.5159 55.8432 61.5629 55.8725 61.6014C57.4789 63.6994 58.6543 67.2873 59.2717 71.9772C59.6424 74.7918 59.7093 77.2353 59.7208 78.1499C58.6273 77.509 55.0256 75.326 51.7508 72.5392C49.4717 70.5998 47.7958 68.7529 46.77 67.0499C45.5122 64.9626 45.2416 63.0948 45.9648 61.4986C45.9763 61.473 45.983 61.4455 45.9843 61.4176C46.0552 59.8958 45.9502 57.1857 45.6729 53.3617C45.5396 51.5259 45.3417 49.1812 45.2588 48.333L55.6342 49.4558Z" fill="black"/>
<path d="M45.6489 49.1871C49.286 54.3894 53.6144 55.2291 56.5708 54.8478C60.4138 54.3522 60.0156 46.4956 59.2561 42.9546C58.1067 37.5982 54.4054 31.2997 47.6929 33.6214C37.6926 37.0804 44.3312 45.426 44.3312 45.426C44.3312 45.426 41.7682 45.2976 42.3944 47.5541C42.7957 48.9993 45.6489 49.1871 45.6489 49.1871Z" fill="white"/>
<path d="M55.3058 55.1508C55.7749 55.1508 56.2085 55.1184 56.5991 55.0679C57.4393 54.9594 58.1382 54.5187 58.6768 53.7578C59.6742 52.3476 59.9306 50.0787 59.9705 48.4236C60.0134 46.6236 59.8274 44.5624 59.4726 42.909C59.0661 41.0139 58.3942 39.2126 57.5301 37.6996C56.5088 35.9112 55.2704 34.5985 53.85 33.7977C51.9974 32.7533 49.9016 32.624 47.6207 33.4128C44.6129 34.4532 42.7798 36.0405 42.1721 38.131C41.7407 39.6156 41.9489 41.3735 42.774 43.2151C43.1784 44.1177 43.6328 44.8281 43.9074 45.2223C43.4663 45.2683 42.7944 45.4225 42.3958 45.9203C42.0587 46.3415 41.9865 46.9111 42.1819 47.6139C42.6199 49.192 45.512 49.4002 45.6347 49.4086C45.7561 49.4165 45.8624 49.324 45.8703 49.2022C45.8783 49.0799 45.7857 48.9745 45.6639 48.9666C45.6369 48.9648 42.9627 48.7721 42.6084 47.4957C42.4538 46.9385 42.4981 46.5023 42.7408 46.1984C43.216 45.6027 44.31 45.6475 44.3211 45.6479C44.4079 45.6519 44.4889 45.6049 44.5288 45.5274C44.5686 45.4499 44.5593 45.3569 44.5053 45.2887C44.4978 45.2794 43.7692 44.3551 43.174 43.0233C42.6314 41.8093 42.0911 39.9961 42.5986 38.2528C43.1647 36.3094 44.903 34.8217 47.7664 33.8313C49.922 33.086 51.896 33.2042 53.6335 34.1835C56.1372 35.5945 58.1586 38.891 59.0404 43.002C59.6436 45.8127 59.9802 51.1492 58.3158 53.5023C57.8521 54.1582 57.2555 54.5369 56.5433 54.629C54.7757 54.8571 52.0815 54.7025 49.2851 52.6714C49.1863 52.5997 49.0477 52.6214 48.9759 52.7206C48.9042 52.8193 48.9259 52.958 49.0251 53.0297C51.322 54.6981 53.5573 55.1508 55.3058 55.1508Z" fill="black"/>
<path d="M56.973 45.2791C57.0567 45.2791 57.1369 45.2313 57.1741 45.1502C57.225 45.0391 57.1767 44.9075 57.0655 44.8566C55.3945 44.0877 54.5778 41.4374 54.5698 41.4104C54.5344 41.2935 54.4108 41.227 54.2939 41.2625C54.177 41.2979 54.1105 41.421 54.1455 41.5384C54.1805 41.6549 55.0269 44.4062 56.8804 45.2592C56.9105 45.2729 56.942 45.2791 56.973 45.2791Z" fill="black"/>
<path d="M55.8206 48.9086C55.5118 49.0723 55.2668 49.2598 55.0778 49.4347C54.5378 49.9355 54.3315 50.4439 54.3227 50.4651C54.2773 50.5789 54.3328 50.7073 54.4463 50.753C54.5599 50.798 54.6887 50.7432 54.7342 50.6294C54.7634 50.5578 55.4799 48.8616 57.8386 48.897C57.9609 48.8989 58.0616 48.8014 58.0635 48.6791C58.0653 48.5568 57.9678 48.4561 57.8455 48.4543C56.9852 48.4416 56.3199 48.6439 55.8206 48.9086Z" fill="black"/>
<path d="M50.4972 31.8042C54.9399 39.1129 44.1013 44.9805 44.1013 44.9805C44.1013 44.9805 39.0584 38.7506 42.3235 34.8531C45.8977 30.5871 50.4972 31.8042 50.4972 31.8042Z" fill="black"/>
<path d="M47.2114 32.0121C52.2861 29.3498 56.5703 36.1301 56.5703 36.1301C56.5703 36.1301 51.9115 35.7143 50.0398 33.7177C48.1681 31.7211 47.2114 32.0121 47.2114 32.0121Z" fill="black"/>
<path d="M55.2425 36.5431C56.7142 36.5431 58.031 35.9811 58.3986 35.3969C58.4637 35.2933 58.4327 35.1568 58.329 35.0913C58.2254 35.0262 58.089 35.0572 58.0239 35.1608C57.7382 35.6148 56.4117 36.1875 54.9001 36.0887C53.714 36.0112 51.5217 35.4416 50.1677 32.4981C50.1168 32.3869 49.9853 32.3382 49.8741 32.3896C49.7629 32.441 49.7142 32.5721 49.7656 32.6832C51.2156 35.8354 53.5869 36.4466 54.8718 36.5307C54.9958 36.5391 55.1198 36.5431 55.2425 36.5431Z" fill="black"/>
<path d="M121.275 118.506C121.313 118.506 121.351 118.496 121.386 118.476C121.492 118.414 121.527 118.279 121.466 118.173C121.46 118.163 120.875 117.146 120.439 115.476C120.408 115.358 120.287 115.287 120.169 115.318C120.05 115.349 119.98 115.47 120.011 115.588C120.464 117.321 121.058 118.353 121.083 118.396C121.124 118.466 121.199 118.506 121.275 118.506Z" fill="black"/>
<path d="M138.048 163.375C138.096 163.375 138.145 163.359 138.185 163.327C138.282 163.251 138.298 163.112 138.222 163.016C138.198 162.986 135.798 159.923 132.939 153.945C130.3 148.428 126.72 139.228 124.647 126.732C124.627 126.612 124.514 126.53 124.393 126.55C124.272 126.57 124.19 126.684 124.211 126.805C125.13 132.348 126.42 137.715 128.043 142.755C129.343 146.788 130.859 150.623 132.547 154.153C135.427 160.17 137.85 163.26 137.875 163.291C137.918 163.346 137.983 163.375 138.048 163.375Z" fill="black"/>
<path d="M153.832 137.056C153.937 137.056 154.031 136.979 154.049 136.872C154.07 136.751 153.989 136.637 153.869 136.616C147.022 135.435 140.264 128.464 135.801 122.823C130.949 116.692 127.686 110.762 127.654 110.703C127.595 110.596 127.46 110.556 127.353 110.615C127.246 110.674 127.206 110.808 127.265 110.916C127.297 110.975 130.576 116.932 135.45 123.093C138.316 126.716 141.166 129.7 143.921 131.964C147.379 134.807 150.701 136.519 153.794 137.052C153.806 137.055 153.819 137.056 153.832 137.056Z" fill="black"/>
<path d="M119.892 100.99C119.892 100.99 123.887 99.3668 129.249 100.516C134.611 101.665 136.323 112.429 139.233 129.433C132.753 132.346 122.628 110.956 119.892 100.99Z" fill="#64BC62"/>
<path d="M139.233 129.655C139.246 129.655 139.258 129.654 139.271 129.652C139.392 129.631 139.473 129.517 139.452 129.397C139.307 128.552 139.167 127.726 139.028 126.916C137.707 119.162 136.663 113.037 135.336 108.609C133.906 103.84 132.208 101.318 129.831 100.432C127.499 99.562 124.842 99.6807 123.023 99.9332C121.059 100.206 119.664 100.675 119.605 100.695C119.489 100.734 119.427 100.86 119.466 100.976C119.505 101.091 119.632 101.154 119.747 101.114C119.761 101.11 121.168 100.637 123.092 100.37C124.858 100.126 127.433 100.01 129.676 100.846C131.91 101.68 133.524 104.113 134.911 108.736C136.231 113.138 137.272 119.251 138.591 126.991C138.729 127.8 138.87 128.627 139.015 129.471C139.034 129.579 139.127 129.655 139.233 129.655Z" fill="black"/>
<path d="M80.2845 129.306C80.5618 129.306 80.8404 129.298 81.1203 129.283C82.891 129.183 84.6763 128.771 86.4262 128.055C88.2948 127.292 90.1111 126.187 91.8243 124.772C93.6636 123.252 95.3931 121.366 96.9645 119.166C97.0359 119.067 97.0124 118.928 96.9132 118.858C96.8135 118.786 96.6753 118.809 96.6045 118.909C89.8923 128.306 81.7611 129.92 76.3897 128.298C71.6435 126.864 68.475 122.902 68.3174 118.204C68.3134 118.082 68.212 117.986 68.0884 117.99C67.9662 117.994 67.8705 118.097 67.8745 118.219C67.9564 120.665 68.8081 122.949 70.3374 124.826C71.8274 126.654 73.8758 128.001 76.2612 128.722C77.5483 129.11 78.8978 129.306 80.2845 129.306Z" fill="black"/>
<path d="M77.7588 48.7309C76.796 46.6678 78.9794 47.2657 79.8072 48.5014C80.6355 49.7367 80.3104 51.8515 81.2551 52.4406C81.9947 52.9021 82.2919 52.5331 83.7743 50.5662C85.2567 48.5989 88.4229 43.6331 89.5957 43.7939C90.4027 43.9041 90.2849 44.638 90.2849 44.638C90.2849 44.638 91.3075 43.6495 91.847 44.3993C92.3865 45.1487 91.3505 46.2267 91.3505 46.2267C91.3505 46.2267 92.8028 46.3729 91.9551 47.4659C91.6694 47.8344 91.6189 47.8743 91.0613 48.5298C90.6476 50.5095 90.6326 54.6418 89.5421 55.7021C88.1545 57.0507 83.8093 60.5602 83.6033 61.7503L78.8178 60.236C78.7252 57.4263 78.7212 50.7939 77.7588 48.7309Z" fill="white"/>
<path d="M83.6037 61.971C83.7095 61.971 83.803 61.8948 83.8216 61.7872C83.9615 60.9772 86.4927 58.7321 88.1677 57.2466C88.7962 56.689 89.3392 56.2076 89.6966 55.8599C90.5062 55.0729 90.741 52.931 90.9677 50.8591C91.0599 50.0203 91.1467 49.2266 91.2667 48.6291C91.4332 48.4334 91.5524 48.2956 91.6463 48.1867C91.8456 47.9555 91.9364 47.8501 92.1299 47.6007C92.4253 47.2198 92.5117 46.8801 92.3872 46.5905C92.2685 46.3141 91.9873 46.1662 91.7499 46.0882C92.0528 45.675 92.4811 44.9008 92.0263 44.2692C91.8682 44.05 91.6534 43.9224 91.4044 43.8998C91.0572 43.8688 90.7073 44.0456 90.4615 44.2125C90.4336 44.1271 90.3915 44.038 90.3286 43.953C90.1741 43.7444 89.9371 43.6168 89.6253 43.5739C88.6452 43.4392 86.8997 45.7866 84.7211 48.8692C84.3026 49.4609 83.9075 50.0203 83.597 50.4326C82.0757 52.4518 81.9091 52.5878 81.3719 52.2525C80.944 51.9854 80.8112 51.2573 80.6703 50.4858C80.5419 49.7815 80.3962 48.983 79.9905 48.378C79.451 47.5733 78.253 46.8943 77.6241 47.2491C77.3344 47.4125 77.0877 47.8182 77.5572 48.8244C78.3611 50.5478 78.4846 55.7195 78.5581 58.8096C78.5714 59.3606 78.5825 59.8358 78.5962 60.2428C78.6002 60.3651 78.7034 60.4607 78.8248 60.4568C78.947 60.4528 79.0427 60.3505 79.0387 60.2282C79.0254 59.8234 79.0139 59.3491 79.001 58.7994C78.9218 55.4724 78.8017 50.4446 77.9585 48.6375C77.7149 48.1158 77.6701 47.7318 77.8415 47.6353C78.1467 47.463 79.1224 47.8789 79.6224 48.6247C79.9768 49.1535 80.1079 49.8715 80.2345 50.5655C80.3931 51.4358 80.5432 52.2578 81.1371 52.6285C81.6088 52.9226 81.9671 52.9106 82.3733 52.5873C82.7422 52.2932 83.1678 51.7378 83.9504 50.6992C84.2653 50.2816 84.6622 49.72 85.0825 49.1252C85.897 47.9727 86.82 46.6671 87.6721 45.64C88.9401 44.1115 89.418 43.9929 89.5651 44.0132C89.7529 44.0389 89.8893 44.1067 89.9708 44.2143C90.0957 44.3799 90.0656 44.6023 90.0651 44.6045C90.0518 44.6984 90.0992 44.791 90.1834 44.8344C90.2675 44.8773 90.3698 44.8632 90.438 44.7972C90.5806 44.6603 91.0258 44.3104 91.3655 44.3414C91.4873 44.3525 91.5829 44.4118 91.6666 44.5283C92.0847 45.1094 91.1994 46.0638 91.1901 46.0732C91.1316 46.1343 91.113 46.2237 91.1422 46.303C91.1715 46.3823 91.2437 46.4381 91.3278 46.447C91.4678 46.4616 91.889 46.5519 91.9802 46.7663C92.0497 46.9288 91.9093 47.1627 91.7796 47.3301C91.5931 47.5706 91.5103 47.6667 91.3106 47.8983C91.2096 48.0157 91.0794 48.1663 90.8924 48.3864C90.8685 48.4148 90.8522 48.4484 90.8446 48.4847C90.7144 49.1088 90.6236 49.9361 90.5275 50.8122C90.3295 52.6192 90.0828 54.8678 89.3879 55.5437C89.0376 55.8843 88.4986 56.3626 87.8741 56.9162C85.5095 59.0138 83.5394 60.8221 83.3857 61.7128C83.3649 61.8333 83.4455 61.948 83.566 61.9688C83.5784 61.9697 83.5913 61.971 83.6037 61.971Z" fill="black"/>
<path d="M85.3363 51.1481C85.4103 51.1481 85.4825 51.1113 85.5246 51.044C85.5525 50.9988 88.3578 46.5203 90.4257 44.808C90.52 44.7301 90.5329 44.5905 90.4549 44.4962C90.377 44.4019 90.2374 44.389 90.1431 44.467C88.0198 46.2253 85.2646 50.6233 85.1485 50.8097C85.0839 50.9134 85.1153 51.0502 85.2194 51.1149C85.2557 51.1375 85.2965 51.1481 85.3363 51.1481Z" fill="black"/>
<path d="M86.6122 52.5368C86.6902 52.5368 86.7655 52.4957 86.8058 52.423C86.8292 52.3805 89.1961 48.1557 91.4846 46.4009C91.5816 46.3265 91.6002 46.1874 91.5253 46.0904C91.4509 45.9935 91.3118 45.9753 91.2148 46.0497C88.8537 47.8607 86.517 52.0311 86.4187 52.2078C86.3593 52.3145 86.3974 52.4496 86.5046 52.5089C86.5392 52.528 86.5759 52.5368 86.6122 52.5368Z" fill="black"/>
<path d="M88.1429 53.9201C88.2373 53.9201 88.3245 53.8594 88.3542 53.7647C88.3648 53.7306 89.43 50.3273 89.7551 49.0434C89.9021 48.4623 90.2516 48.2253 90.5306 48.247C90.7086 48.2612 90.8242 48.3737 90.8402 48.5486C90.8513 48.6704 90.9593 48.7599 91.0807 48.7493C91.2025 48.7382 91.2924 48.6306 91.2813 48.5088C91.2463 48.119 90.9589 47.8364 90.5656 47.8054C90.1001 47.7687 89.5358 48.1035 89.3255 48.9344C89.0035 50.2068 87.9418 53.5981 87.9312 53.6322C87.8945 53.7487 87.9596 53.8732 88.0765 53.9099C88.0986 53.9166 88.1212 53.9201 88.1429 53.9201Z" fill="black"/>
<path d="M58.3509 36.6015C58.343 36.6028 58.3352 36.6045 58.3275 36.6066C58.2093 36.6388 58.1402 36.7608 58.1722 36.8785C58.1779 36.8996 58.311 37.4371 57.9293 38.0067C57.4948 38.6543 56.5437 39.0957 55.1792 39.2809C55.0561 39.2967 54.9733 39.4088 54.9898 39.53C55.0062 39.6512 55.1177 39.7359 55.2389 39.7194C56.7612 39.5119 57.7931 39.0148 58.3048 38.2421C58.794 37.5025 58.6082 36.7919 58.5998 36.7618C58.5694 36.6519 58.4611 36.5837 58.3509 36.6015Z" fill="black"/>
<path d="M52.943 40.9402C52.8593 40.8711 52.7355 40.8722 52.6533 40.9474C51.7337 41.7848 50.8081 41.8763 49.2375 41.2854C49.123 41.2425 48.9955 41.3003 48.9522 41.4145C48.909 41.5288 48.9665 41.6566 49.0814 41.6998C50.8145 42.352 51.8992 42.2328 52.9516 41.2747C53.0419 41.1925 53.0487 41.0522 52.9664 40.9618C52.9585 40.9541 52.9508 40.9467 52.943 40.9402Z" fill="black"/>
<path d="M58.6807 40.7549C57.8728 42.0854 56.4471 41.658 56.4471 41.658L58.6807 40.7549Z" fill="white"/>
<path d="M56.9728 41.9405C57.5185 41.9405 58.3259 41.766 58.8702 40.8696C58.9336 40.7651 58.9003 40.6286 58.7958 40.5653C58.6913 40.502 58.5549 40.5352 58.4916 40.6397C57.7851 41.8028 56.5618 41.4604 56.51 41.4454C56.3931 41.4113 56.27 41.4777 56.235 41.5951C56.2004 41.712 56.2664 41.8351 56.3833 41.8701C56.3895 41.8714 56.6296 41.9405 56.9728 41.9405Z" fill="black"/>
<path d="M52.7412 43.1318C51.9334 44.4623 50.5077 44.0349 50.5077 44.0349L52.7412 43.1318Z" fill="white"/>
<path d="M51.0324 44.3175C51.5781 44.3175 52.3855 44.143 52.9298 43.2465C52.9931 43.142 52.9599 43.0056 52.8554 42.9423C52.7509 42.8789 52.6145 42.9121 52.5511 43.0167C51.8451 44.1797 50.6214 43.8374 50.5696 43.8223C50.4527 43.7882 50.3295 43.8546 50.2945 43.972C50.26 44.0889 50.326 44.2121 50.4429 44.247C50.4496 44.2484 50.6896 44.3175 51.0324 44.3175Z" fill="black"/>
</svg>
