<svg width="0" height="0" class="hidden">
  <symbol xmlns="http://www.w3.org/2000/svg" viewBox="0 0 15 20" id="ic_buttonUp">
    <path d="M0.314718 7.2925C0.734342 7.6825 1.4122 7.6825 1.83182 7.2925L6.00654 3.4225V18.5925C6.00654 19.1425 6.49072 19.5925 7.0825 19.5925C7.67428 19.5925 8.15846 19.1425 8.15846 18.5925V3.4225L12.3332 7.3025C12.7528 7.6925 13.4307 7.6925 13.8503 7.3025C14.2699 6.9125 14.2699 6.2825 13.8503 5.8925L7.83567 0.2925C7.41605 -0.0975 6.73819 -0.0975 6.31857 0.2925L0.314718 5.8825C-0.104906 6.2725 -0.104906 6.9125 0.314718 7.2925Z" fill="currentColor"></path>
  </symbol>
  <symbol xmlns="http://www.w3.org/2000/svg" viewBox="0 0 23 23" id="ic_close">
    <path d="M1.73141 1.33633C2.06407 0.895473 2.66108 0.84353 3.06488 1.22031L22.2687 19.1395C22.6725 19.5163 22.7302 20.1791 22.3975 20.62L21.8681 21.3216C21.5354 21.7625 20.9384 21.8144 20.5346 21.4376L1.33079 3.51845C0.926989 3.14166 0.869319 2.47883 1.20198 2.03797L1.73141 1.33633Z" fill="currentColor"></path>
    <rect width="28.2656" height="2.87897" rx="1" transform="matrix(0.731139 -0.682228 0.60233 0.798247 0 19.6543)" fill="currentColor"></rect>
  </symbol>
  <symbol xmlns="http://www.w3.org/2000/svg" viewBox="0 0 24 24" id="ic_contacts_email">
    <path d="M20 4H4C2.9 4 2 4.9 2 6V18C2 19.1 2.9 20 4 20H13V18H4V8L10.94 12.34C11.59 12.75 12.41 12.75 13.06 12.34L20 8V13H22V6C22 4.9 21.1 4 20 4ZM12 11L4 6H20L12 11ZM19 16.21C19 15.76 19.54 15.54 19.85 15.86L22.64 18.65C22.84 18.85 22.84 19.16 22.64 19.36L19.85 22.15C19.54 22.46 19 22.24 19 21.79V20H16C15.45 20 15 19.55 15 19C15 18.45 15.45 18 16 18H19V16.21Z" fill="currentColor"></path>
  </symbol>
  <symbol xmlns="http://www.w3.org/2000/svg" viewBox="0 0 24 24" id="ic_contacts_message">
    <path d="M21.99 4C21.99 2.9 21.1 2 20 2H4C2.9 2 2 2.9 2 4V16C2 17.1 2.9 18 4 18H18L22 22L21.99 4ZM17 14H7C6.45 14 6 13.55 6 13C6 12.45 6.45 12 7 12H17C17.55 12 18 12.45 18 13C18 13.55 17.55 14 17 14ZM17 11H7C6.45 11 6 10.55 6 10C6 9.45 6.45 9 7 9H17C17.55 9 18 9.45 18 10C18 10.55 17.55 11 17 11ZM17 8H7C6.45 8 6 7.55 6 7C6 6.45 6.45 6 7 6H17C17.55 6 18 6.45 18 7C18 7.55 17.55 8 17 8Z" fill="currentColor"></path>
  </symbol>
  <symbol xmlns="http://www.w3.org/2000/svg" viewBox="0 0 24 24" id="ic_contacts_phone">
    <path d="M11.9799 7H12.0099C12.5599 7 12.9999 6.56 12.9999 6.02V2.98C12.9999 2.44 12.5599 2 12.0199 2H11.9899C11.4399 2 10.9999 2.44 10.9999 2.98V6.01C10.9999 6.56 11.4399 7 11.9799 7ZM16.8999 9.11C17.2899 9.5 17.9099 9.5 18.2999 9.11C18.9199 8.48 19.8199 7.57 20.4499 6.94C20.8399 6.56 20.8399 5.93 20.4499 5.55C20.0699 5.17 19.4399 5.17 19.0599 5.55L16.8899 7.7C16.4999 8.08 16.4999 8.71 16.8899 9.09L16.8999 9.11ZM5.70991 9.1C6.08991 9.49 6.71991 9.49 7.10991 9.1C7.48991 8.72 7.48991 8.09 7.10991 7.71L4.95991 5.54C4.57991 5.15 3.94991 5.15 3.56991 5.54L3.54991 5.55C3.15991 5.94 3.15991 6.56 3.54991 6.94C4.17991 7.56 5.08991 8.47 5.70991 9.1ZM23.2899 16.23C16.8799 10.57 7.21991 10.57 0.809908 16.23C-0.0400923 16.98 -0.0400923 18.31 0.759908 19.11L1.97991 20.33C2.69991 21.05 3.83991 21.11 4.63991 20.48L6.63991 18.89C7.11991 18.51 7.39991 17.93 7.39991 17.32V14.72C10.4199 13.74 13.6899 13.73 16.7199 14.72V17.33C16.7199 17.94 16.9999 18.52 17.4799 18.9L19.4699 20.48C20.2699 21.11 21.4099 21.05 22.1299 20.33L23.3499 19.11C24.1399 18.31 24.1399 16.98 23.2899 16.23Z" fill="currentColor"></path>
  </symbol>
  <symbol xmlns="http://www.w3.org/2000/svg" viewBox="0 0 24 24" id="ic_email">
    <path d="M12.7201 2.02958C6.63007 1.59958 1.60007 6.62958 2.03007 12.7196C2.39007 18.0096 7.01007 21.9996 12.3101 21.9996H16.0001C16.5501 21.9996 17.0001 21.5496 17.0001 20.9996C17.0001 20.4496 16.5501 19.9996 16.0001 19.9996H12.3301C8.60007 19.9996 5.18007 17.5796 4.25007 13.9696C2.76007 8.16958 8.16007 2.75958 13.9601 4.25958C17.5801 5.17958 20.0001 8.59958 20.0001 12.3296V13.4296C20.0001 14.2196 19.2901 14.9996 18.5001 14.9996C17.7101 14.9996 17.0001 14.2196 17.0001 13.4296V12.1796C17.0001 9.66958 15.2201 7.40958 12.7401 7.05958C9.34007 6.56958 6.47007 9.50958 7.08007 12.9296C7.42007 14.8396 8.91007 16.4196 10.8001 16.8696C12.6401 17.2996 14.3901 16.7096 15.5401 15.5396C16.4301 16.7596 18.2101 17.3996 19.8401 16.7496C21.1801 16.2196 22.0001 14.8496 22.0001 13.4096V12.3196C22.0001 7.00958 18.0101 2.38958 12.7201 2.02958ZM12.0001 14.9996C10.3401 14.9996 9.00007 13.6596 9.00007 11.9996C9.00007 10.3396 10.3401 8.99958 12.0001 8.99958C13.6601 8.99958 15.0001 10.3396 15.0001 11.9996C15.0001 13.6596 13.6601 14.9996 12.0001 14.9996Z" fill="currentColor"></path>
  </symbol>
  <symbol xmlns="http://www.w3.org/2000/svg" viewBox="0 0 14 14" id="ic_instagram">
    <path fill-rule="evenodd" clip-rule="evenodd" d="M7.00058 0.961426C5.26242 0.961426 5.04429 0.969026 4.36161 1.00009C3.68027 1.03129 3.2152 1.13916 2.80827 1.29743C2.38733 1.4609 2.03026 1.67957 1.67452 2.03544C1.31852 2.39117 1.09985 2.74824 0.935846 3.16905C0.777177 3.57612 0.669176 4.04132 0.638509 4.7224C0.607976 5.40507 0.599976 5.62334 0.599976 7.36149C0.599976 9.09964 0.607709 9.31711 0.638643 9.99979C0.669976 10.6811 0.777844 11.1462 0.935979 11.5531C1.09958 11.9741 1.31825 12.3311 1.67412 12.6869C2.02972 13.0429 2.38679 13.2621 2.80747 13.4256C3.21467 13.5838 3.67987 13.6917 4.36108 13.7229C5.04376 13.754 5.26176 13.7616 6.99978 13.7616C8.73806 13.7616 8.95553 13.754 9.6382 13.7229C10.3195 13.6917 10.7851 13.5838 11.1924 13.4256C11.6132 13.2621 11.9697 13.0429 12.3253 12.6869C12.6813 12.3311 12.9 11.9741 13.064 11.5533C13.2213 11.1462 13.3293 10.681 13.3613 9.99992C13.392 9.31725 13.4 9.09964 13.4 7.36149C13.4 5.62334 13.392 5.4052 13.3613 4.72253C13.3293 4.04119 13.2213 3.57612 13.064 3.16918C12.9 2.74824 12.6813 2.39117 12.3253 2.03544C11.9693 1.67943 11.6133 1.46076 11.192 1.29743C10.7839 1.13916 10.3186 1.03129 9.63727 1.00009C8.9546 0.969026 8.73726 0.961426 6.99858 0.961426H7.00058ZM6.42641 2.11475C6.59681 2.11449 6.78695 2.11475 7.00055 2.11475C8.70937 2.11475 8.9119 2.12089 9.58671 2.15155C10.2107 2.18009 10.5494 2.28435 10.775 2.37196C11.0737 2.48796 11.2866 2.62663 11.5105 2.85063C11.7345 3.07463 11.8731 3.28797 11.9894 3.58664C12.077 3.81197 12.1814 4.15064 12.2098 4.77465C12.2405 5.44932 12.2471 5.65199 12.2471 7.36001C12.2471 9.06803 12.2405 9.27069 12.2098 9.94537C12.1813 10.5694 12.077 10.908 11.9894 11.1334C11.8734 11.4321 11.7345 11.6447 11.5105 11.8686C11.2865 12.0926 11.0738 12.2313 10.775 12.3473C10.5497 12.4353 10.2107 12.5393 9.58671 12.5678C8.91203 12.5985 8.70937 12.6051 7.00055 12.6051C5.2916 12.6051 5.08906 12.5985 4.41439 12.5678C3.79038 12.539 3.45171 12.4347 3.22598 12.3471C2.92731 12.2311 2.71397 12.0925 2.48997 11.8685C2.26597 11.6445 2.1273 11.4317 2.01103 11.1328C1.92343 10.9075 1.81903 10.5688 1.79063 9.94484C1.75996 9.27016 1.75383 9.06749 1.75383 7.35841C1.75383 5.64932 1.75996 5.44772 1.79063 4.77305C1.81916 4.14904 1.92343 3.81037 2.01103 3.58477C2.12703 3.2861 2.26597 3.07276 2.48997 2.84876C2.71397 2.62476 2.92731 2.48609 3.22598 2.36982C3.45158 2.28182 3.79038 2.17782 4.41439 2.14915C5.00479 2.12249 5.2336 2.11449 6.42641 2.11315V2.11475ZM10.4169 3.17743C9.99285 3.17743 9.64885 3.52104 9.64885 3.94517C9.64885 4.36918 9.99285 4.71318 10.4169 4.71318C10.8409 4.71318 11.1849 4.36918 11.1849 3.94517C11.1849 3.52117 10.8409 3.17743 10.4169 3.17743ZM7.00059 4.07477C5.1855 4.07477 3.71389 5.54639 3.71389 7.36147C3.71389 9.17656 5.1855 10.6475 7.00059 10.6475C8.81567 10.6475 10.2868 9.17656 10.2868 7.36147C10.2868 5.54639 8.81567 4.07477 7.00059 4.07477ZM7.00056 5.22812C8.17871 5.22812 9.13392 6.1832 9.13392 7.36147C9.13392 8.53962 8.17871 9.49483 7.00056 9.49483C5.82228 9.49483 4.86721 8.53962 4.86721 7.36147C4.86721 6.1832 5.82228 5.22812 7.00056 5.22812Z" fill="currentColor"></path>
  </symbol>
  <symbol xmlns="http://www.w3.org/2000/svg" viewBox="0 0 24 24" id="ic_location">
    <path d="M12 12C13.1 12 14 11.1 14 10C14 8.9 13.1 8 12 8C10.9 8 10 8.9 10 10C10 11.1 10.9 12 12 12ZM12 2C16.2 2 20 5.22 20 10.2C20 13.38 17.55 17.12 12.66 21.43C12.28 21.76 11.71 21.76 11.33 21.43C6.45 17.12 4 13.38 4 10.2C4 5.22 7.8 2 12 2Z" fill="currentColor"></path>
  </symbol>
  <symbol xmlns="http://www.w3.org/2000/svg" viewBox="0 0 25 19" id="ic_menu">
    <path d="M0 1C0 0.447715 0.447715 0 1 0H24C24.5523 0 25 0.447715 25 1V2C25 2.55228 24.5523 3 24 3H1C0.447716 3 0 2.55228 0 2V1Z" fill="currentColor"></path>
    <rect y="8" width="25" height="3" rx="1" fill="currentColor"></rect>
    <rect y="16" width="25" height="3" rx="1" fill="currentColor"></rect>
  </symbol>
  <symbol xmlns="http://www.w3.org/2000/svg" viewBox="0 0 24 24" id="ic_notice">
    <path d="M12 7C12.55 7 13 7.45 13 8V12C13 12.55 12.55 13 12 13C11.45 13 11 12.55 11 12V8C11 7.45 11.45 7 12 7ZM11.99 2C6.47 2 2 6.48 2 12C2 17.52 6.47 22 11.99 22C17.52 22 22 17.52 22 12C22 6.48 17.52 2 11.99 2ZM12 20C7.58 20 4 16.42 4 12C4 7.58 7.58 4 12 4C16.42 4 20 7.58 20 12C20 16.42 16.42 20 12 20ZM13 17H11V15H13V17Z" fill="currentColor"></path>
  </symbol>
  <symbol xmlns="http://www.w3.org/2000/svg" viewBox="0 0 24 24" id="ic_phone">
    <path d="M20 3H13C12.45 3 12 3.45 12 4V13L15 10H20C20.55 10 21 9.55 21 9V4C21 3.45 20.55 3 20 3ZM19.23 15.26L16.69 14.97C16.08 14.9 15.48 15.11 15.05 15.54L13.21 17.38C10.38 15.94 8.06004 13.63 6.62004 10.79L8.47004 8.94C8.90004 8.51 9.11004 7.91 9.04004 7.3L8.75004 4.78C8.63004 3.77 7.78004 3.01 6.76004 3.01H5.03004C3.90004 3.01 2.96004 3.95 3.03004 5.08C3.56004 13.62 10.39 20.44 18.92 20.97C20.05 21.04 20.99 20.1 20.99 18.97V17.24C21 16.23 20.24 15.38 19.23 15.26Z" fill="currentColor"></path>
  </symbol>
  <symbol xmlns="http://www.w3.org/2000/svg" viewBox="0 0 176 149" id="ic_quote">
    <path fill-rule="evenodd" clip-rule="evenodd" d="M0.771866 125.729C27.0171 112.8 40.1395 97.6096 40.1395 80.1562C28.953 78.8633 19.7028 74.2846 12.3885 66.4197C5.0743 58.5549 1.41725 49.4512 1.41725 39.1085C1.41725 28.1193 4.96675 18.854 12.0659 11.3124C19.165 3.77075 28.0925 0 38.8488 0C50.8958 0 61.3292 4.90198 70.1493 14.7061C78.9694 24.5102 83.3794 36.415 83.3794 50.4208C83.3794 92.4384 59.9312 125.298 13.0339 149L0.771866 125.729ZM93.3924 125.729C119.853 112.8 133.083 97.6096 133.083 80.1562C121.681 78.8633 112.323 74.2846 105.009 66.4197C97.6949 58.5549 94.0378 49.4512 94.0378 39.1085C94.0378 28.1193 97.6411 18.854 104.848 11.3124C112.054 3.77075 121.036 0 131.792 0C143.839 0 154.219 4.90198 162.931 14.7061C171.644 24.5102 176 36.415 176 50.4208C176 92.4384 152.659 125.298 105.977 149L93.3924 125.729Z" fill="currentColor"></path>
  </symbol>
  <symbol xmlns="http://www.w3.org/2000/svg" viewBox="0 0 20 20" id="ic_rouble">
    <path d="M8.358 15V13.096H7.14V12.186H8.358V10.94H7.14V9.876H8.358V5.004H10.99C12.2127 5.004 13.118 5.25133 13.706 5.746C14.3033 6.24067 14.602 6.95933 14.602 7.902C14.602 8.854 14.28 9.60067 13.636 10.142C12.992 10.674 12.0447 10.94 10.794 10.94H9.618V12.186H11.928V13.096H9.618V15H8.358ZM10.612 9.876C11.4613 9.876 12.1193 9.736 12.586 9.456C13.062 9.176 13.3 8.672 13.3 7.944C13.3 7.30933 13.104 6.838 12.712 6.53C12.32 6.222 11.7087 6.068 10.878 6.068H9.618V9.876H10.612Z" fill="currentColor"></path>
    <circle cx="10" cy="10" r="9" stroke="currentColor" stroke-width="2" fill="none"></circle>
  </symbol>
  <symbol xmlns="http://www.w3.org/2000/svg" viewBox="0 0 24 24" id="ic_search">
    <path d="M15.5006 13.9996H14.7106L14.4306 13.7296C15.6306 12.3296 16.2506 10.4196 15.9106 8.38965C15.4406 5.60965 13.1206 3.38965 10.3206 3.04965C6.09063 2.52965 2.53063 6.08965 3.05063 10.3196C3.39063 13.1196 5.61063 15.4396 8.39063 15.9096C10.4206 16.2496 12.3306 15.6296 13.7306 14.4296L14.0006 14.7096V15.4996L18.2506 19.7496C18.6606 20.1596 19.3306 20.1596 19.7406 19.7496C20.1506 19.3396 20.1506 18.6696 19.7406 18.2596L15.5006 13.9996ZM9.50063 13.9996C7.01063 13.9996 5.00063 11.9896 5.00063 9.49965C5.00063 7.00965 7.01063 4.99965 9.50063 4.99965C11.9906 4.99965 14.0006 7.00965 14.0006 9.49965C14.0006 11.9896 11.9906 13.9996 9.50063 13.9996Z" fill="currentColor"></path>
  </symbol>
  <symbol xmlns="http://www.w3.org/2000/svg" viewBox="0 0 24 24" id="ic_share_fb">
    <path fill-rule="evenodd" clip-rule="evenodd" d="M2 6C2 4.93913 2.42143 3.92172 3.17157 3.17157C3.92172 2.42143 4.93913 2 6 2H18C19.0609 2 20.0783 2.42143 20.8284 3.17157C21.5786 3.92172 22 4.93913 22 6V18C22 19.0609 21.5786 20.0783 20.8284 20.8284C20.0783 21.5786 19.0609 22 18 22H6C4.93913 22 3.92172 21.5786 3.17157 20.8284C2.42143 20.0783 2 19.0609 2 18V6ZM6 4C5.46957 4 4.96086 4.21071 4.58579 4.58579C4.21071 4.96086 4 5.46957 4 6V18C4 18.5304 4.21071 19.0391 4.58579 19.4142C4.96086 19.7893 5.46957 20 6 20H12V13H11C10.7348 13 10.4804 12.8946 10.2929 12.7071C10.1054 12.5196 10 12.2652 10 12C10 11.7348 10.1054 11.4804 10.2929 11.2929C10.4804 11.1054 10.7348 11 11 11H12V9.5C12 8.57174 12.3687 7.6815 13.0251 7.02513C13.6815 6.36875 14.5717 6 15.5 6H16.1C16.3652 6 16.6196 6.10536 16.8071 6.29289C16.9946 6.48043 17.1 6.73478 17.1 7C17.1 7.26522 16.9946 7.51957 16.8071 7.70711C16.6196 7.89464 16.3652 8 16.1 8H15.5C15.303 8 15.108 8.0388 14.926 8.11418C14.744 8.18956 14.5786 8.30005 14.4393 8.43934C14.3001 8.57863 14.1896 8.74399 14.1142 8.92597C14.0388 9.10796 14 9.30302 14 9.5V11H16.1C16.3652 11 16.6196 11.1054 16.8071 11.2929C16.9946 11.4804 17.1 11.7348 17.1 12C17.1 12.2652 16.9946 12.5196 16.8071 12.7071C16.6196 12.8946 16.3652 13 16.1 13H14V20H18C18.5304 20 19.0391 19.7893 19.4142 19.4142C19.7893 19.0391 20 18.5304 20 18V6C20 5.46957 19.7893 4.96086 19.4142 4.58579C19.0391 4.21071 18.5304 4 18 4H6Z" fill="currentColor"></path>
  </symbol>
  <symbol xmlns="http://www.w3.org/2000/svg" viewBox="0 0 24 24" id="ic_share_mail">
    <path fill-rule="evenodd" clip-rule="evenodd" d="M12 4C10.8037 4.00058 9.62273 4.26946 8.54408 4.78685C7.46543 5.30423 6.51655 6.05693 5.76729 6.98956C5.01803 7.92218 4.48747 9.01096 4.21468 10.1758C3.94188 11.3406 3.93379 12.5517 4.19101 13.72C4.44822 14.8884 4.96419 15.9842 5.70093 16.9267C6.43766 17.8692 7.37641 18.6346 8.44805 19.1663C9.5197 19.698 10.697 19.9827 11.8932 19.9992C13.0894 20.0158 14.274 19.7639 15.36 19.262C15.6007 19.1503 15.8759 19.1389 16.125 19.2301C16.3741 19.3213 16.5768 19.5078 16.6885 19.7485C16.8002 19.9892 16.8116 20.2644 16.7204 20.5135C16.6292 20.7626 16.4427 20.9653 16.202 21.077C14.8852 21.6869 13.4512 22.0019 12 22C6.477 22 2 17.523 2 12C2 6.477 6.477 2 12 2C17.523 2 22 6.477 22 12V12.019C21.958 14.209 21.26 15.684 20.233 16.599C19.229 17.493 18.04 17.737 17.21 17.737C16.018 17.737 14.971 17.117 14.372 16.183C12.296 18.018 9.302 18.422 7.454 16.368C5.528 14.228 6.065 10.655 8.12 8.372C10.108 6.163 13.723 5.31 15.798 7.866C15.888 7.62415 16.068 7.42646 16.3004 7.31427C16.5328 7.20208 16.7996 7.18407 17.045 7.264C17.2903 7.34394 17.4953 7.51564 17.617 7.74319C17.7387 7.97075 17.7677 8.23654 17.698 8.485C17.106 10.561 16.408 12.618 15.885 14.712C15.9613 15.0054 16.1328 15.2651 16.3726 15.4506C16.6124 15.6361 16.9069 15.7368 17.21 15.737C17.69 15.737 18.358 15.591 18.903 15.106C19.423 14.643 19.965 13.752 20 11.991C19.9976 9.87083 19.1537 7.83831 17.6537 6.33996C16.1536 4.84162 14.1202 4 12 4ZM14.353 12.914C14.423 12.674 14.606 12.033 14.82 11.286C15.053 10.466 14.75 9.68 14.112 8.97C13.192 7.949 11.22 7.917 9.607 9.71C7.984 11.512 7.925 13.901 8.941 15.03C9.86 16.051 11.832 16.083 13.446 14.29C13.819 13.876 14.17 13.446 14.353 12.914Z" fill="currentColor"></path>
  </symbol>
  <symbol xmlns="http://www.w3.org/2000/svg" viewBox="0 0 24 24" id="ic_share_skype">
    <path fill-rule="evenodd" clip-rule="evenodd" d="M2.99978 6.5C2.99972 5.80893 3.20425 5.13331 3.58758 4.5583C3.97091 3.98328 4.51589 3.53462 5.15382 3.26886C5.79175 3.0031 6.49407 2.93214 7.17227 3.06493C7.85047 3.19771 8.47418 3.52829 8.96478 4.015L9.37178 4.419L9.92678 4.271C11.2839 3.90633 12.7131 3.90556 14.0706 4.26878C15.4282 4.63201 16.666 5.3464 17.6597 6.34007C18.6534 7.33375 19.3678 8.57163 19.731 9.92914C20.0942 11.2866 20.0935 12.7159 19.7288 14.073L19.5808 14.628L19.9848 15.035C20.6412 15.6914 21.01 16.5817 21.01 17.51C21.01 18.4383 20.6412 19.3286 19.9848 19.985C19.3284 20.6414 18.4381 21.0102 17.5098 21.0102C16.5815 21.0102 15.6912 20.6414 15.0348 19.985L14.6278 19.581L14.0728 19.729C12.7156 20.0939 11.2862 20.0948 9.92857 19.7317C8.57091 19.3686 7.33287 18.6542 6.33906 17.6605C5.34525 16.6668 4.63076 15.4288 4.26749 14.0712C3.90423 12.7136 3.90502 11.2842 4.26978 9.927L4.41778 9.372L4.01378 8.965C3.3626 8.3101 2.99791 7.42355 2.99978 6.5ZM6.49978 1C5.46289 1.00005 4.44714 1.29319 3.56967 1.84563C2.69221 2.39808 1.98878 3.1873 1.54052 4.12229C1.09226 5.05728 0.917434 6.09993 1.0362 7.13C1.15497 8.16006 1.5625 9.13557 2.21178 9.944C2.07056 10.6202 1.99952 11.3092 1.99978 12C1.99978 17.523 6.47678 22 11.9998 22C12.7038 22 13.3918 21.927 14.0558 21.788C15.1125 22.6362 16.4452 23.0645 17.7983 22.9907C19.1514 22.9169 20.4295 22.3461 21.3877 21.388C22.3459 20.4298 22.9166 19.1516 22.9905 17.7985C23.0643 16.4454 22.636 15.1128 21.7878 14.056C21.9278 13.392 21.9998 12.704 21.9998 12C21.9998 6.477 17.5228 2 11.9998 2C11.2958 2 10.6078 2.073 9.94378 2.212C8.96807 1.42621 7.75257 0.998459 6.49978 1ZM10.6418 9.33C10.7748 9.077 11.2288 8.75 11.9318 8.75C13.1388 8.75 13.8038 9.222 14.1098 9.456C14.3206 9.61699 14.5868 9.68762 14.8497 9.65237C15.1126 9.61711 15.3508 9.47885 15.5118 9.268C15.6728 9.05716 15.7434 8.79099 15.7081 8.52807C15.6729 8.26514 15.5346 8.02699 15.3238 7.866C14.8338 7.492 13.7468 6.75 11.9318 6.75C10.6638 6.75 9.42478 7.344 8.82378 8.49C8.61982 8.87187 8.51959 9.30057 8.5331 9.73328C8.54661 10.166 8.67339 10.5876 8.90078 10.956C9.32978 11.669 10.0728 12.178 10.9488 12.414L12.5028 12.832C13.1008 12.993 14.0098 13.549 13.6828 14.298C13.4848 14.75 12.7858 15.25 11.7558 15.25C10.8658 15.25 10.0798 15.096 9.35578 14.544C9.14468 14.3868 8.8801 14.3191 8.61943 14.3557C8.35877 14.3923 8.12304 14.5302 7.96339 14.7395C7.80373 14.9487 7.73303 15.2125 7.76661 15.4736C7.8002 15.7346 7.93536 15.9719 8.14278 16.134C9.11278 16.874 10.1198 17.25 11.5348 17.25C13.1138 17.25 14.8368 16.652 15.5148 15.1C15.9148 14.185 15.7828 13.226 15.2848 12.457C14.5158 11.273 13.1938 10.93 11.9128 10.599C11.7646 10.5608 11.6166 10.5218 11.4688 10.482C10.9428 10.341 10.3288 9.929 10.6418 9.33Z" fill="currentColor"></path>
  </symbol>
  <symbol xmlns="http://www.w3.org/2000/svg" viewBox="0 0 25 22" id="ic_share_telegram">
    <path d="M25 1.17956C24.8845 1.71632 24.769 2.25307 24.6535 2.78982C23.9769 6.30312 23.3003 9.81642 22.6238 13.3134C22.1287 15.8834 21.6337 18.437 21.1387 21.0069C21.0561 21.4298 20.9076 21.7714 20.4786 21.934C20.0991 22.0804 19.769 21.9666 19.439 21.7551C17.4918 20.4539 15.5281 19.1527 13.581 17.8352C13.3334 17.6725 13.1849 17.6725 12.9539 17.8515C11.9803 18.5671 11.0067 19.2503 10.0331 19.9334C9.27407 20.4702 8.56451 20.2099 8.31699 19.3153C7.78894 17.331 7.24439 15.3466 6.73284 13.3622C6.68334 13.1996 6.61733 13.1183 6.46882 13.0695C4.57115 12.3538 2.67348 11.6381 0.775803 10.9225C0.165248 10.6947 -0.0987761 10.2718 0.0332358 9.71883C0.132245 9.34472 0.396269 9.13328 0.7428 8.98689C2.60747 8.25495 4.48864 7.52302 6.35331 6.79108C12.0298 4.59527 17.7228 2.36693 23.4159 0.138584C23.6634 0.0409927 23.9439 -0.0240684 24.1914 0.00846215C24.6205 0.0409927 24.8515 0.366298 25 0.740399C25 0.886786 25 1.03317 25 1.17956ZM11.5348 14.1267C14.175 15.8834 16.7823 17.64 19.4225 19.3967C20.4291 14.1918 21.4357 9.01942 22.4258 3.84706C22.4093 3.84706 22.3928 3.8308 22.3763 3.8308C18.7789 7.26277 15.1651 10.6785 11.5348 14.1267ZM8.94404 14.0129C9.10906 13.8014 9.25757 13.59 9.43909 13.411C12.7559 10.2556 16.0727 7.11638 19.3895 3.96092C19.4555 3.89586 19.538 3.8308 19.6205 3.76574C19.604 3.74947 19.5875 3.73321 19.5875 3.71694C14.307 5.78263 9.04305 7.84832 3.71307 9.94654C3.81208 9.99533 3.87808 10.0116 3.92759 10.0279C5.1982 10.4996 6.45232 10.9875 7.72293 11.4592C8.13547 11.6056 8.3995 11.8821 8.4985 12.305C8.63052 12.9068 8.79553 13.4761 8.94404 14.0129ZM9.91763 17.64C10.4787 17.2496 10.9902 16.8755 11.5348 16.5014C10.7427 15.9647 9.98364 15.4605 9.19157 14.9237C9.42259 15.8183 9.67011 16.7129 9.91763 17.64Z" fill="currentColor"></path>
  </symbol>
  <symbol xmlns="http://www.w3.org/2000/svg" viewBox="0 0 24 24" id="ic_share_twitter">
    <path fill-rule="evenodd" clip-rule="evenodd" d="M14.8499 5.65787C14.3931 5.65768 13.9419 5.75892 13.5289 5.95429C13.116 6.14965 12.7515 6.43427 12.4619 6.78759C12.1723 7.14091 11.9648 7.55412 11.8543 7.99739C11.7438 8.44067 11.7331 8.90295 11.8229 9.35087C11.8539 9.50607 11.8475 9.66639 11.8044 9.81866C11.7613 9.97094 11.6827 10.1108 11.575 10.2268C11.4674 10.3428 11.3337 10.4315 11.1851 10.4858C11.0364 10.54 10.877 10.5582 10.7199 10.5389C8.56965 10.2747 6.54264 9.39082 4.88592 7.99487C4.91692 8.59687 5.12591 9.23687 5.57891 9.90687L6.25791 10.9109L5.14292 11.3859L4.92791 11.4779C5.08791 11.6609 5.27991 11.8479 5.49491 12.0329C5.78233 12.2789 6.08639 12.5047 6.40491 12.7089L6.41591 12.7159H6.41691L7.96491 13.6549L6.34491 14.4649C6.26491 14.5049 6.18491 14.5409 6.10491 14.5729C6.45325 14.8623 6.837 15.1063 7.24691 15.2989L8.63691 15.9559L7.47291 16.9599C6.83791 17.5079 6.19891 17.9169 5.36991 18.1329C6.64135 18.8101 8.06036 19.1629 9.50091 19.1599C14.3069 19.1599 18.1769 15.3249 18.1769 10.6259V10.1059L18.6019 9.80687C19.2659 9.34087 19.7349 8.71087 20.0709 7.98987H17.9109L17.6389 7.41987C17.3884 6.89254 16.9935 6.44707 16.5 6.13518C16.0065 5.82329 15.4347 5.65778 14.8509 5.65787H14.8499ZM3.56991 12.9579C3.47555 13.0659 3.40554 13.193 3.36465 13.3306C3.32376 13.4681 3.31293 13.6128 3.33291 13.7549C3.44591 14.5559 3.92491 15.2459 4.45491 15.7729C4.59891 15.9159 4.75291 16.0529 4.91491 16.1839L4.83992 16.2039C4.35892 16.3239 3.70991 16.3489 2.62891 16.2439C2.42477 16.2238 2.21941 16.2671 2.04067 16.3677C1.86193 16.4683 1.71845 16.6215 1.6297 16.8064C1.54095 16.9913 1.51121 17.1991 1.54452 17.4015C1.57783 17.6039 1.67258 17.7911 1.81591 17.9379C2.81669 18.9608 4.01221 19.7729 5.33194 20.3263C6.65167 20.8797 8.06886 21.1631 9.49991 21.1599C15.2129 21.1599 19.8989 16.7239 20.1639 11.1259C21.4539 10.0429 22.0989 8.57587 22.4469 7.24287C22.4856 7.09492 22.4898 6.94007 22.4593 6.79022C22.4288 6.64038 22.3643 6.49953 22.2708 6.37851C22.1773 6.25749 22.0573 6.15953 21.92 6.09216C21.7827 6.02478 21.6318 5.98979 21.4789 5.98987H19.1259C18.5504 5.09619 17.7093 4.40531 16.7208 4.0143C15.7324 3.6233 14.6462 3.55182 13.6151 3.80991C12.5839 4.06801 11.6595 4.64271 10.9718 5.45325C10.2841 6.26379 9.86762 7.26943 9.78091 8.32887C7.93757 7.84902 6.28825 6.80967 5.05991 5.35387C4.95113 5.22525 4.81162 5.1262 4.65433 5.0659C4.49704 5.0056 4.32707 4.98602 4.16019 5.00896C3.99331 5.0319 3.83492 5.09663 3.69974 5.19713C3.56456 5.29764 3.45695 5.43067 3.38691 5.58387C2.78091 6.90587 2.66491 8.42987 3.34091 9.97987L3.10691 10.0799C2.88299 10.1753 2.70155 10.3491 2.59662 10.5687C2.49168 10.7884 2.47046 11.0387 2.53691 11.2729C2.72291 11.9249 3.14091 12.5009 3.56891 12.9579H3.56991Z" fill="currentColor"></path>
  </symbol>
  <symbol xmlns="http://www.w3.org/2000/svg" viewBox="0 0 24 24" id="ic_share_whatsapp">
    <path fill-rule="evenodd" clip-rule="evenodd" d="M3.50042 12C3.50042 10.3189 3.99893 8.67547 4.93293 7.27765C5.86692 5.87984 7.19444 4.79037 8.74761 4.14702C10.3008 3.50368 12.0098 3.33535 13.6587 3.66333C15.3075 3.9913 16.8221 4.80085 18.0108 5.98959C19.1996 7.17834 20.0091 8.69289 20.3371 10.3417C20.6651 11.9906 20.4967 13.6996 19.8534 15.2528C19.21 16.806 18.1206 18.1335 16.7228 19.0675C15.3249 20.0015 13.6816 20.5 12.0004 20.5C10.3923 20.5029 8.81665 20.047 7.45842 19.186C7.3376 19.1096 7.2018 19.0599 7.06017 19.0404C6.91855 19.021 6.77439 19.0321 6.63742 19.073L3.75742 19.932L4.84242 17.395C4.90548 17.2473 4.93205 17.0866 4.91986 16.9264C4.90768 16.7663 4.8571 16.6115 4.77242 16.475C3.93835 15.1316 3.49767 13.5813 3.50042 12ZM12.0004 1.5C6.20142 1.5 1.50042 6.201 1.50042 12C1.50042 13.838 1.97342 15.568 2.80542 17.073L1.08042 21.107C1.00576 21.2817 0.982431 21.4741 1.01317 21.6617C1.04391 21.8492 1.12745 22.0241 1.25399 22.1658C1.38054 22.3076 1.54486 22.4104 1.7277 22.4621C1.91055 22.5139 2.10435 22.5124 2.28642 22.458L6.78642 21.116C8.37344 22.0255 10.1713 22.5027 12.0004 22.5C17.7994 22.5 22.5004 17.799 22.5004 12C22.5004 6.201 17.7994 1.5 12.0004 1.5ZM14.2934 14.182L12.9784 15.108C12.2539 14.6912 11.5886 14.1789 11.0004 13.585C10.369 12.9544 9.82296 12.2437 9.37642 11.471L10.2114 10.762C10.3854 10.6144 10.5037 10.4117 10.5466 10.1876C10.5895 9.96351 10.5545 9.73147 10.4474 9.53L9.38342 7.53C9.31261 7.39718 9.21274 7.28205 9.09124 7.1932C8.96974 7.10436 8.82975 7.04408 8.68171 7.01688C8.53367 6.98967 8.3814 6.99624 8.23625 7.03608C8.0911 7.07593 7.95682 7.14803 7.84342 7.247L7.52742 7.522C6.76842 8.184 6.31942 9.272 6.69142 10.374C7.28992 12.1171 8.28032 13.6997 9.58642 15C11.3994 16.813 13.2414 17.527 14.3194 17.805C15.1874 18.028 16.0084 17.729 16.5874 17.257L17.1784 16.775C17.303 16.6734 17.4013 16.5432 17.4649 16.3956C17.5285 16.2479 17.5555 16.0871 17.5438 15.9268C17.532 15.7664 17.4817 15.6113 17.3972 15.4745C17.3127 15.3377 17.1965 15.2233 17.0584 15.141L15.3804 14.141C15.2145 14.042 15.0234 13.9932 14.8303 14.0004C14.6373 14.0077 14.4504 14.0708 14.2924 14.182H14.2934Z" fill="currentColor"></path>
  </symbol>
  <symbol xmlns="http://www.w3.org/2000/svg" viewBox="0 0 19 19" id="ic_skype">
    <path fill-rule="evenodd" clip-rule="evenodd" d="M1.72719 4.75025C1.72714 4.15338 1.90379 3.56986 2.23487 3.07323C2.56594 2.57661 3.03664 2.1891 3.58761 1.95957C4.13858 1.73004 4.74517 1.66875 5.33092 1.78344C5.91667 1.89812 6.45537 2.18364 6.8791 2.604L7.23062 2.95293L7.70996 2.8251C8.88209 2.51014 10.1165 2.50947 11.289 2.82318C12.4614 3.13689 13.5306 3.7539 14.3888 4.61212C15.247 5.47033 15.8641 6.53947 16.1778 7.71192C16.4915 8.88438 16.4908 10.1188 16.1758 11.2909L16.048 11.7702L16.397 12.1218C16.9639 12.6887 17.2824 13.4576 17.2824 14.2594C17.2824 15.0611 16.9639 15.83 16.397 16.397C15.83 16.9639 15.0611 17.2824 14.2593 17.2824C13.4576 17.2824 12.6886 16.9639 12.1217 16.397L11.7702 16.0481L11.2908 16.1759C10.1186 16.491 8.88411 16.4918 7.71151 16.1782C6.53892 15.8646 5.46963 15.2476 4.61129 14.3894C3.75295 13.5311 3.13585 12.4619 2.8221 11.2894C2.50835 10.1168 2.50903 8.88229 2.82407 7.71008L2.9519 7.23074L2.60297 6.87922C2.04055 6.31359 1.72557 5.5479 1.72719 4.75025ZM4.7501 3.60514e-06C3.85455 4.0057e-05 2.97726 0.253226 2.2194 0.730358C1.46154 1.20749 0.853997 1.88913 0.466841 2.69666C0.0796848 3.50419 -0.0713114 4.40471 0.0312682 5.29436C0.133848 6.184 0.485825 7.02653 1.0466 7.72476C0.924633 8.30879 0.863274 8.90386 0.863499 9.50049C0.863499 14.2706 4.73024 18.1373 9.50039 18.1373C10.1084 18.1373 10.7026 18.0742 11.2761 17.9542C12.1888 18.6868 13.3399 19.0567 14.5085 18.9929C15.6771 18.9292 16.7811 18.4362 17.6087 17.6087C18.4362 16.7811 18.9292 15.6772 18.9929 14.5086C19.0567 13.3399 18.6868 12.1889 17.9542 11.2762C18.0751 10.7027 18.1373 10.1085 18.1373 9.50049C18.1373 4.73038 14.2705 0.863684 9.50039 0.863684C8.89235 0.863684 8.29814 0.926733 7.72465 1.04678C6.88194 0.368111 5.83212 -0.00133135 4.7501 3.60514e-06ZM8.3275 7.19446C8.44237 6.97595 8.83449 6.69353 9.44166 6.69353C10.4841 6.69353 11.0585 7.10118 11.3228 7.30329C11.5049 7.44233 11.7348 7.50333 11.9619 7.47288C12.1889 7.44243 12.3946 7.32302 12.5337 7.14091C12.6727 6.95881 12.7337 6.72893 12.7033 6.50185C12.6728 6.27476 12.5534 6.06908 12.3713 5.93003C11.9481 5.60702 11.0093 4.96617 9.44166 4.96617C8.3465 4.96617 7.27639 5.47919 6.75732 6.46897C6.58115 6.79879 6.49459 7.16904 6.50626 7.54277C6.51793 7.91649 6.62742 8.28063 6.82382 8.59881C7.19434 9.21461 7.83606 9.65422 8.59266 9.85805L9.93483 10.2191C10.4513 10.3581 11.2364 10.8383 10.954 11.4852C10.783 11.8756 10.1793 12.3075 9.28965 12.3075C8.52097 12.3075 7.84211 12.1744 7.2168 11.6977C7.03447 11.5619 6.80596 11.5035 6.58082 11.5351C6.35569 11.5667 6.15209 11.6858 6.0142 11.8665C5.87631 12.0472 5.81525 12.2751 5.84425 12.5005C5.87326 12.726 5.99 12.931 6.16914 13.0709C7.00692 13.7101 7.87666 14.0348 9.09878 14.0348C10.4625 14.0348 11.9507 13.5183 12.5363 12.1779C12.8817 11.3876 12.7677 10.5594 12.3376 9.89519C11.6734 8.87259 10.5316 8.57635 9.42525 8.29047C9.29725 8.25745 9.16943 8.22376 9.04177 8.18942C8.58747 8.06764 8.05717 7.71181 8.3275 7.19446Z" fill="currentColor"></path>
  </symbol>
  <symbol xmlns="http://www.w3.org/2000/svg" viewBox="0 0 24 24" id="ic_slider_arrow">
    <path d="M7.37999 21.0098C7.86999 21.4998 8.65999 21.4998 9.14999 21.0098L17.46 12.6998C17.85 12.3098 17.85 11.6798 17.46 11.2898L9.14999 2.9798C8.65999 2.4898 7.86999 2.4898 7.37999 2.9798C6.88999 3.4698 6.88999 4.2598 7.37999 4.7498L14.62 11.9998L7.36999 19.2498C6.88999 19.7298 6.88999 20.5298 7.37999 21.0098Z" fill="currentColor"></path>
  </symbol>
  <symbol xmlns="http://www.w3.org/2000/svg" viewBox="0 0 13 11" id="ic_telegram">
    <path d="M0.879933 4.56664C4.3159 3.06964 6.60708 2.08273 7.75348 1.6059C11.0267 0.244464 11.7068 0.00796821 12.1501 7.57087e-05C12.2476 -0.00155858 12.4656 0.022605 12.6069 0.137191C12.7261 0.233946 12.7589 0.364647 12.7746 0.456381C12.7903 0.548115 12.8099 0.757086 12.7943 0.920371C12.6169 2.78408 11.8494 7.30679 11.459 9.39417C11.2938 10.2774 10.9684 10.5736 10.6535 10.6026C9.96902 10.6655 9.44928 10.1502 8.78635 9.71566C7.74899 9.03566 7.16296 8.61236 6.15602 7.9488C4.99234 7.18195 5.74671 6.76048 6.40989 6.07167C6.58345 5.89141 9.59918 3.14837 9.65755 2.89953C9.66485 2.86841 9.67162 2.7524 9.6027 2.69115C9.53379 2.62989 9.43207 2.65084 9.35867 2.6675C9.25463 2.69112 7.59744 3.78645 4.38711 5.95352C3.91673 6.27652 3.49066 6.4339 3.10893 6.42565C2.68809 6.41656 1.87858 6.18771 1.27678 5.99209C0.538662 5.75215 -0.0479827 5.6253 0.00310092 5.21782C0.0297084 5.00557 0.321986 4.78851 0.879933 4.56664Z" fill="currentColor"></path>
  </symbol>
  <symbol xmlns="http://www.w3.org/2000/svg" viewBox="0 0 20 20" id="ic_time">
    <path d="M9.99 0C4.47 0 0 4.48 0 10C0 15.52 4.47 20 9.99 20C15.52 20 20 15.52 20 10C20 4.48 15.52 0 9.99 0ZM10 18C5.58 18 2 14.42 2 10C2 5.58 5.58 2 10 2C14.42 2 18 5.58 18 10C18 14.42 14.42 18 10 18ZM9.78 5H9.72C9.32 5 9 5.32 9 5.72V10.44C9 10.79 9.18 11.12 9.49 11.3L13.64 13.79C13.98 13.99 14.42 13.89 14.62 13.55C14.83 13.21 14.72 12.76 14.37 12.56L10.5 10.26V5.72C10.5 5.32 10.18 5 9.78 5V5Z" fill="currentColor"></path>
  </symbol>
  <symbol xmlns="http://www.w3.org/2000/svg" viewBox="0 0 13 13" id="ic_whatsapp">
    <path fill-rule="evenodd" clip-rule="evenodd" d="M10.88 1.84C9.68001 0.64 8.08 0 6.4 0C2.88 0 0 2.88 0 6.4C0 7.52 0.320005 8.64 0.880005 9.6L0 12.8L3.36001 11.92C4.32001 12.4 5.36 12.72 6.4 12.72C9.92 12.72 12.8 9.84 12.8 6.32C12.8 4.64 12.08 3.04 10.88 1.84ZM6.4 11.68C5.44 11.68 4.48 11.44 3.68 10.96L3.52 10.88L1.52 11.44L2.08 9.52L1.92 9.28C1.36 8.4 1.12 7.44 1.12 6.48C1.12 3.6 3.52 1.2 6.4 1.2C7.84 1.2 9.12001 1.76 10.16 2.72C11.2 3.76 11.68 5.04 11.68 6.48C11.68 9.28 9.36 11.68 6.4 11.68ZM9.28001 7.68C9.12 7.6 8.32001 7.2 8.16001 7.2C8.00001 7.12 7.91999 7.12 7.83999 7.28C7.75999 7.44 7.44001 7.76 7.36001 7.92C7.28001 8 7.19999 8 7.03999 8C6.87999 7.92 6.40001 7.76 5.76001 7.2C5.28001 6.8 4.96 6.24 4.88 6.08C4.8 5.92 4.88001 5.84 4.96001 5.76C5.04001 5.68 5.12 5.6 5.2 5.52C5.28 5.44 5.28001 5.36 5.36001 5.28C5.44001 5.2 5.36001 5.12 5.36001 5.04C5.36001 4.96 5.04 4.16 4.88 3.84C4.8 3.6 4.64001 3.6 4.56001 3.6C4.48001 3.6 4.39999 3.6 4.23999 3.6C4.15999 3.6 3.99999 3.6 3.83999 3.76C3.67999 3.92 3.28 4.32 3.28 5.12C3.28 5.92 3.84 6.64 3.92 6.8C4 6.88 5.03999 8.56 6.63999 9.2C7.99999 9.76 8.24001 9.6 8.56001 9.6C8.88001 9.6 9.52 9.2 9.6 8.88C9.76 8.48 9.76 8.16 9.68001 8.16C9.60001 7.76 9.44001 7.76 9.28001 7.68Z" fill="currentColor"></path>
  </symbol>
  <symbol xmlns="http://www.w3.org/2000/svg" viewBox="0 0 14 11" id="ic_youtube">
    <path fill-rule="evenodd" clip-rule="evenodd" d="M12.0008 1.23609C12.5515 1.38722 12.9853 1.83253 13.1325 2.39804C13.4 3.42295 13.4 5.56143 13.4 5.56143C13.4 5.56143 13.4 7.69983 13.1325 8.72482C12.9853 9.29032 12.5515 9.73563 12.0008 9.88684C11.0027 10.1614 6.99998 10.1614 6.99998 10.1614C6.99998 10.1614 2.99728 10.1614 1.9991 9.88684C1.44834 9.73563 1.01459 9.29032 0.867394 8.72482C0.599976 7.69983 0.599976 5.56143 0.599976 5.56143C0.599976 5.56143 0.599976 3.42295 0.867394 2.39804C1.01459 1.83253 1.44834 1.38722 1.9991 1.23609C2.99728 0.961426 6.99998 0.961426 6.99998 0.961426C6.99998 0.961426 11.0027 0.961426 12.0008 1.23609ZM5.79999 3.76138V7.76138L8.99999 5.76146L5.79999 3.76138Z" fill="currentColor"></path>
  </symbol>
</svg>